<svg version="1.1" xmlns="http://www.w3.org/2000/svg" xmlns:xlink="http://www.w3.org/1999/xlink" width="73.66799" height="64.13956" viewBox="0,0,73.66799,64.13956"><defs><linearGradient x1="214.85914" y1="182.59255" x2="288.10249" y2="177.22871" gradientUnits="userSpaceOnUse" id="color-1"><stop offset="0" stop-color="#00ffc9"/><stop offset="1" stop-color="#00920a"/></linearGradient><linearGradient x1="253.35737" y1="172.01824" x2="287.5376" y2="169.51512" gradientUnits="userSpaceOnUse" id="color-2"><stop offset="0" stop-color="#00ffc9"/><stop offset="1" stop-color="#00920a"/></linearGradient><linearGradient x1="239.60189" y1="172.71879" x2="267.98368" y2="170.6403" gradientUnits="userSpaceOnUse" id="color-3"><stop offset="0" stop-color="#00ffc9"/><stop offset="1" stop-color="#00920a"/></linearGradient><linearGradient x1="216.15524" y1="200.29083" x2="289.39859" y2="194.927" gradientUnits="userSpaceOnUse" id="color-4"><stop offset="0" stop-color="#00ffc9"/><stop offset="1" stop-color="#00920a"/></linearGradient><linearGradient x1="241.77297" y1="198.17539" x2="270.15477" y2="196.0969" gradientUnits="userSpaceOnUse" id="color-5"><stop offset="0" stop-color="#00ffc9"/><stop offset="1" stop-color="#00920a"/></linearGradient><linearGradient x1="215.67964" y1="193.79653" x2="288.92299" y2="188.43269" gradientUnits="userSpaceOnUse" id="color-6"><stop offset="0" stop-color="#00ffc9"/><stop offset="1" stop-color="#00920a"/></linearGradient><linearGradient x1="238.23964" y1="208.58194" x2="270.58878" y2="206.21291" gradientUnits="userSpaceOnUse" id="color-7"><stop offset="0" stop-color="#00ffc9"/><stop offset="1" stop-color="#00920a"/></linearGradient><linearGradient x1="262.03808" y1="198.38246" x2="289.50434" y2="196.37102" gradientUnits="userSpaceOnUse" id="color-8"><stop offset="0" stop-color="#00ffc9"/><stop offset="1" stop-color="#00920a"/></linearGradient><linearGradient x1="256.30861" y1="170.42144" x2="287.43703" y2="168.1418" gradientUnits="userSpaceOnUse" id="color-9"><stop offset="0" stop-color="#00ffc9"/><stop offset="1" stop-color="#00920a"/></linearGradient><linearGradient x1="215.30618" y1="188.69683" x2="237.58436" y2="187.06533" gradientUnits="userSpaceOnUse" id="color-10"><stop offset="0" stop-color="#00ffc9"/><stop offset="1" stop-color="#00920a"/></linearGradient><linearGradient x1="239.83232" y1="167.48601" x2="251.42918" y2="166.63674" gradientUnits="userSpaceOnUse" id="color-11"><stop offset="0" stop-color="#00ffc9"/><stop offset="1" stop-color="#00920a"/></linearGradient><linearGradient x1="264.31537" y1="191.77252" x2="289.035" y2="189.96222" gradientUnits="userSpaceOnUse" id="color-12"><stop offset="0" stop-color="#00ffc9"/><stop offset="1" stop-color="#00920a"/></linearGradient><linearGradient x1="240.99846" y1="191.78894" x2="269.38025" y2="189.71045" gradientUnits="userSpaceOnUse" id="color-13"><stop offset="0" stop-color="#00ffc9"/><stop offset="1" stop-color="#00920a"/></linearGradient></defs><g transform="translate(-215.46759,-147.25006)"><g data-paper-data="{&quot;isPaintingLayer&quot;:true}" fill-rule="nonzero" stroke="none" stroke-width="1" stroke-linecap="butt" stroke-linejoin="miter" stroke-miterlimit="10" stroke-dasharray="" stroke-dashoffset="0" style="mix-blend-mode: normal"><path d="M254.32722,147.55524c10.51795,5.36609 34.786,43.47511 34.786,43.47511c-3.52036,6.39416 -18.58518,18.54282 -18.58518,18.54282c-7.68885,3.93807 -32.20041,0.21041 -32.20041,0.21041c-12.84764,-3.66139 -22.86005,-18.88265 -22.86005,-18.88265c2.76048,-16.77029 38.83728,-43.65088 38.85963,-43.3457z" data-paper-data="{&quot;origPos&quot;:null}" fill="url(#color-1)"/><path d="M289.11323,191.03035c-0.54332,0.96024 -1.36946,2.24802 -2.52313,3.25295l-17.54481,-9.14693l-15.94493,-16.62771l1.20452,-21.2586c10.84548,5.64892 34.80835,43.78029 34.80835,43.78029z" data-paper-data="{&quot;origPos&quot;:null}" fill="url(#color-2)"/><path d="M240.43999,184.16306c0,0 5.68513,-27.10944 13.86488,-36.91299c0,0 13.41487,28.16523 14.74041,37.88631l-20.0371,11.28553z" data-paper-data="{&quot;origPos&quot;:null}" fill="url(#color-3)"/><path d="M270.52805,209.57317c-7.99403,3.96042 -32.20041,0.21041 -32.20041,0.21041c-12.56481,-3.98892 -22.86005,-18.88265 -22.86005,-18.88265c0,0 19.47915,-6.3356 24.9724,-6.73789c0,0 17.37295,-1.57909 28.60529,0.97332c7.48078,1.59989 12.12554,2.18018 20.06794,5.89398c-3.52036,6.39416 -18.58518,18.54282 -18.58518,18.54282z" data-paper-data="{&quot;origPos&quot;:null}" fill="url(#color-4)"/><path d="M260.52414,211.22625c-4.29488,0.00771 -8.89494,0.03777 -12.92933,-0.58723l-4.19855,-7.05614l-2.67343,-19.74734c0,0 17.37295,-1.57909 28.60529,0.97332l-6.87656,19.21945z" data-paper-data="{&quot;origPos&quot;:null}" fill="url(#color-5)"/><path d="M241.09583,197.30817c-2.44144,0.17879 -15.54957,-2.84988 -24.60095,-4.94837c-0.67741,-0.87084 -1.02728,-1.45886 -1.02728,-1.45886c0,0 19.47915,-6.3356 24.9724,-6.73789c0,0 17.37295,-1.57909 28.60529,0.97332c7.48078,1.59989 12.12554,2.18018 20.06794,5.89398c-0.28283,0.32753 -0.26048,0.63271 -0.54332,0.96024c-7.21259,2.06229 -19.82903,5.74758 -21.35493,5.85933c-2.15862,-0.14874 -22.45697,-0.80994 -26.11915,-0.54175z" data-paper-data="{&quot;origPos&quot;:null}" fill="url(#color-6)"/><path d="M243.4186,203.88805l19.31578,-0.18729c0,0 5.53795,0.20808 8.07651,5.54488c-8.27687,4.28794 -32.48324,0.53794 -32.48324,0.53794c0,0 1.62994,-2.88072 5.09096,-5.89554z" data-paper-data="{&quot;origPos&quot;:null}" fill="url(#color-7)"/><path d="M270.52805,209.57317c-0.58802,0.34988 -1.4812,0.72211 -2.39674,0.78916l-5.67975,-6.33403l6.61608,-18.58673c7.48078,1.59989 12.12554,2.18018 20.06794,5.89398c-3.54271,6.08897 -18.60752,18.23764 -18.60752,18.23764z" data-paper-data="{&quot;origPos&quot;:null}" fill="url(#color-8)"/><path d="M288.04123,188.96114c-0.69976,-1.17602 -2.07693,-3.22289 -3.4541,-5.26976c-1.37717,-2.04687 -3.10421,-4.68175 -5.13644,-7.29428c-1.72705,-2.63488 -3.78163,-5.55259 -6.11903,-8.14277c-2.33741,-2.59018 -4.67482,-5.18036 -6.70705,-7.79289c-2.31506,-2.285 -4.32494,-4.59235 -6.00728,-6.61687c-3.34235,-3.74385 -5.98493,-6.31168 -5.98493,-6.31168c0,0 2.59789,1.95747 6.5506,5.65663c1.96518,1.69699 3.97505,4.00434 6.29012,6.28933c2.00988,2.30735 4.36963,5.20271 6.70705,7.79289c2.05458,2.91771 4.41433,5.81307 6.14138,8.44795c1.02728,1.45886 2.05458,2.91771 2.75433,4.09373c0.69976,1.17602 1.39952,2.35204 2.09928,3.52807c1.09433,2.37439 2.14398,4.13843 2.86608,5.61964c0.69976,1.17602 1.07198,2.06922 1.07198,2.06922c0,0 -0.37223,-0.89319 -1.07198,-2.06922z" data-paper-data="{&quot;origPos&quot;:null}" fill="url(#color-9)"/><path d="M218.73518,189.43438c2.09157,-0.76681 4.7935,-1.57831 7.49542,-2.38982c2.70193,-0.81151 5.4262,-1.31783 7.54012,-1.77945c2.11392,-0.46163 3.66216,-0.26819 3.66216,-0.26819c0,0 -1.19837,0.39458 -3.28994,1.16138c-2.09157,0.76681 -4.7935,1.57831 -7.49542,2.38982c-2.70193,0.81151 -5.4262,1.31783 -7.54012,1.77945c-2.11392,0.46163 -3.63981,0.57337 -3.63981,0.57337c0,0 1.17602,-0.69976 3.26759,-1.46656z" data-paper-data="{&quot;origPos&quot;:null}" fill="url(#color-10)"/><path d="M241.12433,176.74933c0.71439,-2.81367 1.3841,-6.23771 2.64181,-10.01162c1.25771,-3.77391 2.53777,-7.24265 3.88488,-9.79584c0.82614,-1.28777 1.36946,-2.24802 1.93513,-2.90307c0.56567,-0.65506 0.84849,-0.98259 0.84849,-0.98259c0,0 0.02235,0.30518 -0.54332,0.96024c-0.56567,0.65506 -0.78144,1.89813 -1.30241,3.16355c-0.73674,2.50849 -1.99446,6.28241 -2.96933,9.72879c-1.28006,3.46874 -2.25494,6.91511 -3.27452,9.75114c-0.73674,2.50849 -1.5182,4.40662 -1.5182,4.40662c0,0 0.47627,-1.87579 0.29747,-4.31723z" data-paper-data="{&quot;origPos&quot;:null}" fill="url(#color-11)"/><path d="M264.75118,197.72354l4.29409,-12.58716c7.48078,1.59989 12.12554,2.18018 20.06794,5.89398c-0.28283,0.32753 -0.26048,0.63271 -0.54332,0.96024c-7.21259,2.06229 -19.82903,5.74758 -21.35493,5.85933c-0.32753,-0.28283 -1.24307,-0.21579 -2.46379,-0.12639z" data-paper-data="{&quot;origPos&quot;:null}" fill="url(#color-12)"/><path d="M242.31656,197.21877l-1.87656,-13.05572c0,0 17.37295,-1.57909 28.60529,0.97332l-4.29409,12.58716c-5.23277,-0.23043 -17.52939,-0.55717 -22.43463,-0.50477z" data-paper-data="{&quot;origPos&quot;:null}" fill="url(#color-13)"/></g></g></svg>