<svg version="1.1" xmlns="http://www.w3.org/2000/svg" xmlns:xlink="http://www.w3.org/1999/xlink" width="14.39397" height="15.23542" viewBox="0,0,14.39397,15.23542"><g transform="translate(-231.39188,-171.01981)"><g data-paper-data="{&quot;isPaintingLayer&quot;:true}" fill="none" fill-rule="nonzero" stroke="none" stroke-width="1" stroke-linecap="butt" stroke-linejoin="miter" stroke-miterlimit="10" stroke-dasharray="" stroke-dashoffset="0" font-family="none" font-weight="none" font-size="none" text-anchor="none" style="mix-blend-mode: normal"><path d="M239.90192,182.20002c0,0 0.6875,-1.25758 0.6875,-2.0625c0,-0.80492 -0.1875,-1.5 -0.1875,-1.5c0,0 0.62954,0.3125 1.3125,0.3125c0.78053,0 1.9375,-0.875 1.9375,-0.875c0,0 -0.25,1.2088 -0.25,2.0625c0,0.75613 0.25,2.0625 0.25,2.0625c0,0 -1.18137,-0.3125 -1.9375,-0.3125c-0.70735,0 -1.8125,0.3125 -1.8125,0.3125z" data-paper-data="{&quot;origPos&quot;:null}" fill="#ffe44c" stroke="#ffd900"/><path d="M241.27692,176.57502c0,0 0.6875,-1.25759 0.6875,-2.0625c0,-0.80491 -0.1875,-1.5 -0.1875,-1.5c0,0 0.62954,0.3125 1.3125,0.3125c0.78053,0 1.9375,-0.875 1.9375,-0.875c0,0 -0.25,1.2088 -0.25,2.0625c0,0.75614 0.25,2.0625 0.25,2.0625c0,0 -1.18136,-0.3125 -1.9375,-0.3125c-0.70735,0 -1.8125,0.3125 -1.8125,0.3125z" data-paper-data="{&quot;origPos&quot;:null}" fill="#ffe44c" stroke="#ffd900"/><path d="M238.65192,171.82502c0,0 -0.6875,1.25759 -0.6875,2.0625c0,0.80491 0.1875,1.5 0.1875,1.5c0,0 -0.62954,-0.3125 -1.3125,-0.3125c-0.78053,0 -1.9375,0.875 -1.9375,0.875c0,0 0.25,-1.2088 0.25,-2.0625c0,-0.75614 -0.25,-2.0625 -0.25,-2.0625c0,0 1.18136,0.3125 1.9375,0.3125c0.70735,0 1.8125,-0.3125 1.8125,-0.3125z" data-paper-data="{&quot;origPos&quot;:null,&quot;index&quot;:null}" fill="#ffe44c" stroke="#ffd900"/><path d="M232.40192,185.45002c0,0 0.6875,-1.25759 0.6875,-2.0625c0,-0.80491 -0.1875,-1.5 -0.1875,-1.5c0,0 0.62954,0.3125 1.3125,0.3125c0.78053,0 1.9375,-0.875 1.9375,-0.875c0,0 -0.25,1.2088 -0.25,2.0625c0,0.75614 0.25,2.0625 0.25,2.0625c0,0 -1.18136,-0.3125 -1.9375,-0.3125c-0.70735,0 -1.8125,0.3125 -1.8125,0.3125z" data-paper-data="{&quot;origPos&quot;:null}" fill="#ffe44c" stroke="#ffd900"/></g></g></svg>