<svg version="1.1" xmlns="http://www.w3.org/2000/svg" xmlns:xlink="http://www.w3.org/1999/xlink" width="292.34872" height="283.469" viewBox="0,0,292.34872,283.469"><defs><linearGradient x1="300.4985" y1="-40.47748" x2="300.4985" y2="329.52254" gradientUnits="userSpaceOnUse" id="color-1"><stop offset="0" stop-color="#8ebad3"/><stop offset="1" stop-color="#e8c3c3"/></linearGradient><linearGradient x1="394.79149" y1="263.89582" x2="400.32461" y2="339.26023" gradientUnits="userSpaceOnUse" id="color-2"><stop offset="0" stop-color="#679660"/><stop offset="1" stop-color="#388628"/></linearGradient><linearGradient x1="396.71572" y1="266.10402" x2="402.24884" y2="341.46844" gradientUnits="userSpaceOnUse" id="color-3"><stop offset="0" stop-color="#afffa3"/><stop offset="1" stop-color="#6bff4d"/></linearGradient><linearGradient x1="401.48491" y1="335.06345" x2="402.77168" y2="352.59007" gradientUnits="userSpaceOnUse" id="color-4"><stop offset="0" stop-color="#825f53"/><stop offset="1" stop-color="#77523f"/></linearGradient><linearGradient x1="270.24024" y1="74.56715" x2="270.24024" y2="201.56714" gradientUnits="userSpaceOnUse" id="color-5"><stop offset="0" stop-color="#f7ffa3"/><stop offset="1" stop-color="#ecff4d"/></linearGradient><linearGradient x1="411.53095" y1="263.07424" x2="458.6538" y2="263.07424" gradientUnits="userSpaceOnUse" id="color-6"><stop offset="0" stop-color="#ffd7e0" stop-opacity="0"/><stop offset="1" stop-color="#ffd7e0"/></linearGradient><linearGradient x1="482.53095" y1="232.07424" x2="529.65379" y2="232.07424" gradientUnits="userSpaceOnUse" id="color-7"><stop offset="0" stop-color="#ffd7e0" stop-opacity="0"/><stop offset="1" stop-color="#ffd7e0"/></linearGradient><linearGradient x1="437.53095" y1="200.07424" x2="484.6538" y2="200.07424" gradientUnits="userSpaceOnUse" id="color-8"><stop offset="0" stop-color="#ffd7e0" stop-opacity="0"/><stop offset="1" stop-color="#ffd7e0"/></linearGradient><linearGradient x1="384.53095" y1="142.07424" x2="431.65379" y2="142.07424" gradientUnits="userSpaceOnUse" id="color-9"><stop offset="0" stop-color="#ffd7e0" stop-opacity="0"/><stop offset="1" stop-color="#ffd7e0"/></linearGradient></defs><g transform="translate(-255.95337,-110.66668)"><g data-paper-data="{&quot;isPaintingLayer&quot;:true}" stroke-miterlimit="10" stroke-dasharray="" stroke-dashoffset="0" style="mix-blend-mode: normal"><path d="M259.1997,365.55858c0,0 1.3227,-40.06921 2.21654,-67.14648c1.36838,-41.45283 5.19487,-157.37004 5.19487,-157.37004l250.86486,-30.37538l30.03003,232.35436z" fill="url(#color-1)" fill-rule="nonzero" stroke="none" stroke-width="0" stroke-linecap="butt" stroke-linejoin="miter"/><path d="M259.81962,349.57586l-3.86625,-76.66153c0,0 22.36465,43.71387 40.71284,42.48323c8.64776,-0.58002 21.65241,-47.72876 38.5505,-51.52483c13.37478,-3.00458 51.8245,46.49857 67.82745,44.83425c11.77925,-1.22505 24.5964,-50.07375 35.63527,-53.14261c17.99954,-5.00394 35.20634,49.97686 49.33464,49.62486c29.11379,-0.72535 46.95419,-50.56928 46.95419,-50.56928l5.46492,84.9264z" fill="url(#color-2)" fill-rule="nonzero" stroke="none" stroke-width="0" stroke-linecap="butt" stroke-linejoin="miter"/><path d="M261.74387,351.78406l-5.74352,-76.23002c0,0 24.24192,43.28236 42.59011,42.05172c8.64776,-0.58002 21.65241,-47.72876 38.5505,-51.52483c13.37478,-3.00458 51.8245,46.49857 67.82745,44.83425c11.77925,-1.22505 24.5964,-50.07375 35.63527,-53.14261c17.99954,-5.00394 35.20634,49.97686 49.33464,49.62486c6.95374,-0.17325 13.22568,-3.20976 18.7448,-7.73188c17.58825,-14.41102 27.53132,-43.90933 27.53132,-43.90933l10.11512,84.19282z" fill="url(#color-3)" fill-rule="nonzero" stroke="none" stroke-width="0" stroke-linecap="butt" stroke-linejoin="miter"/><path d="M258.9739,394.13568l1.37078,-53.40892l283.55829,-27.0245l4.39912,29.9817c0,0 -37.6074,12.23304 -67.90193,17.51566c-52.89245,9.22314 -221.42625,32.93606 -221.42625,32.93606z" fill="url(#color-4)" fill-rule="nonzero" stroke="none" stroke-width="0" stroke-linecap="butt" stroke-linejoin="miter"/><path d="M311.66993,135.41176c0,0 15.73697,3.23499 15.73697,12.98873c0,35.07008 -22.09659,53.16666 -57.16667,53.16666c-11.07274,0 -10.6581,-50.30186 -4.36812,-62.42917c0.79195,-1.52692 45.79782,-3.72622 45.79782,-3.72622z" fill="url(#color-5)" fill-rule="nonzero" stroke="none" stroke-width="0" stroke-linecap="butt" stroke-linejoin="miter"/><g fill="#231f20" fill-rule="evenodd" stroke="#231f20" stroke-width="0.63175" stroke-linecap="round" stroke-linejoin="round" opacity="0.1"><path d="M343.75175,260.57015c-0.61717,0.46288 -1.31144,1.00286 -2.0829,1.54292"/><path d="M361.95825,266.66465c-0.30858,0.46288 -0.77146,1.15724 -1.31144,1.85151"/></g><g fill-rule="nonzero" stroke-linecap="butt" stroke-linejoin="miter"><g data-paper-data="{&quot;index&quot;:null}" stroke="none" stroke-width="0"><path d="M441.16491,281.31106l-32.54876,-17.13157v0l32.54876,-21.5526z" fill="#ffa5ba"/><path d="M441.33185,279.55222l0.08366,1.8209l-15.55121,-8.08049l-12.87593,-6.62629l-4.40389,-2.37078l4.40389,-2.93687l28.04988,7.94821z" fill="url(#color-6)"/></g><path d="M424.84822,256.83627c0.58242,0 1.05456,0.53709 1.05456,1.19963c0,0.66254 -0.47214,1.19963 -1.05456,1.19963c-0.58242,0 -1.05456,-0.53709 -1.05456,-1.19963c0,-0.66254 0.47214,-1.19963 1.05456,-1.19963z" fill="#000000" stroke="#000000" stroke-width="5"/><path d="M434.40958,256.35642c0.58242,0 1.05456,0.53709 1.05456,1.19963c0,0.66254 -0.47214,1.19963 -1.05456,1.19963c-0.58242,0 -1.05456,-0.53709 -1.05456,-1.19963c0,-0.66254 0.47214,-1.19963 1.05456,-1.19963z" fill="#000000" stroke="#000000" stroke-width="5"/></g><g fill-rule="nonzero" stroke-linecap="butt" stroke-linejoin="miter"><g data-paper-data="{&quot;index&quot;:null}" stroke="none" stroke-width="0"><path d="M512.16491,250.31106l-32.54876,-17.13157v0l32.54876,-21.5526z" fill="#ffa5ba"/><path d="M512.33184,248.55222l0.08366,1.8209l-15.55121,-8.08049l-12.87593,-6.62629l-4.40389,-2.37078l4.40389,-2.93687l28.04988,7.94821z" fill="url(#color-7)"/></g><path d="M495.84822,225.83627c0.58242,0 1.05456,0.53709 1.05456,1.19963c0,0.66254 -0.47214,1.19963 -1.05456,1.19963c-0.58242,0 -1.05456,-0.53709 -1.05456,-1.19963c0,-0.66254 0.47214,-1.19963 1.05456,-1.19963z" fill="#000000" stroke="#000000" stroke-width="5"/><path d="M505.40958,225.35642c0.58242,0 1.05456,0.53709 1.05456,1.19963c0,0.66254 -0.47214,1.19963 -1.05456,1.19963c-0.58242,0 -1.05456,-0.53709 -1.05456,-1.19963c0,-0.66254 0.47214,-1.19963 1.05456,-1.19963z" fill="#000000" stroke="#000000" stroke-width="5"/></g><g fill-rule="nonzero" stroke-linecap="butt" stroke-linejoin="miter"><g data-paper-data="{&quot;index&quot;:null}" stroke="none" stroke-width="0"><path d="M467.16491,218.31106l-32.54876,-17.13157v0l32.54876,-21.5526z" fill="#ffa5ba"/><path d="M467.33185,216.55222l0.08366,1.8209l-15.55121,-8.08049l-12.87593,-6.62629l-4.40389,-2.37078l4.40389,-2.93687l28.04988,7.94821z" fill="url(#color-8)"/></g><path d="M450.84822,193.83627c0.58242,0 1.05456,0.53709 1.05456,1.19963c0,0.66254 -0.47214,1.19963 -1.05456,1.19963c-0.58242,0 -1.05456,-0.53709 -1.05456,-1.19963c0,-0.66254 0.47214,-1.19963 1.05456,-1.19963z" fill="#000000" stroke="#000000" stroke-width="5"/><path d="M460.40958,193.35642c0.58242,0 1.05456,0.53709 1.05456,1.19963c0,0.66254 -0.47214,1.19963 -1.05456,1.19963c-0.58242,0 -1.05456,-0.53709 -1.05456,-1.19963c0,-0.66254 0.47214,-1.19963 1.05456,-1.19963z" fill="#000000" stroke="#000000" stroke-width="5"/></g><g fill-rule="nonzero" stroke-linecap="butt" stroke-linejoin="miter"><g data-paper-data="{&quot;index&quot;:null}" stroke="none" stroke-width="0"><path d="M414.16491,160.31106l-32.54876,-17.13157v0l32.54876,-21.5526z" fill="#ffa5ba"/><path d="M414.33185,158.55222l0.08366,1.8209l-15.55121,-8.08049l-12.87593,-6.62629l-4.40389,-2.37078l4.40389,-2.93687l28.04988,7.94821z" fill="url(#color-9)"/></g><path d="M397.84822,135.83627c0.58242,0 1.05456,0.53709 1.05456,1.19963c0,0.66254 -0.47214,1.19963 -1.05456,1.19963c-0.58242,0 -1.05456,-0.53709 -1.05456,-1.19963c0,-0.66254 0.47214,-1.19963 1.05456,-1.19963z" fill="#000000" stroke="#000000" stroke-width="5"/><path d="M407.40958,135.35642c0.58242,0 1.05456,0.53709 1.05456,1.19963c0,0.66254 -0.47214,1.19963 -1.05456,1.19963c-0.58242,0 -1.05456,-0.53709 -1.05456,-1.19963c0,-0.66254 0.47214,-1.19963 1.05456,-1.19963z" fill="#000000" stroke="#000000" stroke-width="5"/></g><g fill-rule="nonzero"><path d="M329.1383,220.97571c0.7,-0.6 6.5,0 7.2,-0.5c7,-5.2 11.7,-5 12.4,-3.7c1.8,3.1 -0.4,6.7 -6.8,9.5c-4.8,2.1 -16.3,1.7 -17.1,2" fill="#faa51f" stroke="#8e5322" stroke-width="1.4" stroke-linecap="round" stroke-linejoin="round"/><path d="M316.1383,231.87571" fill="#faa51f" stroke="#8e5322" stroke-width="1.4" stroke-linecap="round" stroke-linejoin="round"/><g fill="#faa51f" stroke="#8e5322" stroke-width="1.4" stroke-linecap="round" stroke-linejoin="round"><path d="M314.3383,239.37571c0,0 -6.6,2.6 -13.4,8.2c-3,2.4 4.6,5.8 -1.8,9.6c-1.8,1 -6.9,-6.7 -7.4,-8.9c-0.5,-2 -0.2,-2.8 1.6,-3.7c6.6,-3.2 13.8,-13.8 13.8,-13.8"/><path d="M298.9383,247.97571c1.1,1.1 1.7,2.3 1.7,2.3"/></g><g><path d="M311.3383,232.67571c0.9,0.1 2.8,0.4 1.8,4.5c-1,4.1 -7.3,7.2 -8.1,7.5c-2.8,1.1 -6.5,2.5 -11,2.6c-12.9,0.4 -17.7,-12.2 -14.8,-15.6c2.9,-3.4 7.5,3.8 14.4,6.6c3.1,1.2 6.1,1 8.6,0.6c3.5,-0.5 8.2,-6.5 9.1,-6.2z" fill="#faa51f" stroke="none" stroke-width="1" stroke-linecap="butt" stroke-linejoin="miter"/><path d="M285.0383,232.97571c2.5,1.7 7,4.7 7,4.7c0,0 -4.1,0.8 -5.5,3.3c-1.3,2.4 2.3,5.4 0.4,5c-1.7,-0.8 -4.3,-2.2 -6.5,-5.2c-2.1,-3 -2.7,-8.1 -1.1,-9.4c1.9,-1.2 3.5,-0.1 5.7,1.6z" fill="#ffffff" stroke="none" stroke-width="1" stroke-linecap="butt" stroke-linejoin="miter"/><path d="M311.3383,232.67571c0.9,0.1 2.8,0.4 1.8,4.5c-1,4.1 -7.3,7.2 -8.1,7.5c-2.8,1.1 -6.5,2.5 -11,2.6c-12.9,0.4 -17.7,-12.2 -14.8,-15.6c2.9,-3.4 7.5,3.8 14.4,6.6c3.1,1.2 6.1,1 8.6,0.6c3.5,-0.5 8.2,-6.5 9.1,-6.2z" fill="none" stroke="#8e5322" stroke-width="1.4" stroke-linecap="round" stroke-linejoin="round"/></g><path d="M328.1383,226.17571c-1.9,6.4 -3.1,16.3 -13.9,13.1c-10.8,-3.2 -7.3,-11.5 -5.4,-18c1.9,-6.5 6.1,-7.1 12.2,-5.3c6.1,1.9 9,3.8 7.1,10.2z" fill="#faa51f" stroke="#8e5322" stroke-width="1.3643" stroke-linecap="round" stroke-linejoin="round"/><path d="M327.1383,228.37571c-1.2,4 -2.1,5.4 -8.2,3.5c-1.7,-0.5 -1.3,-1.2 -0.2,-5.2c1.1,-4 3.6,-4.6 7.2,-3.5c3.5,1 2.4,1.1 1.2,5.2z" fill="#ffffff" stroke="none" stroke-width="1" stroke-linecap="butt" stroke-linejoin="miter"/><g><g><path d="M334.8383,171.77571l7.3,-6.9l2.6,11.3c0,0 6.1,4.8 7.9,8c3,5.4 3,9.7 3,9.7c0,0 6.8,2.3 7.9,7.8c1.1,5.6 -3.4,16 -21.7,19.2c-18.3,3.3 -32.8,-1.9 -39.4,-13.2c-6.5,-11.1 4.5,-24.1 3.9,-23.3l-1.8,-18.3l12.4,8.4c0,0 4.3,-1.6 8.9,-1.7c1.7,-0.1 4.8,0.2 6.3,0.3z" fill="#faa51f" stroke="none" stroke-width="1" stroke-linecap="butt" stroke-linejoin="miter"/><path d="M355.1383,194.47571c0,0 6.6,1.8 7.7,7.3c1.4,5.5 -3.7,15.8 -21,18.6c-3.9,0.6 -7.4,1.2 -12.9,1.1c-8.5,0 -17.7,-5.5 -16.8,-16.6c0.5,-6.4 8.6,-5.7 8.6,-5.7l7.1,-1.7c0,0 7.1,1.7 11.3,0.9c4.2,-0.8 4.3,-4.1 4.3,-4.1l8.8,-2.4l2.4,2z" fill="#ffffff" stroke="none" stroke-width="1" stroke-linecap="butt" stroke-linejoin="miter"/><path d="M371.1383,197.67571c0,0 -2.1,1.2 -4.8,1.6c-2.3,0.3 -6.8,0.1 -6.8,0.1" fill="none" stroke="#8e5322" stroke-width="1.4" stroke-linecap="round" stroke-linejoin="round"/><path d="M369.3383,208.47571c0,0 -1.8,-0.2 -4.4,-1c-2.7,-0.7 -5,-2.3 -5,-2.3" fill="none" stroke="#8e5322" stroke-width="1.4" stroke-linecap="round" stroke-linejoin="round"/><path d="M314.6383,172.97571l5.1,3.7" fill="none" stroke="#8e5322" stroke-width="1.4" stroke-linecap="round" stroke-linejoin="round"/><path d="M334.8383,171.77571l7.3,-6.9l2.6,11.3c0,0 6.1,4.8 7.9,8c3,5.4 3,9.7 3,9.7c0,0 6.8,2.3 7.9,7.8c1.1,5.6 -3.4,16 -21.7,19.2c-18.3,3.3 -32.8,-1.9 -39.4,-13.2c-6.5,-11.1 4.5,-24.1 3.9,-23.3l-1.8,-18.3l12.4,8.4c0,0 4.3,-1.6 8.9,-1.7c1.7,-0.1 4.8,0.2 6.3,0.3z" fill="none" stroke="#8e5322" stroke-width="1.4" stroke-linecap="round" stroke-linejoin="round"/><path d="M301.8383,203.17571c0,0 -3.4,1.1 -5.1,1.6c-1.7,0.5 -5.7,0.9 -5.7,0.9" fill="none" stroke="#8e5322" stroke-width="1.4" stroke-linecap="round" stroke-linejoin="round"/><path d="M289.2383,195.97571c0,0 2.3,0 6.5,1.1c3.9,1 3.9,1 6.4,2.3" fill="none" stroke="#8e5322" stroke-width="1.4" stroke-linecap="round" stroke-linejoin="round"/></g><g><path d="M350.3383,184.37571c2.7,4.4 2.7,9.4 0,11c-2.7,1.7 -7.2,-0.4 -9.9,-4.9c-2.7,-4.4 -2.7,-9.4 0,-11c2.8,-1.7 7.2,0.5 9.9,4.9z" fill="#ffffff" stroke="#8e5322" stroke-width="1.4" stroke-linecap="round" stroke-linejoin="round"/><path d="M350.2383,187.97571c0.3,1 -0.2,2 -1.2,2.3c-0.9,0.3 -1.9,-0.3 -2.2,-1.4c-0.3,-1 0.2,-2 1.2,-2.3c1,-0.2 1.9,0.4 2.2,1.4" fill="#414142" stroke="none" stroke-width="1" stroke-linecap="butt" stroke-linejoin="miter"/></g><g><path d="M327.1383,186.97571c2.7,4.4 2.3,9.5 -0.9,11.6c-3.2,2 -8.1,0.1 -10.8,-4.3c-2.7,-4.4 -2.3,-9.5 0.9,-11.6c3.2,-1.9 8.1,0 10.8,4.3z" fill="#ffffff" stroke="#8e5322" stroke-width="1.4" stroke-linecap="round" stroke-linejoin="round"/><path d="M326.7383,190.87571c0,1 -0.8,1.9 -1.7,1.9c-1,0 -1.7,-0.8 -1.7,-1.9c0,-1 0.8,-1.9 1.7,-1.9c0.9,0 1.7,0.8 1.7,1.9" fill="#414142" stroke="none" stroke-width="1" stroke-linecap="butt" stroke-linejoin="miter"/></g><path d="M337.9383,197.07571c1.7,-0.2 4,-1.4 4.3,0.5c0,0.8 -1.7,4.1 -3.5,4.1c-2,0.1 -5.4,-2.5 -5.3,-4c0.1,-1.5 3,-0.4 4.5,-0.6z" fill="#5f4b43" stroke="#8e5322" stroke-width="1.4" stroke-linecap="round" stroke-linejoin="round"/><path d="M336.4383,213.77571c-5.4,0.9 -7.9,-1.4 -7.9,-1.4" fill="#ffffff" stroke="#8e5322" stroke-width="1.4" stroke-linecap="round" stroke-linejoin="round"/></g><g fill="#faa51f" stroke="#8e5322" stroke-width="1.4" stroke-linecap="round" stroke-linejoin="round"><path d="M320.2383,231.77571c0.4,0.1 7.2,1.2 7.6,1.3c7.9,2.3 4.9,6.3 2.7,8c-8.5,5.7 0.6,8 -7.2,10.2c-2.4,0.5 -4.1,-4.1 -4.8,-6.1c-1.6,-4.4 0,-1.7 3.1,-4.1c-1.1,-0.8 -6.4,-1.8 -6.4,-1.8"/><path d="M325.3383,245.27571c1.2,-0.8 2.6,-2.2 3.6,-2.7"/><path d="M324.4383,240.67571c-0.5,0.2 -2.9,-0.2 -4.2,-0.2"/></g><path d="M315.1383,218.67571c0.7,-0.6 6.5,0.1 7.2,-0.4c7.1,-5.1 11.7,-4.8 12.5,-3.5c1.7,3.2 -0.5,6.7 -6.9,9.4c-4.8,2.1 -16.3,1.5 -17.1,1.8" fill="#faa51f" stroke="#8e5322" stroke-width="1.4" stroke-linecap="round" stroke-linejoin="round"/><g stroke="#8e5322" stroke-width="1.4" stroke-linecap="round" stroke-linejoin="round"><path d="M320.9383,219.27571" fill="#faa51f"/><path d="M317.7383,217.67571" fill="none"/></g></g></g></g></svg>