<svg version="1.1" xmlns="http://www.w3.org/2000/svg" xmlns:xlink="http://www.w3.org/1999/xlink" width="157.69747" height="142.99137" viewBox="0,0,157.69747,142.99137"><defs><linearGradient x1="240" y1="112.25431" x2="240" y2="247.74568" gradientUnits="userSpaceOnUse" id="color-1"><stop offset="0" stop-color="#e2dcfc"/><stop offset="1" stop-color="#d8d1f5"/></linearGradient></defs><g transform="translate(-161.15126,-108.50431)"><g data-paper-data="{&quot;isPaintingLayer&quot;:true}" fill-rule="nonzero" stroke-linecap="butt" stroke-linejoin="miter" stroke-miterlimit="10" stroke-dasharray="" stroke-dashoffset="0" style="mix-blend-mode: normal"><path d="M164.90126,247.74568v-135.49137h150.19747v135.49137z" fill="url(#color-1)" stroke="#dac5d7" stroke-width="7.5"/><path d="M212.5465,189.80211l-0.34935,-56.12747l74.78295,-6.89745c0,0 0.727,81.75994 -0.01135,86.37529c-0.77879,4.86809 -3.67485,10.534 -7.30486,13.27704c-3.87847,2.93079 -9.78123,4.8634 -14.77638,4.40783c-5.73714,-0.52325 -10.38851,-3.75087 -11.26931,-4.75958c-0.98739,-1.13079 -7.42328,-7.59598 -7.97539,-15.54786c-0.24934,-3.59104 0.86597,-8.16492 2.91979,-11.64512c0.92908,-1.57434 11.2213,-9.79792 16.21017,-10.08659c4.76448,-0.27569 9.37477,1.28815 9.33108,1.04491c-1.85032,-10.30214 -0.71627,-34.48471 -0.71627,-34.48471l-46.13309,6.84889c0,0 -0.48197,48.65409 -2.18581,53.96024c-1.4763,4.59752 -5.12244,9.06307 -9.02588,11.67252c-3.75997,2.51354 -10.63929,3.52712 -15.32469,2.53491c-4.68804,-0.99276 -10.54864,-5.78603 -12.25802,-8.03559c-2.1168,-2.78574 -3.43811,-7.27694 -3.82708,-11.49935c-0.16093,-1.74696 -0.01012,-6.80891 1.69479,-10.2252c1.70795,-3.42237 4.62122,-5.89691 5.08297,-6.64366c5.26276,-8.51117 21.13573,-4.16904 21.13573,-4.16904z" fill="#fc96f4" stroke="#fcb8f7" stroke-width="6"/></g></g></svg>