<svg version="1.1" xmlns="http://www.w3.org/2000/svg" xmlns:xlink="http://www.w3.org/1999/xlink" width="80.74624" height="77.83103" viewBox="0,0,80.74624,77.83103"><defs><linearGradient x1="242.99974" y1="133.00967" x2="242.99974" y2="244.72167" gradientUnits="userSpaceOnUse" id="color-1"><stop offset="0" stop-color="#ffd7e0" stop-opacity="0"/><stop offset="1" stop-color="#ffd7e0"/></linearGradient><linearGradient x1="239.51608" y1="132.70301" x2="239.51608" y2="244.415" gradientUnits="userSpaceOnUse" id="color-2"><stop offset="0" stop-color="#ffd7e0"/><stop offset="1" stop-color="#ffd7e0" stop-opacity="0"/></linearGradient><linearGradient x1="281.11441" y1="190.34446" x2="179.38483" y2="236.50354" gradientUnits="userSpaceOnUse" id="color-3"><stop offset="0" stop-color="#ffd7e0"/><stop offset="1" stop-color="#ffd7e0" stop-opacity="0"/></linearGradient></defs><g transform="translate(-200.38793,-126.0246)"><g data-paper-data="{&quot;isPaintingLayer&quot;:true}" fill-rule="nonzero" stroke="none" stroke-linecap="butt" stroke-linejoin="miter" stroke-miterlimit="10" stroke-dasharray="" stroke-dashoffset="0" style="mix-blend-mode: normal"><path d="M200.38793,203.26154l44.91511,-77.16187v0l35.70179,77.16187z" fill="#ffa5ba" stroke-width="0"/><path d="M255.98844,202.96128l-16.56387,-66.49657l6.12036,-10.4401l4.94065,10.4401l13.80904,30.52438l16.83955,36.86655l-3.79472,-0.19834z" fill="url(#color-1)" stroke-width="0"/><path d="M205.17637,203.35063l-3.79472,0.19834l19.49288,-35.39248l17.34681,-29.34512l6.70954,-11.61936l5.82555,11.61936l-24.22905,63.84324z" data-paper-data="{&quot;index&quot;:null}" fill="url(#color-2)" stroke-width="0"/><path d="M208.50727,187.54435l32.61909,0.47362l35.15658,4.39068l3.91342,10.6957l-79.35264,-0.10635z" data-paper-data="{&quot;index&quot;:null}" fill="url(#color-3)" stroke-width="0"/><path d="M240.52952,169.32844c0,-1.38071 1.11929,-2.5 2.5,-2.5c1.38071,0 2.5,1.11929 2.5,2.5c0,1.38071 -1.11929,2.5 -2.5,2.5c-1.38071,0 -2.5,-1.11929 -2.5,-2.5z" fill="#000000" stroke-width="0.5"/></g></g></svg>