<svg version="1.1" xmlns="http://www.w3.org/2000/svg" xmlns:xlink="http://www.w3.org/1999/xlink" width="9.88341" height="13.00439" viewBox="0,0,9.88341,13.00439"><g transform="translate(-234.94532,-174.28925)"><g data-paper-data="{&quot;isPaintingLayer&quot;:true}" fill="none" fill-rule="nonzero" stroke="none" stroke-width="none" stroke-linecap="butt" stroke-linejoin="miter" stroke-miterlimit="10" stroke-dasharray="" stroke-dashoffset="0" font-family="none" font-weight="none" font-size="none" text-anchor="none" style="mix-blend-mode: normal"><path d="M240.16058,180.41357l0.74708,-0.95932l-0.03305,-0.57925l-0.77605,-1.40196l-2.0241,0.20797l-0.05352,-0.125l1.02273,-0.75837l1.26557,-0.00597l1.08555,0.46442l0.62895,1.54344l-1.25549,1.95509l1.10852,1.72982l-0.2605,1.59739l-0.94934,0.41908l-1.32812,0.20178l-1.20763,-0.60514l0.03506,-0.09747l2.77683,-0.48067l0.17454,-1.69266l-0.71986,-1.14345z" data-paper-data="{&quot;origPos&quot;:null}" stroke="#000000" stroke-width="5"/><path d="M239.91058,180.24691l0.74708,-0.95932l-0.03305,-0.57925l-0.77605,-1.40196l-2.0241,0.20797l-0.05352,-0.125l1.02273,-0.75837l1.26557,-0.00597l1.08555,0.46442l0.62895,1.54344l-1.25549,1.95509l1.10852,1.72982l-0.2605,1.59739l-0.94934,0.41908l-1.32812,0.20178l-1.20763,-0.60514l0.03506,-0.09747l2.77683,-0.48067l0.17454,-1.69266l-0.71986,-1.14345z" data-paper-data="{&quot;origPos&quot;:null}" stroke="#ffffff" stroke-width="2.5"/></g></g></svg>