<svg xmlns="http://www.w3.org/2000/svg" xmlns:xlink="http://www.w3.org/1999/xlink" version="1.1" id="Layer_1" x="0px" y="0px" width="90.20233001708985" height="92.67853393554688" viewBox="29.09766082763672 18.599999237060548 90.20233001708985 92.67853393554688" enable-background="new 0 0 128 128" xml:space="preserve">
  <g>
    <g id="ID0.15723733883351088_6_">
      <path id="ID0.527006761636585_6_" fill="#FAA51F" stroke="#8E5322" stroke-width="1.4" stroke-linecap="round" stroke-linejoin="round" d="&#13;&#10;&#9;&#9;M58.3,87.1c0,0-9.5,6-10.8,6.5c-1.1-1.8-2.4-2.2-4.3-1.3c-2,1-8.3,5.3-6.9,7.4c4.2,6.4,7.1-1.4,9.9,1.3c2,1.1,10.2-5.3,18.8-5.1"/>
      <path id="ID0.8937406223267317_10_" fill="#FAA51F" stroke="#8E5322" stroke-width="1.4" stroke-linecap="round" stroke-linejoin="round" d="&#13;&#10;&#9;&#9;M46,100.9c-1.1-1-1.7-2.5-1.7-2.5"/>
    </g>
    <g>
      <g id="ID0.7407716196030378_4_">
        <path id="ID0.15909873321652412_4_" fill="#FAA51F" stroke="#8E5322" stroke-width="1.4" stroke-linecap="round" stroke-linejoin="round" d="&#13;&#10;&#9;&#9;&#9;M68.7,76.9c-0.1,0.3,14,8.3,13.8,8.4c-1.8,0.8-4.1,1.7-5,1.8c-4.1,0.4-9.9-1.4-14-4.7l-0.9-1.1"/>
        <path id="ID0.8024068027734756_4_" fill="#FAA51F" stroke="#8E5322" stroke-width="1.4" stroke-linecap="round" stroke-linejoin="round" d="&#13;&#10;&#9;&#9;&#9;M75.1,80"/>
        <path id="ID0.06734407460317016_4_" fill="none" stroke="#8E5322" stroke-width="1.4" stroke-linecap="round" stroke-linejoin="round" d="&#13;&#10;&#9;&#9;&#9;M72.6,77.4"/>
        <path id="ID0.8143284288235009_4_" fill="#FAA51F" stroke="#8E5322" stroke-width="1.4" stroke-linecap="round" stroke-linejoin="round" d="&#13;&#10;&#9;&#9;&#9;M75.1,80l-4.6-1.7"/>
      </g>
      <path id="ID0.1790580078959465_4_" fill="#FAA51F" stroke="#8E5322" stroke-width="1.4" stroke-linecap="round" stroke-linejoin="round" d="&#13;&#10;&#9;&#9;M71.2,78.8c-1.1-0.5,4.4,1.4,5.3,1.2c0.8-0.2,2.4-0.9,3.1-1.5c3.7-3.7,7.7-2.3,8.3-0.8c1.7,3.6-2.2,7-10.5,9.3"/>
    </g>
    <g id="Layer_3_5_">
      <path id="ID0.8535828334279358_4_" fill="#FAA51F" d="M52.6,90.6c-2.5,0-5.5-0.3-8.3-2.2c-6.3-4-9.5-11.9-13-9.1&#13;&#10;&#9;&#9;c-3.5,2.8-1,16.1,11.8,18c4.4,0.7,8.3,0,11.3-0.6c0.8-0.1,7.6-2.1,9.3-6s-0.1-4.4-1-4.8C61.8,85.7,56.2,90.7,52.6,90.6z" stroke-width="1"/>
      <path id="ID0.914295740891248_4_" fill="#FFFFFF" d="M31.4,79.2c-1.8,1-2.2,6.1-0.6,9.4c1.7,3.3,4,5.1,5.4,6.3&#13;&#10;&#9;&#9;c1.8,0.8-1.2-2.8,0.5-5c1.8-2.2,6-2.3,6-2.3s-3.9-3.7-6-5.9C34.9,79.7,33.4,78.4,31.4,79.2z" stroke-width="1"/>
      <path id="ID0.40227043256163597_4_" fill="none" stroke="#8E5322" stroke-width="1.4" stroke-linecap="round" stroke-linejoin="round" d="&#13;&#10;&#9;&#9;M52.6,90.6c-2.5,0-5.5-0.3-8.3-2.2c-6.3-4-9.5-11.9-13-9.1c-3.5,2.8-1,16.1,11.8,18c4.4,0.7,8.3,0,11.3-0.6c0.8-0.1,7.6-2.1,9.3-6&#13;&#10;&#9;&#9;s-0.1-4.4-1-4.8C61.8,85.7,56.2,90.7,52.6,90.6z"/>
    </g>
    <g id="Layer_2_14_">
      <path id="ID0.39854341372847557_4_" fill="#FAA51F" stroke="#8E5322" stroke-width="1.4" stroke-linecap="round" stroke-linejoin="round" d="&#13;&#10;&#9;&#9;M64.5,88.6"/>
    </g>
    <path id="ID0.46792364912107587_4_" fill="#FAA51F" stroke="#8E5322" stroke-width="1.2473" stroke-linecap="round" stroke-linejoin="round" d="&#13;&#10;&#9;M76.6,82.9c-1.9,6.4-3.4,16.2-12.4,13.6c-9.1-2.7-5.7-11-3.8-17.5c1.9-6.4,5.5-7.2,10.6-5.7C76.1,74.8,78.5,76.5,76.6,82.9z"/>
    <path id="ID0.38032895559445024_4_" fill="#FFFFFF" d="M75.4,85.5c-1.2,4,0,4.4-3.4,3.6c-6.2-1.4-5.7-2-4.5-6.1&#13;&#10;&#9;c1.2-4,4.2-5.8,7.2-3.5C76.4,80.9,76.6,81.5,75.4,85.5z" stroke-width="1"/>
    <g id="ID0.16171270422637463_4_">
      <path id="ID0.007584026083350182_4_" fill="#FAA51F" stroke="#8E5322" stroke-width="1.4" stroke-linecap="round" stroke-linejoin="round" d="&#13;&#10;&#9;&#9;M74.3,88.6c0,0,3.3,6.3,9.6,12.5c2.7,2.7,5.3-5.2,9.7,0.8c1.2,1.7-5.9,7.5-8,8.3c-1.9,0.7-2.7,0.5-3.8-1.2&#13;&#10;&#9;&#9;c-3.9-6.3-15.2-12.3-15.2-12.3"/>
      <path id="ID0.31672530295327306_4_" fill="#FAA51F" stroke="#8E5322" stroke-width="1.4" stroke-linecap="round" stroke-linejoin="round" d="&#13;&#10;&#9;&#9;M86.6,101.1c0,0-1.1,0.7-2.1,1.9"/>
    </g>
    <g>
      <g id="ID0.7407716196030378_13_">
        <path id="ID0.15909873321652412_12_" fill="#FAA51F" stroke="#8E5322" stroke-width="1.4" stroke-linecap="round" stroke-linejoin="round" d="&#13;&#10;&#9;&#9;&#9;M62.1,80.9c0-0.3-15.1-6.1-14.9-6.2c1.7-1.1,3.8-2.3,4.7-2.5c4-1,10-0.1,14.5,2.5l2.1,1.9"/>
        <path id="ID0.8024068027734756_13_" fill="#FAA51F" stroke="#8E5322" stroke-width="1.4" stroke-linecap="round" stroke-linejoin="round" d="&#13;&#10;&#9;&#9;&#9;M55.3,78.7"/>
        <path id="ID0.06734407460317016_13_" fill="none" stroke="#8E5322" stroke-width="1.4" stroke-linecap="round" stroke-linejoin="round" d="&#13;&#10;&#9;&#9;&#9;M58.1,80.9"/>
        <path id="ID0.8143284288235009_12_" fill="#FAA51F" stroke="#8E5322" stroke-width="1.4" stroke-linecap="round" stroke-linejoin="round" d="&#13;&#10;&#9;&#9;&#9;M55.3,78.7l4.8,1"/>
      </g>
      <path id="ID0.1790580078959465_16_" fill="#FAA51F" stroke="#8E5322" stroke-width="1.4" stroke-linecap="round" stroke-linejoin="round" d="&#13;&#10;&#9;&#9;M59.4,79.3c1.4,0.4-6.2-1.1-8.3,1.5c-3.3,4.1-7.2,3.4-8.1,2c-2.2-3.3,1.2-7.3,9-10.8"/>
    </g>
    <g>
      <g id="Layer_2_13_">
        <path id="ID0.2591130444779992_8_" fill="#FAA51F" d="M82.5,29.2c-1.5-0.3-4.5-0.9-6.2-1c-4.6-0.4-9.1,0.8-9.1,0.8l-11.5-9.7&#13;&#10;&#9;&#9;&#9;l-0.1,18.4c0.7-0.7-11.6,11.1-6.2,22.8C55,72.4,68.8,79.1,87.4,77.7c18.5-1.3,24.1-11.2,23.5-16.8c-0.5-5.6-7.1-8.5-7.1-8.5&#13;&#10;&#9;&#9;&#9;s0.4-4.3-2-9.9c-1.5-3.4-7.1-8.7-7.1-8.7l-1.4-11.5l-8,6.1L82.5,29.2z" stroke-width="1"/>
        <path id="ID0.3588979784399271_8_" fill="#FFFFFF" d="M102.9,52.1l-2.1-2.3l-9.1,1.5c0,0-0.4,3.3-4.7,3.7&#13;&#10;&#9;&#9;&#9;c-4.3,0.4-11.1-2.1-11.1-2.1l-7.3,0.9c0,0-8-1.5-9.2,4.8c-2,10.9,6.5,17.3,15,18.3c5.5,0.7,9,0.4,13,0.2&#13;&#10;&#9;&#9;&#9;c17.5-1,23.6-10.7,22.8-16.3c-0.5-5.6-6.9-8-6.9-8L102.9,52.1z" stroke-width="1"/>
        <path id="ID0.2727069961838424_8_" fill="none" stroke="#8E5322" stroke-width="1.4" stroke-linecap="round" stroke-linejoin="round" d="&#13;&#10;&#9;&#9;&#9;M107.2,58.1c0,0,4.5-0.2,6.7-0.7c2.7-0.6,4.7-1.9,4.7-1.9"/>
        <path id="ID0.5861211125738919_8_" fill="none" stroke="#8E5322" stroke-width="1.4" stroke-linecap="round" stroke-linejoin="round" d="&#13;&#10;&#9;&#9;&#9;M107,63.9c0,0,2.4,1.4,5.2,2c2.6,0.6,4.5,0.6,4.5,0.6"/>
        <path id="ID0.4793355236761272_8_" fill="none" stroke="#8E5322" stroke-width="1.4" stroke-linecap="round" stroke-linejoin="round" d="&#13;&#10;&#9;&#9;&#9;M65.2,27.2l4.7,4.2"/>
        <path id="ID0.48413723474368453_8_" fill="none" stroke="#8E5322" stroke-width="1.4" stroke-linecap="round" stroke-linejoin="round" d="&#13;&#10;&#9;&#9;&#9;M82.5,29.2c-1.5-0.3-4.5-0.9-6.2-1c-4.6-0.4-9.1,0.8-9.1,0.8l-11.5-9.7l-0.1,18.4c0.7-0.7-11.6,11.1-6.2,22.8&#13;&#10;&#9;&#9;&#9;C55,72.4,68.8,79.1,87.4,77.7c18.5-1.3,24.1-11.2,23.5-16.8c-0.5-5.6-7.1-8.5-7.1-8.5s0.4-4.3-2-9.9c-1.5-3.4-7.1-8.7-7.1-8.7&#13;&#10;&#9;&#9;&#9;l-1.4-11.5l-8,6.1L82.5,29.2z"/>
        <path id="ID0.9024141579866409_8_" fill="none" stroke="#8E5322" stroke-width="1.4" stroke-linecap="round" stroke-linejoin="round" d="&#13;&#10;&#9;&#9;&#9;M38.4,55c0,0,3.9,0.9,5.7,1c1.8,0.1,5.3,0.1,5.3,0.1"/>
        <path id="ID0.16030752705410123_8_" fill="none" stroke="#8E5322" stroke-width="1.4" stroke-linecap="round" stroke-linejoin="round" d="&#13;&#10;&#9;&#9;&#9;M50.1,52.3c0,0-2.1-2-5.5-4c-3.7-2.3-5.9-2.9-5.9-2.9"/>
      </g>
      <g id="Layer_5_9_">
        <path id="ID0.40023312577977777_8_" fill="#FFFFFF" stroke="#8E5322" stroke-width="1.4" stroke-linecap="round" stroke-linejoin="round" d="&#13;&#10;&#9;&#9;&#9;M99.6,42.2c2.3,4.6,1.7,9.6-1.1,10.9c-2.9,1.5-7.1-1.2-9.4-5.9c-2.3-4.6-1.7-9.6,1.1-10.9C93.1,35,97.3,37.6,99.6,42.2z"/>
        <path id="ID0.43813491938635707_8_" fill="#414142" d="M99,45.8c0.2,1-0.4,2-1.5,2.1c-0.9,0.2-1.8-0.5-2-1.7c-0.2-1,0.4-2,1.5-2.1&#13;&#10;&#9;&#9;&#9;C98,44.1,98.9,44.8,99,45.8" stroke-width="1"/>
      </g>
      <g id="Layer_7_9_">
        <path id="ID0.4253597157076001_8_" fill="#FFFFFF" stroke="#8E5322" stroke-width="1.4" stroke-linecap="round" stroke-linejoin="round" d="&#13;&#10;&#9;&#9;&#9;M76.2,42.5c2.3,4.6,1.3,9.7-2.1,11.4c-3.4,1.7-8.1-0.7-10.3-5.4c-2.3-4.6-1.3-9.7,2.1-11.4C69.3,35.5,73.9,37.9,76.2,42.5z"/>
        <path id="ID0.814307457767427_8_" fill="#414142" d="M75.4,46.3c-0.1,1-1,1.8-1.9,1.7c-1-0.1-1.6-1-1.5-2.1c0.1-1,1-1.8,1.9-1.7&#13;&#10;&#9;&#9;&#9;C74.8,44.3,75.5,45.2,75.4,46.3" stroke-width="1"/>
      </g>
      <path id="ID0.5240494590252638_8_" fill="#5F4B43" stroke="#8E5322" stroke-width="1.4" stroke-linecap="round" stroke-linejoin="round" d="&#13;&#10;&#9;&#9;M85.9,53.7c1.7,0,4.2-1,4.2,0.9c-0.1,0.8-2.1,3.9-3.9,3.8c-2-0.1-5.2-3.1-4.9-4.5C81.6,52.3,84.4,53.7,85.9,53.7z"/>
      <path id="ID0.046259244438260794_8_" fill="#FFFFFF" stroke="#8E5322" stroke-width="1.4" stroke-linecap="round" stroke-linejoin="round" d="&#13;&#10;&#9;&#9;M75,67.8c0,0,2.2,2.6,7.7,2.2"/>
    </g>
  </g>
</svg>