<svg xmlns="http://www.w3.org/2000/svg" xmlns:xlink="http://www.w3.org/1999/xlink" version="1.1" width="81.89900054931641" height="96.44083251953126" viewBox="0.0009999752044678178 1.0000000476837159 81.89900054931641 96.44083251953126">
  <!-- Exported by Scratch - http://scratch.mit.edu/ -->
  <g id="ID0.7479679696261883">
    <path id="ID0.30105241015553474_3_" fill="#FAA51F" stroke="#8E5322" stroke-width="1.4" stroke-linecap="round" stroke-linejoin="round" d="M 47.563 71.646 C 47.98 71.506 54.433 72.713 54.775 72.504 C 59.488 69.637 57.264 60.65 53.311 56.584 L 49.105 55.921 "/>
    <path id="ID0.1790580078959465_42_" fill="#FAA51F" stroke="#8E5322" stroke-width="1.4" stroke-linecap="round" stroke-linejoin="round" d="M 49.427 68.624 C 45.37 72.884 46.359 77.481 47.932 78.131 C 51.62 79.692 55.244 76.33 57.23 67.851 "/>
    <path id="ID0.8535828334279358_16_" fill="#FAA51F" d="M 27 71.501 C 24.7 70.501 22.1 69.001 20.2 66.2 C 16 60.001 16.2 51.501 11.9 52.7 C 7.6 53.9 4.6 67.101 15.6 73.9 C 19.401 76.3 23.201 77.2 26.201 77.8 C 27.001 78 34.001 78.9 37.1 76 C 40.201 73.1 38.8 71.899 38.1 71.199 C 37.4 70.601 30.2 73.001 27 71.501 Z " stroke-width="1"/>
    <path id="ID0.914295740891248_16_" fill="#FFFFFF" d="M 12.1 52.601 C 10 52.801 7.701 57.301 7.8 61.001 C 8 64.7 9.4 67.301 10.3 68.9 C 11.6 70.3 10.3 65.8 12.8 64.501 C 15.3 63.2 19.2 64.801 19.2 64.801 C 19.2 64.801 17.099 59.801 16 57.001 C 15.1 54.4 14.3 52.601 12.1 52.601 Z " stroke-width="1"/>
    <path id="ID0.40227043256163597_16_" fill="none" stroke="#8E5322" stroke-width="1.4" stroke-linecap="round" stroke-linejoin="round" d="M 27 71.501 C 24.7 70.501 22.1 69.001 20.2 66.2 C 16 60.001 16.2 51.501 11.9 52.7 C 7.6 53.9 4.6 67.101 15.6 73.9 C 19.401 76.3 23.201 77.2 26.201 77.8 C 27.001 78 34.001 78.9 37.1 76 C 40.201 73.1 38.8 71.899 38.1 71.199 C 37.4 70.601 30.2 73.001 27 71.501 Z "/>
    <path id="ID0.007584026083350182_16_" fill="#FAA51F" stroke="#8E5322" stroke-width="1.4" stroke-linecap="round" stroke-linejoin="round" d="M 51.4 73.7 C 51.4 73.7 49.7 79.2 50.5 88.001 C 50.8 91.801 57.9 87.501 57.4 94.9 C 57.2 97.001 48 96.8 45.9 96.001 C 44 95.301 43.5 94.601 43.799 92.601 C 44.9 85.301 41.199 76.901 41.199 76.901 "/>
    <path id="ID0.31672530295327306_16_" fill="#FAA51F" stroke="#8E5322" stroke-width="1.4" stroke-linecap="round" stroke-linejoin="round" d="M 52.5 89.801 C 52.5 89.801 51.2 89.601 49.7 89.901 "/>
    <path id="ID0.46792364912107587_16_" fill="#FAA51F" stroke="#8E5322" stroke-width="1.4" stroke-linecap="round" stroke-linejoin="round" d="M 52.2 62.801 C 52.2 69.501 53.9 79.301 42 79.301 C 30.1 79.301 31.2 70.301 31.2 63.601 C 31.2 56.901 35.3 55.101 42 55.101 C 48.7 55.101 52.2 56.101 52.2 62.801 Z "/>
    <path id="ID0.38032895559445024_22_" fill="#FFFFFF" d="M 49.6 65.7 C 49.6 69.9 50.5 76.2 44.1 76.2 C 37.701 76.2 38.201 70.501 38.201 66.301 C 38.201 62.101 40.401 60.901 44.1 60.901 C 47.8 60.9 49.6 61.501 49.6 65.7 Z " stroke-width="1"/>
    <path id="ID0.527006761636585_19_" fill="#FAA51F" stroke="#8E5322" stroke-width="1.4" stroke-linecap="round" stroke-linejoin="round" d="M 32 73.7 C 32 73.7 34.6 79.2 33.3 87.9 C 32.7 91.7 27.1 87.001 27.5 94.6 C 27.6 97.1 35.2 96.9 37.4 96.5 C 39.5 96.1 40.299 95 40.099 92.899 C 39.799 88.699 41.299 79.599 41.299 79.599 "/>
    <path id="ID0.8937406223267317_26_" fill="#FAA51F" stroke="#8E5322" stroke-width="1.4" stroke-linecap="round" stroke-linejoin="round" d="M 30.9 89.7 C 30.9 89.7 32.5 89.501 33.9 89.9 "/>
    <path id="ID0.15909873321652412_36_" fill="#FAA51F" stroke="#8E5322" stroke-width="1.4" stroke-linecap="round" stroke-linejoin="round" d="M 32.95 70.851 C 32.784 70.758 25.181 72.801 25.04 72.681 C 21.705 69.842 25.375 59.783 31.9 54.601 L 39.799 56.001 "/>
    <path id="ID0.8143284288235009_1_" fill="#FAA51F" stroke="#8E5322" stroke-width="1.4" stroke-linecap="round" stroke-linejoin="round" d="M 34.3 62.4 C 33.135 65.535 31.218 69.335 31.218 69.335 "/>
    <path id="ID0.6682511982508004_3_" fill="none" stroke="#8E5322" stroke-width="1.4" stroke-linecap="round" stroke-linejoin="round" d="M 31.563 69.501 L 30.364 69.2 "/>
    <path id="ID0.2591130444779992_16_" fill="#FAA51F" d="M 42.2 9.9 C 40.7 9.8 37.599 9.6 35.9 9.7 C 31.299 9.9 27 11.6 27 11.6 L 14.4 3.4 L 16.6 21.7 C 17.201 20.9 6.401 34.1 13.201 45.1 C 20.1 56.2 34.701 61.1 52.901 57.5 C 71.1 53.9 75.4 43.4 74.2 37.9 C 73 32.4 66.099 30.3 66.099 30.3 C 66.099 30.3 66 26.001 62.9 20.7 C 61 17.501 54.8 12.9 54.8 12.9 L 52 1.7 L 44.8 8.7 L 42.2 9.9 Z " stroke-width="1"/>
    <path id="ID0.3588979784399271_16_" fill="#FFFFFF" d="M 65.2 30.2 L 62.8 28.2 L 54 30.801 C 54 30.801 54 34.101 49.8 35.001 C 45.6 35.9 38.5 34.301 38.5 34.301 L 31.4 36.101 C 31.4 36.101 23.299 35.601 22.9 42.001 C 22.2 53.101 31.5 58.4 40 58.301 C 45.5 58.301 49 57.601 52.9 56.901 C 70.099 53.801 75 43.401 73.5 37.901 C 72.3 32.401 65.7 30.801 65.7 30.801 L 65.2 30.2 Z " stroke-width="1"/>
    <path id="ID0.2727069961838424_16_" fill="none" stroke="#8E5322" stroke-width="1.4" stroke-linecap="round" stroke-linejoin="round" d="M 70.2 35.601 C 70.2 35.601 74.599 34.901 76.8 34.101 C 79.401 33.201 81.2 31.601 81.2 31.601 "/>
    <path id="ID0.5861211125738919_16_" fill="none" stroke="#8E5322" stroke-width="1.4" stroke-linecap="round" stroke-linejoin="round" d="M 70.7 41.4 C 70.7 41.4 73.3 42.501 76.099 42.7 C 78.799 43.001 80.599 42.801 80.599 42.801 "/>
    <path id="ID0.4793355236761272_16_" fill="none" stroke="#8E5322" stroke-width="1.4" stroke-linecap="round" stroke-linejoin="round" d="M 24.7 10.101 L 29.9 13.701 "/>
    <path id="ID0.48413723474368453_16_" fill="none" stroke="#8E5322" stroke-width="1.4" stroke-linecap="round" stroke-linejoin="round" d="M 42.2 9.9 C 40.7 9.8 37.599 9.6 35.9 9.7 C 31.299 9.9 27 11.6 27 11.6 L 14.4 3.4 L 16.6 21.7 C 17.201 20.9 6.401 34.1 13.201 45.1 C 20.1 56.2 34.701 61.1 52.901 57.5 C 71.1 53.9 75.4 43.4 74.2 37.9 C 73 32.4 66.099 30.3 66.099 30.3 C 66.099 30.3 66 26.001 62.9 20.7 C 61 17.501 54.8 12.9 54.8 12.9 L 52 1.7 L 44.8 8.7 L 42.2 9.9 Z "/>
    <path id="ID0.9024141579866409_16_" fill="none" stroke="#8E5322" stroke-width="1.4" stroke-linecap="round" stroke-linejoin="round" d="M 1.5 40.9 C 1.5 40.9 5.5 41.3 7.3 41.2 C 9.1 41.1 12.6 40.6 12.6 40.6 "/>
    <path id="ID0.16030752705410123_16_" fill="none" stroke="#8E5322" stroke-width="1.4" stroke-linecap="round" stroke-linejoin="round" d="M 12.8 36.801 C 12.8 36.801 10.5 35.101 6.901 33.501 C 2.901 31.7 0.701 31.301 0.701 31.301 "/>
    <path id="ID0.40023312577977777_16_" fill="#FFFFFF" stroke="#8E5322" stroke-width="1.4" stroke-linecap="round" stroke-linejoin="round" d="M 60.7 20.801 C 63.5 25.101 63.599 30.101 60.9 31.801 C 58.2 33.601 53.7 31.501 50.9 27.101 C 48.099 22.801 48 17.801 50.7 16.101 C 53.4 14.401 57.9 16.501 60.7 20.801 Z "/>
    <path id="ID0.43813491938635707_16_" fill="#414142" d="M 60.6 24.4 C 60.901 25.4 60.401 26.4 59.401 26.7 C 58.501 27.001 57.501 26.4 57.201 25.301 C 56.901 24.301 57.401 23.301 58.401 23.001 C 59.4 22.801 60.3 23.4 60.6 24.4 " stroke-width="1"/>
    <path id="ID0.4253597157076001_16_" fill="#FFFFFF" stroke="#8E5322" stroke-width="1.4" stroke-linecap="round" stroke-linejoin="round" d="M 37.5 23.9 C 40.3 28.2 40 33.4 36.8 35.501 C 33.6 37.601 28.7 35.801 25.901 31.4 C 23.1 27.1 23.401 21.9 26.6 19.8 C 29.8 17.801 34.7 19.601 37.5 23.9 Z "/>
    <path id="ID0.814307457767427_16_" fill="#414142" d="M 37.2 27.801 C 37.2 28.801 36.4 29.7 35.5 29.7 C 34.5 29.7 33.8 28.9 33.8 27.801 C 33.8 26.801 34.6 25.901 35.5 25.901 C 36.4 25.901 37.2 26.7 37.2 27.801 " stroke-width="1"/>
    <path id="ID0.5240494590252638_16_" fill="#5F4B43" stroke="#8E5322" stroke-width="1.4" stroke-linecap="round" stroke-linejoin="round" d="M 48.5 33.801 C 50.2 33.601 52.5 32.301 52.8 34.2 C 52.8 35.001 51.2 38.301 49.401 38.4 C 47.401 38.501 43.901 36.001 44.001 34.501 C 44.101 33.001 47 34.001 48.5 33.801 Z "/>
    <path id="ID0.046259244438260794_16_" fill="#FFFFFF" stroke="#8E5322" stroke-width="1.4" stroke-linecap="round" stroke-linejoin="round" d="M 39.4 49.2 C 39.4 49.2 41.9 51.501 47.299 50.4 "/>
    <path id="ID0.1790580078959465_41_" fill="#FAA51F" stroke="#8E5322" stroke-width="1.4" stroke-linecap="round" stroke-linejoin="round" d="M 32.332 70.025 C 37.491 72.85 37.305 77.161 36.003 78.257 C 32.962 80.864 28.49 78.764 24.021 71.288 "/>
  </g>
</svg>