<svg version="1.1" xmlns="http://www.w3.org/2000/svg" xmlns:xlink="http://www.w3.org/1999/xlink" width="15.04166" height="21.41666"><g transform="translate(-232.55,-169.11673)"><g data-paper-data="{&quot;isPaintingLayer&quot;:true}" fill="none" fill-rule="nonzero" stroke="none" stroke-width="none" stroke-linecap="butt" stroke-linejoin="miter" stroke-miterlimit="10" stroke-dasharray="" stroke-dashoffset="0" font-family="none" font-weight="none" font-size="none" text-anchor="none" style="mix-blend-mode: normal"><path d="M240.07083,190.53339c-4.15364,0 -7.52083,-4.79428 -7.52083,-10.70833c0,-5.91405 3.3672,-10.70833 7.52083,-10.70833c4.15364,0 7.52083,4.79428 7.52083,10.70833c0,5.91405 -3.3672,10.70833 -7.52083,10.70833z" data-paper-data="{&quot;origPos&quot;:null,&quot;index&quot;:null}" fill="#ffd900" stroke-width="0"/><path d="M237.93872,186.44174c-2.02266,0 -3.66236,-3.38984 -3.66236,-7.57143c0,-4.18159 1.63969,-7.57143 3.66236,-7.57143c2.02266,0 3.66236,3.38984 3.66236,7.57143c0,4.18159 -1.63969,7.57143 -3.66236,7.57143z" data-paper-data="{&quot;origPos&quot;:null,&quot;index&quot;:null}" fill="#dfbe00" stroke-width="0"/><path d="M237.7828,187.06674c-1.98703,0 -3.59783,-3.35787 -3.59783,-7.5c0,-4.14213 1.6108,-7.5 3.59783,-7.5c1.98703,0 3.59783,3.35787 3.59783,7.5c0,4.14213 -1.6108,7.5 -3.59783,7.5z" data-paper-data="{&quot;origPos&quot;:null,&quot;index&quot;:null}" fill="#ffe44c" stroke-width="0"/><g data-paper-data="{&quot;origPos&quot;:null,&quot;index&quot;:null}" stroke-width="1" font-family="Sans Serif" font-weight="normal" font-size="40" text-anchor="start"><text transform="translate(239.25389,180.45456) rotate(-180) scale(0.08003,-0.16685)" font-size="40" xml:space="preserve" data-paper-data="{&quot;origPos&quot;:null}" fill="#dfbe00" fill-rule="nonzero" stroke="none" stroke-width="1" stroke-linecap="butt" stroke-linejoin="miter" stroke-miterlimit="10" stroke-dasharray="" stroke-dashoffset="0" font-family="Sans Serif" font-weight="normal" text-anchor="start" style="mix-blend-mode: normal"><tspan x="0" dy="0">★</tspan></text><text transform="translate(239.28244,180.16884) rotate(-180) scale(0.08003,-0.16685)" font-size="40" xml:space="preserve" data-paper-data="{&quot;origPos&quot;:null}" fill="#ffd900" fill-rule="nonzero" stroke="none" stroke-width="1" stroke-linecap="butt" stroke-linejoin="miter" stroke-miterlimit="10" stroke-dasharray="" stroke-dashoffset="0" font-family="Sans Serif" font-weight="normal" text-anchor="start" style="mix-blend-mode: normal"><tspan x="0" dy="0">★</tspan></text></g></g></g></svg>