<svg version="1.1" xmlns="http://www.w3.org/2000/svg" xmlns:xlink="http://www.w3.org/1999/xlink" width="495.00197" height="369.13699" viewBox="0,0,495.00197,369.13699"><g transform="translate(6.53442,2.73676)"><g data-paper-data="{&quot;isPaintingLayer&quot;:true}" fill-rule="nonzero" stroke-linejoin="miter" stroke-miterlimit="10" stroke-dasharray="" stroke-dashoffset="0" style="mix-blend-mode: normal"><path d="M1,0.00001h479v19.73623c-0.13353,-0.02398 -0.27206,-0.05121 -0.4162,-0.08254c-0.20574,-0.04472 -0.4292,-0.08457 -0.66446,-0.12278c-0.52999,-0.50752 -0.639,-0.66364 -0.668,-1.49582c0.00248,-0.02822 0.00013,-0.06001 -0.00881,-0.09575c-0.06063,-0.24254 -0.30317,-0.1819 -0.30317,-0.1819l-0.18807,0.28497c0.02199,0.64866 0.13299,1.01445 0.39416,1.36973c-0.34861,-0.05269 -0.70775,-0.10871 -1.062,-0.17644c-0.08405,-0.01607 -0.16783,-0.0328 -0.25113,-0.0503c-0.91416,-0.19207 -1.77044,-0.47711 -2.29678,-1.00345c-1.11958,-1.11959 -2.23917,-2.23917 -3.35876,-3.35875c0,0 -0.17678,-0.17677 -0.35355,0c-0.17678,0.17677 0,0.35355 0,0.35355c1.11958,1.11959 2.23917,2.23917 3.35876,3.35876c0.99863,0.99863 2.94664,1.20645 4.50072,1.46007c0.02751,0.0265 0.05574,0.05352 0.08472,0.08115c0.34006,0.3086 0.76687,0.67421 1.23258,1.05301v9.43698c-1.20794,-0.47775 -2.88999,-1.79347 -3.81636,-2.39794c-1.47294,-0.96113 -3.17186,-2.41801 -4.98773,-2.41942c-2.09361,-0.0014 -3.13885,-0.57613 -4.94772,-1.60977c-1.37472,-0.78555 -2.74944,-1.57111 -4.12416,-2.35666c0,0 -0.21706,-0.12403 -0.34109,0.09303c-0.12403,0.21706 0.09303,0.34109 0.09303,0.34109c1.37472,0.78555 2.74943,1.57111 4.12415,2.35666c1.8569,1.06108 3.02922,1.67376 5.1954,1.67565c1.69015,0.00131 3.33351,1.43678 4.71488,2.33816c1.00009,0.65258 2.76971,2.04739 4.08959,2.50684v328.90563h-479z" data-paper-data="{&quot;origPos&quot;:null}" fill="#8e00e9" stroke="none" stroke-width="1" stroke-linecap="butt"/><path d="M480,20.24258v0.28026c-0.14657,-0.12274 -0.28547,-0.24256 -0.41411,-0.35758c0.14427,0.02985 0.28206,0.05532 0.41411,0.07732z" data-paper-data="{&quot;origPos&quot;:null}" fill="#8e00e9" stroke="none" stroke-width="1" stroke-linecap="butt"/><path d="M249.61138,40.2l0.66866,37.1l-63.90474,-33.9l-62.56742,34.6l-65.71967,-34.6l-57.12262,30v-37.8l55.7853,-29.7l65.81519,34.7l62.56742,-34.7l64.47788,34.3" data-paper-data="{&quot;origPos&quot;:null}" fill="#ffffff" stroke="#ffffff" stroke-width="15" stroke-linecap="round"/><path d="M480.96755,22.50001v8.24888c-0.07828,-0.00138 -0.15657,-0.00288 -0.23484,-0.00451c-1.14099,-0.02376 -3.41315,-1.83437 -4.54907,-2.57559c-1.47294,-0.96113 -3.17186,-2.41801 -4.98773,-2.41942c-2.09361,-0.0014 -3.13885,-0.57613 -4.94772,-1.60977c-1.37472,-0.78555 -2.74944,-1.57111 -4.12416,-2.35666c0,0 -0.21706,-0.12403 -0.34109,0.09303c-0.12403,0.21706 0.09303,0.34109 0.09303,0.34109c1.37472,0.78555 2.74943,1.57111 4.12415,2.35666c1.8569,1.06108 3.02922,1.67376 5.1954,1.67565c1.69015,0.00131 3.33351,1.43678 4.71488,2.33816c1.1983,0.78192 3.50142,2.62945 4.81189,2.65674c0.08174,0.0017 0.1635,0.00326 0.24525,0.00469v28.05105l-30.08967,-16l-62.56742,34.6l-65.71967,-34.6l-65.8152,34.6l-0.66866,-37.1l1.33732,-1l63.80921,-34l65.8152,34.7l62.56743,-34.7l31.33147,16.7" data-paper-data="{&quot;origPos&quot;:null}" fill="#ffffff" stroke="#ffffff" stroke-width="15" stroke-linecap="round"/><path d="M253.71885,133.10001l0.57314,37.1l-63.80921,-34l-62.56742,34.7l-65.81519,-34.7l-61.13457,32.2v-37.8l59.89278,-31.8l65.71967,34.6l62.56742,-34.6l64.5734,34.3" data-paper-data="{&quot;origPos&quot;:null}" fill="#ffffff" stroke="#ffffff" stroke-width="15" stroke-linecap="round"/><path d="M480.96755,113.20001v36.7l-25.98219,-13.8l-62.56742,34.6l-65.8152,-34.6l-65.8152,34.6l-0.57314,-37.1l1.24179,-1l63.90474,-34l65.71967,34.7l62.56742,-34.7l27.31951,14.6" data-paper-data="{&quot;origPos&quot;:null}" fill="#ffffff" stroke="#ffffff" stroke-width="15" stroke-linecap="round"/><path d="M4.02231,316.00001l63.90474,-34l65.71967,34.6l62.56742,-34.6l64.5734,34.3l0.66866,37.1l-63.80921,-33.9l-62.56742,34.6l-65.81519,-34.6l-65.81519,34.6l-0.66866,-37.1z" data-paper-data="{&quot;origPos&quot;:null}" fill="#ffffff" stroke="#ffffff" stroke-width="15" stroke-linecap="round"/><path d="M480.96755,292.7v36.8l-18.91351,-10.1l-62.56742,34.6l-65.81519,-34.6l-65.8152,34.6l-0.57314,-37.1l1.2418,-1l63.90474,-34l65.71967,34.7l62.56742,-34.7l20.25083,10.8" data-paper-data="{&quot;origPos&quot;:null}" fill="#ffffff" stroke="#ffffff" stroke-width="15" stroke-linecap="round"/><path d="M256.68006,223.50001l0.66866,37.1l-63.90474,-33.9l-62.56742,34.6l-65.71968,-34.6l-64.1913,33.8v-37.9l62.85398,-33.4l65.8152,34.7l62.56742,-34.7l64.47788,34.3" data-paper-data="{&quot;origPos&quot;:null}" fill="#ffffff" stroke="#ffffff" stroke-width="15" stroke-linecap="round"/><path d="M480.96755,202.10001v36.7l-23.02099,-12.2l-62.56742,34.6l-65.71967,-34.6l-65.8152,34.6l-0.66866,-37.1l1.33731,-1l63.80922,-34l65.8152,34.7l62.56742,-34.7l24.26278,13" data-paper-data="{&quot;origPos&quot;:null}" fill="#ffffff" stroke="#ffffff" stroke-width="15" stroke-linecap="round"/><text transform="translate(49.52949,89.14927) scale(1.77844,1.77844)" font-size="40" xml:space="preserve" data-paper-data="{&quot;origPos&quot;:null}" fill="#e83737" fill-rule="nonzero" stroke="#000000" stroke-width="1.34" stroke-linecap="butt" stroke-linejoin="miter" stroke-miterlimit="10" stroke-dasharray="" stroke-dashoffset="0" font-family="Sans Serif" font-weight="normal" text-anchor="start" style="mix-blend-mode: normal"><tspan x="0" dy="0">PUPPY RUN</tspan></text><text transform="translate(343.05899,354.89927) scale(0.5,0.5)" font-size="40" xml:space="preserve" data-paper-data="{&quot;origPos&quot;:null}" fill="#a87662" fill-rule="nonzero" stroke="none" stroke-width="1" stroke-linecap="butt" stroke-linejoin="miter" stroke-miterlimit="10" stroke-dasharray="" stroke-dashoffset="0" font-family="Sans Serif" font-weight="normal" text-anchor="start" style="mix-blend-mode: normal"><tspan x="0" dy="0">By @CoderQC</tspan></text></g></g></svg>