<svg version="1.1" xmlns="http://www.w3.org/2000/svg" xmlns:xlink="http://www.w3.org/1999/xlink" width="788.87177" height="605.75" viewBox="0,0,788.87177,605.75"><defs><linearGradient x1="238" y1="-35.75" x2="238" y2="192.25" gradientUnits="userSpaceOnUse" id="color-1"><stop offset="0" stop-color="#050b18"/><stop offset="1" stop-color="#142755"/></linearGradient><linearGradient x1="240.5" y1="184.25" x2="240.5" y2="451.83334" gradientUnits="userSpaceOnUse" id="color-2"><stop offset="0" stop-color="#132552"/><stop offset="1" stop-color="#264aa5"/></linearGradient><linearGradient x1="240" y1="405.75" x2="240" y2="274.75" gradientUnits="userSpaceOnUse" id="color-3"><stop offset="0" stop-color="#000000"/><stop offset="1" stop-color="#000000" stop-opacity="0"/></linearGradient><radialGradient cx="53.50002" cy="63.5" r="19.75" gradientUnits="userSpaceOnUse" id="color-4"><stop offset="0" stop-color="#7bb2ff"/><stop offset="1" stop-color="#006aff"/></radialGradient><radialGradient cx="358.50003" cy="94.5" r="19.75" gradientUnits="userSpaceOnUse" id="color-5"><stop offset="0" stop-color="#7bb2ff"/><stop offset="1" stop-color="#006aff"/></radialGradient><radialGradient cx="260.50003" cy="133.5" r="19.75" gradientUnits="userSpaceOnUse" id="color-6"><stop offset="0" stop-color="#7bb2ff"/><stop offset="1" stop-color="#006aff"/></radialGradient><radialGradient cx="374.50003" cy="221.5" r="19.75" gradientUnits="userSpaceOnUse" id="color-7"><stop offset="0" stop-color="#7bb2ff"/><stop offset="1" stop-color="#006aff"/></radialGradient><radialGradient cx="202.50003" cy="221.5" r="19.75" gradientUnits="userSpaceOnUse" id="color-8"><stop offset="0" stop-color="#7bb2ff"/><stop offset="1" stop-color="#006aff"/></radialGradient><radialGradient cx="71.50003" cy="256.5" r="19.75" gradientUnits="userSpaceOnUse" id="color-9"><stop offset="0" stop-color="#7bb2ff"/><stop offset="1" stop-color="#006aff"/></radialGradient><radialGradient cx="336.36307" cy="278" r="11.25" gradientUnits="userSpaceOnUse" id="color-10"><stop offset="0" stop-color="#4492ff"/><stop offset="1" stop-color="#0053c7"/></radialGradient><radialGradient cx="97.36307" cy="173" r="11.25" gradientUnits="userSpaceOnUse" id="color-11"><stop offset="0" stop-color="#4492ff"/><stop offset="1" stop-color="#0053c7"/></radialGradient><radialGradient cx="187.36306" cy="86" r="11.25" gradientUnits="userSpaceOnUse" id="color-12"><stop offset="0" stop-color="#4492ff"/><stop offset="1" stop-color="#0053c7"/></radialGradient><radialGradient cx="519.50003" cy="229.5" r="19.75" gradientUnits="userSpaceOnUse" id="color-13"><stop offset="0" stop-color="#7bb2ff"/><stop offset="1" stop-color="#006aff"/></radialGradient><radialGradient cx="535.50003" cy="356.5" r="19.75" gradientUnits="userSpaceOnUse" id="color-14"><stop offset="0" stop-color="#7bb2ff"/><stop offset="1" stop-color="#006aff"/></radialGradient><radialGradient cx="568.36307" cy="175" r="11.25" gradientUnits="userSpaceOnUse" id="color-15"><stop offset="0" stop-color="#4492ff"/><stop offset="1" stop-color="#0053c7"/></radialGradient><radialGradient cx="623.50003" cy="327.5" r="19.75" gradientUnits="userSpaceOnUse" id="color-16"><stop offset="0" stop-color="#7bb2ff"/><stop offset="1" stop-color="#006aff"/></radialGradient><radialGradient cx="490.36305" cy="299" r="11.25" gradientUnits="userSpaceOnUse" id="color-17"><stop offset="0" stop-color="#4492ff"/><stop offset="1" stop-color="#0053c7"/></radialGradient><radialGradient cx="407.36307" cy="40" r="11.25" gradientUnits="userSpaceOnUse" id="color-18"><stop offset="0" stop-color="#4492ff"/><stop offset="1" stop-color="#0053c7"/></radialGradient><radialGradient cx="462.50003" cy="192.5" r="19.75" gradientUnits="userSpaceOnUse" id="color-19"><stop offset="0" stop-color="#7bb2ff"/><stop offset="1" stop-color="#006aff"/></radialGradient><radialGradient cx="260.50003" cy="323.5" r="19.75" gradientUnits="userSpaceOnUse" id="color-20"><stop offset="0" stop-color="#7bb2ff"/><stop offset="1" stop-color="#006aff"/></radialGradient><radialGradient cx="222.50003" cy="36.5" r="19.75" gradientUnits="userSpaceOnUse" id="color-21"><stop offset="0" stop-color="#7bb2ff"/><stop offset="1" stop-color="#006aff"/></radialGradient><radialGradient cx="12.36306" cy="193" r="11.25" gradientUnits="userSpaceOnUse" id="color-22"><stop offset="0" stop-color="#4492ff"/><stop offset="1" stop-color="#0053c7"/></radialGradient><radialGradient cx="329.36305" cy="164" r="11.25" gradientUnits="userSpaceOnUse" id="color-23"><stop offset="0" stop-color="#4492ff"/><stop offset="1" stop-color="#0053c7"/></radialGradient><radialGradient cx="248.5" cy="405" r="301.5" gradientUnits="userSpaceOnUse" id="color-24"><stop offset="0" stop-color="#83b1ff"/><stop offset="1" stop-color="#83b1ff" stop-opacity="0"/></radialGradient><radialGradient cx="248.5" cy="405" r="263.12727" gradientUnits="userSpaceOnUse" id="color-25"><stop offset="0" stop-color="#e1ecff"/><stop offset="1" stop-color="#e1ecff" stop-opacity="0"/></radialGradient><radialGradient cx="248.5" cy="405" r="211.96364" gradientUnits="userSpaceOnUse" id="color-26"><stop offset="0" stop-color="#256ce6"/><stop offset="1" stop-color="#256ce6" stop-opacity="0"/></radialGradient><radialGradient cx="490.50003" cy="65.5" r="19.75" gradientUnits="userSpaceOnUse" id="color-27"><stop offset="0" stop-color="#7bb2ff"/><stop offset="1" stop-color="#006aff"/></radialGradient><radialGradient cx="506.50003" cy="192.5" r="19.75" gradientUnits="userSpaceOnUse" id="color-28"><stop offset="0" stop-color="#7bb2ff"/><stop offset="1" stop-color="#006aff"/></radialGradient><radialGradient cx="539.36307" cy="11" r="11.25" gradientUnits="userSpaceOnUse" id="color-29"><stop offset="0" stop-color="#4492ff"/><stop offset="1" stop-color="#0053c7"/></radialGradient><radialGradient cx="594.50003" cy="163.5" r="19.75" gradientUnits="userSpaceOnUse" id="color-30"><stop offset="0" stop-color="#7bb2ff"/><stop offset="1" stop-color="#006aff"/></radialGradient><radialGradient cx="461.36305" cy="135" r="11.25" gradientUnits="userSpaceOnUse" id="color-31"><stop offset="0" stop-color="#4492ff"/><stop offset="1" stop-color="#0053c7"/></radialGradient><radialGradient cx="-69.49997" cy="105.5" r="19.75" gradientUnits="userSpaceOnUse" id="color-32"><stop offset="0" stop-color="#7bb2ff"/><stop offset="1" stop-color="#006aff"/></radialGradient><radialGradient cx="-53.49997" cy="232.5" r="19.75" gradientUnits="userSpaceOnUse" id="color-33"><stop offset="0" stop-color="#7bb2ff"/><stop offset="1" stop-color="#006aff"/></radialGradient><radialGradient cx="-20.63693" cy="51" r="11.25" gradientUnits="userSpaceOnUse" id="color-34"><stop offset="0" stop-color="#4492ff"/><stop offset="1" stop-color="#0053c7"/></radialGradient><radialGradient cx="34.50003" cy="203.5" r="19.75" gradientUnits="userSpaceOnUse" id="color-35"><stop offset="0" stop-color="#7bb2ff"/><stop offset="1" stop-color="#006aff"/></radialGradient><radialGradient cx="-98.63695" cy="175" r="11.25" gradientUnits="userSpaceOnUse" id="color-36"><stop offset="0" stop-color="#4492ff"/><stop offset="1" stop-color="#0053c7"/></radialGradient><radialGradient cx="-117.49997" cy="248.5" r="19.75" gradientUnits="userSpaceOnUse" id="color-37"><stop offset="0" stop-color="#7bb2ff"/><stop offset="1" stop-color="#006aff"/></radialGradient><radialGradient cx="-101.49997" cy="375.5" r="19.75" gradientUnits="userSpaceOnUse" id="color-38"><stop offset="0" stop-color="#7bb2ff"/><stop offset="1" stop-color="#006aff"/></radialGradient><radialGradient cx="-68.63693" cy="194" r="11.25" gradientUnits="userSpaceOnUse" id="color-39"><stop offset="0" stop-color="#4492ff"/><stop offset="1" stop-color="#0053c7"/></radialGradient><radialGradient cx="-13.49997" cy="346.5" r="19.75" gradientUnits="userSpaceOnUse" id="color-40"><stop offset="0" stop-color="#7bb2ff"/><stop offset="1" stop-color="#006aff"/></radialGradient><radialGradient cx="-146.63695" cy="318" r="11.25" gradientUnits="userSpaceOnUse" id="color-41"><stop offset="0" stop-color="#4492ff"/><stop offset="1" stop-color="#0053c7"/></radialGradient><radialGradient cx="-88.49997" cy="8.5" r="19.75" gradientUnits="userSpaceOnUse" id="color-42"><stop offset="0" stop-color="#7bb2ff"/><stop offset="1" stop-color="#006aff"/></radialGradient></defs><g transform="translate(153.43587,35.75)"><g data-paper-data="{&quot;isPaintingLayer&quot;:true}" fill-rule="nonzero" stroke-linecap="butt" stroke-linejoin="miter" stroke-miterlimit="10" stroke-dasharray="" stroke-dashoffset="0" style="mix-blend-mode: normal"><path d="M-125,192.25v-228h726v228z" data-paper-data="{&quot;origPos&quot;:null,&quot;index&quot;:null}" fill="url(#color-1)" stroke="none" stroke-width="0"/><path d="M-122,451.83334v-267.58334h725v267.58334z" data-paper-data="{&quot;origPos&quot;:null,&quot;index&quot;:null}" fill="url(#color-2)" stroke="none" stroke-width="0"/><path d="M-121.5,274.75h723v131h-723z" data-paper-data="{&quot;origPos&quot;:null,&quot;origRot&quot;:0,&quot;index&quot;:null}" fill="url(#color-3)" stroke="none" stroke-width="0"/><path d="M49.29241,68.13696c-3.08946,-5.29621 -7.72826,-5.49565 -7.72826,-5.49565c0,0 6.47334,-3.40096 8.24348,-6.18261c1.77014,-2.78165 3.60652,-12.7087 3.60652,-12.7087c0,0 0.58498,9.20391 3.26304,13.39565c2.67806,4.19174 8.7587,5.15217 8.7587,5.15217c0,0 -6.51482,2.86231 -8.58696,6.52609c-2.07214,3.66377 -3.26304,14.42609 -3.26304,14.42609c0,0 -1.20401,-9.81683 -4.29348,-15.11304z" data-paper-data="{&quot;origPos&quot;:null}" fill="url(#color-4)" stroke="none" stroke-width="0"/><path d="M354.29242,99.13696c-3.08946,-5.29622 -7.72826,-5.49565 -7.72826,-5.49565c0,0 6.47334,-3.40096 8.24348,-6.18261c1.77015,-2.78165 3.60652,-12.7087 3.60652,-12.7087c0,0 0.58498,9.20391 3.26305,13.39565c2.67806,4.19174 8.75869,5.15217 8.75869,5.15217c0,0 -6.51482,2.86232 -8.58695,6.52609c-2.07214,3.66377 -3.26305,14.42609 -3.26305,14.42609c0,0 -1.20402,-9.81683 -4.29348,-15.11304z" data-paper-data="{&quot;origPos&quot;:null}" fill="url(#color-5)" stroke="none" stroke-width="0"/><path d="M256.2924,138.13696c-3.08947,-5.29622 -7.72826,-5.49565 -7.72826,-5.49565c0,0 6.47333,-3.40096 8.24348,-6.18261c1.77015,-2.78165 3.60652,-12.7087 3.60652,-12.7087c0,0 0.58498,9.20391 3.26304,13.39565c2.67806,4.19174 8.75869,5.15218 8.75869,5.15218c0,0 -6.51482,2.86232 -8.58695,6.52609c-2.07214,3.66377 -3.26304,14.42609 -3.26304,14.42609c0,0 -1.20402,-9.81683 -4.29348,-15.11304z" data-paper-data="{&quot;origPos&quot;:null}" fill="url(#color-6)" stroke="none" stroke-width="0"/><path d="M370.29242,226.13696c-3.08947,-5.29621 -7.72826,-5.49565 -7.72826,-5.49565c0,0 6.47333,-3.40096 8.24348,-6.18261c1.77015,-2.78165 3.60652,-12.7087 3.60652,-12.7087c0,0 0.58498,9.20391 3.26304,13.39565c2.67806,4.19174 8.75869,5.15218 8.75869,5.15218c0,0 -6.51482,2.86232 -8.58695,6.52609c-2.07214,3.66377 -3.26304,14.42609 -3.26304,14.42609c0,0 -1.20402,-9.81683 -4.29348,-15.11304z" data-paper-data="{&quot;origPos&quot;:null}" fill="url(#color-7)" stroke="none" stroke-width="0"/><path d="M198.29241,226.13696c-3.08947,-5.29621 -7.72826,-5.49565 -7.72826,-5.49565c0,0 6.47333,-3.40096 8.24348,-6.18261c1.77015,-2.78165 3.60652,-12.7087 3.60652,-12.7087c0,0 0.58498,9.20391 3.26304,13.39565c2.67806,4.19174 8.75869,5.15218 8.75869,5.15218c0,0 -6.51482,2.86232 -8.58695,6.52609c-2.07214,3.66377 -3.26304,14.42609 -3.26304,14.42609c0,0 -1.20402,-9.81683 -4.29348,-15.11304z" data-paper-data="{&quot;origPos&quot;:null}" fill="url(#color-8)" stroke="none" stroke-width="0"/><path d="M67.29242,261.13696c-3.08946,-5.29622 -7.72826,-5.49565 -7.72826,-5.49565c0,0 6.47333,-3.40096 8.24348,-6.18261c1.77015,-2.78165 3.60652,-12.7087 3.60652,-12.7087c0,0 0.58499,9.20391 3.26305,13.39565c2.67806,4.19174 8.75869,5.15218 8.75869,5.15218c0,0 -6.51482,2.86232 -8.58695,6.52609c-2.07214,3.66377 -3.26305,14.42609 -3.26305,14.42609c0,0 -1.20401,-9.81683 -4.29348,-15.11304z" data-paper-data="{&quot;origPos&quot;:null}" fill="url(#color-9)" stroke="none" stroke-width="0"/><path d="M333.9663,280.6413c-1.75982,-3.01683 -4.40217,-3.13043 -4.40217,-3.13043c0,0 3.68734,-1.93726 4.69565,-3.52174c1.00831,-1.58448 2.05435,-7.23913 2.05435,-7.23913c0,0 0.33322,5.24273 1.8587,7.63043c1.52548,2.3877 4.98913,2.93478 4.98913,2.93478c0,0 -3.71097,1.63043 -4.8913,3.71739c-1.18033,2.08696 -1.8587,8.21739 -1.8587,8.21739c0,0 -0.68583,-5.59187 -2.44565,-8.6087z" data-paper-data="{&quot;origPos&quot;:null}" fill="url(#color-10)" stroke="none" stroke-width="0"/><path d="M94.96633,175.6413c-1.75982,-3.01683 -4.40217,-3.13043 -4.40217,-3.13043c0,0 3.68734,-1.93726 4.69565,-3.52174c1.00831,-1.58448 2.05435,-7.23913 2.05435,-7.23913c0,0 0.33322,5.24273 1.8587,7.63043c1.52548,2.3877 4.98913,2.93478 4.98913,2.93478c0,0 -3.71097,1.63043 -4.8913,3.71739c-1.18033,2.08696 -1.8587,8.21739 -1.8587,8.21739c0,0 -0.68583,-5.59187 -2.44565,-8.6087z" data-paper-data="{&quot;origPos&quot;:null}" fill="url(#color-11)" stroke="none" stroke-width="0"/><path d="M184.96633,88.6413c-1.75982,-3.01683 -4.40217,-3.13043 -4.40217,-3.13043c0,0 3.68734,-1.93726 4.69565,-3.52174c1.00831,-1.58448 2.05435,-7.23913 2.05435,-7.23913c0,0 0.33322,5.24273 1.8587,7.63043c1.52548,2.3877 4.98913,2.93478 4.98913,2.93478c0,0 -3.71097,1.63043 -4.8913,3.71739c-1.18033,2.08696 -1.8587,8.21739 -1.8587,8.21739c0,0 -0.68583,-5.59187 -2.44565,-8.6087z" data-paper-data="{&quot;origPos&quot;:null}" fill="url(#color-12)" stroke="none" stroke-width="0"/><path d="M515.29242,234.13696c-3.08946,-5.29622 -7.72826,-5.49565 -7.72826,-5.49565c0,0 6.47334,-3.40096 8.24348,-6.18261c1.77015,-2.78165 3.60652,-12.7087 3.60652,-12.7087c0,0 0.58498,9.20391 3.26305,13.39565c2.67806,4.19174 8.75869,5.15217 8.75869,5.15217c0,0 -6.51482,2.86232 -8.58695,6.52609c-2.07214,3.66377 -3.26305,14.42609 -3.26305,14.42609c0,0 -1.20402,-9.81683 -4.29348,-15.11304z" fill="url(#color-13)" stroke="none" stroke-width="0"/><path d="M531.29242,361.13696c-3.08947,-5.29621 -7.72826,-5.49565 -7.72826,-5.49565c0,0 6.47333,-3.40096 8.24348,-6.18261c1.77015,-2.78165 3.60652,-12.7087 3.60652,-12.7087c0,0 0.58498,9.20391 3.26304,13.39565c2.67806,4.19174 8.75869,5.15218 8.75869,5.15218c0,0 -6.51482,2.86232 -8.58695,6.52609c-2.07214,3.66377 -3.26304,14.42609 -3.26304,14.42609c0,0 -1.20402,-9.81683 -4.29348,-15.11304z" fill="url(#color-14)" stroke="none" stroke-width="0"/><path d="M565.96633,177.6413c-1.75982,-3.01683 -4.40217,-3.13043 -4.40217,-3.13043c0,0 3.68734,-1.93726 4.69565,-3.52174c1.00831,-1.58448 2.05435,-7.23913 2.05435,-7.23913c0,0 0.33322,5.24273 1.8587,7.63043c1.52548,2.3877 4.98913,2.93478 4.98913,2.93478c0,0 -3.71097,1.63043 -4.8913,3.71739c-1.18033,2.08696 -1.8587,8.21739 -1.8587,8.21739c0,0 -0.68583,-5.59187 -2.44565,-8.6087z" fill="url(#color-15)" stroke="none" stroke-width="0"/><path d="M619.29242,332.13696c-3.08946,-5.29622 -7.72826,-5.49565 -7.72826,-5.49565c0,0 6.47334,-3.40096 8.24348,-6.18261c1.77015,-2.78165 3.60652,-12.7087 3.60652,-12.7087c0,0 0.58498,9.20391 3.26305,13.39565c2.67806,4.19174 8.75869,5.15217 8.75869,5.15217c0,0 -6.51482,2.86232 -8.58695,6.52609c-2.07214,3.66377 -3.26305,14.42609 -3.26305,14.42609c0,0 -1.20402,-9.81683 -4.29348,-15.11304z" fill="url(#color-16)" stroke="none" stroke-width="0"/><path d="M487.9663,301.6413c-1.75982,-3.01683 -4.40217,-3.13043 -4.40217,-3.13043c0,0 3.68734,-1.93726 4.69565,-3.52174c1.00831,-1.58448 2.05435,-7.23913 2.05435,-7.23913c0,0 0.33322,5.24273 1.8587,7.63043c1.52548,2.3877 4.98913,2.93478 4.98913,2.93478c0,0 -3.71097,1.63043 -4.8913,3.71739c-1.18033,2.08696 -1.8587,8.21739 -1.8587,8.21739c0,0 -0.68583,-5.59187 -2.44565,-8.6087z" fill="url(#color-17)" stroke="none" stroke-width="0"/><path d="M404.96633,42.6413c-1.75982,-3.01683 -4.40217,-3.13043 -4.40217,-3.13043c0,0 3.68734,-1.93726 4.69565,-3.52174c1.00831,-1.58448 2.05435,-7.23913 2.05435,-7.23913c0,0 0.33322,5.24273 1.8587,7.63043c1.52548,2.3877 4.98913,2.93478 4.98913,2.93478c0,0 -3.71097,1.63043 -4.8913,3.71739c-1.18033,2.08696 -1.8587,8.21739 -1.8587,8.21739c0,0 -0.68583,-5.59187 -2.44565,-8.6087z" data-paper-data="{&quot;origPos&quot;:null}" fill="url(#color-18)" stroke="none" stroke-width="0"/><path d="M458.29242,197.13696c-3.08946,-5.29622 -7.72826,-5.49565 -7.72826,-5.49565c0,0 6.47334,-3.40096 8.24348,-6.18261c1.77015,-2.78165 3.60652,-12.7087 3.60652,-12.7087c0,0 0.58498,9.20391 3.26305,13.39565c2.67806,4.19174 8.75869,5.15217 8.75869,5.15217c0,0 -6.51482,2.86232 -8.58695,6.52609c-2.07214,3.66377 -3.26305,14.42609 -3.26305,14.42609c0,0 -1.20402,-9.81683 -4.29348,-15.11304z" data-paper-data="{&quot;origPos&quot;:null}" fill="url(#color-19)" stroke="none" stroke-width="0"/><path d="M256.2924,328.13696c-3.08946,-5.29622 -7.72826,-5.49565 -7.72826,-5.49565c0,0 6.47334,-3.40096 8.24348,-6.18261c1.77015,-2.78165 3.60652,-12.7087 3.60652,-12.7087c0,0 0.58498,9.20391 3.26305,13.39565c2.67806,4.19174 8.75869,5.15217 8.75869,5.15217c0,0 -6.51482,2.86232 -8.58695,6.52609c-2.07214,3.66377 -3.26305,14.42609 -3.26305,14.42609c0,0 -1.20402,-9.81683 -4.29348,-15.11304z" data-paper-data="{&quot;origPos&quot;:null}" fill="url(#color-20)" stroke="none" stroke-width="0"/><path d="M218.29241,41.13696c-3.08947,-5.29622 -7.72826,-5.49565 -7.72826,-5.49565c0,0 6.47333,-3.40096 8.24348,-6.18261c1.77015,-2.78165 3.60652,-12.7087 3.60652,-12.7087c0,0 0.58498,9.20391 3.26304,13.39565c2.67806,4.19174 8.75869,5.15218 8.75869,5.15218c0,0 -6.51482,2.86232 -8.58695,6.52609c-2.07214,3.66377 -3.26304,14.42609 -3.26304,14.42609c0,0 -1.20402,-9.81683 -4.29348,-15.11304z" data-paper-data="{&quot;origPos&quot;:null}" fill="url(#color-21)" stroke="none" stroke-width="0"/><path d="M9.96632,195.6413c-1.75982,-3.01683 -4.40217,-3.13043 -4.40217,-3.13043c0,0 3.68734,-1.93726 4.69565,-3.52174c1.00831,-1.58448 2.05435,-7.23913 2.05435,-7.23913c0,0 0.33322,5.24273 1.8587,7.63043c1.52548,2.3877 4.98913,2.93478 4.98913,2.93478c0,0 -3.71097,1.63043 -4.8913,3.71739c-1.18033,2.08696 -1.8587,8.21739 -1.8587,8.21739c0,0 -0.68583,-5.59187 -2.44565,-8.6087z" data-paper-data="{&quot;origPos&quot;:null}" fill="url(#color-22)" stroke="none" stroke-width="0"/><path d="M326.9663,166.6413c-1.75982,-3.01683 -4.40217,-3.13043 -4.40217,-3.13043c0,0 3.68734,-1.93726 4.69565,-3.52174c1.00831,-1.58448 2.05435,-7.23913 2.05435,-7.23913c0,0 0.33322,5.24273 1.8587,7.63043c1.52548,2.3877 4.98913,2.93478 4.98913,2.93478c0,0 -3.71097,1.63043 -4.8913,3.71739c-1.18033,2.08696 -1.8587,8.21739 -1.8587,8.21739c0,0 -0.68583,-5.59187 -2.44565,-8.6087z" data-paper-data="{&quot;origPos&quot;:null}" fill="url(#color-23)" stroke="none" stroke-width="0"/><text transform="translate(79.01036,34.20044) scale(0.93337,0.93337)" font-size="40" xml:space="preserve" fill="#fc96f4" fill-rule="nonzero" stroke="#fcb8f7" stroke-width="2" stroke-linecap="butt" stroke-linejoin="miter" stroke-miterlimit="10" stroke-dasharray="" stroke-dashoffset="0" font-family="Handwriting" font-weight="normal" text-anchor="start" style="mix-blend-mode: normal"><tspan x="0" dy="0">Kitty's Record Room</tspan></text><path d="M-53,405c0,-91.12699 134.98614,-165 301.5,-165c166.51386,0 301.5,73.87301 301.5,165c0,91.12699 -134.98614,165 -301.5,165c-166.51386,0 -301.5,-73.87301 -301.5,-165z" data-paper-data="{&quot;origPos&quot;:null}" fill="url(#color-24)" stroke="none" stroke-width="0"/><path d="M-14.62727,405c0,-79.52901 117.80608,-144 263.12727,-144c145.32119,0 263.12727,64.47099 263.12727,144c0,79.52901 -117.80608,144 -263.12727,144c-145.32119,0 -263.12727,-64.47099 -263.12727,-144z" data-paper-data="{&quot;origPos&quot;:null}" fill="url(#color-25)" stroke="none" stroke-width="0"/><path d="M20.09091,405c0,-69.03559 102.26224,-125 228.40909,-125c126.14685,0 228.40909,55.96441 228.40909,125c0,69.03559 -102.26224,125 -228.40909,125c-126.14685,0 -228.40909,-55.96441 -228.40909,-125z" data-paper-data="{&quot;origPos&quot;:null}" fill="#1b0d39" stroke="none" stroke-width="0"/><path d="M341.69091,341c0,16.24569 83.0902,37.60989 76.1041,53.39929c-4.13278,9.34054 -10.60156,32.58984 -27.98826,33.94029c-32.76397,2.54482 3.93335,-72.48358 -23.05837,-53.5229c-47.63375,33.46091 -93.14472,-2.61892 -93.14472,-31.89001c0,-12.61623 -103.40286,-22.24414 -81.33467,-36.79156c22.06817,-14.54743 70.51369,-6.13511 101.91285,-6.13511c44.4037,0 47.50909,11.72891 47.50909,41z" data-paper-data="{&quot;origPos&quot;:null}" fill="#6da3ff" stroke="none" stroke-width="0"/><path d="M180.89091,356.5c0,14.63555 -15.1617,23.5 -38.37273,23.5c-23.21102,0 -72.3664,0.81654 -74.91818,-16.5c-2.55179,-17.31654 36.94263,-45.5 65.78182,-45.5c26.13579,0 104.44296,21.49272 69.50406,31.80226c-2.44007,0.72 -21.99497,5.3258 -21.99497,6.69774z" data-paper-data="{&quot;origPos&quot;:null}" fill="#6da3ff" stroke="none" stroke-width="0"/><path d="M367.7067,344.01544c-6.03018,-10.25147 4.42313,-21.26472 16.91128,-23.46479c12.48815,-2.20007 27.50024,4.32688 33.53042,14.57835c6.03018,10.25147 12.91098,21.36254 0.42281,23.56261c-12.48815,2.20007 -44.83435,-4.4247 -50.86453,-14.67617z" data-paper-data="{&quot;origRot&quot;:0,&quot;origPos&quot;:null}" fill="#6da3ff" stroke="none" stroke-width="0"/><path d="M175.40909,441.5c0,23.4721 -16.77102,42.5 -37.45909,42.5c-20.68807,0 -37.45909,-19.0279 -37.45909,-42.5c0,-10.61998 -48.08033,-30.78261 -41.03817,-40.67864c6.15789,-8.65338 53.09201,27.13946 70.06085,27.13946c20.68807,0 45.8955,-9.93292 45.8955,13.53919z" data-paper-data="{&quot;origPos&quot;:null}" fill="#6da3ff" stroke="none" stroke-width="0"/><path d="M246.06518,383.50947c0,20.98682 57.17703,37.86472 23.60787,37.86472c-33.56917,0 -77.81848,27.61263 -77.81848,6.62581c0,-20.98682 -19.77443,-42 0.91364,-42c20.68807,0 53.297,-23.47735 53.297,-2.49053z" data-paper-data="{&quot;origPos&quot;:null}" fill="#6da3ff" stroke="none" stroke-width="0"/><path d="M343.51818,442.5c0,12.4264 3.90108,42.72699 -25.58182,39.5c-16.07545,-1.7595 -1.15356,-7.02305 -2.69863,-15.95486c-0.80884,-4.67576 -57.85858,-0.27809 -63.42133,-3.73527c-16.79731,-10.43933 46.01995,-19.13629 46.01995,-24.80987c0,-12.4264 -10.28281,-19.5 1.82727,-19.5c12.11009,0 43.85455,12.0736 43.85455,24.5z" data-paper-data="{&quot;origPos&quot;:null}" fill="#6da3ff" stroke="none" stroke-width="0"/><path d="M434.88182,454c0,16.01626 -58.36234,38 -74.00455,38c-15.6422,0 0.91364,-12.98374 0.91364,-29c0,-6.23228 -3.15749,-17.02873 8.89882,-23.79128c18.92706,-10.61644 57.37751,-16.20872 66.933,-16.20872c15.6422,0 -2.74091,14.98374 -2.74091,31z" data-paper-data="{&quot;origPos&quot;:null}" fill="#6da3ff" stroke="none" stroke-width="0"/><path d="M454.98182,393.5c0,12.97869 -8.59003,23.5 -19.18636,23.5c-10.59634,0 -8.22273,-8.52131 -8.22273,-21.5c0,-12.97869 -2.37361,-25.5 8.22273,-25.5c10.59634,0 19.18636,10.52131 19.18636,23.5z" data-paper-data="{&quot;origPos&quot;:null}" fill="#6da3ff" stroke="none" stroke-width="0"/><path d="M332.55455,499.5c0,10.21727 -36.78751,4.5 -77.65909,4.5c-40.87158,0 -90.45,11.71727 -90.45,1.5c0,-10.21727 4.77675,-16.80973 45.64832,-16.80973c40.87158,0 122.46077,0.59246 122.46077,10.80973z" data-paper-data="{&quot;origPos&quot;:null}" fill="#6da3ff" stroke="none" stroke-width="0"/><path d="M36.53636,405c0,-64.06503 94.89935,-116 211.96364,-116c117.06428,0 211.96364,51.93497 211.96364,116c0,64.06503 -94.89935,116 -211.96364,116c-117.06428,0 -211.96364,-51.93497 -211.96364,-116z" data-paper-data="{&quot;origPos&quot;:null}" fill="url(#color-26)" stroke="none" stroke-width="0"/><text transform="translate(156.01036,51.13433) scale(0.40376,0.40376)" font-size="40" xml:space="preserve" fill="#fc96f4" fill-rule="nonzero" stroke="#fcb8f7" stroke-width="2" stroke-linecap="butt" stroke-linejoin="miter" stroke-miterlimit="10" stroke-dasharray="" stroke-dashoffset="0" font-family="Handwriting" font-weight="normal" text-anchor="start" style="mix-blend-mode: normal"><tspan x="0" dy="0">(&lt;V4.17 is not counted)</tspan></text><path d="M486.29242,70.13696c-3.08946,-5.29622 -7.72826,-5.49565 -7.72826,-5.49565c0,0 6.47334,-3.40096 8.24348,-6.18261c1.77015,-2.78165 3.60652,-12.7087 3.60652,-12.7087c0,0 0.58498,9.20391 3.26305,13.39565c2.67806,4.19174 8.75869,5.15217 8.75869,5.15217c0,0 -6.51482,2.86232 -8.58695,6.52609c-2.07214,3.66377 -3.26305,14.42609 -3.26305,14.42609c0,0 -1.20402,-9.81683 -4.29348,-15.11304z" fill="url(#color-27)" stroke="none" stroke-width="0"/><path d="M502.29242,197.13696c-3.08947,-5.29621 -7.72826,-5.49565 -7.72826,-5.49565c0,0 6.47333,-3.40096 8.24348,-6.18261c1.77015,-2.78165 3.60652,-12.7087 3.60652,-12.7087c0,0 0.58498,9.20391 3.26304,13.39565c2.67806,4.19174 8.75869,5.15218 8.75869,5.15218c0,0 -6.51482,2.86232 -8.58695,6.52609c-2.07214,3.66377 -3.26304,14.42609 -3.26304,14.42609c0,0 -1.20402,-9.81683 -4.29348,-15.11304z" fill="url(#color-28)" stroke="none" stroke-width="0"/><path d="M536.96633,13.6413c-1.75982,-3.01683 -4.40217,-3.13043 -4.40217,-3.13043c0,0 3.68734,-1.93726 4.69565,-3.52174c1.00831,-1.58448 2.05435,-7.23913 2.05435,-7.23913c0,0 0.33322,5.24273 1.8587,7.63043c1.52548,2.3877 4.98913,2.93478 4.98913,2.93478c0,0 -3.71097,1.63043 -4.8913,3.71739c-1.18033,2.08696 -1.8587,8.21739 -1.8587,8.21739c0,0 -0.68583,-5.59187 -2.44565,-8.6087z" fill="url(#color-29)" stroke="none" stroke-width="0"/><path d="M590.29242,168.13696c-3.08946,-5.29622 -7.72826,-5.49565 -7.72826,-5.49565c0,0 6.47334,-3.40096 8.24348,-6.18261c1.77015,-2.78165 3.60652,-12.7087 3.60652,-12.7087c0,0 0.58498,9.20391 3.26305,13.39565c2.67806,4.19174 8.75869,5.15217 8.75869,5.15217c0,0 -6.51482,2.86232 -8.58695,6.52609c-2.07214,3.66377 -3.26305,14.42609 -3.26305,14.42609c0,0 -1.20402,-9.81683 -4.29348,-15.11304z" fill="url(#color-30)" stroke="none" stroke-width="0"/><path d="M458.9663,137.6413c-1.75982,-3.01683 -4.40217,-3.13043 -4.40217,-3.13043c0,0 3.68734,-1.93726 4.69565,-3.52174c1.00831,-1.58448 2.05435,-7.23913 2.05435,-7.23913c0,0 0.33322,5.24273 1.8587,7.63043c1.52548,2.3877 4.98913,2.93478 4.98913,2.93478c0,0 -3.71097,1.63043 -4.8913,3.71739c-1.18033,2.08696 -1.8587,8.21739 -1.8587,8.21739c0,0 -0.68583,-5.59187 -2.44565,-8.6087z" fill="url(#color-31)" stroke="none" stroke-width="0"/><path d="M-73.70758,110.13696c-3.08946,-5.29622 -7.72826,-5.49565 -7.72826,-5.49565c0,0 6.47334,-3.40096 8.24348,-6.18261c1.77015,-2.78165 3.60652,-12.7087 3.60652,-12.7087c0,0 0.58498,9.20391 3.26305,13.39565c2.67806,4.19174 8.75869,5.15217 8.75869,5.15217c0,0 -6.51482,2.86232 -8.58695,6.52609c-2.07214,3.66377 -3.26305,14.42609 -3.26305,14.42609c0,0 -1.20402,-9.81683 -4.29348,-15.11304z" fill="url(#color-32)" stroke="none" stroke-width="0"/><path d="M-57.70758,237.13696c-3.08947,-5.29621 -7.72826,-5.49565 -7.72826,-5.49565c0,0 6.47333,-3.40096 8.24348,-6.18261c1.77015,-2.78165 3.60652,-12.7087 3.60652,-12.7087c0,0 0.58498,9.20391 3.26304,13.39565c2.67806,4.19174 8.75869,5.15218 8.75869,5.15218c0,0 -6.51482,2.86232 -8.58695,6.52609c-2.07214,3.66377 -3.26304,14.42609 -3.26304,14.42609c0,0 -1.20402,-9.81683 -4.29348,-15.11304z" fill="url(#color-33)" stroke="none" stroke-width="0"/><path d="M-23.03367,53.6413c-1.75982,-3.01683 -4.40217,-3.13043 -4.40217,-3.13043c0,0 3.68734,-1.93726 4.69565,-3.52174c1.00831,-1.58448 2.05435,-7.23913 2.05435,-7.23913c0,0 0.33322,5.24273 1.8587,7.63043c1.52548,2.3877 4.98913,2.93478 4.98913,2.93478c0,0 -3.71097,1.63043 -4.8913,3.71739c-1.18033,2.08696 -1.8587,8.21739 -1.8587,8.21739c0,0 -0.68583,-5.59187 -2.44565,-8.6087z" fill="url(#color-34)" stroke="none" stroke-width="0"/><path d="M30.29242,208.13696c-3.08946,-5.29622 -7.72826,-5.49565 -7.72826,-5.49565c0,0 6.47334,-3.40096 8.24348,-6.18261c1.77015,-2.78165 3.60652,-12.7087 3.60652,-12.7087c0,0 0.58498,9.20391 3.26305,13.39565c2.67806,4.19174 8.75869,5.15217 8.75869,5.15217c0,0 -6.51482,2.86232 -8.58695,6.52609c-2.07214,3.66377 -3.26305,14.42609 -3.26305,14.42609c0,0 -1.20402,-9.81683 -4.29348,-15.11304z" fill="url(#color-35)" stroke="none" stroke-width="0"/><path d="M-101.0337,177.6413c-1.75982,-3.01683 -4.40217,-3.13043 -4.40217,-3.13043c0,0 3.68734,-1.93726 4.69565,-3.52174c1.00831,-1.58448 2.05435,-7.23913 2.05435,-7.23913c0,0 0.33322,5.24273 1.8587,7.63043c1.52548,2.3877 4.98913,2.93478 4.98913,2.93478c0,0 -3.71097,1.63043 -4.8913,3.71739c-1.18033,2.08696 -1.8587,8.21739 -1.8587,8.21739c0,0 -0.68583,-5.59187 -2.44565,-8.6087z" fill="url(#color-36)" stroke="none" stroke-width="0"/><path d="M-121.70758,253.13696c-3.08946,-5.29622 -7.72826,-5.49565 -7.72826,-5.49565c0,0 6.47334,-3.40096 8.24348,-6.18261c1.77015,-2.78165 3.60652,-12.7087 3.60652,-12.7087c0,0 0.58498,9.20391 3.26305,13.39565c2.67806,4.19174 8.75869,5.15217 8.75869,5.15217c0,0 -6.51482,2.86232 -8.58695,6.52609c-2.07214,3.66377 -3.26305,14.42609 -3.26305,14.42609c0,0 -1.20402,-9.81683 -4.29348,-15.11304z" fill="url(#color-37)" stroke="none" stroke-width="0"/><path d="M-105.70758,380.13696c-3.08947,-5.29621 -7.72826,-5.49565 -7.72826,-5.49565c0,0 6.47333,-3.40096 8.24348,-6.18261c1.77015,-2.78165 3.60652,-12.7087 3.60652,-12.7087c0,0 0.58498,9.20391 3.26304,13.39565c2.67806,4.19174 8.75869,5.15218 8.75869,5.15218c0,0 -6.51482,2.86232 -8.58695,6.52609c-2.07214,3.66377 -3.26304,14.42609 -3.26304,14.42609c0,0 -1.20402,-9.81683 -4.29348,-15.11304z" fill="url(#color-38)" stroke="none" stroke-width="0"/><path d="M-71.03367,196.6413c-1.75982,-3.01683 -4.40217,-3.13043 -4.40217,-3.13043c0,0 3.68734,-1.93726 4.69565,-3.52174c1.00831,-1.58448 2.05435,-7.23913 2.05435,-7.23913c0,0 0.33322,5.24273 1.8587,7.63043c1.52548,2.3877 4.98913,2.93478 4.98913,2.93478c0,0 -3.71097,1.63043 -4.8913,3.71739c-1.18033,2.08696 -1.8587,8.21739 -1.8587,8.21739c0,0 -0.68583,-5.59187 -2.44565,-8.6087z" fill="url(#color-39)" stroke="none" stroke-width="0"/><path d="M-17.70758,351.13696c-3.08946,-5.29622 -7.72826,-5.49565 -7.72826,-5.49565c0,0 6.47334,-3.40096 8.24348,-6.18261c1.77015,-2.78165 3.60652,-12.7087 3.60652,-12.7087c0,0 0.58498,9.20391 3.26305,13.39565c2.67806,4.19174 8.75869,5.15217 8.75869,5.15217c0,0 -6.51482,2.86232 -8.58695,6.52609c-2.07214,3.66377 -3.26305,14.42609 -3.26305,14.42609c0,0 -1.20402,-9.81683 -4.29348,-15.11304z" fill="url(#color-40)" stroke="none" stroke-width="0"/><path d="M-149.0337,320.6413c-1.75982,-3.01683 -4.40217,-3.13043 -4.40217,-3.13043c0,0 3.68734,-1.93726 4.69565,-3.52174c1.00831,-1.58448 2.05435,-7.23913 2.05435,-7.23913c0,0 0.33322,5.24273 1.8587,7.63043c1.52548,2.3877 4.98913,2.93478 4.98913,2.93478c0,0 -3.71097,1.63043 -4.8913,3.71739c-1.18033,2.08696 -1.8587,8.21739 -1.8587,8.21739c0,0 -0.68583,-5.59187 -2.44565,-8.6087z" fill="url(#color-41)" stroke="none" stroke-width="0"/><path d="M-92.70758,13.13696c-3.08946,-5.29622 -7.72826,-5.49565 -7.72826,-5.49565c0,0 6.47334,-3.40096 8.24348,-6.18261c1.77015,-2.78165 3.60652,-12.7087 3.60652,-12.7087c0,0 0.58498,9.20391 3.26305,13.39565c2.67806,4.19174 8.75869,5.15217 8.75869,5.15217c0,0 -6.51482,2.86232 -8.58695,6.52609c-2.07214,3.66377 -3.26305,14.42609 -3.26305,14.42609c0,0 -1.20402,-9.81683 -4.29348,-15.11304z" fill="url(#color-42)" stroke="none" stroke-width="0"/></g></g></svg>