<svg xmlns="http://www.w3.org/2000/svg" xmlns:xlink="http://www.w3.org/1999/xlink" version="1.1" id="Layer_1" x="0px" y="0px" width="90.30069580078126" height="91.5999969482422" viewBox="28.699295806884766 19.599999237060548 90.30069580078126 91.5999969482422" enable-background="new 0 0 128 128" xml:space="preserve">
  <g>
    <g>
      <g id="ID0.7407716196030378_36_">
        <path id="ID0.15909873321652412_35_" fill="#FAA51F" stroke="#8E5322" stroke-width="1.4" stroke-linecap="round" stroke-linejoin="round" d="&#13;&#10;&#9;&#9;&#9;M62.4,79.4c-0.2-0.1-8.8,9.4-9,9.3c-1.8-0.9-2.9-2.5-2.8-3.4c0.4-4.1,3.8-9.6,7.8-13l1.2-0.7"/>
        <path id="ID0.8024068027734756_36_" fill="#FAA51F" stroke="#8E5322" stroke-width="1.4" stroke-linecap="round" stroke-linejoin="round" d="&#13;&#10;&#9;&#9;&#9;M58.6,84.2"/>
        <path id="ID0.06734407460317016_36_" fill="none" stroke="#8E5322" stroke-width="1.4" stroke-linecap="round" stroke-linejoin="round" d="&#13;&#10;&#9;&#9;&#9;M61.6,82.3"/>
      </g>
      <path id="ID0.1790580078959465_39_" fill="#FAA51F" stroke="#8E5322" stroke-width="1.4" stroke-linecap="round" stroke-linejoin="round" d="&#13;&#10;&#9;&#9;M56.8,83.9c5.3,2.6,7.8,8.5,6.6,9.7c-2.9,2.7-7.5,0.8-12.2-6.5"/>
    </g>
    <g id="ID0.16171270422637463_24_">
      <path id="ID0.007584026083350182_24_" fill="#FAA51F" stroke="#8E5322" stroke-width="1.4" stroke-linecap="round" stroke-linejoin="round" d="&#13;&#10;&#9;&#9;M71.8,89.1c0,0,2.6,1.9,10.6,5.7c3.4,1.6,3.3-6.7,9.4-2.5c1.7,1.2-3.1,9.1-4.8,10.5c-1.6,1.3-2.4,1.4-4,0.1&#13;&#10;&#9;&#9;c-5.8-4.6-18.4-6.5-18.4-6.5"/>
      <path id="ID0.31672530295327306_23_" fill="#FAA51F" stroke="#8E5322" stroke-width="1.4" stroke-linecap="round" stroke-linejoin="round" d="&#13;&#10;&#9;&#9;M85,94c0,0-0.8,1-1.3,2.5"/>
    </g>
    <g id="Layer_2_50_">
      <path id="ID0.39854341372847557_24_" fill="#FAA51F" stroke="#8E5322" stroke-width="1.4" stroke-linecap="round" stroke-linejoin="round" d="&#13;&#10;&#9;&#9;M64.1,88.6"/>
    </g>
    <g id="Layer_3_25_">
      <path id="ID0.8535828334279358_24_" fill="#FAA51F" d="M51.9,93.4c-2.5-0.1-5.5-0.6-8.2-2.5c-6.1-4.3-9-12.3-12.6-9.6&#13;&#10;&#9;&#9;c-3.6,2.7-1.7,16.1,11,18.5c4.4,0.9,8.3,0.4,11.3-0.1c0.8-0.1,7.7-1.8,9.5-5.6c1.9-3.8,0.1-4.4-0.8-4.8&#13;&#10;&#9;&#9;C61.3,88.8,55.4,93.6,51.9,93.4z" stroke-width="1"/>
      <path id="ID0.914295740891248_24_" fill="#FFFFFF" d="M31.2,81.1c-1.9,0.9-2.4,6-1,9.4c1.5,3.4,3.7,5.3,5.2,6.5&#13;&#10;&#9;&#9;c1.7,0.8-1.1-2.9,0.8-5c1.9-2.1,6.1-2,6.1-2s-3.7-3.9-5.8-6.1C34.7,81.7,33.3,80.3,31.2,81.1z" stroke-width="1"/>
      <path id="ID0.40227043256163597_24_" fill="none" stroke="#8E5322" stroke-width="1.4" stroke-linecap="round" stroke-linejoin="round" d="&#13;&#10;&#9;&#9;M51.9,93.4c-2.5-0.1-5.5-0.6-8.2-2.5c-6.1-4.3-9-12.3-12.6-9.6c-3.6,2.7-1.7,16.1,11,18.5c4.4,0.9,8.3,0.4,11.3-0.1&#13;&#10;&#9;&#9;c0.8-0.1,7.7-1.8,9.5-5.6c1.9-3.8,0.1-4.4-0.8-4.8C61.3,88.8,55.4,93.6,51.9,93.4z"/>
    </g>
    <path id="ID0.46792364912107587_24_" fill="#FAA51F" stroke="#8E5322" stroke-width="1.4" stroke-linecap="round" stroke-linejoin="round" d="&#13;&#10;&#9;M76.1,82.9c-1.9,6.4-3,16.3-14.4,13c-11.4-3.4-8-11.7-5.9-18.1c1.6-5.2,7.1-6.8,12.8-5.1C75,74.5,78,76.5,76.1,82.9z"/>
    <path id="ID0.38032895559445024_16_" fill="#FFFFFF" d="M73.1,85.1c-1.2,4-2.1,10.3-8.2,8.5c-6.1-1.8-4.1-7.1-2.9-11.2&#13;&#10;&#9;s3.6-4.6,7.2-3.5C72.7,80,74.2,81.1,73.1,85.1z" stroke-width="1"/>
    <g id="ID0.16171270422637463_26_">
      <path id="ID0.007584026083350182_26_" fill="#FAA51F" stroke="#8E5322" stroke-width="1.4" stroke-linecap="round" stroke-linejoin="round" d="&#13;&#10;&#9;&#9;M62.9,95.2c0,0-8.2,2.7-15.9,7c-3.3,1.8-1.4,7.8-6.4,8.3c-3.5,0-2.9-3.1-2.8-9.2c0.3-2.8,0.3-2.8,2.2-3.3&#13;&#10;&#9;&#9;c7.1-2,17.1-11.1,17.1-11.1"/>
      <path id="ID0.31672530295327306_24_" fill="#FAA51F" stroke="#8E5322" stroke-width="1.4" stroke-linecap="round" stroke-linejoin="round" d="&#13;&#10;&#9;&#9;M45.6,103.8"/>
    </g>
    <g>
      <g id="ID0.7407716196030378_23_">
        <path id="ID0.15909873321652412_22_" fill="#FAA51F" stroke="#8E5322" stroke-width="1.4" stroke-linecap="round" stroke-linejoin="round" d="&#13;&#10;&#9;&#9;&#9;M68.1,77.2c-0.2,0.1,3.9,12.3,3.6,12.4c-1.7,1.1-3.6,1.3-4.3,0.7c-3.4-2.4-6.5-8.1-7.5-13.2l0-1.4"/>
        <path id="ID0.8024068027734756_23_" fill="#FAA51F" stroke="#8E5322" stroke-width="1.4" stroke-linecap="round" stroke-linejoin="round" d="&#13;&#10;&#9;&#9;&#9;M70.4,82.9"/>
        <path id="ID0.06734407460317016_23_" fill="none" stroke="#8E5322" stroke-width="1.4" stroke-linecap="round" stroke-linejoin="round" d="&#13;&#10;&#9;&#9;&#9;M70.2,79.4"/>
      </g>
      <path id="ID0.1790580078959465_26_" fill="#FAA51F" stroke="#8E5322" stroke-width="1.4" stroke-linecap="round" stroke-linejoin="round" d="&#13;&#10;&#9;&#9;M69.2,84.3c4.9-3.3,11.3-2.6,11.7-0.9c0.9,3.9-3,6.9-11.7,7.4"/>
    </g>
    <g>
      <g id="Layer_2_49_">
        <path id="ID0.2591130444779992_24_" fill="#FAA51F" d="M82.1,30.2c-1.5-0.3-4.5-0.9-6.2-1c-4.6-0.4-9.1,0.8-9.1,0.8l-11.5-9.7&#13;&#10;&#9;&#9;&#9;l-0.1,18.4C55.9,38,43.6,49.8,49,61.5c5.5,11.9,19.4,18.5,37.9,17.2c18.5-1.3,24.1-11.2,23.5-16.8s-7.1-8.5-7.1-8.5s0.4-4.3-2-9.9&#13;&#10;&#9;&#9;&#9;c-1.5-3.4-7.1-8.7-7.1-8.7l-1.4-11.5l-8,6.1L82.1,30.2z" stroke-width="1"/>
        <path id="ID0.3588979784399271_24_" fill="#FFFFFF" d="M102.4,53.1l-2.1-2.3l-9.1,1.5c0,0-0.4,3.3-4.7,3.7&#13;&#10;&#9;&#9;&#9;c-4.3,0.4-11.1-2.1-11.1-2.1l-7.3,0.9c0,0-8-1.5-9.2,4.8C56.9,70.6,65.5,77,74,77.9c5.5,0.7,9,0.4,13,0.2&#13;&#10;&#9;&#9;&#9;c17.4-1,23.6-10.7,22.8-16.3c-0.5-5.6-6.9-8-6.9-8L102.4,53.1z" stroke-width="1"/>
        <path id="ID0.2727069961838424_24_" fill="none" stroke="#8E5322" stroke-width="1.4" stroke-linecap="round" stroke-linejoin="round" d="&#13;&#10;&#9;&#9;&#9;M106.7,59.1c0,0,4.4,0.7,6.7,0.6c2.8-0.1,4.9-1.1,4.9-1.1"/>
        <path id="ID0.5861211125738919_24_" fill="none" stroke="#8E5322" stroke-width="1.4" stroke-linecap="round" stroke-linejoin="round" d="&#13;&#10;&#9;&#9;&#9;M106.5,64.9c0,0,2.2,1.8,4.8,2.8c2.5,1.1,4.3,1.4,4.3,1.4"/>
        <path id="ID0.4793355236761272_24_" fill="none" stroke="#8E5322" stroke-width="1.4" stroke-linecap="round" stroke-linejoin="round" d="&#13;&#10;&#9;&#9;&#9;M64.7,28.2l4.7,4.2"/>
        <path id="ID0.48413723474368453_24_" fill="none" stroke="#8E5322" stroke-width="1.4" stroke-linecap="round" stroke-linejoin="round" d="&#13;&#10;&#9;&#9;&#9;M82.1,30.2c-1.5-0.3-4.5-0.9-6.2-1c-4.6-0.4-9.1,0.8-9.1,0.8l-11.5-9.7l-0.1,18.4C55.9,38,43.6,49.8,49,61.5&#13;&#10;&#9;&#9;&#9;c5.5,11.9,19.4,18.5,37.9,17.2c18.5-1.3,24.1-11.2,23.5-16.8s-7.1-8.5-7.1-8.5s0.4-4.3-2-9.9c-1.5-3.4-7.1-8.7-7.1-8.7l-1.4-11.5&#13;&#10;&#9;&#9;&#9;l-8,6.1L82.1,30.2z"/>
        <path id="ID0.9024141579866409_24_" fill="none" stroke="#8E5322" stroke-width="1.4" stroke-linecap="round" stroke-linejoin="round" d="&#13;&#10;&#9;&#9;&#9;M37.9,58.4c0,0,4,0,5.8-0.3c1.8-0.3,5.2-1.1,5.2-1.1"/>
        <path id="ID0.16030752705410123_24_" fill="none" stroke="#8E5322" stroke-width="1.4" stroke-linecap="round" stroke-linejoin="round" d="&#13;&#10;&#9;&#9;&#9;M49.6,53.3c-2.3-1.5-2.3-1.5-6.1-2.9c-4.1-1.5-6.3-1.8-6.3-1.8"/>
      </g>
      <g id="Layer_5_25_">
        <path id="ID0.40023312577977777_24_" fill="#FFFFFF" stroke="#8E5322" stroke-width="1.4" stroke-linecap="round" stroke-linejoin="round" d="&#13;&#10;&#9;&#9;&#9;M99.1,43.2c2.3,4.6,1.7,9.6-1.1,10.9c-2.9,1.5-7.1-1.2-9.4-5.9c-2.3-4.6-1.7-9.6,1.1-10.9C92.6,36,96.8,38.6,99.1,43.2z"/>
        <path id="ID0.43813491938635707_24_" fill="#414142" d="M98.6,46.8c0.2,1-0.4,2-1.5,2.1c-0.9,0.2-1.8-0.5-2-1.7&#13;&#10;&#9;&#9;&#9;c-0.2-1,0.4-2,1.5-2.1C97.6,45.1,98.4,45.8,98.6,46.8" stroke-width="1"/>
      </g>
      <g id="Layer_7_25_">
        <path id="ID0.4253597157076001_24_" fill="#FFFFFF" stroke="#8E5322" stroke-width="1.4" stroke-linecap="round" stroke-linejoin="round" d="&#13;&#10;&#9;&#9;&#9;M75.7,43.5c2.3,4.6,1.3,9.7-2.1,11.4c-3.4,1.7-8.1-0.7-10.3-5.4c-2.3-4.6-1.3-9.7,2.1-11.4C68.8,36.5,73.4,38.9,75.7,43.5z"/>
        <path id="ID0.814307457767427_24_" fill="#414142" d="M74.9,47.3c-0.1,1-1,1.8-1.9,1.7c-1-0.1-1.6-1-1.5-2.1c0.1-1,1-1.8,1.9-1.7&#13;&#10;&#9;&#9;&#9;C74.4,45.3,75.1,46.2,74.9,47.3" stroke-width="1"/>
      </g>
      <path id="ID0.5240494590252638_24_" fill="#5F4B43" stroke="#8E5322" stroke-width="1.4" stroke-linecap="round" stroke-linejoin="round" d="&#13;&#10;&#9;&#9;M85.4,54.6c1.7,0,4.2-1,4.2,0.9c-0.1,0.8-2.1,3.9-3.9,3.8c-2-0.1-5.2-3.1-4.9-4.5S83.9,54.7,85.4,54.6z"/>
      <path id="ID0.046259244438260794_24_" fill="#FFFFFF" stroke="#8E5322" stroke-width="1.4" stroke-linecap="round" stroke-linejoin="round" d="&#13;&#10;&#9;&#9;M74.5,68.8c0,0,2.2,2.6,7.7,2.2"/>
    </g>
  </g>
</svg>