<svg version="1.1" xmlns="http://www.w3.org/2000/svg" xmlns:xlink="http://www.w3.org/1999/xlink" width="719.60508" height="369" viewBox="0,0,719.60508,369"><defs><radialGradient cx="239.53798" cy="175.5" r="359.80254" gradientUnits="userSpaceOnUse" id="color-1"><stop offset="0" stop-color="#9966ff"/><stop offset="1" stop-color="#66ebff"/></radialGradient></defs><g transform="translate(120.26456,9)"><g data-paper-data="{&quot;isPaintingLayer&quot;:true}" fill-rule="nonzero" stroke-linecap="butt" stroke-linejoin="miter" stroke-miterlimit="10" stroke-dasharray="" stroke-dashoffset="0" style="mix-blend-mode: normal"><path d="M-120.26456,360v-369h719.60508v369z" data-paper-data="{&quot;origPos&quot;:null}" fill="url(#color-1)" stroke="none" stroke-width="0"/><text transform="translate(79,58.5) scale(1.15005,1.15005)" font-size="40" xml:space="preserve" data-paper-data="{&quot;origPos&quot;:null}" fill="#66ffed" fill-rule="nonzero" stroke="none" stroke-width="1" stroke-linecap="butt" stroke-linejoin="miter" stroke-miterlimit="10" stroke-dasharray="" stroke-dashoffset="0" font-family="Sans Serif" font-weight="normal" text-anchor="start" style="mix-blend-mode: normal"><tspan x="0" dy="0">Are you sure?</tspan></text><g data-paper-data="{&quot;origPos&quot;:null}" stroke="none" stroke-width="0.59874"><path d="M131.4343,208.3795l-41.4427,41.6697c-1.6436,1.6531 -3.8325,2.5632 -6.1646,2.5632c0,0 0,0 -0.0006,0c-1.4574,0 -2.9009,-0.367 -4.1744,-1.0628c-0.1168,-0.0616 -0.2461,-0.1401 -0.3754,-0.2185l-0.0827,-0.0503c-0.0646,-0.0383 -0.1293,-0.0784 -0.1927,-0.1204c-0.5419,-0.3514 -1.055,-0.7717 -1.5023,-1.2346l-13.0866,-13.5488c-3.3343,-3.4523 -3.2385,-8.9738 0.2144,-12.3094c1.6309,-1.5753 3.778,-2.4429 6.0454,-2.4429c2.3836,0 4.6067,0.9443 6.2628,2.6578l6.9615,7.207l35.1944,-35.3859c1.6459,-1.6555 3.8385,-2.5668 6.173,-2.5668c2.3153,0 4.4953,0.8987 6.1364,2.5321c3.4032,3.3846 3.4182,8.908 0.0341,12.3106z" data-paper-data="{&quot;origPos&quot;:null}" fill="#284a00"/><path d="M136.1596,207.1138l-41.4427,41.6697c-2.2172,2.2297 -5.5767,2.6248 -8.2051,1.1902c-0.115,-0.0616 -0.2258,-0.1311 -0.3383,-0.1987c-0.0581,-0.0366 -0.1162,-0.0695 -0.1731,-0.1066c-0.4298,-0.2796 -0.8382,-0.6065 -1.21,-0.9915l-13.086,-13.5476c-2.6506,-2.7446 -2.5752,-7.1184 0.17,-9.7696c2.7435,-2.65 7.1166,-2.574 9.7678,0.1706l8.2357,8.5254l36.487,-36.6858c2.6907,-2.7057 7.0645,-2.7177 9.7684,-0.0275c2.7063,2.6913 2.7177,7.0651 0.0263,9.7714z" data-paper-data="{&quot;origPos&quot;:null}" fill="#3cf300"/></g><g stroke-width="1"><path d="M359.649,235.778c3.4,3.521 3.303,9.152 -0.218,12.552c-1.663,1.607 -3.854,2.492 -6.166,2.492v0c-2.43,0 -4.696,-0.962 -6.384,-2.71l-14.524,-15.038l-14.743,14.823c-1.677,1.687 -3.914,2.617 -6.293,2.617c-2.362,0 -4.585,-0.918 -6.259,-2.583c-3.47,-3.452 -3.485,-9.082 -0.033,-12.552l14.993,-15.076l-14.771,-15.294c-3.4,-3.52 -3.302,-9.151 0.218,-12.551c1.664,-1.606 3.853,-2.491 6.165,-2.491c2.43,0 4.698,0.962 6.386,2.71l14.523,15.036l14.743,-14.822c1.678,-1.688 3.914,-2.617 6.294,-2.617c2.361,0 4.584,0.916 6.257,2.582c3.471,3.451 3.486,9.083 0.035,12.553l-14.994,15.076z" fill="#be2026" stroke="#be2026"/><path d="M363.331,237.053c2.703,2.798 2.626,7.256 -0.172,9.961c-2.798,2.701 -7.258,2.624 -9.961,-0.174l-15.822,-16.382l-16.06,16.148c-2.743,2.758 -7.202,2.77 -9.962,0.026c-2.757,-2.743 -2.77,-7.202 -0.026,-9.962l16.259,-16.349l-16.019,-16.585c-2.702,-2.798 -2.625,-7.257 0.174,-9.961c2.797,-2.702 7.257,-2.624 9.96,0.174l15.821,16.381l16.061,-16.147c2.744,-2.758 7.204,-2.771 9.962,-0.028c2.759,2.744 2.77,7.204 0.027,9.963l-16.261,16.348z" data-paper-data="{&quot;origPos&quot;:null}" fill="#dd2726" stroke="#bc192d"/></g></g></g></svg>