<svg version="1.1" xmlns="http://www.w3.org/2000/svg" xmlns:xlink="http://www.w3.org/1999/xlink" width="772.9019" height="399.19996" viewBox="0,0,772.9019,399.19996"><defs><linearGradient x1="246.27057" y1="-21.77683" x2="246.27057" y2="359.12849" gradientUnits="userSpaceOnUse" id="color-1"><stop offset="0" stop-color="#caecff"/><stop offset="1" stop-color="#82e2ff"/></linearGradient><linearGradient x1="241" y1="220.14951" x2="241" y2="352.95163" gradientUnits="userSpaceOnUse" id="color-2"><stop offset="0" stop-color="#966086"/><stop offset="1" stop-color="#87295b"/></linearGradient><linearGradient x1="243.08842" y1="224.26741" x2="243.08842" y2="357.06952" gradientUnits="userSpaceOnUse" id="color-3"><stop offset="0" stop-color="#f3fff1"/><stop offset="1" stop-color="#e7ffe3"/></linearGradient><linearGradient x1="172.79903" y1="280.21479" x2="172.79903" y2="363.22053" gradientUnits="userSpaceOnUse" id="color-4"><stop offset="0" stop-color="#ffd7e0" stop-opacity="0"/><stop offset="1" stop-color="#ffd7e0"/></linearGradient><linearGradient x1="387.79903" y1="280.94657" x2="387.79903" y2="363.95229" gradientUnits="userSpaceOnUse" id="color-5"><stop offset="0" stop-color="#ffd7e0" stop-opacity="0"/><stop offset="1" stop-color="#ffd7e0"/></linearGradient><linearGradient x1="-71.88907" y1="217.63599" x2="-71.88907" y2="350.43811" gradientUnits="userSpaceOnUse" id="color-6"><stop offset="0" stop-color="#966086"/><stop offset="1" stop-color="#87295b"/></linearGradient><linearGradient x1="-71.29578" y1="221.75389" x2="-71.29578" y2="354.556" gradientUnits="userSpaceOnUse" id="color-7"><stop offset="0" stop-color="#f3fff1"/><stop offset="1" stop-color="#e7ffe3"/></linearGradient><linearGradient x1="559.74757" y1="226.14951" x2="559.74757" y2="358.95163" gradientUnits="userSpaceOnUse" id="color-8"><stop offset="0" stop-color="#966086"/><stop offset="1" stop-color="#87295b"/></linearGradient><linearGradient x1="560.34086" y1="230.26741" x2="560.34086" y2="363.06952" gradientUnits="userSpaceOnUse" id="color-9"><stop offset="0" stop-color="#f3fff1"/><stop offset="1" stop-color="#e7ffe3"/></linearGradient><linearGradient x1="242.43422" y1="345.74534" x2="242.43422" y2="376.62953" gradientUnits="userSpaceOnUse" id="color-10"><stop offset="0" stop-color="#dadada"/><stop offset="1" stop-color="#c3b3ac"/></linearGradient></defs><g transform="translate(142.22506,17.59993)"><g data-paper-data="{&quot;isPaintingLayer&quot;:true}" fill-rule="nonzero" stroke-linecap="butt" stroke-linejoin="miter" stroke-miterlimit="10" stroke-dasharray="" stroke-dashoffset="0" style="mix-blend-mode: normal"><path d="M-120.57814,354.12849l1.51919,-371.72842l719.9858,3.02947v389.14105z" fill="url(#color-1)" stroke="none" stroke-width="0"/><g stroke="none" stroke-width="0"><path d="M-6.58842,352.95163l6.17684,-135.89053c0,0 30.48471,80.52399 62.80168,80.7281c15.23144,0.09619 44.09155,-80.86729 74.19706,-85.34617c23.82841,-3.54502 84.84865,88.16609 113.11096,87.30831c20.80297,-0.63139 49.55319,-84.59849 69.29576,-88.55676c32.19144,-6.45417 55.27466,92.12403 80.08243,93.3251c51.12066,2.47502 89.51211,-84.37017 89.51211,-84.37017l-2.05895,151.33263z" fill="url(#color-2)"/><path d="M-4.5,357.06952l6.17684,-135.89053c0,0 30.48471,80.52399 62.80168,80.7281c15.23144,0.09619 44.09155,-80.86729 74.19706,-85.34617c23.82841,-3.54502 84.84865,88.16609 113.11096,87.30831c20.80297,-0.63139 49.55319,-84.59849 69.29576,-88.55676c32.19144,-6.45417 55.27466,92.12403 80.08243,93.3251c51.12066,2.47502 89.51211,-84.37017 89.51211,-84.37017l-2.05895,151.33263z" fill="url(#color-3)"/></g><g><path d="M298,82.50004c0,-10.21726 8.28274,-18.5 18.5,-18.5c10.21726,0 18.5,8.28274 18.5,18.5c0,10.21726 -8.28274,18.5 -18.5,18.5c-10.21726,0 -18.5,-8.28274 -18.5,-18.5z" fill="#fafafa" stroke="#ffffff" stroke-width="1.5"/><path d="M304.51705,82.50004c0,-6.61801 5.36495,-11.98296 11.98296,-11.98296c6.61801,0 11.98296,5.36495 11.98296,11.98296c0,6.61801 -5.36495,11.98296 -11.98296,11.98296c-6.61801,0 -11.98296,-5.36495 -11.98296,-11.98296z" fill="#ffffff" stroke="none" stroke-width="0"/><path d="M310.61364,82.50004c0,-3.25095 2.63542,-5.88637 5.88637,-5.88637c3.25095,0 5.88637,2.63542 5.88637,5.88637c0,3.25095 -2.63542,5.88637 -5.88637,5.88637c-3.25095,0 -5.88637,-2.63542 -5.88637,-5.88637z" fill="#fafafa" stroke="#ffffff" stroke-width="0"/></g><g stroke="none" stroke-width="0"><path d="M141.13704,332.41427l33.37341,-57.33382v0l26.52761,57.33382z" fill="#ffa5ba"/><path d="M182.45006,332.19115l-12.3075,-49.40915l4.54763,-7.75734l3.67107,7.75734l10.26057,22.68062l12.51234,27.39307l-2.8196,-0.14737z" fill="url(#color-4)"/></g><g stroke="none" stroke-width="0"><path d="M356.13705,333.14605l33.37341,-57.33382v0l26.52761,57.33382z" fill="#ffa5ba"/><path d="M397.45006,332.92293l-12.3075,-49.40915l4.54763,-7.75734l3.67107,7.75734l10.26057,22.68063l12.51235,27.39306l-2.8196,-0.14738z" fill="url(#color-5)"/></g><path d="M-10.85202,23.47648c16.507,-3.4503 34.2994,-1.48841 49.0474,6.8328c11.6361,6.8328 21.6485,16.77761 27.9401,28.81951c1.8943,3.4503 3.0443,7.1711 4.8709,10.6213c1.556,-0.2706 -19.8204,-12.54121 -18.1967,-12.94711c7.50744,-1.74589 1.74335,-3.37812 8.1262,-7.69888c12.98912,-8.79277 17.57495,-16.8845 34.2757,-20.52122c16.7953,-10.29068 48.73395,-4.15084 64.0737,8.20524c8.26146,6.65456 18.29951,34.32357 18.29951,34.32357c0,0 11.98181,-4.15514 18.95272,-2.6762c8.43656,1.7899 13.57947,2.09921 21.13748,6.2532c2.0295,1.2177 3.9914,2.4355 6.0886,3.5179c2.5031,-1.0824 4.871,-2.4355 7.2388,-3.7885c7.5769,-3.9914 16.0334,-6.2239 24.5575,-7.0358c8.7947,-0.3382 17.7247,-0.5412 26.2488,2.0296c4.6679,1.1501 8.9976,3.3149 13.5979,4.7356c2.7738,-2.5031 4.8033,-5.7504 7.7123,-8.0505c5.2768,-4.1944 11.9743,-6.6975 18.7395,-6.3593c7.577,-0.2706 15.3569,2.3002 20.769,7.71229c1.0825,0.8795 2.0296,2.2325 3.5179,2.5031c2.1649,-1.2177 3.5855,-3.2473 5.1415,-5.0739c8.0506,-9.7418 18.8748,-16.7776 30.3756,-21.7161c18.0629,-6.9005 38.3584,-7.3064 56.8273,-1.8266c4.7356,1.353 9.0653,3.92381 13.4626,6.02101c4.6003,2.2325 8.6594,5.2768 12.6509,8.3888c3.1796,2.4354 5.4798,5.7503 8.8623,7.9152c4.1944,-1.6236 8.0506,-4.1944 12.3803,-5.6151c5.6151,-1.8266 11.4331,-3.1796 17.3188,-3.5855c7.9829,-0.2706 16.101,-0.2706 23.9486,1.7589c3.2473,0.8118 6.4269,2.0972 9.7418,2.7737c2.9091,-3.7208 4.9386,-8.0505 8.1182,-11.5007c10.0801,-12.8538 42.28109,-22.3927 58.65279,-24.4899l-1,61.1275c-5.2092,0 -26.60069,-2.0677 -31.80989,-2.0677c-11.2978,0 -22.325,4.1268 -31.6609,10.3507c-4.7356,3.0443 -8.45639,7.374 -13.05679,10.689c-3.0443,-2.5032 -5.6827,-5.6151 -8.93,-7.9153c-7.7799,-5.818 -16.7099,-10.5536 -26.3164,-12.2449c-15.5599,-3.1796 -32.2698,-1.8266 -46.5443,5.2768c-5.0062,2.7061 -9.94481,5.7504 -13.7333,10.0801c-5.8856,-2.3678 -12.4478,-2.7061 -18.6041,-1.556c-8.7947,1.759 -16.1688,8.1858 -20.2278,16.0334c-2.1649,4.3297 -2.7061,9.2006 -2.7738,13.9363c-6.5622,-0.0677 -13.1244,0.6765 -19.4836,2.3678c-6.1563,1.4883 -11.7714,4.6679 -17.2512,7.7799c-3.7884,2.1648 -6.7651,5.4121 -10.6212,7.577c-3.8562,-2.9767 -7.4417,-6.35931 -11.7714,-8.7271c-11.9743,-7.374 -26.4518,-10.283 -40.4556,-8.9976c-10.1478,0.2029 -20.0926,3.3825 -28.8196,8.524c-1.4207,0.7442 -2.8414,1.6913 -4.3974,2.1649c-1.556,-0.0677 -2.7737,-1.0824 -4.0591,-1.6913c-8.7947,-5.2768 -18.8071,-8.4564 -29.0225,-8.93c-7.9829,-0.0676 -16.1687,-0.4736 -23.9486,1.7589c-5.0739,1.0148 -9.6742,3.5179 -14.6128,5.0739c-3.6531,-3.5855 -6.56221,-8.0505 -11.29781,-10.4183c-6.6975,-4.2621 -15.0186,-4.668 -22.6632,-3.315c-6.4269,1.2178 -12.042,4.871 -16.3717,9.6742c-3.1796,-1.6236 -4.9386,-4.8709 -7.374,-7.3064c-8.4565,-9.2006 -19.34839,-15.9657 -30.9845,-20.4307c-18.4688,-6.4269 -39.0349,-6.3593 -57.5038,-0.1353c-5.4121,2.3001 -10.6889,4.87091 -15.6275,8.05051c-5.9533,3.6532 -10.8919,8.6594 -16.2364,13.1244c-1.6236,-0.5412 -3.2472,-1.1501 -4.8032,-1.9619c-9.4036,-5.0738 -20.2278,-7.2387 -30.91681,-7.0357c-5.0739,-0.0677 -10.1477,0.2029 -15.0863,1.2853c-4.3297,0.7442 -8.3888,2.4355 -12.6508,3.5179c-2.4355,-2.909 -3.99149,-6.35919 -6.29159,-9.26819c-3.4502,-4.3974 -6.9681,-8.79481 -11.4331,-12.24501c-8.8624,-7.9152 -33.84251,-13.7861 -45.41101,-16.0863v-60.398c4.7357,-0.0677 23.22131,1.9323 27.95691,1.8647c12.2449,-0.1354 24.0839,4.5326 34.0964,11.2978c4.3297,2.8413 7.7122,6.8328 11.9743,9.7418c2.706,-2.2325 5.0062,-4.8709 7.7799,-7.0358c8.0505,-6.2916 17.3188,-11.2978 27.4665,-13.0567z" fill="#dcfafc" stroke="#93a8a9" stroke-width="0.065"/><g stroke="none" stroke-width="0"><path d="M-142.22506,350.43811l1.75474,-135.89053c0,0 8.66023,80.52399 17.84097,80.7281c4.32701,0.09619 12.52571,-80.86729 21.07822,-85.34617c6.76927,-3.54502 24.10417,88.16609 32.13305,87.30831c5.9098,-0.63139 14.07728,-84.59849 19.68584,-88.55676c9.14508,-6.45417 15.70266,92.12403 22.75016,93.3251c14.52258,2.47502 25.42899,-84.37017 25.42899,-84.37017l-0.58492,151.33263z" fill="url(#color-6)"/><path d="M-141.63177,354.556l1.75475,-135.89053c0,0 8.66023,80.52399 17.84098,80.7281c4.32701,0.09619 12.52571,-80.86729 21.07822,-85.34617c6.76927,-3.54502 24.10417,88.16609 32.13305,87.30831c5.9098,-0.63139 14.07728,-84.59849 19.68584,-88.55676c9.14508,-6.45417 15.70266,92.12403 22.75016,93.3251c14.52258,2.47502 25.42899,-84.37017 25.42899,-84.37017l-0.58492,151.33263z" fill="url(#color-7)"/></g><g stroke="none" stroke-width="0"><path d="M489.41158,358.95163l1.75474,-135.89053c0,0 8.66023,80.52399 17.84097,80.7281c4.32701,0.09619 12.52571,-80.86729 21.07822,-85.34617c6.76927,-3.54502 24.10417,88.16609 32.13305,87.30831c5.9098,-0.63139 14.07728,-84.59849 19.68584,-88.55676c9.14508,-6.45417 15.70266,92.12403 22.75016,93.3251c14.52258,2.47502 25.42899,-84.37017 25.42899,-84.37017l-0.58492,151.33263z" fill="url(#color-8)"/><path d="M490.00487,363.06952l1.75475,-135.89053c0,0 8.66023,80.52399 17.84098,80.7281c4.32701,0.09619 12.52571,-80.86729 21.07822,-85.34617c6.76927,-3.54502 24.10417,88.16609 32.13305,87.30831c5.9098,-0.63139 14.07728,-84.59849 19.68583,-88.55676c9.14508,-6.45417 15.70266,92.12403 22.75016,93.3251c14.52258,2.47502 25.42899,-84.37017 25.42899,-84.37017l-0.58492,151.33263z" fill="url(#color-9)"/></g><path d="M-124.51526,369.42321l4.8524,-37.91368l721.67812,1.94105l-2.94739,42.14947z" fill="url(#color-10)" stroke="none" stroke-width="0"/></g></g></svg>