<svg version="1.1" xmlns="http://www.w3.org/2000/svg" xmlns:xlink="http://www.w3.org/1999/xlink" width="1060.57551" height="379.90665" viewBox="0,0,1060.57551,379.90665"><g transform="translate(441.88572,13.80202)"><g data-paper-data="{&quot;isPaintingLayer&quot;:true}" fill-rule="nonzero" stroke-linecap="butt" stroke-linejoin="miter" stroke-miterlimit="10" stroke-dasharray="" stroke-dashoffset="0" style="mix-blend-mode: normal"><path d="M-118.95,-12.79999h722.9419v377.87508l-721.50809,-19.54526z" fill="#99ffff" stroke="#ccffff" stroke-width="2.00406"/><path d="M444.99119,247.42648c12.05256,-0.53467 25.61835,4.24571 33.00294,13.54706c7.86306,9.85909 5.70849,24.56341 5.04411,37.03823c0.32427,12.83656 1.65303,27.53943 -6.05294,37.97499c-7.11941,9.66597 -20.08712,16.72053 -31.99412,16.64559c-17.7135,-0.11097 -37.89573,-5.89441 -50.93982,-15.41627c-13.04409,-9.5233 -21.119,-22.67403 -21.119,-37.18667c0,-14.51265 8.07491,-27.66338 21.119,-37.18668c13.04409,-9.52185 33.23929,-14.64523 50.93982,-15.41626z" fill="#00cc44" stroke="#00cc44" stroke-width="2.88236"/><path d="M80.01765,237.57648c15.41794,0 29.38853,3.84941 39.50435,10.06776c10.11582,6.21929 16.37799,14.80753 16.37799,24.28518c0,9.47764 -6.26217,18.06588 -16.37799,24.28517c-10.11582,6.21835 -24.08641,10.06777 -39.50435,10.06777c-15.41794,0 -29.38853,-3.84942 -39.50435,-10.06777c-10.11582,-6.21929 -16.37799,-14.80753 -16.37799,-24.28517c0,-9.47764 6.26217,-18.06588 16.37799,-24.28518c10.11582,-6.21836 24.08641,-10.06776 39.50435,-10.06776z" fill="#00cc44" stroke="#00cc44" stroke-width="2.06637"/><path d="M193.49119,229.87648c19.88103,0 37.89573,5.89441 50.93982,15.41627c13.04409,9.52329 21.119,22.67403 21.119,37.18668c0,14.51265 -8.07491,27.66338 -21.119,37.18667c-13.04409,9.52185 -31.05879,15.41627 -50.93982,15.41627c-19.88103,0 -37.89573,-5.89442 -50.93982,-15.41627c-13.04409,-9.5233 -21.119,-22.67403 -21.119,-37.18667c0,-14.51265 8.07491,-27.66338 21.119,-37.18668c13.04409,-9.52185 31.05879,-15.41627 50.93982,-15.41627z" fill="#00cc44" stroke="#00cc44" stroke-width="2.88236"/><path d="M321.49118,237.87648c19.88103,0 37.89573,5.89441 50.93982,15.41627c13.04409,9.52329 21.119,22.67403 21.119,37.18668c0,14.51265 -8.07491,27.66338 -21.119,37.18667c-13.04409,9.52185 -31.05879,15.41627 -50.93982,15.41627c-19.88103,0 -37.89573,-5.89442 -50.93982,-15.41627c-13.04409,-9.5233 -21.119,-22.67403 -21.119,-37.18667c0,-14.51265 8.07491,-27.66338 21.119,-37.18668c13.04409,-9.52185 31.05879,-15.41627 50.93982,-15.41627z" fill="#00cc44" stroke="#00cc44" stroke-width="2.88236"/><path d="M-2.00187,244.99707c5.94523,-3.21318 16.1986,10.32094 22.58866,19.19717c4.81531,6.67388 10.26528,14.98541 10.26528,24.28518c0,9.29976 -4.03214,20.24658 -10.26528,24.28517l-20.5922,-3.76753l-0.98071,-34.96471c-0.32154,-11.6433 -5.85696,-27.32893 -1.01574,-29.03529z" fill="#00cc44" stroke="#00cc44" stroke-width="1.65924"/><path d="M2,279.00002l470,-3l8,60l-480,5z" fill="#00cc44" stroke="#00cc44" stroke-width="2"/><path d="M476.00623,245.99707c5.94523,-3.21318 16.1986,10.32094 22.58866,19.19717c4.81531,6.67388 10.26528,14.98541 10.26528,24.28518c0,9.29976 -4.03214,20.24658 -10.26528,24.28517l-20.5922,-3.76753l-0.98071,-34.96471c-0.32154,-11.6433 -5.85696,-27.32893 -1.01574,-29.03529z" fill="#00cc44" stroke="#00cc44" stroke-width="1.65924"/><path d="M-384.9702,225.57648c15.41794,0 29.38853,3.84941 39.50435,10.06776c10.11582,6.21929 16.37799,14.80753 16.37799,24.28518c0,9.47764 -6.26217,18.06588 -16.37799,24.28517c-10.11582,6.21835 -24.08641,10.06777 -39.50435,10.06777c-15.41794,0 -29.38853,-3.84942 -39.50435,-10.06777c-10.11582,-6.21929 -16.37799,-14.80753 -16.37799,-24.28517c0,-9.47764 6.26217,-18.06588 16.37799,-24.28518c10.11582,-6.21836 24.08641,-10.06776 39.50435,-10.06776z" fill="#00cc44" stroke="#00cc44" stroke-width="2.06637"/><path d="M-119.98346,338.61671h716.97502v24.93334h-716.97501z" fill="#663b00" stroke="#663b00" stroke-width="2.62812"/><path d="M444.99118,247.42647c12.05256,-0.53467 25.61835,4.24571 33.00294,13.54706c7.86306,9.85909 5.70849,24.56341 5.04411,37.03823c0.32427,12.83656 1.65303,27.53943 -6.05294,37.97499c-7.11941,9.66597 -20.08712,16.72053 -31.99412,16.64559c-17.7135,-0.11097 -37.89573,-5.89441 -50.93982,-15.41627c-13.04409,-9.5233 -21.119,-22.67403 -21.119,-37.18667c0,-14.51265 8.07491,-27.66338 21.119,-37.18668c13.04409,-9.52185 33.23929,-14.64523 50.93982,-15.41626z" fill="#00cc44" stroke="#00cc44" stroke-width="2.88236"/><path d="M80.01764,237.57647c15.41794,0 29.38853,3.84941 39.50435,10.06776c10.11582,6.21929 16.37799,14.80753 16.37799,24.28518c0,9.47764 -6.26217,18.06588 -16.37799,24.28517c-10.11582,6.21835 -24.08641,10.06777 -39.50435,10.06777c-15.41794,0 -29.38853,-3.84942 -39.50435,-10.06777c-10.11582,-6.21929 -16.37799,-14.80753 -16.37799,-24.28517c0,-9.47764 6.26217,-18.06588 16.37799,-24.28518c10.11582,-6.21836 24.08641,-10.06776 39.50435,-10.06776z" fill="#00cc44" stroke="#00cc44" stroke-width="2.06637"/><path d="M193.49118,229.87647c19.88103,0 37.89573,5.89441 50.93982,15.41627c13.04409,9.52329 21.119,22.67403 21.119,37.18668c0,14.51265 -8.07491,27.66338 -21.119,37.18667c-13.04409,9.52185 -31.05879,15.41627 -50.93982,15.41627c-19.88103,0 -37.89573,-5.89442 -50.93982,-15.41627c-13.04409,-9.5233 -21.119,-22.67403 -21.119,-37.18667c0,-14.51265 8.07491,-27.66338 21.119,-37.18668c13.04409,-9.52185 31.05879,-15.41627 50.93982,-15.41627z" fill="#00cc44" stroke="#00cc44" stroke-width="2.88236"/><path d="M321.49118,237.87647c19.88103,0 37.89573,5.89441 50.93982,15.41627c13.04409,9.52329 21.119,22.67403 21.119,37.18668c0,14.51265 -8.07491,27.66338 -21.119,37.18667c-13.04409,9.52185 -31.05879,15.41627 -50.93982,15.41627c-19.88103,0 -37.89573,-5.89442 -50.93982,-15.41627c-13.04409,-9.5233 -21.119,-22.67403 -21.119,-37.18667c0,-14.51265 8.07491,-27.66338 21.119,-37.18668c13.04409,-9.52185 31.05879,-15.41627 50.93982,-15.41627z" fill="#00cc44" stroke="#00cc44" stroke-width="2.88236"/><path d="M-2.00188,244.99706c5.94523,-3.21318 16.1986,10.32094 22.58866,19.19717c4.81531,6.67388 10.26528,14.98541 10.26528,24.28518c0,9.29976 -4.03214,20.24658 -10.26528,24.28517l-20.5922,-3.76753l-0.98071,-34.96471c-0.32154,-11.6433 -5.85696,-27.32893 -1.01574,-29.03529z" fill="#00cc44" stroke="#00cc44" stroke-width="1.65924"/><path d="M-116.99167,279.00001l706.95833,-3l12.03333,60l-722,5z" fill="#00cc44" stroke="#00cc44" stroke-width="2"/><path d="M-4.98752,338.6167h484.97502v24.93334h-484.97501z" fill="#663b00" stroke="#663b00" stroke-width="2.62812"/><path d="M585.00623,258.99707c5.94523,-3.21318 16.1986,10.32094 22.58866,19.19717c4.81531,6.67388 10.26528,14.98541 10.26528,24.28518c0,9.29976 -4.03214,20.24658 -10.26528,24.28517l-20.5922,-3.76753l-0.98071,-34.96471c-0.32154,-11.6433 -5.85696,-27.32893 -1.01574,-29.03529z" fill="#00cc44" stroke="#00cc44" stroke-width="1.65924"/><path d="M528.49118,244.87647c19.88103,0 37.89573,5.89441 50.93982,15.41627c13.04409,9.52329 21.119,22.67403 21.119,37.18668c0,14.51265 -8.07491,27.66338 -21.119,37.18667c-13.04409,9.52185 -31.05879,15.41627 -50.93982,15.41627c-19.88103,0 -37.89573,-5.89442 -50.93982,-15.41627c-13.04409,-9.5233 -21.119,-22.67403 -21.119,-37.18667c0,-14.51265 8.07491,-27.66338 21.119,-37.18668c13.04409,-9.52185 31.05879,-15.41627 50.93982,-15.41627z" fill="#00cc44" stroke="#00cc44" stroke-width="2.88236"/><path d="M-62.50882,236.87647c19.88103,0 37.89573,5.89441 50.93982,15.41627c13.04409,9.52329 21.119,22.67403 21.119,37.18668c0,14.51265 -8.07491,27.66338 -21.119,37.18667c-13.04409,9.52185 -31.05879,15.41627 -50.93982,15.41627c-19.88103,0 -37.89573,-5.89442 -50.93982,-15.41627c-13.04409,-9.5233 -21.119,-22.67403 -21.119,-37.18667c0,-14.51265 8.07491,-27.66338 21.119,-37.18668c13.04409,-9.52185 31.05879,-15.41627 50.93982,-15.41627z" fill="#00cc44" stroke="#00cc44" stroke-width="2.88236"/></g></g></svg>