<svg version="1.1" xmlns="http://www.w3.org/2000/svg" xmlns:xlink="http://www.w3.org/1999/xlink" width="153.92975" height="88.05796" viewBox="0,0,153.92975,88.05796"><g transform="translate(-146.13521,-141.97198)"><g data-paper-data="{&quot;isPaintingLayer&quot;:true}" fill-rule="nonzero" stroke="none" stroke-width="1.15473" stroke-linecap="butt" stroke-linejoin="miter" stroke-miterlimit="10" stroke-dasharray="" stroke-dashoffset="0" style="mix-blend-mode: normal"><g data-paper-data="{&quot;index&quot;:null}"><path d="M173.4672,194.50094c-1.7344,0.6189 -2.9319,-0.1224 -4.7898,-0.164c-2.7252,-0.0831 -4.7887,0.6594 -6.9353,-0.9896c-1.8164,-1.4041 -2.2702,-4.7482 -0.1663,-5.7817c3.1385,-1.2794 5.6154,-1.6097 8.7517,-0.3291c1.239,0.4954 2.3949,0.164 3.3025,1.157c1.612,1.731 2.0658,5.2841 -0.1628,6.1074z" fill="#ffffff"/><path d="M173.1508,189.06104c-1.6582,-0.4146 -3.0104,-1.313 -4.5623,-1.8037c-0.5797,-0.1848 -1.3973,-0.2367 -2.2841,-0.1686c1.485,1.2102 3.0381,2.7933 3.0381,2.7933c-0.5704,0.0496 -3.5011,-1.2425 -4.948,-2.4734c-1.0704,0.2817 -2.0704,0.7309 -2.7367,1.3314c1.4342,0.3983 3.8441,2.1431 4.6304,2.6928c0.2495,0.4446 -4.0323,-0.4989 -5.3475,-1.5889c-0.2575,1.1189 0.9145,2.2609 1.7332,2.8233c2.7818,1.9134 7.7771,0.7032 11.0785,2.0554v0.3534c-4.4053,0.097 -12.2563,1.4873 -14.3371,-3.8095c-0.3233,-0.8233 0.0612,-2.7586 0.5011,-3.5104c3.298,-5.612 17.1767,-0.8926 13.2344,1.3049z" fill="#272525"/></g><g data-paper-data="{&quot;index&quot;:null}"><path d="M247.3642,214.64984c-1.627,7.5173 -10.321,2.7136 -13.1431,9.306c-1.9146,4.4746 -6.127,7.6501 -9.8095,5.2505c-1.1882,-0.7748 -1.5427,-4.4514 -0.1385,-6.8891c2.911,-5.0577 8.1962,-6.8741 13.9376,-7.0727c3.0866,-0.3834 5.9318,0.2309 8.8879,-2.6674c0.2656,0.5866 0.4354,1.4919 0.2656,2.0727zM234.1933,217.04364c-4.6385,0.9422 -8.9941,3.6016 -9.1015,9.3071c0.0819,1.164 1.2194,1.5623 2.1166,1.373c3.3522,-0.7044 4.1663,-5.0104 6.545,-7.0958c3.6605,-3.2102 10.5947,-0.1975 12.6177,-6.1836c-1.5785,2.4434 -7.0704,1.5612 -12.1778,2.5993z" fill="#272525"/><path d="M233.7534,220.62794c-2.3787,2.0854 -3.1928,6.3914 -6.545,7.0958c-0.8972,0.1893 -2.0347,-0.209 -2.1166,-1.373c0.1074,-5.7055 4.463,-8.3649 9.1015,-9.3071c5.1074,-1.0381 10.5993,-0.1559 12.1778,-2.5993c-2.023,5.9861 -8.9572,2.9734 -12.6177,6.1836z" fill="#4d58e1"/></g><g data-paper-data="{&quot;index&quot;:null}"><path d="M292.5685,190.95244c-1.216,2.6247 -4.5173,4.2852 -7.8534,5.6039c-4.6327,0.9481 -11.5565,1.9631 -11.5808,1.9527c-3.3845,0.8164 -7.5554,1.1258 -10.5646,3.6639c-0.1062,0.0901 -13.0531,9.3684 -15.6489,10.4065c-2.8857,1.1536 -6.4399,0.7355 -7.8406,0c-6.8245,-4.8753 -10.0889,-12.5901 -19.657,-12.0981c-11.0208,0.5658 -22.3879,2.8256 -33.3948,4.0658c-4.2113,1.1709 -7.9122,-1.4631 -10.3788,-4.9307c-2.7644,-2.209 -1.8325,-11.7702 -0.9249,-14.4688c0.0312,0.0104 0.0612,0.0208 0.0889,0.0335c1.4099,-5.6201 9.612,-9.1732 15.2182,-8.8741c4.7171,0.2529 10.5658,-0.0104 14.4977,-3.0266c4.6743,-3.5854 14.5496,-5.8187 20.2713,-5.3718c12.5369,0.9781 16.7667,10.1824 16.9837,10.06c1.1097,-0.1016 4.5508,-1.6189 4.9065,-1.5369c0.4469,0.0023 1.8279,0.485 1.8776,0.7228c0.791,0.4746 -0.3233,1.6559 -0.4815,1.8984c-2.261,3.4654 -3.3788,5.4203 -3.3187,9.9815c0,0.0012 0.5208,3.0681 0.5208,3.0681c0,0.7702 0.7794,0.515 1.0819,-0.0854c0.4619,-0.5924 0.94,-0.8868 1.4215,-1.8095c7.6316,-14.6293 25.5334,-28.3786 41.2401,-14.3267c1.7436,1.7436 3.194,3.5923 4.0646,6.2043c-0.0023,2.6178 0.8672,6.1028 -0.5288,8.8672" fill="#ffffff"/><path d="M184.8182,204.43274c0,0 -2.4053,-6.2551 -1.5392,-7.217c0.866,-0.9619 2.366,-2.3326 5.754,-2.6571c3.388,-0.3244 3.8683,-3.9838 3.8683,-3.9838c0,0 4.5231,-10.1986 16.0704,-4.8094c11.5473,5.3891 11.1628,2.5023 12.7021,1.7321c1.5392,-0.7702 3.4641,-4.2344 9.7193,0.0958c6.2552,4.3303 11.1051,2.2748 11.5473,2.7956c0.4423,0.5208 2.0901,0.1859 2.0901,0.1859c0,0 0.0774,4.3233 2.4584,0.1421c0,0 3.6386,-0.5335 5.7494,2.9387c2.1109,3.4723 0.4815,7.8441 0.4815,7.8441c0,0 -6.1616,10.0751 -12.8971,11.7968c0,0 -5.7737,-2.6582 -9.045,-8.455c-3.2714,-5.7967 -13.0866,-3.0981 -13.664,-3.3406c-0.5773,-0.2425 -28.0034,3.7021 -33.2955,2.9318z" fill="#4d58e1"/><path d="M261.512,195.31154c3.2471,-0.9665 4.4261,4.5993 4.4261,4.5993c-2.8649,1.3303 -13.4723,9.8152 -13.4723,9.8152c0.0959,-3.9457 5.7991,-13.448 9.0462,-14.4145z" fill="#4d58e1"/><g fill="#272525"><path d="M188.4741,174.33704c0.4596,-0.0254 0.4746,-0.0277 0.1778,0.0231c-0.0589,-0.0012 -0.1189,0 -0.1778,-0.0012z"/><path d="M294.0846,188.31504c-1.1547,8.5162 -12.3441,9.4677 -16.1928,10.2748c-0.4688,0.2194 -8.1547,1.627 -11.9307,2.2321v0c0,0 -11.5369,8.5265 -11.799,8.7679c-0.4088,0.3787 -0.8187,0.7298 -1.1824,1.03c-3.9065,3.224 -10.5612,5.1074 -15.1871,2.4065c-5.5034,-3.2125 -6.7713,-10.1998 -14.2863,-10.4769c-6.2702,-0.231 -12.0288,0.5739 -18.1962,1.5531c-3.8314,0.6085 -15.3279,1.3048 -19.627,1.5023c0,0 -5.6755,0.8372 -10.1986,-4.4018c-2.4942,-3.7645 -4.1085,-10.3591 -2.3741,-14.1501l-0.0127,0.0035c1.2563,-10.2656 13.8071,-12.5693 15.5542,-12.6963c5.4503,-0.3961 10.9492,-0.6559 16.1743,-3.0312c0.2241,-0.1074 0.4689,-0.2182 0.7575,-0.336c3.9238,-1.5924 7.0959,-4.8718 21.5277,-3.5889c11.6916,1.0393 14.1281,8.478 14.1281,8.478c0,0 1.9665,1.3684 2.8164,0.9007c1.6478,-0.9053 5.6247,-1.6813 6.3499,0.2945c-2.2171,2.269 -5.7875,8.5704 -4.5289,15.3129c0.567,-0.8568 0.739,-1.4261 1.6882,-3.0739c2.8072,-4.9619 6.1155,-10.0762 10.8279,-13.485c5.164,-5.2632 12.8591,-6.5138 19.8499,-6.015c4.3545,0.3107 8.4122,2.6016 11.3752,6.0612c0.0035,0.0012 0.015,0.0046 0.015,0.0046c0,0 5.6063,3.9169 4.4515,12.433zM254.8838,206.50904c0.0058,-0.0035 0.0127,-0.0024 0.0185,-0.0058c1.6974,-1.6986 5.0704,-4.5855 9.9653,-6.6039c0.0543,-0.0266 0.1063,-0.0462 0.1617,-0.0716c-0.0531,-0.746 -0.4781,-1.4007 -0.7333,-1.7333c-0.4076,-0.4977 -0.8268,-1.0704 -1.3418,-1.3083c-2.0554,-0.9526 -5.1316,1.6571 -6.0161,3.3568c-1.2852,2.4839 -2.0658,5.5196 -3.7517,7.9099c0.5138,-0.4676 1.1651,-1.224 1.6974,-1.5438zM248.2822,177.67654c-2.1409,-1.8187 -4.9134,1.5115 -6.381,1.6628c-0.6282,-0.2864 -1.3938,-0.9411 -1.9296,-1.7021c0.1871,0.0035 0.6906,0.0081 0.7518,0.0012l-0.7518,-0.0012c0,0 -2.687,-5.6801 -11.1293,-7.9203c-8.4422,-2.2402 -22.8914,4.0774 -22.8914,4.0774c-0.8614,0.4318 -1.7424,0.8302 -2.6489,1.1859c-4.5,1.7667 -9.6316,2.2991 -14.8279,2.0658c-10.1155,0.694 -13.015,9.3799 -13.015,9.3799h-0.0011c-0.3095,1.4907 -0.7471,2.9307 -0.6767,4.5462c0.1478,3.4041 0.8614,6.4226 2.5646,9.1685c0,0 1.9527,2.7102 6.7056,3.1501c-0.5485,-0.6616 -0.9273,-1.9734 -1.1005,-2.4434c-1.6547,-4.5196 1.2852,-8.0427 5.9157,-7.821c1.7205,0.0832 5.2332,-7.1974 9.3729,-9.1247c3.3141,-1.5392 8.4908,-2.2863 11.4296,0.4527c2.336,2.1755 4.5346,3.1963 8.0704,2.8071c3.0473,-0.336 6.3903,-2.0831 7.7586,-2.3036c3.3118,-0.5335 5.2159,1.239 8.3557,2.4572c3.0508,1.1836 5.3163,2.067 8.3591,2.2483l1.8718,-0.2136c-0.5393,-3.3014 0.2402,-8.1282 4.1974,-11.6732zM246.7118,192.77574c-0.2333,0.2668 -0.4677,0.3395 -0.7159,0.2506c0.0011,0.0012 0.0011,0.0023 0.0011,0.0035c-0.0035,-0.0012 -0.0069,-0.0046 -0.0115,-0.0069c-0.0797,-0.0301 -0.1629,-0.082 -0.2472,-0.149c-0.4538,-0.2968 -0.8625,-0.9146 -1.1812,-1.7321l-1.2968,-0.2333c-3.7748,-0.0034 -6.2875,-0.1466 -9.8418,-1.5242c-2.9561,-1.1351 -4.4018,-3.7702 -7.515,-3.2667c-0.9792,0.157 -3.9203,3.9734 -9.2667,3.8995c-5.1789,-0.0716 -8.411,-5.052 -13.2332,-5.2644c-5.5242,-0.2402 -8.7806,4.1686 -11.0796,8.523c-1.8499,3.507 -5.0324,1.9896 -7.418,3.6086c-1.9515,1.3256 0.2702,5.1558 0.082,6.4618c0.3037,0.0081 0.6131,0.0116 0.9376,0c11.0231,-0.2459 21.5519,-1.2274 32.4168,-3.5554c13.3244,-2.8545 14.3279,7.9584 21.3694,11.2991c2.4711,0.4676 3.1201,0.2275 3.1928,0.1951c4.3973,-2.0589 13.4296,-9.6916 10.5277,-16.2032c-0.6536,-1.4699 -2.2402,-2.0588 -3.5069,-2.9745l-0.0035,0.0011l-1.8752,-1.3522c-0.4539,0.6813 -0.8996,1.358 -1.3349,2.0196zM288.7209,177.13614c-0.6975,-0.5474 -1.0785,-0.9227 -1.254,-1.1825c-6.2298,-5.269 -15.2852,-4.403 -22.4584,-1.8245c-6.7667,2.6987 -11.7113,8.9053 -15.8314,14.9457l2.6859,1.6051c0.194,0.0924 0.3823,0.2044 0.5659,0.3372l0.097,0.0577l-0.0104,0.0035c1.9942,1.5265 3.3545,5.3533 2.7194,8.7147c-0.9377,4.9458 -7.6744,9.9203 -10.9273,12.2113c-0.0254,0.0185 -0.0589,0.0381 -0.0889,0.0578c2.6328,0.0219 4.7656,-0.8719 6.8753,-2.358c0.4665,-1.3314 1.6212,-3.2229 2.1339,-4.1466c1.8407,-3.3222 2.6975,-7.0289 5.5139,-9.7771c2.1997,-2.1432 5.2956,-1.1271 6.5958,0.448c1.0981,0.8071 1.2944,2.1362 1.2956,2.9919c0.5924,-0.1928 1.321,-0.4088 2.1513,-0.6363c0.0057,-0.0011 0.0115,-0.0034 0.0173,-0.0046h-0.0012c3.6548,-0.9954 8.9838,-2.1247 10.4942,-1.6951c0,0 10.6236,-1.5358 12.3349,-6.1351c1.7113,-4.5993 0.6501,-10.8198 -2.9088,-13.6131z"/></g></g><g data-paper-data="{&quot;index&quot;:null}"><path d="M237.7799,207.29654c-0.2552,0.4515 -1.1304,1.1028 -1.5023,1.5762c-2.1651,2.7656 -2.6247,5.1628 -5.8233,7.2275c-8.9768,5.799 -16.2701,-0.9285 -20.6847,0.9942c-1.2967,0.5658 -2.5485,1.2436 -3.8406,1.8268c-5.8499,2.6327 -15.1582,-8.1686 -0.2333,-13.4018c9.9896,-3.5023 16.9053,7.8741 22.9573,4.224c2.3071,-1.3903 5.9584,-3.6802 8.7332,-3.022c0.1801,0.0416 0.5115,0.3626 0.3937,0.5751zM224.6368,212.63714c-5.47,-1.3268 -10.075,-6.4411 -16.7909,-5.3972c-3.5289,0.5497 -7.0982,2.649 -7.8557,6.0138c-0.2101,0.9273 0.1132,2.806 1.4942,3.619c2.3684,1.396 5.0739,-0.2356 6.7009,-1.6282c3.8418,-3.2818 8.8222,-0.3152 12.7275,0.9192c5.6593,1.1616 11.2113,-4.0439 14.105,-7.9146c-3.0138,1.4169 -6.6385,4.7287 -10.381,4.388z" fill="#272525"/><path d="M220.9128,216.16374c-3.9053,-1.2344 -8.8857,-4.201 -12.7275,-0.9192c-1.627,1.3926 -4.3325,3.0242 -6.7009,1.6282c-1.381,-0.813 -1.7043,-2.6917 -1.4942,-3.619c0.7575,-3.3648 4.3268,-5.4641 7.8557,-6.0138c6.7159,-1.0439 11.3209,4.0704 16.7909,5.3972c3.7425,0.3407 7.3672,-2.9711 10.381,-4.388c-2.8937,3.8707 -8.4457,9.0762 -14.105,7.9146z" fill="#4d58e1"/></g><g data-paper-data="{&quot;index&quot;:null}"><path d="M256.8388,205.05754c-2.2725,-4.8453 5.8856,-9.5508 6.3233,-1.9689c0.2228,3.895 -4.612,5.6201 -6.3233,1.9689z" fill="#272525"/><path d="M258.14359,205.05754c-2.575,-2.2933 1.7529,-6.47 3.5069,-3.2587c0.9515,1.7413 -1.2009,5.3106 -3.5069,3.2587z" fill="#ffffff"/><path d="M260.2279,203.60024c-0.1951,-0.194 -0.3152,-0.4619 -0.3152,-0.7587c0,-0.2967 0.1201,-0.5646 0.3152,-0.7586c0.194,-0.1952 0.4619,-0.3153 0.7587,-0.3153c0.2967,0 0.5646,0.1201 0.7586,0.3153c0.1952,0.194 0.3153,0.4619 0.3153,0.7586c0,0.2968 -0.1201,0.5647 -0.3153,0.7587c-0.194,0.1951 -0.4619,0.3152 -0.7586,0.3152c-0.2968,0 -0.5647,-0.1201 -0.7587,-0.3152z" fill="#272525"/></g><g data-paper-data="{&quot;index&quot;:null}"><path d="M242.2499,202.90164c-4.03,-6.2564 8.0335,-14.1686 10.2263,-5.7656c1.6547,6.3372 -5.9907,12.3383 -10.2263,5.7656z" fill="#272525"/><path d="M243.2638,201.43854c-0.2991,-5.3406 6.9203,-8.6385 7.7609,-3.6997c0.7125,4.1928 -1.8695,6.3879 -4.4573,6.5057c-1.8187,0.0832 -3.2228,-1.3198 -3.3036,-2.806z" fill="#ffffff"/><path d="M248.2025,200.76304c-0.366,-0.3672 -0.5923,-0.873 -0.5923,-1.4307c0,-0.5577 0.2263,-1.0635 0.5923,-1.4307c0.3672,-0.3661 0.873,-0.5924 1.4308,-0.5924c0.5577,0 1.0635,0.2263 1.4307,0.5924c0.366,0.3672 0.5923,0.873 0.5923,1.4307c0,0.5577 -0.2263,1.0635 -0.5923,1.4307c-0.3672,0.3661 -0.873,0.5924 -1.4307,0.5924c-0.5578,0 -1.0636,-0.2263 -1.4308,-0.5924z" fill="#272525"/></g><g data-paper-data="{&quot;index&quot;:null}"><path d="M182.682,217.40854c3.3441,2.0658 7.1835,3.1385 10.1547,4.3764c-6.6871,2.8129 -12.343,2.9757 -18.0808,-0.2437c-4.2102,-2.3545 -5.4908,-6.6466 -4.7887,-11.3948c0.455,-3.1779 1.321,-5.0347 3.3025,-7.5947c0.2564,-0.3418 0.5763,-0.6097 0.9007,-0.8603v0c0,0 1.6351,-2.7956 2.1282,-3.0739c0,0 1.9296,-1.1824 3.5173,-0.3164c1.5878,0.8661 3.1086,0.4319 1.0878,3.8245l-1.4723,3.2436c-0.1859,0.9169 -0.2864,1.8938 -0.3822,2.7922c-0.4538,3.881 0.2887,7.1836 3.6328,9.2471z" fill="#ffffff"/><path d="M180.6519,213.97084c2.2056,3.8972 8.9123,6.6605 14.3868,7.5704c-5.8106,3.3961 -20.6685,7.3487 -25.2158,-5.4122c-1.9423,-5.4515 0.7921,-11.2678 4.6905,-15.9076c0.4757,-0.5658 1.3822,-2.1882 2.2771,-1.881c0.8638,0.2956 -0.5981,2.1362 -0.6039,2.1466c-1.2852,2.1732 -2.0947,3.5993 -2.6536,4.4619c-2.351,3.6351 -3.2517,9.679 -0.6016,13.3337c3.9931,5.5081 12.6258,5.9284 18.3972,3.3579c-5.7286,-0.1836 -11.463,-3.6512 -12.8833,-7.6697c-1.0474,-2.9607 -0.5624,-8.6374 1.3579,-11.7713c0.0012,-0.0012 0.0012,-0.0035 0.0023,-0.0058c0.8106,-1.6697 1.6109,-2.0415 2.3049,-1.5646c0.694,0.4769 -0.8684,2.7136 -0.8684,2.7136c-1.9561,2.9469 -2.3337,7.5462 -0.5901,10.6281z" fill="#272525"/></g><g data-paper-data="{&quot;index&quot;:null}"><path d="M299.9992,191.22264c-1.3892,11.8614 -23.5924,7.6166 -26.1166,-1.6535c-3.0381,-11.1547 13.8741,-13.0058 20.6039,-8.4227c3.4792,2.3719 6.0254,5.6871 5.5127,10.0762zM298.095,188.81734c-1.2021,-8.5369 -14.739,-9.3787 -20.3521,-4.9134c-1.455,1.1571 -2.3949,2.9308 -1.8037,4.6605c3.0554,8.9561 23.5345,10.0624 22.1558,0.2529z" fill="#272525"/><path d="M275.938,188.56444c-0.5912,-1.7297 0.3499,-3.5034 1.8037,-4.6605c5.6132,-4.4653 19.1501,-3.6235 20.3521,4.9134c1.3799,9.8095 -19.0992,8.7032 -22.1558,-0.2529z" fill="#8b4cb1"/></g><g data-paper-data="{&quot;index&quot;:null}"><path d="M241.7938,175.24124c-0.6778,-0.4192 -7.3545,3.9734 -10.8256,2.6327c-5.157,-1.9919 -0.5797,-5.7551 -0.4781,-5.7979c11.9238,-5.0023 32.5761,-22.4295 40.1777,-8.8614c4.7795,8.5335 -18.5346,9.0069 -28.874,12.0266z" fill="#ffffff"/><path d="M257.0201,173.86134c-5.3337,1.0519 -10.7425,2.0565 -16.1282,2.8648l0.0139,0.007l-1.4757,0.2171c0,0 -1.2402,0.6443 -1.6248,-0.1744c-0.3845,-0.8187 1.1709,-1.1132 1.1709,-1.1132c1.6629,-0.6859 19.1259,-4.075 25.2644,-6.2667c1.2102,-0.4307 2.9919,-1.4446 4.2829,-2.7286c-2.4411,0.5993 -6.0901,0.8845 -6.0901,0.8845c0.4839,-0.6917 5.4608,-3.0554 7.4365,-2.7667c0.455,-1.0716 0.3972,-2.2137 -0.6178,-3.306c-0.6582,-0.7102 -1.4572,-1.2333 -2.3452,-1.6178c-0.6063,1.3476 -5.112,3.082 -6.3984,3.6028c-0.5577,-0.0347 2.4538,-3.0682 4.5335,-4.164c-5.8441,-1.179 -14.2275,2.0716 -18.2448,4.3349c-4.8498,2.7332 -9.8198,5.3648 -14.5969,8.2205c0,0 -1.6432,1.097 -2.1305,0.6143c-0.7032,-0.6975 0.3822,-1.5854 0.4042,-1.6051c3.3729,-3.0092 20.187,-10.9907 25.7966,-12.7921c2.9296,-0.9411 5.8719,-1.0831 8.9227,-0.6016c2.4468,0.3857 5.8279,2.4896 6.6166,4.9619c2.3799,7.4549 -9.8822,10.4618 -14.7898,11.4284z" fill="#272525"/></g><g data-paper-data="{&quot;index&quot;:null}"><path d="M248.7049,157.40174c-4.9527,4.3972 -14.761,8.097 -20.1039,10.8556c-1.7818,0.9192 -3.1859,2.4284 -3.0196,2.4642c-2.7194,1.7217 -6.3141,5.4215 -9.7783,6.4561c-1.9007,0.5682 -8.7367,-0.0612 -8.5242,-4.4422c3.1582,-1.9307 5.6351,-4.3176 9.2251,-7.4896c9.9088,-8.7944 17.0092,-20.1466 26.836,-21.5519c4.2632,-0.6085 8.3383,-0.4111 10.6501,3.2206c2.3521,3.7586 -1.9677,7.5427 -5.2852,10.4872z" fill="#ffffff"/><path d="M254.0166,153.83244c-3.5866,5.4169 -19.4006,12.8545 -24.9422,15.6951c-1.1605,0.582 -2.8441,1.6478 -4.5323,1.9689c-0.3245,-0.1109 -0.545,-0.1917 -0.6016,-0.2241c-0.2829,-0.1593 -0.6825,-0.7909 -0.3522,-1.1027c0.4134,-0.3869 5.8672,-3.1813 6.7794,-3.6444c6.3245,-3.2228 13.7494,-6.3983 19.0877,-11.142c1.888,-1.6755 3.8741,-4.2967 3.2575,-6.9664c-0.0831,-0.358 -0.2563,-0.7541 -0.4769,-1.1444c-1.1351,1.8499 -5.5993,5.2667 -5.5993,5.2667c0.0266,-0.8498 2.9723,-5.6316 4.7829,-6.3949c-0.3198,-0.351 -0.6686,-0.6489 -1.0138,-0.8348c-1.1628,-0.6259 -2.7333,-0.843 -4.3407,-0.7968c-0.2321,1.6801 -2.6685,5.045 -3.3972,6.0866c-0.4861,0.2725 0.3742,-3.858 1.5127,-5.9249c-1.3522,0.2136 -2.6282,0.597 -3.5981,1.0854c-13.1628,6.6351 -21.2344,20.6789 -33.2644,28.0288l-0.0438,0.0462c0,0 -2.2749,1.6039 -2.5104,0.5265c-0.1744,-0.8002 0.8395,-2.1639 2.3083,-3.1974c0.0589,-0.0416 9.2609,-6.4607 12.6558,-10.1143c5.9169,-6.3626 15.4607,-17.2009 24.3117,-18.8972c3.4481,-0.6605 8.3326,0.4896 10.3776,3.5081c1.5774,2.3303 1.1005,5.9065 -0.4007,8.172z" fill="#272525"/></g><g data-paper-data="{&quot;index&quot;:null}"><path d="M187.175,180.71804c-2.0288,3.0335 -5.1397,4.3822 -8.7898,3.7945c-0.2148,-0.0347 -0.403,-0.0012 -0.5762,0.0589c-8.3857,-0.052 -12.3845,-1.0139 -21.0196,-2.0578c-4.1685,-0.4965 -10.321,-2.6835 -10.321,-6.8533c0,-4.2101 4.8719,-6.0692 9.082,-5.9457c4.3764,0.1247 17.8348,4.8718 22.4584,5.9457c3.8002,0.8788 7.1685,1.5647 10.4226,1.903c-0.3211,1.3153 -0.8465,2.5393 -1.2564,3.1547z" fill="#ffffff"/><path d="M190.6877,177.87394c-0.3845,1.2506 -3.7021,0.2841 -4.6824,0.1444c-0.015,-0.0023 -0.03,-0.0116 -0.0462,-0.0139c-4.7379,-0.6489 -9.3672,-1.7979 -13.4538,-3.1108c-5.0219,-1.6143 -11.9665,-4.6905 -17.605,-4.4296c2.0265,1.4862 4.5854,4.0924 4.5854,4.0924c-0.8187,0.0727 -5.5889,-2.1028 -6.8002,-3.7864c-1.4757,0.3846 -2.6732,1.2287 -3.4007,2.291c1.5046,-0.142 5.3176,2.6213 6.4411,3.4042c0.3384,0.6062 -6.1189,-0.8695 -6.9653,-2.373c-0.627,1.7182 -0.1305,3.7055 2.09,5.112c5.7368,3.6316 22.4261,3.5404 26.9642,4.6316l0.0034,0.0012c0.0601,0.015 0.1236,0.0277 0.179,0.0438c0.9065,0.2252 4.7136,1.2437 -0.5901,1.2275c-1.3533,-0.0034 -2.1073,-0.0115 -2.4722,-0.0208c-9.6547,0.2102 -28.6362,-1.2586 -28.799,-9.6939c-0.0427,-2.2494 1.8937,-5.1524 3.8602,-6.164c6.2725,-3.2298 20.8718,4.4111 36.5138,6.2425c0.0011,0.0012 4.5635,1.1513 4.1778,2.4018zM177.0249,185.01254v0c-0.0057,0 -0.0115,0 -0.0173,0c0.0116,0 0.0173,0 0.0173,0z" fill="#272525"/></g></g></g></svg>