<svg version="1.1" xmlns="http://www.w3.org/2000/svg" xmlns:xlink="http://www.w3.org/1999/xlink" width="1430.16968" height="381.66613" viewBox="0,0,1430.16968,381.66613"><g transform="translate(466.02097,16.80203)"><g data-paper-data="{&quot;isPaintingLayer&quot;:true}" fill-rule="nonzero" stroke-linecap="butt" stroke-linejoin="miter" stroke-miterlimit="10" stroke-dasharray="" stroke-dashoffset="0" style="mix-blend-mode: normal"><path d="M-119.94595,-15.8h719.9419v305.8l-718.51404,-15.81724z" data-paper-data="{&quot;origPos&quot;:null}" fill="#453b63" stroke="#5b4e82" stroke-width="2.00406"/><g><path d="M52.45687,75.84863c-2.41971,1.46133 -9.52896,-6.09208 -9.52896,-6.09208c0,0 -8.28403,6.24961 -10.42294,4.39917c-2.14075,-1.85037 2.84868,-10.94858 2.84868,-10.94858c0,0 -8.50228,-5.94781 -7.40346,-8.55349c1.09882,-2.60767 11.29209,-0.67375 11.29209,-0.67375c0,0 3.02706,-9.92374 5.84532,-9.68649c2.82208,0.2391 4.13347,10.53294 4.13347,10.53294c0,0 10.37357,-0.18789 11.01504,2.56773c0.64715,2.75378 -8.73762,7.1833 -8.73762,7.1833c0,0 3.38383,9.80991 0.95838,11.27124z" fill="#ffff00" stroke="#000000" stroke-width="1.28786"/><path d="M47.74455,68.65015c-1.2184,0.73446 -4.79204,-3.0631 -4.79204,-3.0631c0,0 -4.16191,3.1409 -5.23612,2.21097c-1.07413,-0.92994 1.43097,-5.4999 1.43097,-5.4999c0,0 -4.27007,-2.99103 -3.71975,-4.29859c0.55232,-1.30954 5.67261,-0.33783 5.67261,-0.33783c0,0 1.52212,-4.98751 2.93975,-4.86601c1.41579,0.11951 2.07244,5.29116 2.07244,5.29116c0,0 5.21526,-0.09306 5.53784,1.29046c0.32648,1.38544 -4.38774,3.60967 -4.38774,3.60967c0,0 1.69667,4.92872 0.48203,5.66317z" fill="#ffffff" stroke="none" stroke-width="2.57572"/></g><g><path d="M423.45687,84.84863c-2.41971,1.46133 -9.52895,-6.09207 -9.52895,-6.09207c0,0 -8.28404,6.24961 -10.42294,4.39917c-2.14075,-1.85037 2.84868,-10.94858 2.84868,-10.94858c0,0 -8.50228,-5.9478 -7.40346,-8.55348c1.09881,-2.60767 11.29208,-0.67374 11.29208,-0.67374c0,0 3.02706,-9.92374 5.84532,-9.68649c2.82208,0.23909 4.13347,10.53294 4.13347,10.53294c0,0 10.37357,-0.18789 11.01504,2.56773c0.64715,2.75378 -8.73762,7.1833 -8.73762,7.1833c0,0 3.38383,9.8099 0.95838,11.27123z" fill="#ffff00" stroke="#000000" stroke-width="1.28786"/><path d="M418.74456,77.65015c-1.2184,0.73446 -4.79204,-3.0631 -4.79204,-3.0631c0,0 -4.16191,3.14091 -5.23612,2.21097c-1.07413,-0.92994 1.43097,-5.4999 1.43097,-5.4999c0,0 -4.27008,-2.99103 -3.71974,-4.29859c0.55232,-1.30955 5.6726,-0.33783 5.6726,-0.33783c0,0 1.52211,-4.98751 2.93975,-4.86601c1.4158,0.11951 2.07245,5.29115 2.07245,5.29115c0,0 5.21526,-0.09306 5.53784,1.29046c0.32649,1.38544 -4.38774,3.60967 -4.38774,3.60967c0,0 1.69667,4.92872 0.48203,5.66317z" fill="#ffffff" stroke="none" stroke-width="2.57572"/></g><g><path d="M119.45687,103.84863c-2.4197,1.46133 -9.52895,-6.09207 -9.52895,-6.09207c0,0 -8.28403,6.24961 -10.42294,4.39916c-2.14075,-1.85037 2.84868,-10.94858 2.84868,-10.94858c0,0 -8.50228,-5.9478 -7.40346,-8.55348c1.09882,-2.60767 11.29209,-0.67374 11.29209,-0.67374c0,0 3.02706,-9.92374 5.84531,-9.68649c2.82208,0.23909 4.13347,10.53294 4.13347,10.53294c0,0 10.37357,-0.18789 11.01505,2.56773c0.64714,2.75378 -8.73762,7.1833 -8.73762,7.1833c0,0 3.38383,9.80991 0.95837,11.27124z" fill="#ffff00" stroke="#000000" stroke-width="1.28786"/><path d="M114.74456,96.65015c-1.2184,0.73446 -4.79203,-3.0631 -4.79203,-3.0631c0,0 -4.16191,3.1409 -5.23612,2.21097c-1.07413,-0.92994 1.43098,-5.49989 1.43098,-5.49989c0,0 -4.27008,-2.99103 -3.71975,-4.29859c0.55232,-1.30955 5.67261,-0.33783 5.67261,-0.33783c0,0 1.52212,-4.98751 2.93975,-4.86601c1.4158,0.11951 2.07245,5.29115 2.07245,5.29115c0,0 5.21526,-0.09306 5.53784,1.29046c0.32648,1.38544 -4.38774,3.60967 -4.38774,3.60967c0,0 1.69667,4.92871 0.48202,5.66317z" fill="#ffffff" stroke="none" stroke-width="2.57572"/></g><g><path d="M219.45687,113.84863c-2.4197,1.46133 -9.52895,-6.09207 -9.52895,-6.09207c0,0 -8.28404,6.24961 -10.42294,4.39916c-2.14075,-1.85037 2.84868,-10.94858 2.84868,-10.94858c0,0 -8.50227,-5.9478 -7.40346,-8.55348c1.09882,-2.60767 11.29209,-0.67374 11.29209,-0.67374c0,0 3.02706,-9.92374 5.84531,-9.68649c2.82208,0.23909 4.13347,10.53294 4.13347,10.53294c0,0 10.37357,-0.18789 11.01505,2.56773c0.64714,2.75378 -8.73762,7.1833 -8.73762,7.1833c0,0 3.38383,9.80991 0.95837,11.27124z" fill="#ffff00" stroke="#000000" stroke-width="1.28786"/><path d="M214.74456,106.65015c-1.2184,0.73446 -4.79203,-3.0631 -4.79203,-3.0631c0,0 -4.16191,3.1409 -5.23612,2.21097c-1.07413,-0.92994 1.43097,-5.49989 1.43097,-5.49989c0,0 -4.27007,-2.99103 -3.71974,-4.29859c0.55232,-1.30955 5.67261,-0.33783 5.67261,-0.33783c0,0 1.52211,-4.98751 2.93975,-4.86601c1.4158,0.11951 2.07244,5.29115 2.07244,5.29115c0,0 5.21526,-0.09306 5.53784,1.29046c0.32648,1.38544 -4.38774,3.60967 -4.38774,3.60967c0,0 1.69667,4.92871 0.48202,5.66317z" fill="#ffffff" stroke="none" stroke-width="2.57572"/></g><g><path d="M327.45687,104.84863c-2.41971,1.46133 -9.52895,-6.09207 -9.52895,-6.09207c0,0 -8.28404,6.24961 -10.42294,4.39916c-2.14075,-1.85037 2.84868,-10.94858 2.84868,-10.94858c0,0 -8.50228,-5.9478 -7.40346,-8.55348c1.09882,-2.60767 11.29208,-0.67374 11.29208,-0.67374c0,0 3.02706,-9.92374 5.84532,-9.68649c2.82208,0.23909 4.13347,10.53294 4.13347,10.53294c0,0 10.37357,-0.18789 11.01504,2.56773c0.64715,2.75378 -8.73762,7.1833 -8.73762,7.1833c0,0 3.38383,9.80991 0.95838,11.27124z" fill="#ffff00" stroke="#000000" stroke-width="1.28786"/><path d="M322.74456,97.65015c-1.2184,0.73446 -4.79204,-3.0631 -4.79204,-3.0631c0,0 -4.16191,3.1409 -5.23612,2.21097c-1.07413,-0.92994 1.43098,-5.49989 1.43098,-5.49989c0,0 -4.27008,-2.99103 -3.71975,-4.29859c0.55232,-1.30955 5.67261,-0.33783 5.67261,-0.33783c0,0 1.52211,-4.98751 2.93975,-4.86601c1.4158,0.11951 2.07245,5.29115 2.07245,5.29115c0,0 5.21526,-0.09306 5.53784,1.29046c0.32648,1.38544 -4.38774,3.60967 -4.38774,3.60967c0,0 1.69667,4.92871 0.48203,5.66317z" fill="#ffffff" stroke="none" stroke-width="2.57572"/></g><path d="M444.99119,247.42647c12.05256,-0.53467 25.61835,4.24571 33.00294,13.54706c7.86306,9.85909 5.70849,24.56341 5.04411,37.03823c0.32427,12.83656 1.65303,27.53943 -6.05294,37.97499c-7.11941,9.66597 -20.08712,16.72053 -31.99412,16.64559c-17.7135,-0.11097 -37.89573,-5.89441 -50.93982,-15.41627c-13.04409,-9.5233 -21.119,-22.67403 -21.119,-37.18667c0,-14.51265 8.07491,-27.66338 21.119,-37.18668c13.04409,-9.52185 33.23929,-14.64523 50.93982,-15.41626z" fill="#00cc44" stroke="#00cc44" stroke-width="2.88236"/><path d="M80.01765,237.57647c15.41794,0 29.38853,3.84941 39.50435,10.06776c10.11582,6.21929 16.37799,14.80753 16.37799,24.28518c0,9.47764 -6.26217,18.06588 -16.37799,24.28517c-10.11582,6.21835 -24.08641,10.06777 -39.50435,10.06777c-15.41794,0 -29.38853,-3.84942 -39.50435,-10.06777c-10.11582,-6.21929 -16.37799,-14.80753 -16.37799,-24.28517c0,-9.47764 6.26217,-18.06588 16.37799,-24.28518c10.11582,-6.21836 24.08641,-10.06776 39.50435,-10.06776z" fill="#00cc44" stroke="#00cc44" stroke-width="2.06637"/><path d="M193.49119,229.87647c19.88103,0 37.89573,5.89441 50.93982,15.41627c13.04409,9.52329 21.119,22.67403 21.119,37.18668c0,14.51265 -8.07491,27.66338 -21.119,37.18667c-13.04409,9.52185 -31.05879,15.41627 -50.93982,15.41627c-19.88103,0 -37.89573,-5.89442 -50.93982,-15.41627c-13.04409,-9.5233 -21.119,-22.67403 -21.119,-37.18667c0,-14.51265 8.07491,-27.66338 21.119,-37.18668c13.04409,-9.52185 31.05879,-15.41627 50.93982,-15.41627z" fill="#00cc44" stroke="#00cc44" stroke-width="2.88236"/><path d="M321.49118,237.87647c19.88103,0 37.89573,5.89441 50.93982,15.41627c13.04409,9.52329 21.119,22.67403 21.119,37.18668c0,14.51265 -8.07491,27.66338 -21.119,37.18667c-13.04409,9.52185 -31.05879,15.41627 -50.93982,15.41627c-19.88103,0 -37.89573,-5.89442 -50.93982,-15.41627c-13.04409,-9.5233 -21.119,-22.67403 -21.119,-37.18667c0,-14.51265 8.07491,-27.66338 21.119,-37.18668c13.04409,-9.52185 31.05879,-15.41627 50.93982,-15.41627z" fill="#00cc44" stroke="#00cc44" stroke-width="2.88236"/><path d="M2,279.00001l470,-3l8,60l-480,5z" fill="#00cc44" stroke="#00cc44" stroke-width="2"/><path d="M558.02575,238.57647c15.41794,0 29.38853,3.84941 39.50435,10.06776c10.11582,6.21929 16.37799,14.80753 16.37799,24.28518c0,9.47764 -6.26217,18.06588 -16.37799,24.28517c-10.11582,6.21835 -24.08641,10.06777 -39.50435,10.06777c-15.41794,0 -29.38853,-3.84942 -39.50435,-10.06777c-10.11582,-6.21929 -16.37799,-14.80753 -16.37799,-24.28517c0,-9.47764 6.26217,-18.06588 16.37799,-24.28518c10.11582,-6.21836 24.08641,-10.06776 39.50435,-10.06776z" fill="#00cc44" stroke="#00cc44" stroke-width="2.06637"/><path d="M476.00623,245.99706c5.94523,-3.21318 16.1986,10.32094 22.58866,19.19717c4.81531,6.67388 10.26528,14.98541 10.26528,24.28518c0,9.29976 -4.03214,20.24658 -10.26528,24.28517l-20.5922,-3.76753l-0.98071,-34.96471c-0.32154,-11.6433 -5.85696,-27.32893 -1.01574,-29.03529z" fill="#00cc44" stroke="#00cc44" stroke-width="1.65924"/><path d="M563.02575,243.57647c15.41794,0 29.38853,3.84941 39.50435,10.06776c10.11582,6.21929 16.37799,14.80753 16.37799,24.28518c0,9.47764 -6.26217,18.06588 -16.37799,24.28517c-10.11582,6.21835 -24.08641,10.06777 -39.50435,10.06777c-15.41794,0 -29.38853,-3.84942 -39.50435,-10.06777c-10.11582,-6.21929 -16.37799,-14.80753 -16.37799,-24.28517c0,-9.47764 6.26217,-18.06588 16.37799,-24.28518c10.11582,-6.21836 24.08641,-10.06776 39.50435,-10.06776z" fill="#00cc44" stroke="#00cc44" stroke-width="2.06637"/><path d="M481.00623,250.99706c5.94523,-3.21318 16.1986,10.32094 22.58866,19.19717c4.81531,6.67388 10.26528,14.98541 10.26528,24.28518c0,9.29976 -4.03214,20.24658 -10.26528,24.28517l-20.5922,-3.76753l-0.98071,-34.96471c-0.32154,-11.6433 -5.85696,-27.32893 -1.01574,-29.03529z" fill="#00cc44" stroke="#00cc44" stroke-width="1.65924"/><path d="M485.00811,285.00001l470,-3l8,60l-480,5z" fill="#00cc44" stroke="#00cc44" stroke-width="2"/><path d="M-19.99666,235.42647c12.05256,-0.53467 25.61835,4.24571 33.00294,13.54706c7.86306,9.85909 5.70849,24.56341 5.04411,37.03823c0.32427,12.83656 1.65303,27.53943 -6.05294,37.97499c-7.11941,9.66597 -20.08712,16.72053 -31.99412,16.64559c-17.7135,-0.11097 -37.89573,-5.89441 -50.93982,-15.41627c-13.04409,-9.5233 -21.119,-22.67403 -21.119,-37.18667c0,-14.51265 8.07491,-27.66338 21.119,-37.18668c13.04409,-9.52185 33.23929,-14.64523 50.93982,-15.41626z" fill="#00cc44" stroke="#00cc44" stroke-width="2.88236"/><path d="M-143.49666,225.87647c19.88103,0 37.89573,5.89441 50.93982,15.41627c13.04409,9.52329 21.119,22.67403 21.119,37.18668c0,14.51265 -8.07491,27.66338 -21.119,37.18667c-13.04409,9.52185 -31.05879,15.41627 -50.93982,15.41627c-19.88103,0 -37.89573,-5.89442 -50.93982,-15.41627c-13.04409,-9.5233 -21.119,-22.67403 -21.119,-37.18667c0,-14.51265 8.07491,-27.66338 21.119,-37.18668c13.04409,-9.52185 31.05879,-15.41627 50.93982,-15.41627z" fill="#00cc44" stroke="#00cc44" stroke-width="2.88236"/><path d="M-462.98784,283.00001l470,-3l8,60l-480,5z" fill="#00cc44" stroke="#00cc44" stroke-width="2"/><path d="M-119.98346,338.6167h716.97502v24.93334h-716.97501z" fill="#663b00" stroke="#663b00" stroke-width="2.62812"/><g><path d="M-74.54313,133.84863c-2.41971,1.46133 -9.52896,-6.09208 -9.52896,-6.09208c0,0 -8.28403,6.24961 -10.42294,4.39917c-2.14075,-1.85037 2.84868,-10.94858 2.84868,-10.94858c0,0 -8.50228,-5.94781 -7.40346,-8.55349c1.09882,-2.60767 11.29209,-0.67375 11.29209,-0.67375c0,0 3.02706,-9.92374 5.84532,-9.68649c2.82208,0.2391 4.13347,10.53294 4.13347,10.53294c0,0 10.37357,-0.18789 11.01504,2.56773c0.64715,2.75378 -8.73762,7.1833 -8.73762,7.1833c0,0 3.38383,9.80991 0.95838,11.27124z" fill="#ffff00" stroke="#000000" stroke-width="1.28786"/><path d="M-79.25545,126.65014c-1.2184,0.73446 -4.79204,-3.0631 -4.79204,-3.0631c0,0 -4.16191,3.1409 -5.23612,2.21097c-1.07413,-0.92994 1.43097,-5.4999 1.43097,-5.4999c0,0 -4.27007,-2.99103 -3.71975,-4.29859c0.55232,-1.30954 5.67261,-0.33783 5.67261,-0.33783c0,0 1.52212,-4.98751 2.93975,-4.86601c1.41579,0.11951 2.07244,5.29116 2.07244,5.29116c0,0 5.21526,-0.09306 5.53784,1.29046c0.32648,1.38544 -4.38774,3.60967 -4.38774,3.60967c0,0 1.69667,4.92872 0.48203,5.66317z" fill="#ffffff" stroke="none" stroke-width="2.57572"/></g><g><path d="M533.45686,70.84863c-2.41971,1.46133 -9.52896,-6.09208 -9.52896,-6.09208c0,0 -8.28403,6.24961 -10.42294,4.39917c-2.14075,-1.85037 2.84868,-10.94858 2.84868,-10.94858c0,0 -8.50228,-5.94781 -7.40346,-8.55349c1.09882,-2.60767 11.29209,-0.67375 11.29209,-0.67375c0,0 3.02706,-9.92374 5.84532,-9.68649c2.82208,0.2391 4.13347,10.53294 4.13347,10.53294c0,0 10.37357,-0.18789 11.01504,2.56773c0.64715,2.75378 -8.73762,7.1833 -8.73762,7.1833c0,0 3.38383,9.80991 0.95838,11.27124z" fill="#ffff00" stroke="#000000" stroke-width="1.28786"/><path d="M528.74455,63.65015c-1.2184,0.73446 -4.79204,-3.0631 -4.79204,-3.0631c0,0 -4.16191,3.1409 -5.23612,2.21097c-1.07413,-0.92994 1.43097,-5.4999 1.43097,-5.4999c0,0 -4.27007,-2.99103 -3.71975,-4.29859c0.55232,-1.30954 5.67261,-0.33783 5.67261,-0.33783c0,0 1.52212,-4.98751 2.93975,-4.86601c1.41579,0.11951 2.07244,5.29116 2.07244,5.29116c0,0 5.21526,-0.09306 5.53784,1.29046c0.32648,1.38544 -4.38774,3.60967 -4.38774,3.60967c0,0 1.69667,4.92872 0.48203,5.66317z" fill="#ffffff" stroke="none" stroke-width="2.57572"/></g><g><path d="M572.45687,139.84863c-2.41971,1.46133 -9.52896,-6.09208 -9.52896,-6.09208c0,0 -8.28403,6.24961 -10.42294,4.39917c-2.14075,-1.85037 2.84868,-10.94858 2.84868,-10.94858c0,0 -8.50228,-5.94781 -7.40346,-8.55349c1.09882,-2.60767 11.29209,-0.67375 11.29209,-0.67375c0,0 3.02706,-9.92374 5.84532,-9.68649c2.82208,0.2391 4.13347,10.53294 4.13347,10.53294c0,0 10.37357,-0.18789 11.01504,2.56773c0.64715,2.75378 -8.73762,7.1833 -8.73762,7.1833c0,0 3.38383,9.80991 0.95838,11.27124z" fill="#ffff00" stroke="#000000" stroke-width="1.28786"/><path d="M567.74455,132.65015c-1.2184,0.73446 -4.79204,-3.0631 -4.79204,-3.0631c0,0 -4.16191,3.1409 -5.23612,2.21097c-1.07413,-0.92994 1.43097,-5.4999 1.43097,-5.4999c0,0 -4.27007,-2.99103 -3.71975,-4.29859c0.55232,-1.30954 5.67261,-0.33783 5.67261,-0.33783c0,0 1.52212,-4.98751 2.93975,-4.86601c1.41579,0.11951 2.07244,5.29116 2.07244,5.29116c0,0 5.21526,-0.09306 5.53784,1.29046c0.32648,1.38544 -4.38774,3.60967 -4.38774,3.60967c0,0 1.69667,4.92872 0.48203,5.66317z" fill="#ffffff" stroke="none" stroke-width="2.57572"/></g><g><path d="M-31.54314,77.84863c-2.41971,1.46133 -9.52896,-6.09208 -9.52896,-6.09208c0,0 -8.28403,6.24961 -10.42294,4.39917c-2.14075,-1.85037 2.84868,-10.94858 2.84868,-10.94858c0,0 -8.50228,-5.94781 -7.40346,-8.55349c1.09882,-2.60767 11.29209,-0.67375 11.29209,-0.67375c0,0 3.02706,-9.92374 5.84532,-9.68649c2.82208,0.2391 4.13347,10.53294 4.13347,10.53294c0,0 10.37357,-0.18789 11.01504,2.56773c0.64715,2.75378 -8.73762,7.1833 -8.73762,7.1833c0,0 3.38383,9.80991 0.95838,11.27124z" fill="#ffff00" stroke="#000000" stroke-width="1.28786"/><path d="M-36.25545,70.65015c-1.2184,0.73446 -4.79204,-3.0631 -4.79204,-3.0631c0,0 -4.16191,3.1409 -5.23612,2.21097c-1.07413,-0.92994 1.43097,-5.4999 1.43097,-5.4999c0,0 -4.27007,-2.99103 -3.71975,-4.29859c0.55232,-1.30954 5.67261,-0.33783 5.67261,-0.33783c0,0 1.52212,-4.98751 2.93975,-4.86601c1.41579,0.11951 2.07244,5.29116 2.07244,5.29116c0,0 5.21526,-0.09306 5.53784,1.29046c0.32648,1.38544 -4.38774,3.60967 -4.38774,3.60967c0,0 1.69667,4.92872 0.48203,5.66317z" fill="#ffffff" stroke="none" stroke-width="2.57572"/></g></g></g></svg>