<svg version="1.1" xmlns="http://www.w3.org/2000/svg" xmlns:xlink="http://www.w3.org/1999/xlink" width="721" height="419.54999" viewBox="0,0,721,419.54999"><defs><linearGradient x1="242.47309" y1="-16.00001" x2="242.47309" y2="354.00004" gradientUnits="userSpaceOnUse" id="color-1"><stop offset="0" stop-color="#8ebad3"/><stop offset="1" stop-color="#e8c3c3"/></linearGradient><linearGradient x1="539.91181" y1="226.00004" x2="539.91181" y2="355.00004" gradientUnits="userSpaceOnUse" id="color-2"><stop offset="0" stop-color="#679660"/><stop offset="1" stop-color="#388628"/></linearGradient><linearGradient x1="540.65291" y1="230.00004" x2="540.65291" y2="359.00004" gradientUnits="userSpaceOnUse" id="color-3"><stop offset="0" stop-color="#afffa3"/><stop offset="1" stop-color="#6bff4d"/></linearGradient><linearGradient x1="237" y1="219.00003" x2="237" y2="348.00004" gradientUnits="userSpaceOnUse" id="color-4"><stop offset="0" stop-color="#679660"/><stop offset="1" stop-color="#388628"/></linearGradient><linearGradient x1="240" y1="223.00003" x2="240" y2="352.00004" gradientUnits="userSpaceOnUse" id="color-5"><stop offset="0" stop-color="#afffa3"/><stop offset="1" stop-color="#6bff4d"/></linearGradient><linearGradient x1="-61.08819" y1="221.00004" x2="-61.08819" y2="350.00004" gradientUnits="userSpaceOnUse" id="color-6"><stop offset="0" stop-color="#679660"/><stop offset="1" stop-color="#388628"/></linearGradient><linearGradient x1="-60.34708" y1="225.00004" x2="-60.34708" y2="354.00004" gradientUnits="userSpaceOnUse" id="color-7"><stop offset="0" stop-color="#afffa3"/><stop offset="1" stop-color="#6bff4d"/></linearGradient><linearGradient x1="30" y1="-42.54995" x2="30" y2="84.45004" gradientUnits="userSpaceOnUse" id="color-8"><stop offset="0" stop-color="#f7ffa3"/><stop offset="1" stop-color="#ecff4d"/></linearGradient></defs><g transform="translate(120.5,42.54995)"><g data-paper-data="{&quot;isPaintingLayer&quot;:true}" fill-rule="nonzero" stroke="none" stroke-width="0" stroke-linecap="butt" stroke-linejoin="miter" stroke-miterlimit="10" stroke-dasharray="" stroke-dashoffset="0" style="mix-blend-mode: normal"><path d="M-118.01346,368.00004l-1.48654,-378l718,1v378z" fill="url(#color-1)"/><g><path d="M480.5,355.00004l0.7411,-131c0,0 8.05628,77.2186 15.81112,77.41687c3.65497,0.09344 10.5803,-78.55207 17.80447,-82.90272c5.71791,-3.44353 20.36045,85.64191 27.14233,84.80869c4.99192,-0.61331 11.89088,-82.17645 16.62835,-86.02139c7.72472,-6.26939 13.26382,89.48653 19.21674,90.65322c12.26701,2.40416 22.22061,-79.95466 22.22061,-79.95466l-1.23517,145z" fill="url(#color-2)"/><path d="M481.2411,359.00004l-0.06176,-130.5c0,0 8.85914,76.7186 16.61398,76.91687c3.65497,0.09344 10.5803,-78.55207 17.80447,-82.90272c5.71791,-3.44353 20.36045,85.64191 27.14233,84.80869c4.99192,-0.61331 11.89088,-82.17645 16.62835,-86.02139c7.72472,-6.26939 13.26382,89.48653 19.21674,90.65322c12.26701,2.40416 21.66478,-81.95466 21.66478,-81.95466l-0.67935,147z" fill="url(#color-3)"/></g><g><path d="M-3.5,348.00004l3,-131c0,0 32.61194,77.2186 64.00368,77.41687c14.79537,0.09344 42.82922,-78.55207 72.07281,-82.90272c23.14621,-3.44353 82.41945,85.64191 109.87261,84.80869c20.20738,-0.61331 48.13449,-82.17645 67.31183,-86.02139c31.2698,-6.26939 53.69215,89.48653 77.78968,90.65322c49.65708,2.40416 89.94939,-79.95466 89.94939,-79.95466l-5,145z" fill="url(#color-4)"/><path d="M-0.5,352.00004l-0.25,-130.5c0,0 35.86194,76.7186 67.25368,76.91687c14.79537,0.09344 42.82922,-78.55207 72.07281,-82.90272c23.14621,-3.44353 82.41945,85.64191 109.87261,84.80869c20.20738,-0.61331 48.13449,-82.17645 67.31183,-86.02139c31.2698,-6.26939 53.69215,89.48653 77.78968,90.65322c49.65708,2.40416 87.69939,-81.95466 87.69939,-81.95466l-2.75,147z" fill="url(#color-5)"/></g><g><path d="M-120.5,350.00004l0.74111,-131c0,0 8.05628,77.2186 15.81112,77.41687c3.65497,0.09344 10.5803,-78.55207 17.80448,-82.90272c5.71791,-3.44353 20.36045,85.64191 27.14233,84.80869c4.99192,-0.61331 11.89089,-82.17645 16.62835,-86.02139c7.72472,-6.26939 13.26381,89.48653 19.21673,90.65322c12.26702,2.40416 22.22061,-79.95466 22.22061,-79.95466l-1.23517,145z" fill="url(#color-6)"/><path d="M-119.75889,354.00004l-0.06176,-130.5c0,0 8.85914,76.7186 16.61399,76.91687c3.65497,0.09344 10.58029,-78.55207 17.80447,-82.90272c5.71791,-3.44353 20.36046,85.64191 27.14234,84.80869c4.99192,-0.61331 11.89088,-82.17645 16.62834,-86.02139c7.72472,-6.26939 13.26382,89.48653 19.21674,90.65322c12.26702,2.40416 21.66478,-81.95466 21.66478,-81.95466l-0.67935,147z" fill="url(#color-7)"/></g><path d="M-120.5,374.00004l0.63489,-39l720.36511,-4l-1.90872,45z" fill="#825f53"/><path d="M-33.5,20.95005c0,-35.07008 28.42992,-63.5 63.5,-63.5c35.07008,0 63.5,28.42992 63.5,63.5c0,35.07008 -28.42992,63.5 -63.5,63.5c-35.07008,0 -63.5,-28.42992 -63.5,-63.5z" fill="url(#color-8)"/></g></g></svg>