<svg version="1.1" xmlns="http://www.w3.org/2000/svg" xmlns:xlink="http://www.w3.org/1999/xlink" width="12.71474" height="21.41666"><g transform="translate(-232.925,-169.11676)"><g data-paper-data="{&quot;isPaintingLayer&quot;:true}" fill="none" fill-rule="nonzero" stroke="none" stroke-width="none" stroke-linecap="butt" stroke-linejoin="miter" stroke-miterlimit="10" stroke-dasharray="" stroke-dashoffset="0" font-family="none" font-weight="none" font-size="none" text-anchor="none" style="mix-blend-mode: normal"><path d="M232.925,179.82509c0,-5.91405 2.84628,-10.70833 6.35737,-10.70833c3.51108,0 6.35737,4.79428 6.35737,10.70833c0,5.91405 -2.84628,10.70833 -6.35737,10.70833c-3.51108,0 -6.35737,-4.79428 -6.35737,-10.70833z" data-paper-data="{&quot;origPos&quot;:null}" fill="#ffd900" stroke-width="0"/><path d="M238.79058,178.87033c0,-4.18159 1.33569,-7.57143 2.98333,-7.57143c1.64765,0 2.98333,3.38984 2.98333,7.57143c0,4.18159 -1.33569,7.57143 -2.98333,7.57143c-1.64765,0 -2.98333,-3.38984 -2.98333,-7.57143z" data-paper-data="{&quot;origPos&quot;:null}" fill="#dfbe00" stroke-width="0"/><path d="M238.97016,179.56676c0,-4.14213 1.31215,-7.5 2.93077,-7.5c1.61862,0 2.93077,3.35787 2.93077,7.5c0,4.14213 -1.31215,7.5 -2.93077,7.5c-1.61862,0 -2.93077,-3.35787 -2.93077,-7.5z" data-paper-data="{&quot;origPos&quot;:null}" fill="#ffe44c" stroke-width="0"/><g data-paper-data="{&quot;origPos&quot;:null}" stroke-width="1" font-family="Sans Serif" font-weight="normal" font-size="40" text-anchor="start"><text transform="translate(240.70258,180.45458) scale(0.06519,0.16685)" font-size="40" xml:space="preserve" data-paper-data="{&quot;origPos&quot;:null}" fill="#dfbe00" fill-rule="nonzero" stroke="none" stroke-width="1" stroke-linecap="butt" stroke-linejoin="miter" stroke-miterlimit="10" stroke-dasharray="" stroke-dashoffset="0" font-family="Sans Serif" font-weight="normal" text-anchor="start" style="mix-blend-mode: normal"><tspan x="0" dy="0">★</tspan></text><text transform="translate(240.67933,180.16886) scale(0.06519,0.16685)" font-size="40" xml:space="preserve" data-paper-data="{&quot;origPos&quot;:null}" fill="#ffd900" fill-rule="nonzero" stroke="none" stroke-width="1" stroke-linecap="butt" stroke-linejoin="miter" stroke-miterlimit="10" stroke-dasharray="" stroke-dashoffset="0" font-family="Sans Serif" font-weight="normal" text-anchor="start" style="mix-blend-mode: normal"><tspan x="0" dy="0">★</tspan></text></g><path d="M237.58969,189.93379l5.96964,-17.96742c0,0 0.89603,1.2836 1.28666,2.24232c0.388,0.95226 0.70849,2.65435 0.70849,2.65435l-3.67387,13.38041c0,0 -1.88145,0.41164 -2.38921,0.19363c0,0 -0.5713,-0.04652 -0.89124,-0.12201c-0.39435,-0.09305 -1.01048,-0.38128 -1.01048,-0.38128z" data-paper-data="{&quot;origRot&quot;:0,&quot;origPos&quot;:null}" fill="#ffee8b" stroke-width="0"/></g></g></svg>