<svg version="1.1" xmlns="http://www.w3.org/2000/svg" xmlns:xlink="http://www.w3.org/1999/xlink" width="108.11779" height="70.84794" viewBox="0,0,108.11779,70.84794"><g transform="translate(-186.4706,-144.78842)"><g data-paper-data="{&quot;isPaintingLayer&quot;:true}" fill-rule="evenodd" stroke-miterlimit="10" stroke-dasharray="" stroke-dashoffset="0" style="mix-blend-mode: normal"><path d="M211.9375,164.70836c-0.4287,0.77161 -7.2877,0.17141 -9.9456,2.14341c-2.2292,1.5433 -3.9439,3.601 -4.9728,6.0874c-2.4863,6.3445 -0.6001,13.718 -4.7155,13.6322c-4.0297,-0.0857 -9.3454,-11.0601 -0.9431,-19.3767c2.4864,-2.4006 5.4872,-4.2868 8.6595,-5.6586c0.6859,-0.343 6.6875,-2.6579 10.0312,-0.7717c3.3438,1.88631 2.315,3.2581 1.8863,3.944z" data-paper-data="{&quot;origPos&quot;:null,&quot;index&quot;:null}" fill="#1ec5fa" stroke="none" stroke-width="1" stroke-linecap="butt" stroke-linejoin="miter"/><path d="M192.6465,186.48567c-1.8862,0.3429 -4.887,-3.1723 -5.4872,-6.5161c-0.4287,-2.4864 -0.1714,-5.0585 0.6002,-7.4591c0.8574,-1.4576 1.2861,1.629 3.6867,2.2291c1.7148,0.343 3.4295,0.1715 5.0585,-0.5144c0,0 -0.8574,4.8871 -1.286,7.5449c-0.343,2.7436 -0.6002,4.2869 -2.5722,4.7156z" data-paper-data="{&quot;origPos&quot;:null,&quot;index&quot;:null}" fill="#ffffff" stroke="none" stroke-width="1" stroke-linecap="butt" stroke-linejoin="miter"/><path d="M211.9375,164.70836c-0.4287,0.77161 -7.2877,0.17141 -9.9456,2.14341c-2.2292,1.5433 -3.9439,3.601 -4.9728,6.0874c-2.4863,6.3445 -0.6001,13.718 -4.7155,13.6322c-4.0297,-0.0857 -9.3454,-11.0601 -0.9431,-19.3767c2.4864,-2.4006 5.4872,-4.2868 8.6595,-5.6586c0.6859,-0.343 6.6875,-2.6579 10.0312,-0.7717c3.3438,1.88631 2.315,3.2581 1.8863,3.944z" data-paper-data="{&quot;index&quot;:null}" fill="none" stroke="#231f20" stroke-width="0.85738" stroke-linecap="round" stroke-linejoin="round"/><path d="M262.77979,150.99037c0,0 14.4896,-7.2877 23.4921,-5.4872c8.9167,1.8004 7.5449,12.3462 1.1146,10.7171c-4.0297,-1.0288 -15.0898,-2.1434 -21.0057,-0.2572c-6.0016,1.8863 -7.2877,-3.258 -3.601,-4.9727z" data-paper-data="{&quot;index&quot;:null}" fill="#f9a41f" stroke="none" stroke-width="1" stroke-linecap="butt" stroke-linejoin="miter"/><path d="M262.77979,150.99037c0,0 14.4896,-7.2877 23.4921,-5.4872c8.9167,1.8004 7.5449,12.3462 1.1146,10.7171c-4.0297,-1.0288 -15.0898,-2.1434 -21.0057,-0.2572c-6.0016,1.8863 -7.2877,-3.258 -3.601,-4.9727z" data-paper-data="{&quot;origPos&quot;:null,&quot;index&quot;:null}" fill="#1ec5fa" stroke="#231f20" stroke-width="0.85738" stroke-linecap="round" stroke-linejoin="round"/><path d="M220.8542,166.03266c2.4864,-3.0866 4.0296,1.8004 2.3149,4.3726c-1.972,3.4295 -4.2869,6.51601 -6.9448,9.34541c-0.6859,-3.0866 -0.6001,-6.2589 0.1715,-9.3454c1.7148,-1.2004 3.1723,-2.6579 4.4584,-4.3726z" data-paper-data="{&quot;index&quot;:null}" fill="#231f20" stroke="#231f20" stroke-width="0.85738" stroke-linecap="round" stroke-linejoin="round" opacity="0.1"/><path d="M223.0833,170.53847c0,0 -5.7444,10.46 -11.6603,12.6892c-8.5737,3.1722 -10.6314,-4.2012 -7.2876,-7.5449c4.1154,-4.2012 9.5168,-0.343 16.7188,-9.5169c2.4864,-3.1723 4.0296,1.629 2.2291,4.3726z" data-paper-data="{&quot;origPos&quot;:null,&quot;index&quot;:null}" fill="#1ec5fa" stroke="none" stroke-width="1" stroke-linecap="butt" stroke-linejoin="miter"/><path d="M223.0833,170.53847c0,0 -5.7444,10.46 -11.6603,12.6892c-8.5737,3.1722 -10.6314,-4.2012 -7.2876,-7.5449c4.1154,-4.2012 9.5168,-0.343 16.7188,-9.5169c2.4864,-3.1723 4.0296,1.629 2.2291,4.3726z" data-paper-data="{&quot;index&quot;:null}" fill="none" stroke="#231f20" stroke-width="0.85738" stroke-linecap="round" stroke-linejoin="round"/><path d="M238.0017,153.13376c1.0288,16.2044 -30.3511,11.66031 -30.4368,11.57461l0.0857,-4.4584c-3.0866,-1.3718 -6.4303,-1.8005 -9.6883,-1.3718c-3.5153,0.68591 -8.831,3.1723 -10.1171,-2.6579c-1.1146,-4.8013 7.0305,-8.2308 23.4921,-7.8021c16.8903,0.4287 26.6644,4.7156 26.6644,4.7156z" data-paper-data="{&quot;origPos&quot;:null,&quot;index&quot;:null}" fill="#1ec5fa" stroke="none" stroke-width="1" stroke-linecap="butt" stroke-linejoin="miter"/><path d="M228.3133,160.67867c0,0 -12.0032,0.4287 -15.6042,-3.258c-2.4006,-2.4007 -0.1715,-4.7156 2.5721,-5.1443c6.3446,-1.0288 17.319,2.0577 18.0049,3.6867z" data-paper-data="{&quot;index&quot;:null}" fill="#ffffff" stroke="none" stroke-width="1" stroke-linecap="butt" stroke-linejoin="miter"/><path d="M238.0017,153.13376c1.0288,16.2044 -30.3511,11.6603 -30.4368,11.5746l-0.343,-6.51609c-3.0865,0 -6.1731,0.2572 -9.2596,0.6859c-3.5153,0.60021 -9.0025,3.258 -10.1171,-2.6579c-1.1146,-5.6586 7.0305,-8.2308 23.4921,-7.8021c16.8903,0.4287 26.6644,4.7156 26.6644,4.7156z" data-paper-data="{&quot;index&quot;:null}" fill="none" stroke="#231f20" stroke-width="0.85738" stroke-linecap="round" stroke-linejoin="round"/><path d="M260.29339,201.06107c-2.9151,1.0288 -5.8301,1.8004 -8.8309,2.2291c-3.1723,0.4287 -6.4304,0.1715 -9.5169,-0.6001l-12.1747,12.5176l-1.972,-20.234c0,0 -6.516,-3.0866 -9.4311,-14.7469c-3.258,-12.9463 7.3734,-26.0642 23.5778,-30.7797c21.5201,-6.2589 40.4681,-0.0858 41.5827,14.6611c0.6001,7.7164 -4.9728,9.5169 -4.9728,9.5169c0,0 1.4575,4.8013 -0.6859,11.4888c-1.2861,4.0296 -3.6867,7.5449 -6.859,10.2885l-0.3429,12.6891l-10.3743,-7.03039z" data-paper-data="{&quot;origPos&quot;:null,&quot;index&quot;:null}" fill="#1ec5fa" stroke="none" stroke-width="1" stroke-linecap="butt" stroke-linejoin="miter"/><path d="M259.2646,172.25327c-7.9736,0.0857 -25.5498,12.0032 -31.38,0c-6.3445,-13.0321 3.8582,-19.9769 14.061,-22.8062c29.9224,-8.4023 41.6684,6.3446 41.5827,14.6611c0,6.2588 -1.7148,8.2308 -4.9728,9.5169c-7.5449,3.0008 -11.4031,-1.3718 -19.2909,-1.3718z" data-paper-data="{&quot;index&quot;:null}" fill="#ffffff" stroke="none" stroke-width="1" stroke-linecap="butt" stroke-linejoin="miter"/><path d="M260.29339,201.06107c-2.9151,1.0288 -5.8301,1.8004 -8.8309,2.2291c-3.1723,0.4287 -6.4304,0.1715 -9.5169,-0.6001l-12.1747,12.5176l-1.972,-20.234c0,0 -6.516,-3.0866 -9.4311,-14.7469c-3.258,-12.9463 7.3734,-26.0642 23.5778,-30.7797c21.5201,-6.2589 40.4681,-0.0858 41.5827,14.6611c0.6001,7.7164 -4.9728,9.5169 -4.9728,9.5169c0,0 1.4575,4.8013 -0.6859,11.4888c-1.2861,4.0296 -3.6867,7.5449 -6.859,10.2885l-0.3429,12.6891l-10.3743,-7.03039z" data-paper-data="{&quot;index&quot;:null}" fill="none" stroke="#231f20" stroke-width="0.85738" stroke-linecap="round" stroke-linejoin="round"/><path d="M241.9456,202.69007l1.1146,-1.2004" data-paper-data="{&quot;index&quot;:null}" fill="none" stroke="#231f20" stroke-width="0.85738" stroke-linecap="round" stroke-linejoin="round"/><path d="M207.9078,177.43567c2.0577,-0.6859 4.1154,-1.2003 6.1731,-1.629c1.972,-0.3429 5.8302,-0.6859 5.8302,-0.6859" data-paper-data="{&quot;origPos&quot;:null,&quot;index&quot;:null}" fill="none" stroke="#ffffff" stroke-width="0.85738" stroke-linecap="round" stroke-linejoin="round"/><path d="M221.0256,179.15047c-1.7147,1.8005 -3.6009,3.5152 -5.5729,4.9728c-1.8862,1.4575 -3.9439,2.7436 -6.1731,3.8582" data-paper-data="{&quot;origPos&quot;:null,&quot;index&quot;:null}" fill="none" stroke="#ffffff" stroke-width="0.85738" stroke-linecap="round" stroke-linejoin="round"/><path d="M265.9521,192.91597c-3.258,-1.2861 -4.3726,-6.6875 -2.3149,-12.0033c2.0577,-5.3157 6.3446,-8.6594 9.6883,-7.3734c3.258,1.2861 4.3726,6.6875 2.3149,12.0033c-2.0577,5.3157 -6.4303,8.7452 -9.6883,7.3734z" data-paper-data="{&quot;index&quot;:null}" fill="#ffffff" stroke="#231f20" stroke-width="0.85738" stroke-linecap="round" stroke-linejoin="round"/><path d="M273.9257,182.62747v0c0,1.0288 -0.9431,1.972 -2.0577,1.972c-1.0289,-0.0858 -1.8005,-0.8574 -1.8005,-1.8863c0,-1.0288 0.8574,-1.9719 1.8862,-1.9719c1.0289,0 1.972,0.8573 1.972,1.8862" data-paper-data="{&quot;index&quot;:null}" fill="#231f20" stroke="none" stroke-width="1" stroke-linecap="butt" stroke-linejoin="miter"/><path d="M239.0305,194.54497c-3.9439,-1.4575 -5.4872,-6.9447 -3.4295,-12.3462c1.972,-5.3157 6.859,-8.4023 10.8029,-6.9447c3.944,1.4575 5.4872,7.0304 3.4295,12.3462c-1.9719,5.31569 -6.859,8.4022 -10.8029,6.9447z" data-paper-data="{&quot;index&quot;:null}" fill="#ffffff" stroke="#231f20" stroke-width="0.85738" stroke-linecap="round" stroke-linejoin="round"/><path d="M247.8615,184.42797v0c0.3429,1.1146 -0.343,2.2292 -1.4576,2.4006c-0.9431,0.2572 -1.9719,-0.3429 -2.2291,-1.286c-0.343,-1.0289 0.2572,-2.0577 1.286,-2.4007c1.0289,-0.3429 2.0577,0.2572 2.4007,1.2861" data-paper-data="{&quot;index&quot;:null}" fill="#231f20" stroke="none" stroke-width="1" stroke-linecap="butt" stroke-linejoin="miter"/><path d="M254.2918,174.13947c-0.5144,-1.629 2.8293,-4.7156 4.887,-5.0585c2.0577,-0.343 4.5441,2.8293 4.7156,3.7724c0.1715,2.1435 -3.1723,1.8005 -4.9728,1.972c-1.629,0.1715 -4.1154,0.9431 -4.6298,-0.6859z" data-paper-data="{&quot;index&quot;:null}" fill="#231f20" stroke="#231f20" stroke-width="0.85738" stroke-linecap="round" stroke-linejoin="round"/><path d="M251.4625,164.87977c-0.5145,-2.7436 13.6322,-3.8582 13.8894,-1.7147" data-paper-data="{&quot;index&quot;:null}" fill="none" stroke="#231f20" stroke-width="0.85738" stroke-linecap="round" stroke-linejoin="round"/><path d="M207.8221,168.51897c-4.2869,0.2573 -8.3166,-1.9719 -9.0882,-5.0585c-0.7716,-3.0865 2.0577,-5.8301 6.3446,-6.1731c4.2868,-0.3429 8.4022,1.8863 9.0881,4.9728c0.7717,3.0866 -2.0577,5.9159 -6.3445,6.2588z" data-paper-data="{&quot;origPos&quot;:null,&quot;index&quot;:null}" fill="#1ec5fa" stroke="none" stroke-width="1" stroke-linecap="butt" stroke-linejoin="miter"/><path d="M207.8221,168.51897c-4.2869,0.2573 -8.3166,-1.9719 -9.0882,-5.0585c-0.7716,-3.0865 2.0577,-5.8301 6.3446,-6.1731c4.2868,-0.3429 8.4022,1.8863 9.0881,4.9728c0.7717,3.0866 -2.0577,5.9159 -6.3445,6.2588z" data-paper-data="{&quot;index&quot;:null}" fill="none" stroke="#231f20" stroke-width="0.85738" stroke-linecap="round" stroke-linejoin="round"/><path d="M281.2991,167.66168c2.4864,-0.1715 4.9728,-0.0858 7.5449,0.0857c1.8862,0.2572 3.6867,0.7716 5.3157,1.629" data-paper-data="{&quot;origPos&quot;:null,&quot;index&quot;:null}" fill="none" stroke="#ffffff" stroke-width="0.85738" stroke-linecap="round" stroke-linejoin="round"/><path d="M280.2703,162.17447c1.8004,-0.9431 3.6867,-1.629 5.7444,-2.1435c1.629,-0.3429 3.258,-0.6001 4.887,-0.6859" data-paper-data="{&quot;origPos&quot;:null,&quot;index&quot;:null}" fill="none" stroke="#ffffff" stroke-width="0.85738" stroke-linecap="round" stroke-linejoin="round"/></g></g></svg>