<svg version="1.1" xmlns="http://www.w3.org/2000/svg" xmlns:xlink="http://www.w3.org/1999/xlink" width="726.29397" height="385" viewBox="0,0,726.29397,385"><defs><linearGradient x1="241.00001" y1="-16.00002" x2="241.00001" y2="354" gradientUnits="userSpaceOnUse" id="color-1"><stop offset="0" stop-color="#a4deff"/><stop offset="1" stop-color="#4dd6ff"/></linearGradient><linearGradient x1="237.00001" y1="219" x2="237.00001" y2="348" gradientUnits="userSpaceOnUse" id="color-2"><stop offset="0" stop-color="#679660"/><stop offset="1" stop-color="#388628"/></linearGradient><linearGradient x1="240.00001" y1="223" x2="240.00001" y2="352" gradientUnits="userSpaceOnUse" id="color-3"><stop offset="0" stop-color="#afffa3"/><stop offset="1" stop-color="#6bff4d"/></linearGradient><linearGradient x1="239.50001" y1="341" x2="239.50001" y2="371" gradientUnits="userSpaceOnUse" id="color-4"><stop offset="0" stop-color="#825f53"/><stop offset="1" stop-color="#77523f"/></linearGradient><linearGradient x1="245.47313" y1="-16.00002" x2="245.47313" y2="354.00004" gradientUnits="userSpaceOnUse" id="color-5"><stop offset="0" stop-color="#a4deff"/><stop offset="1" stop-color="#4dd6ff"/></linearGradient><linearGradient x1="540.40022" y1="226.00004" x2="540.40022" y2="355.00004" gradientUnits="userSpaceOnUse" id="color-6"><stop offset="0" stop-color="#679660"/><stop offset="1" stop-color="#388628"/></linearGradient><linearGradient x1="541.15989" y1="230.00004" x2="541.15989" y2="359.00004" gradientUnits="userSpaceOnUse" id="color-7"><stop offset="0" stop-color="#afffa3"/><stop offset="1" stop-color="#6bff4d"/></linearGradient><linearGradient x1="237.00001" y1="219.00004" x2="237.00001" y2="348.00004" gradientUnits="userSpaceOnUse" id="color-8"><stop offset="0" stop-color="#679660"/><stop offset="1" stop-color="#388628"/></linearGradient><linearGradient x1="240.00001" y1="223.00004" x2="240.00001" y2="352.00004" gradientUnits="userSpaceOnUse" id="color-9"><stop offset="0" stop-color="#afffa3"/><stop offset="1" stop-color="#6bff4d"/></linearGradient><linearGradient x1="-62.59978" y1="220.00004" x2="-62.59978" y2="349.00004" gradientUnits="userSpaceOnUse" id="color-10"><stop offset="0" stop-color="#679660"/><stop offset="1" stop-color="#388628"/></linearGradient><linearGradient x1="-61.84011" y1="224.00004" x2="-61.84011" y2="353.00004" gradientUnits="userSpaceOnUse" id="color-11"><stop offset="0" stop-color="#afffa3"/><stop offset="1" stop-color="#6bff4d"/></linearGradient></defs><g transform="translate(123.49999,10)"><g data-paper-data="{&quot;isPaintingLayer&quot;:true}" fill-rule="nonzero" stroke="none" stroke-width="0" stroke-linecap="butt" stroke-linejoin="miter" stroke-miterlimit="10" stroke-dasharray="" stroke-dashoffset="0" style="mix-blend-mode: normal"><path d="M-1.5,354l-1,-364l483,1v378z" fill="url(#color-1)"/><path d="M-3.5,348l3,-131c0,0 32.61194,77.2186 64.00368,77.41687c14.79537,0.09344 42.82922,-78.55207 72.07281,-82.90272c23.14621,-3.44353 82.41945,85.64191 109.87261,84.80869c20.20738,-0.61331 48.13449,-82.17645 67.31183,-86.02139c31.2698,-6.26939 53.69215,89.48653 77.78968,90.65322c49.65708,2.40416 89.94939,-79.95466 89.94939,-79.95466l-5,145z" fill="url(#color-2)"/><path d="M-0.5,352l-0.25,-130.5c0,0 35.86194,76.7186 67.25368,76.91687c14.79537,0.09344 42.82922,-78.55207 72.07281,-82.90272c23.14621,-3.44353 82.41945,85.64191 109.87261,84.80869c20.20738,-0.61331 48.13449,-82.17645 67.31183,-86.02139c31.2698,-6.26939 53.69215,89.48653 77.78968,90.65322c49.65708,2.40416 87.69939,-81.95466 87.69939,-81.95466l-2.75,147z" fill="url(#color-3)"/><path d="M-9.5,375l8,-42l485,-2l-2,39z" fill="url(#color-4)"/><path d="M-116.76345,352.00004l-3.48654,-362l721.75001,1v378z" fill="url(#color-5)"/><g><path d="M479.50001,355.00004l0.75967,-131c0,0 8.2581,77.2186 16.20722,77.41687c3.74653,0.09344 10.84536,-78.55207 18.25052,-82.90272c5.86116,-3.44353 20.87053,85.64191 27.82231,84.80869c5.11698,-0.61331 12.18877,-82.17645 17.04492,-86.02139c7.91824,-6.26939 13.5961,89.48653 19.69816,90.65322c12.57433,2.40416 22.77728,-79.95466 22.77728,-79.95466l0.73388,139z" fill="url(#color-6)"/><path d="M480.25968,359.00004l-0.06331,-130.5c0,0 9.08108,76.7186 17.0302,76.91687c3.74653,0.09344 10.84536,-78.55207 18.25052,-82.90272c5.86116,-3.44353 20.87053,85.64191 27.82231,84.80869c5.11698,-0.61331 12.18877,-82.17645 17.04492,-86.02139c7.91824,-6.26939 13.5961,89.48653 19.69816,90.65322c12.57433,2.40416 22.20753,-81.95466 22.20753,-81.95466l-0.69636,137z" fill="url(#color-7)"/></g><g><path d="M-3.49999,348.00004l3,-131c0,0 32.61194,77.2186 64.00368,77.41687c14.79537,0.09344 42.82922,-78.55207 72.07281,-82.90272c23.14621,-3.44353 82.41945,85.64191 109.87261,84.80869c20.20738,-0.61331 48.13449,-82.17645 67.31183,-86.02139c31.2698,-6.26939 53.69215,89.48653 77.78968,90.65322c49.65708,2.40416 89.94939,-79.95466 89.94939,-79.95466l-5,145z" fill="url(#color-8)"/><path d="M-0.49999,352.00004l-0.25,-130.5c0,0 35.86194,76.7186 67.25368,76.91687c14.79537,0.09344 42.82922,-78.55207 72.07281,-82.90272c23.14621,-3.44353 82.41945,85.64191 109.87261,84.80869c20.20738,-0.61331 48.13449,-82.17645 67.31183,-86.02139c31.2698,-6.26939 53.69215,89.48653 77.78968,90.65322c49.65708,2.40416 87.69939,-81.95466 87.69939,-81.95466l-2.75,147z" fill="url(#color-9)"/></g><g><path d="M-123.49999,349.00004l0.75967,-131c0,0 8.25811,77.2186 16.20722,77.41687c3.74653,0.09344 10.84536,-78.55207 18.25052,-82.90272c5.86116,-3.44353 20.87052,85.64191 27.8223,84.80869c5.11698,-0.61331 12.18878,-82.17645 17.04493,-86.02139c7.91824,-6.26939 13.59611,89.48653 19.69816,90.65322c12.57433,2.40416 22.77729,-79.95466 22.77729,-79.95466l-1.26612,145z" fill="url(#color-10)"/><path d="M-122.74032,353.00004l-0.06331,-130.5c0,0 9.08108,76.7186 17.0302,76.91687c3.74653,0.09344 10.84535,-78.55207 18.25051,-82.90272c5.86116,-3.44353 20.87053,85.64191 27.82231,84.80869c5.11698,-0.61331 12.18878,-82.17645 17.04493,-86.02139c7.91824,-6.26939 13.59611,89.48653 19.69816,90.65322c12.57433,2.40416 22.20753,-81.95466 22.20753,-81.95466l-0.69637,147z" fill="url(#color-11)"/></g><path d="M-120.99999,374.00004l1.56592,-43l720.18408,1l-1.89148,37z" fill="#825f53"/></g></g></svg>