<svg version="1.1" xmlns="http://www.w3.org/2000/svg" xmlns:xlink="http://www.w3.org/1999/xlink" width="19.91666" height="21.41666"><g transform="translate(-230.175,-169.11668)"><g data-paper-data="{&quot;isPaintingLayer&quot;:true}" fill="none" fill-rule="nonzero" stroke="none" stroke-width="none" stroke-linecap="butt" stroke-linejoin="miter" stroke-miterlimit="10" stroke-dasharray="" stroke-dashoffset="0" font-family="none" font-weight="none" font-size="none" text-anchor="none" style="mix-blend-mode: normal"><path d="M230.175,179.82502c0,-5.91405 4.45849,-10.70833 9.95833,-10.70833c5.49984,0 9.95833,4.79428 9.95833,10.70833c0,5.91405 -4.45849,10.70833 -9.95833,10.70833c-5.49984,0 -9.95833,-4.79428 -9.95833,-10.70833z" data-paper-data="{&quot;origPos&quot;:null}" fill="#ffd900" stroke-width="0"/><path d="M234.36467,178.87026c0,-4.18159 2.90602,-7.57143 6.49078,-7.57143c3.58476,0 6.49078,3.38984 6.49078,7.57143c0,4.18159 -2.90602,7.57143 -6.49078,7.57143c-3.58476,0 -6.49078,-3.38984 -6.49078,-7.57143z" data-paper-data="{&quot;origPos&quot;:null}" fill="#dfbe00" stroke-width="0"/><path d="M234.75536,179.56669c0,-4.14213 2.85482,-7.5 6.37641,-7.5c3.52159,0 6.37641,3.35787 6.37641,7.5c0,4.14213 -2.85482,7.5 -6.37641,7.5c-3.52159,0 -6.37641,-3.35787 -6.37641,-7.5z" data-paper-data="{&quot;origPos&quot;:null}" fill="#ffe44c" stroke-width="0"/><g data-paper-data="{&quot;origPos&quot;:null}" stroke-width="1" font-family="Sans Serif" font-weight="normal" font-size="40" text-anchor="start"><text transform="translate(238.52457,180.45451) scale(0.14185,0.16685)" font-size="40" xml:space="preserve" data-paper-data="{&quot;origPos&quot;:null}" fill="#dfbe00" fill-rule="nonzero" stroke="none" stroke-width="1" stroke-linecap="butt" stroke-linejoin="miter" stroke-miterlimit="10" stroke-dasharray="" stroke-dashoffset="0" font-family="Sans Serif" font-weight="normal" text-anchor="start" style="mix-blend-mode: normal"><tspan x="0" dy="0">★</tspan></text><text transform="translate(238.47397,180.16879) scale(0.14185,0.16685)" font-size="40" xml:space="preserve" data-paper-data="{&quot;origPos&quot;:null}" fill="#ffd900" fill-rule="nonzero" stroke="none" stroke-width="1" stroke-linecap="butt" stroke-linejoin="miter" stroke-miterlimit="10" stroke-dasharray="" stroke-dashoffset="0" font-family="Sans Serif" font-weight="normal" text-anchor="start" style="mix-blend-mode: normal"><tspan x="0" dy="0">★</tspan></text></g><path d="M230.57121,182.65354l4.07954,-11.7861c0,0 1.14256,-0.70463 2.07901,-1.23827c0.93283,-0.30731 2.2678,-0.43648 2.2678,-0.43648l-6.12442,17.90789c0,0 -1.21113,-1.2477 -1.57603,-2.25143c-0.35334,-0.97194 -0.72591,-2.19561 -0.72591,-2.19561z" data-paper-data="{&quot;origRot&quot;:0,&quot;origPos&quot;:null}" fill="#ffee8b" stroke-width="0"/></g></g></svg>