<svg xmlns="http://www.w3.org/2000/svg" xmlns:xlink="http://www.w3.org/1999/xlink" version="1.1" id="Layer_1" x="0px" y="0px" width="89.793310546875" height="96.1461395263672" viewBox="29.00668411254883 19.19999771118164 89.793310546875 96.1461395263672" enable-background="new 0 0 128 128" xml:space="preserve">
  <g>
    <g>
      <g id="ID0.7407716196030378_21_">
        <path id="ID0.15909873321652412_21_" fill="#FAA51F" stroke="#8E5322" stroke-width="1.4" stroke-linecap="round" stroke-linejoin="round" d="&#13;&#10;&#9;&#9;&#9;M62.1,80.9c0-0.3-14.7-5.4-14.5-5.6c1.7-1.1,3.5-3,4.4-3.2c4-1,10-0.1,14.5,2.5l2.1,1.9"/>
        <path id="ID0.8024068027734756_21_" fill="#FAA51F" stroke="#8E5322" stroke-width="1.4" stroke-linecap="round" stroke-linejoin="round" d="&#13;&#10;&#9;&#9;&#9;M55.3,78.7"/>
        <path id="ID0.06734407460317016_21_" fill="none" stroke="#8E5322" stroke-width="1.4" stroke-linecap="round" stroke-linejoin="round" d="&#13;&#10;&#9;&#9;&#9;M58.1,80.9"/>
        <path id="ID0.8143284288235009_20_" fill="#FAA51F" stroke="#8E5322" stroke-width="1.4" stroke-linecap="round" stroke-linejoin="round" d="&#13;&#10;&#9;&#9;&#9;M55.3,78.7l4.8,1"/>
      </g>
      <path id="ID0.1790580078959465_21_" fill="#FAA51F" stroke="#8E5322" stroke-width="1.4" stroke-linecap="round" stroke-linejoin="round" d="&#13;&#10;&#9;&#9;M58,78.3c1.5,0-4.6,0-5.8,3.1c-2,4.9-6,5.3-7.2,4.3c-3.1-2.6-0.9-7.3,5.6-12.9"/>
    </g>
    <g id="Layer_3_13_">
      <path id="ID0.8535828334279358_12_" fill="#FAA51F" d="M52,90.7c-2.5-0.2-5.5-0.7-8.2-2.7c-6.1-4.4-8.8-12.4-12.4-9.8&#13;&#10;&#9;&#9;c-3.6,2.6-1.9,16,10.7,18.7c4.4,1,8.3,0.5,11.3,0c0.8-0.1,7.7-1.6,9.6-5.4c1.9-3.8,0.2-4.4-0.7-4.9C61.5,86.3,55.5,91,52,90.7z" stroke-width="1"/>
      <path id="ID0.914295740891248_12_" fill="#FFFFFF" d="M31.6,78c-1.9,0.9-2.5,5.9-1.2,9.4c1.5,3.4,3.7,5.4,5.1,6.6&#13;&#10;&#9;&#9;c1.7,0.9-1.1-2.9,0.8-5c1.9-2.1,6.1-1.9,6.1-1.9s-3.7-4-5.7-6.2C35,78.7,33.6,77.2,31.6,78z" stroke-width="1"/>
      <path id="ID0.40227043256163597_12_" fill="none" stroke="#8E5322" stroke-width="1.4" stroke-linecap="round" stroke-linejoin="round" d="&#13;&#10;&#9;&#9;M52,90.7c-2.5-0.2-5.5-0.7-8.2-2.7c-6.1-4.4-8.8-12.4-12.4-9.8c-3.6,2.6-1.9,16,10.7,18.7c4.4,1,8.3,0.5,11.3,0&#13;&#10;&#9;&#9;c0.8-0.1,7.7-1.6,9.6-5.4c1.9-3.8,0.2-4.4-0.7-4.9C61.5,86.3,55.5,91,52,90.7z"/>
    </g>
    <g id="ID0.16171270422637463_12_">
      <path id="ID0.007584026083350182_12_" fill="#FAA51F" stroke="#8E5322" stroke-width="1.4" stroke-linecap="round" stroke-linejoin="round" d="&#13;&#10;&#9;&#9;M73.3,90.8c0,0,1.5,6.9,6,14.6c1.9,3.3,6.5-3.6,9.2,3.3c0.7,2-7.7,5.7-9.9,5.9c-2,0.2-2.8-0.2-3.3-2.2&#13;&#10;&#9;&#9;c-2.1-7.1-11.4-15.8-11.4-15.8"/>
      <path id="ID0.31672530295327306_12_" fill="#FAA51F" stroke="#8E5322" stroke-width="1.4" stroke-linecap="round" stroke-linejoin="round" d="&#13;&#10;&#9;&#9;M81.8,106.2c0,0-1.3,0.4-2.5,1.3"/>
    </g>
    <g id="Layer_2_26_">
      <path id="ID0.39854341372847557_12_" fill="#FAA51F" stroke="#8E5322" stroke-width="1.4" stroke-linecap="round" stroke-linejoin="round" d="&#13;&#10;&#9;&#9;M64,89.2"/>
    </g>
    <path id="ID0.46792364912107587_12_" fill="#FAA51F" stroke="#8E5322" stroke-width="1.4" stroke-linecap="round" stroke-linejoin="round" d="&#13;&#10;&#9;M76.1,83.6c-1.9,6.4-3,16.3-14.4,13s-8.1-11.8-5.9-18.1c2-5.7,8-6.7,12.8-5.1C74.8,75.4,78,77.1,76.1,83.6z"/>
    <path id="ID0.38032895559445024_12_" fill="#FFFFFF" d="M73.2,85.6c-1.2,4-2.1,10.3-8.2,8.5c-6.1-1.8-4.1-7.1-2.9-11.2&#13;&#10;&#9;c1.2-4,4.1-3.8,7.2-3.5C73,79.7,74.4,81.6,73.2,85.6z" stroke-width="1"/>
    <g id="ID0.15723733883351088_15_">
      <path id="ID0.527006761636585_15_" fill="#FAA51F" stroke="#8E5322" stroke-width="1.4" stroke-linecap="round" stroke-linejoin="round" d="&#13;&#10;&#9;&#9;M55.1,89.5c0,0-6.5,5.4-7.8,6.1c-1.2-1.7-2.6-2-4.4-0.9c-1.9,1.2-7.7,6.1-6.1,8c4.8,5.9,7-2.1,9.9,0.3c2.1,0.9,9.6-6.3,18.2-7"/>
      <path id="ID0.8937406223267317_20_" fill="#FAA51F" stroke="#8E5322" stroke-width="1.4" stroke-linecap="round" stroke-linejoin="round" d="&#13;&#10;&#9;&#9;M46.6,102.9c-1.2-0.9-1.9-2.3-1.9-2.3"/>
    </g>
    <g>
      <g id="Layer_2_25_">
        <path id="ID0.2591130444779992_12_" fill="#FAA51F" d="M82,29.8c-1.5-0.3-4.5-0.9-6.2-1c-4.6-0.4-9.1,0.8-9.1,0.8l-11.5-9.7&#13;&#10;&#9;&#9;&#9;l-0.1,18.4c0.7-0.7-11.6,11.1-6.2,22.8C54.5,73,68.3,79.7,86.8,78.3c18.5-1.3,24.1-11.2,23.5-16.8c-0.5-5.6-7.1-8.5-7.1-8.5&#13;&#10;&#9;&#9;&#9;s0.4-4.3-2-9.9c-1.5-3.4-7.1-8.7-7.1-8.7l-1.4-11.5l-8,6.1L82,29.8z" stroke-width="1"/>
        <path id="ID0.3588979784399271_12_" fill="#FFFFFF" d="M102.4,52.7l-2.1-2.3L91.2,52c0,0-0.4,3.3-4.7,3.7&#13;&#10;&#9;&#9;&#9;c-4.3,0.4-11.1-2.1-11.1-2.1l-7.3,0.9c0,0-8-1.5-9.2,4.8c-2,10.9,6.5,17.3,15,18.3c5.5,0.7,9,0.4,13,0.2&#13;&#10;&#9;&#9;&#9;c17.5-1,23.6-10.7,22.8-16.3c-0.5-5.6-6.9-8-6.9-8L102.4,52.7z" stroke-width="1"/>
        <path id="ID0.2727069961838424_12_" fill="none" stroke="#8E5322" stroke-width="1.4" stroke-linecap="round" stroke-linejoin="round" d="&#13;&#10;&#9;&#9;&#9;M106.7,58.7c0,0,4.5-0.2,6.7-0.7c2.7-0.6,4.7-1.9,4.7-1.9"/>
        <path id="ID0.5861211125738919_12_" fill="none" stroke="#8E5322" stroke-width="1.4" stroke-linecap="round" stroke-linejoin="round" d="&#13;&#10;&#9;&#9;&#9;M106.5,64.5c0,0,2.4,1.4,5.2,2c2.6,0.6,4.5,0.6,4.5,0.6"/>
        <path id="ID0.4793355236761272_12_" fill="none" stroke="#8E5322" stroke-width="1.4" stroke-linecap="round" stroke-linejoin="round" d="&#13;&#10;&#9;&#9;&#9;M64.7,27.8l4.7,4.2"/>
        <path id="ID0.48413723474368453_12_" fill="none" stroke="#8E5322" stroke-width="1.4" stroke-linecap="round" stroke-linejoin="round" d="&#13;&#10;&#9;&#9;&#9;M82,29.8c-1.5-0.3-4.5-0.9-6.2-1c-4.6-0.4-9.1,0.8-9.1,0.8l-11.5-9.7l-0.1,18.4c0.7-0.7-11.6,11.1-6.2,22.8&#13;&#10;&#9;&#9;&#9;C54.5,73,68.3,79.7,86.8,78.3c18.5-1.3,24.1-11.2,23.5-16.8c-0.5-5.6-7.1-8.5-7.1-8.5s0.4-4.3-2-9.9c-1.5-3.4-7.1-8.7-7.1-8.7&#13;&#10;&#9;&#9;&#9;l-1.4-11.5l-8,6.1L82,29.8z"/>
        <path id="ID0.9024141579866409_12_" fill="none" stroke="#8E5322" stroke-width="1.4" stroke-linecap="round" stroke-linejoin="round" d="&#13;&#10;&#9;&#9;&#9;M37.9,55.6c0,0,3.9,0.9,5.7,1c1.8,0.1,5.3,0.1,5.3,0.1"/>
        <path id="ID0.16030752705410123_12_" fill="none" stroke="#8E5322" stroke-width="1.4" stroke-linecap="round" stroke-linejoin="round" d="&#13;&#10;&#9;&#9;&#9;M49.6,52.9c0,0-2.1-2-5.5-4c-3.7-2.3-5.9-2.9-5.9-2.9"/>
      </g>
      <g id="Layer_5_13_">
        <path id="ID0.40023312577977777_12_" fill="#FFFFFF" stroke="#8E5322" stroke-width="1.4" stroke-linecap="round" stroke-linejoin="round" d="&#13;&#10;&#9;&#9;&#9;M99.1,42.9c2.3,4.6,1.7,9.6-1.1,10.9c-2.9,1.5-7.1-1.2-9.4-5.9c-2.3-4.6-1.7-9.6,1.1-10.9C92.6,35.6,96.8,38.2,99.1,42.9z"/>
        <path id="ID0.43813491938635707_12_" fill="#414142" d="M98.5,46.4c0.2,1-0.4,2-1.5,2.1c-0.9,0.2-1.8-0.5-2-1.7&#13;&#10;&#9;&#9;&#9;c-0.2-1,0.4-2,1.5-2.1C97.5,44.7,98.4,45.4,98.5,46.4" stroke-width="1"/>
      </g>
      <g id="Layer_7_13_">
        <path id="ID0.4253597157076001_12_" fill="#FFFFFF" stroke="#8E5322" stroke-width="1.4" stroke-linecap="round" stroke-linejoin="round" d="&#13;&#10;&#9;&#9;&#9;M75.7,43.1c2.3,4.6,1.3,9.7-2.1,11.4c-3.4,1.7-8.1-0.7-10.3-5.4c-2.3-4.6-1.3-9.7,2.1-11.4C68.8,36.1,73.4,38.5,75.7,43.1z"/>
        <path id="ID0.814307457767427_12_" fill="#414142" d="M74.9,46.9c-0.1,1-1,1.8-1.9,1.7c-1-0.1-1.6-1-1.5-2.1c0.1-1,1-1.8,1.9-1.7&#13;&#10;&#9;&#9;&#9;C74.3,44.9,75,45.8,74.9,46.9" stroke-width="1"/>
      </g>
      <path id="ID0.5240494590252638_12_" fill="#5F4B43" stroke="#8E5322" stroke-width="1.4" stroke-linecap="round" stroke-linejoin="round" d="&#13;&#10;&#9;&#9;M85.4,54.3c1.7,0,4.2-1,4.2,0.9c-0.1,0.8-2.1,3.9-3.9,3.8c-2-0.1-5.2-3.1-4.9-4.5C81.1,52.9,83.9,54.3,85.4,54.3z"/>
      <path id="ID0.046259244438260794_12_" fill="#FFFFFF" stroke="#8E5322" stroke-width="1.4" stroke-linecap="round" stroke-linejoin="round" d="&#13;&#10;&#9;&#9;M74.5,68.4c0,0,2.2,2.6,7.7,2.2"/>
    </g>
    <g>
      <g id="ID0.7407716196030378_11_">
        <path id="ID0.15909873321652412_10_" fill="#FAA51F" stroke="#8E5322" stroke-width="1.4" stroke-linecap="round" stroke-linejoin="round" d="&#13;&#10;&#9;&#9;&#9;M69,77.5C68.9,77.7,81.1,86,80.8,86c-1.9,0.5-4,3-4.9,2.9c-4.1-0.3-9.5-3-13-7l-0.7-1.2"/>
        <path id="ID0.8024068027734756_11_" fill="#FAA51F" stroke="#8E5322" stroke-width="1.4" stroke-linecap="round" stroke-linejoin="round" d="&#13;&#10;&#9;&#9;&#9;M74.8,81.7"/>
        <path id="ID0.06734407460317016_11_" fill="none" stroke="#8E5322" stroke-width="1.4" stroke-linecap="round" stroke-linejoin="round" d="&#13;&#10;&#9;&#9;&#9;M72.8,78.7"/>
      </g>
      <path id="ID0.1790580078959465_12_" fill="#FAA51F" stroke="#8E5322" stroke-width="1.4" stroke-linecap="round" stroke-linejoin="round" d="&#13;&#10;&#9;&#9;M73.2,80.8c1.1,0.7,1.8,1.1,2.8,1c0.8-0.1,2.5-0.6,3.2-1.2c4.1-3.3,7.9-1.5,8.4,0c1.3,3.8-2.9,6.7-11.4,8.2"/>
    </g>
  </g>
</svg>