<svg version="1.1" xmlns="http://www.w3.org/2000/svg" xmlns:xlink="http://www.w3.org/1999/xlink" width="29.51249" height="38.29162" viewBox="0,0,29.51249,38.29162"><g transform="translate(1,-11.64172)"><g data-paper-data="{&quot;isPaintingLayer&quot;:true}" stroke-miterlimit="10" stroke-dasharray="" stroke-dashoffset="0" style="mix-blend-mode: normal"><g data-paper-data="{&quot;origPos&quot;:null}" fill-rule="nonzero" stroke="none" stroke-linecap="butt" stroke-linejoin="miter"><path d="M3.5,41.42501c0,-4.69902 3.80931,-8.50833 8.50833,-8.50833c4.69902,0 8.50833,3.80931 8.50833,8.50833c0,4.69902 -3.80931,8.50833 -8.50833,8.50833c-4.69902,0 -8.50833,-3.80931 -8.50833,-8.50833z" data-paper-data="{&quot;origPos&quot;:null}" fill="#ffd900" stroke-width="0"/><path d="M5.66326,40.6664c0,-3.32249 2.71585,-6.0159 6.06603,-6.0159c3.35017,0 6.06603,2.69341 6.06603,6.0159c0,3.32249 -2.71585,6.0159 -6.06603,6.0159c-3.35017,0 -6.06603,-2.69341 -6.06603,-6.0159z" data-paper-data="{&quot;origPos&quot;:null}" fill="#dfbe00" stroke-width="0"/><path d="M6.02839,41.21975c0,-3.29114 2.668,-5.95914 5.95914,-5.95914c3.29114,0 5.95914,2.668 5.95914,5.95914c0,3.29114 -2.668,5.95914 -5.95914,5.95914c-3.29114,0 -5.95914,-2.668 -5.95914,-5.95914z" data-paper-data="{&quot;origPos&quot;:null}" fill="#ffe44c" stroke-width="0"/><g data-paper-data="{&quot;origPos&quot;:null}" stroke-width="1" font-family="Sans Serif" font-weight="normal" font-size="40" text-anchor="start"><text transform="translate(9.55095,41.92517) scale(0.13257,0.13257)" font-size="40" xml:space="preserve" data-paper-data="{&quot;origPos&quot;:null}" fill="#dfbe00" fill-rule="nonzero" stroke="none" stroke-width="1" stroke-linecap="butt" stroke-linejoin="miter" stroke-miterlimit="10" stroke-dasharray="" stroke-dashoffset="0" font-family="Sans Serif" font-weight="normal" text-anchor="start" style="mix-blend-mode: normal"><tspan x="0" dy="0">★</tspan></text><text transform="translate(9.50365,41.69815) scale(0.13257,0.13257)" font-size="40" xml:space="preserve" data-paper-data="{&quot;origPos&quot;:null}" fill="#ffd900" fill-rule="nonzero" stroke="none" stroke-width="1" stroke-linecap="butt" stroke-linejoin="miter" stroke-miterlimit="10" stroke-dasharray="" stroke-dashoffset="0" font-family="Sans Serif" font-weight="normal" text-anchor="start" style="mix-blend-mode: normal"><tspan x="0" dy="0">★</tspan></text></g></g><path d="M21.1515,40.83458c0,-0.52365 2.12335,-1.77038 2.98757,-1.66677c0.5723,0.06862 0.71021,1.66677 0.71021,1.66677c0.81166,0 1.2326,0.51932 1.2326,1.04297c0,0.47611 -0.19914,0.6966 -0.41813,1.11936c-0.22016,0.42502 -0.33581,0.77695 -0.81447,0.77695c-0.47172,0 -0.7685,-0.23384 -1.22308,-0.10788c-0.8274,0.22926 -1.55151,1.29389 -2.08177,0.61863c-0.33372,-0.42498 0.27931,-0.82446 0.29104,-1.36467c0.0197,-0.90746 -0.68397,-1.17767 -0.68397,-2.08534z" data-paper-data="{&quot;origPos&quot;:null,&quot;index&quot;:null}" fill="#4a1002" fill-rule="nonzero" stroke="none" stroke-width="0" stroke-linecap="butt" stroke-linejoin="miter"/><path d="M25.09102,45.80343c-0.4269,-0.41944 -2.69077,-2.64375 -4.41299,-4.33589c-0.14888,-0.14628 -0.13151,-0.63055 0.07479,-0.84051c0.53152,-0.54098 0.88043,-0.89568 1.36239,-1.38575c0.16066,-0.16336 0.65604,-0.17847 0.81245,-0.02479c0.27431,0.26952 0.75921,1.24768 1.03349,1.51723c0.82286,0.80862 1.88725,1.35375 3.3072,2.74889c0.19121,0.18787 0.22761,0.60249 0.10597,0.72628c0,0 -0.94705,0.96388 -1.47109,1.49725c-0.17468,0.17779 -0.66992,0.23711 -0.81222,0.0973z" data-paper-data="{&quot;origRot&quot;:0,&quot;origPos&quot;:null}" fill="#000000" fill-rule="nonzero" stroke="#000000" stroke-width="3" stroke-linecap="butt" stroke-linejoin="miter"/><path d="M20.7948,43.92155c0.25987,-0.30172 0.90196,-0.63671 1.16183,-0.93843c0.7796,-0.90515 1.61084,-2.28078 2.95929,-3.84641c0.11787,-0.13686 0.49858,-0.18141 0.62437,-0.07306c0.37739,0.32504 1.04378,0.89898 1.71184,1.47438c0.14717,0.12676 0.17732,0.55676 0.04945,0.70522c-1.26349,1.46698 -2.00275,2.69587 -2.98956,3.84161c-0.32893,0.38191 -0.7619,0.51404 -1.09084,0.89595c-0.12175,0.14135 -0.57743,0.20588 -0.74734,0.05954c0,0 -1.17425,-1.04657 -1.60675,-1.43881c-0.14417,-0.13075 -0.18814,-0.54548 -0.07229,-0.67999z" data-paper-data="{&quot;origRot&quot;:0,&quot;index&quot;:null,&quot;origPos&quot;:null}" fill="#000000" fill-rule="nonzero" stroke="#000000" stroke-width="3" stroke-linecap="butt" stroke-linejoin="miter"/><path d="M24.9257,45.55546c-0.4269,-0.41944 -2.69077,-2.64376 -4.41299,-4.33589c-0.14888,-0.14628 -0.13151,-0.63054 0.07479,-0.84051c0.53152,-0.54097 0.88043,-0.89569 1.36239,-1.38576c0.16066,-0.16336 0.65604,-0.17847 0.81245,-0.02479c0.27431,0.26952 0.7592,1.24769 1.03349,1.51723c0.82286,0.80862 1.88725,1.35375 3.3072,2.74889c0.19121,0.18787 0.22761,0.60249 0.10598,0.72628c0,0 -0.94705,0.96388 -1.47109,1.49725c-0.17468,0.17779 -0.66992,0.23711 -0.81222,0.0973z" data-paper-data="{&quot;origRot&quot;:0,&quot;origPos&quot;:null}" fill="#ffffff" fill-rule="nonzero" stroke="none" stroke-width="0" stroke-linecap="butt" stroke-linejoin="miter"/><path d="M20.62948,43.67358c0.25987,-0.30172 0.90196,-0.63671 1.16183,-0.93843c0.7796,-0.90515 1.61084,-2.28078 2.95929,-3.84641c0.11787,-0.13686 0.49858,-0.18141 0.62437,-0.07306c0.37739,0.32504 1.04377,0.89899 1.71184,1.47438c0.14717,0.12676 0.17732,0.55676 0.04945,0.70522c-1.26349,1.46698 -2.00275,2.69587 -2.98956,3.84161c-0.32893,0.38191 -0.7619,0.51404 -1.09083,0.89594c-0.12175,0.14135 -0.57744,0.20588 -0.74735,0.05954c0,0 -1.17424,-1.04657 -1.60675,-1.43881c-0.14417,-0.13075 -0.18814,-0.54548 -0.07229,-0.67999z" data-paper-data="{&quot;origRot&quot;:0,&quot;index&quot;:null,&quot;origPos&quot;:null}" fill="#ffffff" fill-rule="nonzero" stroke="none" stroke-width="0" stroke-linecap="butt" stroke-linejoin="miter"/><path d="M21.1515,40.83458c0,-0.52365 2.12335,-1.77038 2.98757,-1.66677c0.5723,0.06862 0.71021,1.66677 0.71021,1.66677c0.81166,0 1.2326,0.51932 1.2326,1.04297c0,0.47611 -0.19914,0.6966 -0.41813,1.11936c-0.22016,0.42502 -0.33581,0.77695 -0.81447,0.77695c-0.47172,0 -0.7685,-0.23384 -1.22308,-0.10788c-0.8274,0.22926 -1.55151,1.29389 -2.08177,0.61863c-0.33372,-0.42498 0.27931,-0.82446 0.29104,-1.36467c0.0197,-0.90746 -0.68397,-1.17767 -0.68397,-2.08534z" data-paper-data="{&quot;origPos&quot;:null,&quot;index&quot;:null}" fill="#4a1002" fill-rule="nonzero" stroke="none" stroke-width="0" stroke-linecap="butt" stroke-linejoin="miter"/><path d="M25.09102,45.80343c-0.4269,-0.41944 -2.69077,-2.64375 -4.41299,-4.33589c-0.14888,-0.14628 -0.13151,-0.63055 0.07479,-0.84051c0.53152,-0.54098 0.88043,-0.89568 1.36239,-1.38575c0.16066,-0.16336 0.65604,-0.17847 0.81245,-0.02479c0.27431,0.26952 0.75921,1.24768 1.03349,1.51723c0.82286,0.80862 1.88725,1.35375 3.3072,2.74889c0.19121,0.18787 0.22761,0.60249 0.10597,0.72628c0,0 -0.94705,0.96388 -1.47109,1.49725c-0.17468,0.17779 -0.66992,0.23711 -0.81222,0.0973z" data-paper-data="{&quot;origRot&quot;:0,&quot;origPos&quot;:null}" fill="#000000" fill-rule="nonzero" stroke="#000000" stroke-width="3" stroke-linecap="butt" stroke-linejoin="miter"/><path d="M20.7948,43.92155c0.25987,-0.30172 0.90196,-0.63671 1.16183,-0.93843c0.7796,-0.90515 1.61084,-2.28078 2.95929,-3.84641c0.11787,-0.13686 0.49858,-0.18141 0.62437,-0.07306c0.37739,0.32504 1.04378,0.89898 1.71184,1.47438c0.14717,0.12676 0.17732,0.55676 0.04945,0.70522c-1.26349,1.46698 -2.00275,2.69587 -2.98956,3.84161c-0.32893,0.38191 -0.7619,0.51404 -1.09084,0.89595c-0.12175,0.14135 -0.57743,0.20588 -0.74734,0.05954c0,0 -1.17425,-1.04657 -1.60675,-1.43881c-0.14417,-0.13075 -0.18814,-0.54548 -0.07229,-0.67999z" data-paper-data="{&quot;origRot&quot;:0,&quot;index&quot;:null,&quot;origPos&quot;:null}" fill="#000000" fill-rule="nonzero" stroke="#000000" stroke-width="3" stroke-linecap="butt" stroke-linejoin="miter"/><path d="M24.9257,45.55546c-0.4269,-0.41944 -2.69077,-2.64376 -4.41299,-4.33589c-0.14888,-0.14628 -0.13151,-0.63054 0.07479,-0.84051c0.53152,-0.54097 0.88043,-0.89569 1.36239,-1.38576c0.16066,-0.16336 0.65604,-0.17847 0.81245,-0.02479c0.27431,0.26952 0.7592,1.24769 1.03349,1.51723c0.82286,0.80862 1.88725,1.35375 3.3072,2.74889c0.19121,0.18787 0.22761,0.60249 0.10598,0.72628c0,0 -0.94705,0.96388 -1.47109,1.49725c-0.17468,0.17779 -0.66992,0.23711 -0.81222,0.0973z" data-paper-data="{&quot;origRot&quot;:0,&quot;origPos&quot;:null}" fill="#ffffff" fill-rule="nonzero" stroke="none" stroke-width="0" stroke-linecap="butt" stroke-linejoin="miter"/><path d="M20.62948,43.67358c0.25987,-0.30172 0.90196,-0.63671 1.16183,-0.93843c0.7796,-0.90515 1.61084,-2.28078 2.95929,-3.84641c0.11787,-0.13686 0.49858,-0.18141 0.62437,-0.07306c0.37739,0.32504 1.04377,0.89899 1.71184,1.47438c0.14717,0.12676 0.17732,0.55676 0.04945,0.70522c-1.26349,1.46698 -2.00275,2.69587 -2.98956,3.84161c-0.32893,0.38191 -0.7619,0.51404 -1.09083,0.89594c-0.12175,0.14135 -0.57744,0.20588 -0.74735,0.05954c0,0 -1.17424,-1.04657 -1.60675,-1.43881c-0.14417,-0.13075 -0.18814,-0.54548 -0.07229,-0.67999z" data-paper-data="{&quot;origRot&quot;:0,&quot;index&quot;:null,&quot;origPos&quot;:null}" fill="#ffffff" fill-rule="nonzero" stroke="none" stroke-width="0" stroke-linecap="butt" stroke-linejoin="miter"/><path d="M21.34437,20.25261c0,-0.52365 2.12335,-1.77038 2.98757,-1.66677c0.5723,0.06862 0.71021,1.66677 0.71021,1.66677c0.81166,0 1.2326,0.51932 1.2326,1.04297c0,0.47611 -0.19914,0.6966 -0.41813,1.11936c-0.22016,0.42502 -0.33581,0.77695 -0.81447,0.77695c-0.47172,0 -0.7685,-0.23384 -1.22308,-0.10788c-0.8274,0.22926 -1.55151,1.29389 -2.08177,0.61863c-0.33372,-0.42498 0.27931,-0.82446 0.29104,-1.36467c0.0197,-0.90746 -0.68397,-1.17767 -0.68397,-2.08534z" data-paper-data="{&quot;origPos&quot;:null,&quot;index&quot;:null}" fill="#4a1002" fill-rule="nonzero" stroke="none" stroke-width="0" stroke-linecap="butt" stroke-linejoin="miter"/><path d="M25.28389,25.22145c-0.4269,-0.41943 -2.69077,-2.64376 -4.41299,-4.33589c-0.14888,-0.14628 -0.13151,-0.63054 0.07479,-0.84051c0.53152,-0.54097 0.88043,-0.89569 1.36239,-1.38575c0.16066,-0.16336 0.65604,-0.17847 0.81245,-0.02479c0.27431,0.26952 0.7592,1.24768 1.03349,1.51723c0.82286,0.80862 1.88725,1.35376 3.3072,2.74889c0.19121,0.18787 0.22761,0.60249 0.10597,0.72628c0,0 -0.94705,0.96388 -1.47109,1.49725c-0.17468,0.17779 -0.66992,0.23711 -0.81222,0.0973z" data-paper-data="{&quot;origRot&quot;:0,&quot;origPos&quot;:null}" fill="#000000" fill-rule="nonzero" stroke="#000000" stroke-width="3" stroke-linecap="butt" stroke-linejoin="miter"/><g fill-rule="evenodd"><path d="M11.3769,12.14097c0.07502,-0.05001 0.20003,-0.025 0.22504,0.07501l0.65011,2.67543c0,0 1.60026,1.17519 2.07534,2.00032c0.80013,1.37522 0.82513,2.5004 0.82513,2.5004c0,0 1.77528,0.52509 2.07534,1.95032c0.30005,1.42523 -0.80013,4.12567 -5.50089,5.05081c-4.70076,0.92515 -8.47636,-0.35006 -10.25165,-3.20052c-1.77529,-2.85046 1.02516,-6.25101 0.87514,-6.05097l-0.52509,-4.47572c-0.025,-0.10002 0.10002,-0.17503 0.20003,-0.12502l3.02549,1.97532c0,0 1.12518,-0.42507 2.30037,-0.47507c0.70011,-0.05001 1.30021,0 1.8753,0.10002z" fill="#ffab19" stroke="#001026" stroke-width="1.2" stroke-linecap="butt" stroke-linejoin="miter"/><path d="M15.07749,19.49216c0,0 1.72528,0.45007 2.02532,1.8753c0.30005,1.42523 -0.90015,4.00064 -5.5509,4.90079c-6.05097,1.2502 -8.92643,-2.35038 -7.25116,-5.00081c1.67527,-2.67543 4.55073,-0.40007 6.65107,-0.55009c1.80029,-0.12502 2.00032,-1.70027 4.12566,-1.2252z" fill="#ffffff" stroke="none" stroke-width="1" stroke-linecap="butt" stroke-linejoin="miter"/><path d="M7.20122,22.16759c0,-0.10002 0.10002,-0.17503 0.20003,-0.15002c0.47507,0.17503 1.82529,0.57509 3.32554,0.67511c1.35022,0.07502 2.15034,0 2.52541,-0.07502c0.12502,-0.025 0.22504,0.10002 0.17503,0.22504c-0.22504,0.67511 -1.17519,2.55041 -3.80061,2.40039c-2.27537,-0.25004 -2.5004,-1.8503 -2.42539,-3.0755z" fill="#ffffff" stroke="#001026" stroke-width="1.2" stroke-linecap="round" stroke-linejoin="round"/><path d="M19.67824,19.7672c-1.17519,0.95015 -2.97548,0.97516 -2.97548,0.97516" fill="none" stroke="#001026" stroke-width="1.2" stroke-linecap="round" stroke-linejoin="round"/><path d="M19.35319,22.56765c-1.57525,0.12502 -2.55041,-0.35005 -2.55041,-0.35005" fill="none" stroke="#001026" stroke-width="1.2" stroke-linecap="round" stroke-linejoin="round"/><path d="M10.85181,20.06725c0.52509,0 1.07517,0.05001 1.10018,0.22504c0.025,0.35005 -0.35005,1.05017 -0.75012,1.07518c-0.45007,0.05001 -1.50024,-0.57509 -1.50024,-0.97516c-0.025,-0.30005 0.65011,-0.32505 1.15018,-0.32505z" fill="#001026" stroke="#001026" stroke-width="1.2" stroke-linecap="round" stroke-linejoin="round"/><path d="M-0.4,19.69219c0,0 2.15034,0.70011 3.02549,1.47524" fill="none" stroke="#001026" stroke-width="1.2" stroke-linecap="round" stroke-linejoin="round"/><path d="M2.7005,22.04257c-1.07518,0.42507 -2.92547,0.15002 -2.92547,0.15002" fill="none" stroke="#001026" stroke-width="1.2" stroke-linecap="round" stroke-linejoin="round"/><g><path d="M13.80229,17.14178c0.72512,1.12518 0.75012,2.40039 0.05001,2.85046c-0.70011,0.45007 -1.8503,-0.07501 -2.60042,-1.20019c-0.72512,-1.12518 -0.75012,-2.40039 -0.05001,-2.85046c0.70011,-0.47507 1.8753,0.07502 2.60042,1.2002z" fill="#ffffff" stroke="#001026" stroke-width="1.2" stroke-linecap="round" stroke-linejoin="round"/><path d="M13.70227,18.56701c0,0.27504 -0.20004,0.50008 -0.45007,0.50008c-0.25004,0 -0.45007,-0.22504 -0.45007,-0.50008c0,-0.27504 0.20003,-0.50008 0.45007,-0.50008c0.25004,0 0.45007,0.22504 0.45007,0.50008" fill="#001026" stroke="none" stroke-width="1" stroke-linecap="butt" stroke-linejoin="miter"/></g><g><path d="M7.60129,17.84189c0.75012,1.10018 0.70011,2.45039 0.025,2.92547c-0.82513,0.47507 -1.92531,0.12502 -2.67543,-0.97516c-0.77513,-1.10018 -0.82513,-2.52541 -0.05001,-3.0755c0.77513,-0.57509 1.95032,0.025 2.70043,1.12518z" fill="#ffffff" stroke="#001026" stroke-width="1.2" stroke-linecap="round" stroke-linejoin="round"/><path d="M7.45127,19.29212c0,0.27504 -0.20004,0.50008 -0.45007,0.50008c-0.25004,0 -0.45007,-0.22504 -0.45007,-0.50008c0,-0.27504 0.20003,-0.50008 0.45007,-0.50008c0.25004,0.025 0.45007,0.22504 0.45007,0.50008" fill="#001026" stroke="none" stroke-width="1" stroke-linecap="butt" stroke-linejoin="miter"/></g></g><path d="M22.14949,22.40115c0.7796,-0.90515 1.61084,-2.28078 2.95929,-3.84641c0.11787,-0.13686 0.49858,-0.18141 0.62437,-0.07306c0.37739,0.32504 1.04378,0.89899 1.71184,1.47438c0.14717,0.12676 0.17732,0.55676 0.04945,0.70522c-1.26349,1.46698 -2.00275,2.69587 -2.98956,3.84161c-0.32893,0.38191 -0.7619,0.51404 -1.09083,0.89595c-0.12175,0.14135 -0.57744,0.20588 -0.74735,0.05953c0,0 -1.17424,-1.04656 -1.60675,-1.43881c-0.14417,-0.13075 -0.18814,-0.54548 -0.07229,-0.67999c0,0 0.90196,-0.6367 1.16183,-0.93842z" data-paper-data="{&quot;origRot&quot;:0,&quot;index&quot;:null,&quot;origPos&quot;:null}" fill="#000000" fill-rule="nonzero" stroke="#000000" stroke-width="3" stroke-linecap="butt" stroke-linejoin="miter"/><path d="M25.11857,24.97348c-0.4269,-0.41943 -2.69077,-2.64376 -4.41299,-4.33589c-0.14888,-0.14628 -0.13151,-0.63054 0.07479,-0.84051c0.53152,-0.54097 0.88043,-0.89569 1.36239,-1.38575c0.16066,-0.16336 0.65604,-0.17847 0.81245,-0.02479c0.27431,0.26952 0.75921,1.24768 1.03349,1.51723c0.82286,0.80862 1.88725,1.35375 3.3072,2.74889c0.19121,0.18787 0.22761,0.60249 0.10597,0.72628c0,0 -0.94705,0.96388 -1.47109,1.49725c-0.17468,0.17779 -0.66992,0.23711 -0.81222,0.0973z" data-paper-data="{&quot;origRot&quot;:0,&quot;origPos&quot;:null}" fill="#ffffff" fill-rule="nonzero" stroke="none" stroke-width="0" stroke-linecap="butt" stroke-linejoin="miter"/><path d="M20.82234,23.0916c0.25987,-0.30172 0.90196,-0.63671 1.16183,-0.93843c0.7796,-0.90515 1.61084,-2.28078 2.95929,-3.84641c0.11787,-0.13686 0.49858,-0.18141 0.62437,-0.07306c0.37739,0.32504 1.04378,0.89899 1.71184,1.47438c0.14717,0.12676 0.17732,0.55676 0.04945,0.70522c-1.26349,1.46698 -2.00275,2.69587 -2.98956,3.84161c-0.32893,0.38191 -0.7619,0.51404 -1.09084,0.89595c-0.12175,0.14135 -0.57743,0.20588 -0.74734,0.05953c0,0 -1.17425,-1.04656 -1.60675,-1.43881c-0.14417,-0.13075 -0.18814,-0.54548 -0.07229,-0.67999z" data-paper-data="{&quot;origRot&quot;:0,&quot;index&quot;:null,&quot;origPos&quot;:null}" fill="#ffffff" fill-rule="nonzero" stroke="none" stroke-width="0" stroke-linecap="butt" stroke-linejoin="miter"/><path d="M21.34437,20.25261c0,-0.52365 2.12335,-1.77038 2.98757,-1.66677c0.5723,0.06862 0.71021,1.66677 0.71021,1.66677c0.81166,0 1.2326,0.51932 1.2326,1.04297c0,0.47611 -0.19914,0.6966 -0.41813,1.11936c-0.22016,0.42502 -0.33581,0.77695 -0.81447,0.77695c-0.47172,0 -0.7685,-0.23384 -1.22308,-0.10788c-0.8274,0.22926 -1.55151,1.29389 -2.08177,0.61863c-0.33372,-0.42498 0.27931,-0.82446 0.29104,-1.36467c0.0197,-0.90746 -0.68397,-1.17767 -0.68397,-2.08534z" data-paper-data="{&quot;origPos&quot;:null,&quot;index&quot;:null}" fill="#4a1002" fill-rule="nonzero" stroke="none" stroke-width="0" stroke-linecap="butt" stroke-linejoin="miter"/><path d="M25.28389,25.22145c-0.4269,-0.41943 -2.69077,-2.64376 -4.41299,-4.33589c-0.14888,-0.14628 -0.13151,-0.63054 0.07479,-0.84051c0.53152,-0.54097 0.88043,-0.89569 1.36239,-1.38575c0.16066,-0.16336 0.65604,-0.17847 0.81245,-0.02479c0.27431,0.26952 0.7592,1.24768 1.03349,1.51723c0.82286,0.80862 1.88725,1.35376 3.3072,2.74889c0.19121,0.18787 0.22761,0.60249 0.10597,0.72628c0,0 -0.94705,0.96388 -1.47109,1.49725c-0.17468,0.17779 -0.66992,0.23711 -0.81222,0.0973z" data-paper-data="{&quot;origRot&quot;:0,&quot;origPos&quot;:null}" fill="#000000" fill-rule="nonzero" stroke="#000000" stroke-width="3" stroke-linecap="butt" stroke-linejoin="miter"/><path d="M25.11857,24.97348c-0.4269,-0.41943 -2.69077,-2.64376 -4.41299,-4.33589c-0.14888,-0.14628 -0.13151,-0.63054 0.07479,-0.84051c0.53152,-0.54097 0.88043,-0.89569 1.36239,-1.38575c0.16066,-0.16336 0.65604,-0.17847 0.81245,-0.02479c0.27431,0.26952 0.75921,1.24768 1.03349,1.51723c0.82286,0.80862 1.88725,1.35375 3.3072,2.74889c0.19121,0.18787 0.22761,0.60249 0.10597,0.72628c0,0 -0.94705,0.96388 -1.47109,1.49725c-0.17468,0.17779 -0.66992,0.23711 -0.81222,0.0973z" data-paper-data="{&quot;origRot&quot;:0,&quot;origPos&quot;:null}" fill="#ffffff" fill-rule="nonzero" stroke="none" stroke-width="0" stroke-linecap="butt" stroke-linejoin="miter"/><path d="M20.82234,23.0916c0.25987,-0.30172 0.90196,-0.63671 1.16183,-0.93843c0.7796,-0.90515 1.61084,-2.28078 2.95929,-3.84641c0.11787,-0.13686 0.49858,-0.18141 0.62437,-0.07306c0.37739,0.32504 1.04378,0.89899 1.71184,1.47438c0.14717,0.12676 0.17732,0.55676 0.04945,0.70522c-1.26349,1.46698 -2.00275,2.69587 -2.98956,3.84161c-0.32893,0.38191 -0.7619,0.51404 -1.09084,0.89595c-0.12175,0.14135 -0.57743,0.20588 -0.74734,0.05953c0,0 -1.17425,-1.04656 -1.60675,-1.43881c-0.14417,-0.13075 -0.18814,-0.54548 -0.07229,-0.67999z" data-paper-data="{&quot;origRot&quot;:0,&quot;index&quot;:null,&quot;origPos&quot;:null}" fill="#ffffff" fill-rule="nonzero" stroke="none" stroke-width="0" stroke-linecap="butt" stroke-linejoin="miter"/></g></g></svg>