<svg xmlns="http://www.w3.org/2000/svg" xmlns:xlink="http://www.w3.org/1999/xlink" version="1.1" id="Layer_1" x="0px" y="0px" width="88.81268157958985" height="96.4126953125" viewBox="29.087315368652344 20.500000762939454 88.81268157958985 96.4126953125" enable-background="new 0 0 128 128" xml:space="preserve">
  <g>
    <g>
      <g id="ID0.7407716196030378_19_">
        <path id="ID0.15909873321652412_19_" fill="#FAA51F" stroke="#8E5322" stroke-width="1.4" stroke-linecap="round" stroke-linejoin="round" d="&#13;&#10;&#9;&#9;&#9;M49.2,82.5c-2.1-6.8-3-4.3-1.9-6.9c3.9-3.3,12.7-2.5,18.3,0.1l2.2,7.7"/>
        <path id="ID0.8024068027734756_19_" fill="#FAA51F" stroke="#8E5322" stroke-width="1.4" stroke-linecap="round" stroke-linejoin="round" d="&#13;&#10;&#9;&#9;&#9;M54.7,80.6"/>
        <path id="ID0.06734407460317016_19_" fill="none" stroke="#8E5322" stroke-width="1.4" stroke-linecap="round" stroke-linejoin="round" d="&#13;&#10;&#9;&#9;&#9;M57.7,82.6"/>
        <path id="ID0.8143284288235009_19_" fill="#FAA51F" stroke="#8E5322" stroke-width="1.4" stroke-linecap="round" stroke-linejoin="round" d="&#13;&#10;&#9;&#9;&#9;M54,80.9l5.6,0.3"/>
        <path id="ID0.6682511982508004_19_" fill="none" stroke="#8E5322" stroke-width="1.4" stroke-linecap="round" stroke-linejoin="round" d="&#13;&#10;&#9;&#9;&#9;M53.2,81.1l-0.3-1.9"/>
      </g>
      <path id="ID0.1790580078959465_19_" fill="#FAA51F" stroke="#8E5322" stroke-width="1.4" stroke-linecap="round" stroke-linejoin="round" d="&#13;&#10;&#9;&#9;M53,81.6c0.8,5.8-2.8,8.2-4.4,7.9c-3.9-0.9-4.9-5.7-1.5-13.8"/>
    </g>
    <g id="Layer_3_20_">
      <path id="ID0.8535828334279358_19_" fill="#FAA51F" d="M49.3,94.6c-2.3-0.9-5-2.4-6.9-5.1C38,83.4,38,74.9,33.7,76.2&#13;&#10;&#9;&#9;c-4.3,1.3-6.9,14.6,4.3,21.1c3.9,2.3,7.7,3.1,10.7,3.6c0.8,0.2,7.8,0.9,10.8-2.1c3-3,1.6-4.1,0.9-4.8C59.7,93.4,52.6,96,49.3,94.6z&#13;&#10;&#9;&#9;" stroke-width="1"/>
      <path id="ID0.914295740891248_19_" fill="#FFFFFF" d="M33.9,76.1c-2.1,0.3-4.3,4.8-4.1,8.5c0.3,3.7,1.8,6.3,2.7,7.8&#13;&#10;&#9;&#9;c1.3,1.4-0.1-3.1,2.4-4.5c2.5-1.4,6.4,0.1,6.4,0.1s-2.2-4.9-3.4-7.7C37,77.8,36.1,76,33.9,76.1z" stroke-width="1"/>
      <path id="ID0.40227043256163597_19_" fill="none" stroke="#8E5322" stroke-width="1.4" stroke-linecap="round" stroke-linejoin="round" d="&#13;&#10;&#9;&#9;M49.3,94.6c-2.3-0.9-5-2.4-6.9-5.1C38,83.4,38,74.9,33.7,76.2c-4.3,1.3-6.9,14.6,4.3,21.1c3.9,2.3,7.7,3.1,10.7,3.6&#13;&#10;&#9;&#9;c0.8,0.2,7.8,0.9,10.8-2.1c3-3,1.6-4.1,0.9-4.8C59.7,93.4,52.6,96,49.3,94.6z"/>
    </g>
    <g id="ID0.16171270422637463_20_">
      <path id="ID0.007584026083350182_20_" fill="#FAA51F" stroke="#8E5322" stroke-width="1.4" stroke-linecap="round" stroke-linejoin="round" d="&#13;&#10;&#9;&#9;M71.2,93.8c0,0-0.7,5.1,2.3,13.4c1.3,3.6,7-2.4,8.5,4.9c0.4,2.1-8.6,4.3-10.8,4.1c-2-0.2-2.7-0.7-2.9-2.7&#13;&#10;&#9;&#9;c-0.8-7.3-9.5-17.1-9.5-17.1"/>
      <path id="ID0.31672530295327306_20_" fill="#FAA51F" stroke="#8E5322" stroke-width="1.4" stroke-linecap="round" stroke-linejoin="round" d="&#13;&#10;&#9;&#9;M75.9,108.4c0,0-1.3,0.1-2.7,0.8"/>
    </g>
    <g id="Layer_2_40_">
      <path id="ID0.39854341372847557_19_" fill="#FAA51F" stroke="#8E5322" stroke-width="1.4" stroke-linecap="round" stroke-linejoin="round" d="&#13;&#10;&#9;&#9;M63.3,91.5"/>
    </g>
    <path id="ID0.46792364912107587_19_" fill="#FAA51F" stroke="#8E5322" stroke-width="1.4" stroke-linecap="round" stroke-linejoin="round" d="&#13;&#10;&#9;M75.4,85.8c-1.9,6.4-3,16.3-14.4,13c-11.4-3.3-8-11.7-5.9-18.1c1.8-5.4,7.2-6.8,12.8-5.1C74.2,77.6,77.3,79.4,75.4,85.8z"/>
    <path id="ID0.38032895559445024_19_" fill="#FFFFFF" d="M73.1,87.9c-1.2,4-2.1,10.3-8.2,8.5c-6.1-1.8-4.1-7.1-2.9-11.2&#13;&#10;&#9;c1.2-4,3.6-4.6,7.2-3.5C72.7,82.8,74.3,83.9,73.1,87.9z" stroke-width="1"/>
    <g id="ID0.15723733883351088_22_">
      <path id="ID0.527006761636585_22_" fill="#FAA51F" stroke="#8E5322" stroke-width="1.4" stroke-linecap="round" stroke-linejoin="round" d="&#13;&#10;&#9;&#9;M55.5,92.6c0,0-3.9,4.3-5.1,4.9c-6.8-3.1-6.2-4.3-9.2-0.7c-1.4,1.7-4.4,5.4-2.8,7.3c5.9,5.6,3.6-5.8,11.8,0.8&#13;&#10;&#9;&#9;c2.2,0.9,4.6-4.7,14.2-5.8"/>
      <path id="ID0.8937406223267317_30_" fill="#FAA51F" stroke="#8E5322" stroke-width="1.4" stroke-linecap="round" stroke-linejoin="round" d="&#13;&#10;&#9;&#9;M46.9,102.7c-0.5-0.4-2-0.9-2.5-1.4"/>
    </g>
    <g>
      <g id="Layer_2_39_">
        <path id="ID0.2591130444779992_19_" fill="#FAA51F" d="M81.3,31.1c-1.5-0.3-4.5-0.9-6.2-1c-4.6-0.4-9.1,0.8-9.1,0.8l-11.5-9.7&#13;&#10;&#9;&#9;&#9;l-0.1,18.4c0.7-0.7-11.6,11.1-6.2,22.8C53.8,74.3,67.6,81,86.1,79.6s24.1-11.2,23.5-16.8s-7.1-8.5-7.1-8.5s0.4-4.3-2-9.9&#13;&#10;&#9;&#9;&#9;c-1.5-3.4-7.1-8.7-7.1-8.7l-1.4-11.5l-8,6.1L81.3,31.1z" stroke-width="1"/>
        <path id="ID0.3588979784399271_19_" fill="#FFFFFF" d="M101.7,54l-2.1-2.3l-9.1,1.5c0,0-0.4,3.3-4.7,3.7&#13;&#10;&#9;&#9;&#9;c-4.3,0.4-11.1-2.1-11.1-2.1l-7.3,0.9c0,0-8-1.5-9.2,4.8c-2,10.9,6.5,17.3,15,18.3c5.5,0.7,9,0.4,13,0.2&#13;&#10;&#9;&#9;&#9;c17.4-1,23.6-10.7,22.8-16.3c-0.5-5.6-6.9-8-6.9-8L101.7,54z" stroke-width="1"/>
        <path id="ID0.2727069961838424_19_" fill="none" stroke="#8E5322" stroke-width="1.4" stroke-linecap="round" stroke-linejoin="round" d="&#13;&#10;&#9;&#9;&#9;M106,60c0,0,4.4-0.5,6.7-1.1c2.6-0.8,4.5-2.3,4.5-2.3"/>
        <path id="ID0.5861211125738919_19_" fill="none" stroke="#8E5322" stroke-width="1.4" stroke-linecap="round" stroke-linejoin="round" d="&#13;&#10;&#9;&#9;&#9;M105.8,65.8c0,0,2.6,1.2,5.4,1.4c2.7,0.4,4.5,0.2,4.5,0.2"/>
        <path id="ID0.4793355236761272_19_" fill="none" stroke="#8E5322" stroke-width="1.4" stroke-linecap="round" stroke-linejoin="round" d="&#13;&#10;&#9;&#9;&#9;M63.9,29.1l4.7,4.2"/>
        <path id="ID0.48413723474368453_19_" fill="none" stroke="#8E5322" stroke-width="1.4" stroke-linecap="round" stroke-linejoin="round" d="&#13;&#10;&#9;&#9;&#9;M81.3,31.1c-1.5-0.3-4.5-0.9-6.2-1c-4.6-0.4-9.1,0.8-9.1,0.8l-11.5-9.7l-0.1,18.4c0.7-0.7-11.6,11.1-6.2,22.8&#13;&#10;&#9;&#9;&#9;C53.8,74.3,67.6,81,86.1,79.6s24.1-11.2,23.5-16.8s-7.1-8.5-7.1-8.5s0.4-4.3-2-9.9c-1.5-3.4-7.1-8.7-7.1-8.7l-1.4-11.5l-8,6.1&#13;&#10;&#9;&#9;&#9;L81.3,31.1z"/>
        <path id="ID0.9024141579866409_19_" fill="none" stroke="#8E5322" stroke-width="1.4" stroke-linecap="round" stroke-linejoin="round" d="&#13;&#10;&#9;&#9;&#9;M37.2,56.3c0,0,3.9,1.1,5.6,1.3c1.8,0.2,5.3,0.4,5.3,0.4"/>
        <path id="ID0.16030752705410123_19_" fill="none" stroke="#8E5322" stroke-width="1.4" stroke-linecap="round" stroke-linejoin="round" d="&#13;&#10;&#9;&#9;&#9;M48.9,54.2c0,0-1.9-2.2-5-4.5c-3.5-2.6-5.6-3.5-5.6-3.5"/>
      </g>
      <g id="Layer_5_20_">
        <path id="ID0.40023312577977777_19_" fill="#FFFFFF" stroke="#8E5322" stroke-width="1.4" stroke-linecap="round" stroke-linejoin="round" d="&#13;&#10;&#9;&#9;&#9;M98.4,44.2c2.3,4.6,1.7,9.6-1.1,10.9c-2.9,1.5-7.1-1.2-9.4-5.9c-2.3-4.6-1.7-9.6,1.1-10.9C91.9,36.9,96.1,39.5,98.4,44.2z"/>
        <path id="ID0.43813491938635707_19_" fill="#414142" d="M97.8,47.7c0.2,1-0.4,2-1.5,2.1c-0.9,0.2-1.8-0.5-2-1.7&#13;&#10;&#9;&#9;&#9;c-0.2-1,0.4-2,1.5-2.1C96.8,46,97.7,46.7,97.8,47.7" stroke-width="1"/>
      </g>
      <g id="Layer_7_20_">
        <path id="ID0.4253597157076001_19_" fill="#FFFFFF" stroke="#8E5322" stroke-width="1.4" stroke-linecap="round" stroke-linejoin="round" d="&#13;&#10;&#9;&#9;&#9;M75,44.4c2.3,4.6,1.3,9.7-2.1,11.4c-3.4,1.7-8.1-0.7-10.3-5.4c-2.3-4.6-1.3-9.7,2.1-11.4C68.1,37.4,72.7,39.8,75,44.4z"/>
        <path id="ID0.814307457767427_19_" fill="#414142" d="M74.2,48.2c-0.1,1-1,1.8-1.9,1.7c-1-0.1-1.6-1-1.5-2.1c0.1-1,1-1.8,1.9-1.7&#13;&#10;&#9;&#9;&#9;C73.6,46.2,74.3,47.1,74.2,48.2" stroke-width="1"/>
      </g>
      <path id="ID0.5240494590252638_19_" fill="#5F4B43" stroke="#8E5322" stroke-width="1.4" stroke-linecap="round" stroke-linejoin="round" d="&#13;&#10;&#9;&#9;M84.7,55.6c1.7,0,4.2-1,4.2,0.9c-0.1,0.8-2.1,3.9-3.9,3.8c-2-0.1-5.2-3.1-4.9-4.5C80.4,54.2,83.2,55.6,84.7,55.6z"/>
      <path id="ID0.046259244438260794_19_" fill="#FFFFFF" stroke="#8E5322" stroke-width="1.4" stroke-linecap="round" stroke-linejoin="round" d="&#13;&#10;&#9;&#9;M73.8,69.7c0,0,2.2,2.6,7.7,2.2"/>
    </g>
    <g>
      <g id="ID0.7407716196030378_18_">
        <path id="ID0.15909873321652412_18_" fill="#FAA51F" stroke="#8E5322" stroke-width="1.4" stroke-linecap="round" stroke-linejoin="round" d="&#13;&#10;&#9;&#9;&#9;M68.9,79.6c-0.1,0.2,11.9,10,11.6,10.1c-2,0.4-4.4,1.8-5.3,1.7c-4.1-0.5-9.4-3.4-12.7-7.5L62,82.6"/>
        <path id="ID0.8024068027734756_18_" fill="#FAA51F" stroke="#8E5322" stroke-width="1.4" stroke-linecap="round" stroke-linejoin="round" d="&#13;&#10;&#9;&#9;&#9;M74.5,84.1"/>
        <path id="ID0.06734407460317016_18_" fill="none" stroke="#8E5322" stroke-width="1.4" stroke-linecap="round" stroke-linejoin="round" d="&#13;&#10;&#9;&#9;&#9;M72.7,81"/>
        <path id="ID0.8143284288235009_18_" fill="#FAA51F" stroke="#8E5322" stroke-width="1.4" stroke-linecap="round" stroke-linejoin="round" d="&#13;&#10;&#9;&#9;&#9;M74.5,84.1l-4.1-2.7"/>
      </g>
      <path id="ID0.1790580078959465_18_" fill="#FAA51F" stroke="#8E5322" stroke-width="1.4" stroke-linecap="round" stroke-linejoin="round" d="&#13;&#10;&#9;&#9;M71.7,82.2c-1-0.5,2.1,2.4,3,2.2c0.8-0.1,2.5-0.8,3.1-1.4c3.8-3.6,7.7-2.1,8.4-0.6c1.6,3.7-2.4,6.9-10.7,9.1"/>
    </g>
  </g>
</svg>