<svg version="1.1" xmlns="http://www.w3.org/2000/svg" xmlns:xlink="http://www.w3.org/1999/xlink" width="10.69969" height="15.08862" viewBox="0,0,10.69969,15.08862"><g transform="translate(-235.02287,-172.46297)"><g data-paper-data="{&quot;isPaintingLayer&quot;:true}" fill="none" fill-rule="nonzero" stroke="none" stroke-width="none" stroke-linecap="butt" stroke-linejoin="miter" stroke-miterlimit="10" stroke-dasharray="" stroke-dashoffset="0" font-family="none" font-weight="none" font-size="none" text-anchor="none" style="mix-blend-mode: normal"><path d="M243,182.1368l-0.69341,1.67089l-1.99409,0.9659l-1.99529,-0.96708l-0.69221,-1.66971l0.42437,-2.08874l2.26313,-0.67305l1.94887,1.11393z" data-paper-data="{&quot;origPos&quot;:null}" stroke="#000000" stroke-width="5"/><path d="M238.40819,177.96842v0l1.15855,-1.28189l0.20699,0.35834l-1.24155,1.66771l-0.30776,0.3212l-0.16714,1.29193z" data-paper-data="{&quot;origPos&quot;:null,&quot;index&quot;:null,&quot;origRot&quot;:0}" stroke="#000000" stroke-width="5"/><path d="M243,181.6368l-0.69341,1.67089l-1.99409,0.9659l-1.99529,-0.96708l-0.69221,-1.66971l0.42437,-2.08874l2.26313,-0.67305l1.94887,1.11393z" data-paper-data="{&quot;origPos&quot;:null}" stroke="#ffffff" stroke-width="2.5"/><path d="M238.311,179.6781l0.09719,-2.20968l1.15855,-1.2819l0.20699,0.35834l-1.36655,2.04271l-0.18276,-0.0538l-0.16714,1.29194z" data-paper-data="{&quot;origPos&quot;:null,&quot;index&quot;:null,&quot;origRot&quot;:0}" stroke="#ffffff" stroke-width="2.5"/></g></g></svg>