<svg version="1.1" xmlns="http://www.w3.org/2000/svg" xmlns:xlink="http://www.w3.org/1999/xlink" width="729.00001" height="387.50003" viewBox="0,0,729.00001,387.50003"><defs><linearGradient x1="242.98137" y1="-15.50002" x2="242.98137" y2="354.5" gradientUnits="userSpaceOnUse" id="color-1"><stop offset="0" stop-color="#384a54"/><stop offset="1" stop-color="#4c4040"/></linearGradient><linearGradient x1="237" y1="219.00002" x2="237" y2="348.00002" gradientUnits="userSpaceOnUse" id="color-2"><stop offset="0" stop-color="#679660"/><stop offset="1" stop-color="#388628"/></linearGradient><linearGradient x1="240" y1="223.00002" x2="240" y2="352.00002" gradientUnits="userSpaceOnUse" id="color-3"><stop offset="0" stop-color="#4b6d46"/><stop offset="1" stop-color="#2b671f"/></linearGradient><linearGradient x1="540.4002" y1="227.00002" x2="540.4002" y2="356.00002" gradientUnits="userSpaceOnUse" id="color-4"><stop offset="0" stop-color="#679660"/><stop offset="1" stop-color="#388628"/></linearGradient><linearGradient x1="541.15987" y1="231.00002" x2="541.15987" y2="360.00002" gradientUnits="userSpaceOnUse" id="color-5"><stop offset="0" stop-color="#4b6d46"/><stop offset="1" stop-color="#2b671f"/></linearGradient><linearGradient x1="-63.5998" y1="218.00002" x2="-63.5998" y2="347.00002" gradientUnits="userSpaceOnUse" id="color-6"><stop offset="0" stop-color="#679660"/><stop offset="1" stop-color="#388628"/></linearGradient><linearGradient x1="-62.84013" y1="222.00002" x2="-62.84013" y2="351.00002" gradientUnits="userSpaceOnUse" id="color-7"><stop offset="0" stop-color="#4b6d46"/><stop offset="1" stop-color="#2b671f"/></linearGradient></defs><g transform="translate(124.50001,9.5)"><g data-paper-data="{&quot;isPaintingLayer&quot;:true}" fill-rule="nonzero" stroke="none" stroke-width="0" stroke-linecap="butt" stroke-linejoin="miter" stroke-miterlimit="10" stroke-dasharray="" stroke-dashoffset="0" style="mix-blend-mode: normal"><path d="M-118.50931,354.5l-1.49068,-364l720,1v378z" fill="url(#color-1)"/><g><path d="M-3.5,348.00002l3,-131c0,0 32.61194,77.2186 64.00368,77.41687c14.79537,0.09344 42.82922,-78.55207 72.07281,-82.90272c23.14621,-3.44353 82.41945,85.64191 109.87261,84.80869c20.20738,-0.61331 48.13449,-82.17645 67.31183,-86.02139c31.2698,-6.26939 53.69215,89.48653 77.78968,90.65322c49.65708,2.40416 89.94939,-79.95466 89.94939,-79.95466l-5,145z" fill="url(#color-2)"/><path d="M-0.5,352.00002l-0.25,-130.5c0,0 35.86194,76.7186 67.25368,76.91687c14.79537,0.09344 42.82922,-78.55207 72.07281,-82.90272c23.14621,-3.44353 82.41945,85.64191 109.87261,84.80869c20.20738,-0.61331 48.13449,-82.17645 67.31183,-86.02139c31.2698,-6.26939 53.69215,89.48653 77.78968,90.65322c49.65708,2.40416 87.69939,-81.95466 87.69939,-81.95466l-2.75,147z" fill="url(#color-3)"/></g><g><path d="M479.5,356.00002l0.75967,-131c0,0 8.25811,77.2186 16.20722,77.41687c3.74653,0.09344 10.84535,-78.55207 18.25052,-82.90272c5.86116,-3.44353 20.87053,85.64191 27.82231,84.80869c5.11698,-0.61331 12.18878,-82.17645 17.04493,-86.02139c7.91824,-6.26939 13.5961,89.48653 19.69816,90.65322c12.57433,2.40416 22.77729,-79.95466 22.77729,-79.95466l-1.26612,145z" fill="url(#color-4)"/><path d="M480.25967,360.00002l-0.0633,-130.5c0,0 9.08108,76.7186 17.0302,76.91687c3.74653,0.09344 10.84535,-78.55207 18.25052,-82.90272c5.86116,-3.44353 20.87053,85.64191 27.82231,84.80869c5.11698,-0.61331 12.18877,-82.17645 17.04492,-86.02139c7.91824,-6.26939 13.59611,89.48653 19.69816,90.65322c12.57433,2.40416 22.20753,-81.95466 22.20753,-81.95466l-0.69637,147z" fill="url(#color-5)"/></g><g><path d="M-124.5,347.00002l0.75967,-131c0,0 8.25811,77.2186 16.20723,77.41687c3.74653,0.09344 10.84535,-78.55207 18.25051,-82.90272c5.86116,-3.44353 20.87053,85.64191 27.82231,84.80869c5.11698,-0.61331 12.18878,-82.17645 17.04493,-86.02139c7.91824,-6.26939 13.59611,89.48653 19.69816,90.65322c12.57433,2.40416 22.77729,-79.95466 22.77729,-79.95466l-1.26612,145z" fill="url(#color-6)"/><path d="M-123.74033,351.00002l-0.0633,-130.5c0,0 9.08108,76.7186 17.0302,76.91687c3.74653,0.09344 10.84535,-78.55207 18.25051,-82.90272c5.86116,-3.44353 20.87053,85.64191 27.82231,84.80869c5.11698,-0.61331 12.18878,-82.17645 17.04493,-86.02139c7.91824,-6.26939 13.59611,89.48653 19.69816,90.65322c12.57433,2.40416 22.20753,-81.95466 22.20753,-81.95466l-0.69636,147z" fill="url(#color-7)"/></g><path d="M-120.5,375.00002l2.94118,-42l722.05883,-2l-2.94118,39z" fill="#513b34"/></g></g></svg>