<svg version="1.1" xmlns="http://www.w3.org/2000/svg" xmlns:xlink="http://www.w3.org/1999/xlink" width="859.75" height="389.75715" viewBox="0,0,859.75,389.75715"><defs><linearGradient x1="245.00613" y1="-16.00002" x2="245.00613" y2="354" gradientUnits="userSpaceOnUse" id="color-1"><stop offset="0" stop-color="#eff9ff"/><stop offset="1" stop-color="#4dd6ff"/></linearGradient><linearGradient x1="237.00001" y1="219" x2="237.00001" y2="348" gradientUnits="userSpaceOnUse" id="color-2"><stop offset="0" stop-color="#609296"/><stop offset="1" stop-color="#294487"/></linearGradient><linearGradient x1="240.00001" y1="223" x2="240.00001" y2="352" gradientUnits="userSpaceOnUse" id="color-3"><stop offset="0" stop-color="#efa3ff"/><stop offset="1" stop-color="#ff4d60"/></linearGradient><linearGradient x1="-95.35894" y1="219" x2="-95.35894" y2="348" gradientUnits="userSpaceOnUse" id="color-4"><stop offset="0" stop-color="#609296"/><stop offset="1" stop-color="#294487"/></linearGradient><linearGradient x1="-94.18462" y1="223" x2="-94.18462" y2="352" gradientUnits="userSpaceOnUse" id="color-5"><stop offset="0" stop-color="#efa3ff"/><stop offset="1" stop-color="#ff4d60"/></linearGradient><linearGradient x1="574.64106" y1="224" x2="574.64106" y2="353" gradientUnits="userSpaceOnUse" id="color-6"><stop offset="0" stop-color="#609296"/><stop offset="1" stop-color="#294487"/></linearGradient><linearGradient x1="575.81538" y1="228" x2="575.81538" y2="357" gradientUnits="userSpaceOnUse" id="color-7"><stop offset="0" stop-color="#efa3ff"/><stop offset="1" stop-color="#ff4d60"/></linearGradient><linearGradient x1="243.42106" y1="341" x2="243.42106" y2="371" gradientUnits="userSpaceOnUse" id="color-8"><stop offset="0" stop-color="#fbfbfb"/><stop offset="1" stop-color="#d0c3bc"/></linearGradient></defs><g transform="translate(189.49999,10)"><g data-paper-data="{&quot;isPaintingLayer&quot;:true}" fill-rule="nonzero" stroke-linecap="butt" stroke-linejoin="miter" stroke-miterlimit="10" stroke-dasharray="" stroke-dashoffset="0" style="mix-blend-mode: normal"><path d="M-118.9949,354l-1.50104,-364l725,1v378z" fill="url(#color-1)" stroke="none" stroke-width="0"/><g stroke="none" stroke-width="0"><path d="M-3.49999,348l3,-131c0,0 32.61194,77.2186 64.00368,77.41687c14.79537,0.09344 42.82922,-78.55207 72.07281,-82.90272c23.14621,-3.44353 82.41945,85.64191 109.87261,84.80869c20.20738,-0.61331 48.13449,-82.17645 67.31183,-86.02139c31.2698,-6.26939 53.69215,89.48653 77.78968,90.65322c49.65708,2.40416 89.94939,-79.95466 89.94939,-79.95466l-5,145z" fill="url(#color-2)"/><path d="M-0.49999,352l-0.25,-130.5c0,0 35.86194,76.7186 67.25368,76.91687c14.79537,0.09344 42.82922,-78.55207 72.07281,-82.90272c23.14621,-3.44353 82.41945,85.64191 109.87261,84.80869c20.20738,-0.61331 48.13449,-82.17645 67.31183,-86.02139c31.2698,-6.26939 53.69215,89.48653 77.78968,90.65322c49.65708,2.40416 87.69939,-81.95466 87.69939,-81.95466l-2.75,147z" fill="url(#color-3)"/></g><g stroke="none" stroke-width="0"><path d="M-189.49999,348l1.17432,-131c0,0 12.76558,77.2186 25.05353,77.41687c5.79148,0.09344 16.76502,-78.55207 28.2121,-82.90272c9.06033,-3.44353 32.26218,85.64191 43.00842,84.80869c7.90995,-0.61331 18.84171,-82.17645 26.34847,-86.02139c12.24022,-6.26939 21.0172,89.48653 30.44991,90.65322c19.43771,2.40416 35.20969,-79.95466 35.20969,-79.95466l-1.95719,145z" fill="url(#color-4)"/><path d="M-188.32567,352l-0.09786,-130.5c0,0 14.03776,76.7186 26.32571,76.91687c5.79148,0.09344 16.76502,-78.55207 28.2121,-82.90272c9.06033,-3.44353 32.26218,85.64191 43.00841,84.80869c7.90995,-0.61331 18.84171,-82.17645 26.34847,-86.02139c12.24022,-6.26939 21.0172,89.48653 30.44991,90.65322c19.43771,2.40416 34.32895,-81.95466 34.32895,-81.95466l-1.07645,147z" fill="url(#color-5)"/></g><g stroke="none" stroke-width="0"><path d="M480.50001,353l1.17432,-131c0,0 12.76558,77.2186 25.05353,77.41687c5.79148,0.09344 16.76502,-78.55207 28.2121,-82.90272c9.06033,-3.44353 32.26218,85.64191 43.00841,84.80869c7.90995,-0.61331 18.84171,-82.17645 26.34847,-86.02139c12.24022,-6.26939 21.0172,89.48653 30.44991,90.65322c19.43771,2.40416 35.20969,-79.95466 35.20969,-79.95466l-1.95719,145z" fill="url(#color-6)"/><path d="M481.67433,357l-0.09786,-130.5c0,0 14.03776,76.7186 26.32571,76.91687c5.79149,0.09344 16.76502,-78.55207 28.2121,-82.90272c9.06033,-3.44353 32.26218,85.64191 43.00841,84.80869c7.90995,-0.61331 18.84171,-82.17645 26.34847,-86.02139c12.24022,-6.26939 21.0172,89.48653 30.44991,90.65322c19.43771,2.40416 34.32895,-81.95466 34.32895,-81.95466l-1.07646,147z" fill="url(#color-7)"/></g><path d="M-120.4069,375l3.91096,-50l717,5l-1.66393,44z" fill="url(#color-8)" stroke="#d75271" stroke-width="9.5"/><text transform="translate(56.01034,34.20044) scale(0.93337,0.93337)" font-size="40" xml:space="preserve" fill="#fc96f4" fill-rule="nonzero" stroke="#fcb8f7" stroke-width="2" stroke-linecap="butt" stroke-linejoin="miter" stroke-miterlimit="10" stroke-dasharray="" stroke-dashoffset="0" font-family="Handwriting" font-weight="normal" text-anchor="start" style="mix-blend-mode: normal"><tspan x="0" dy="0">Puppy's Tutorial Room!</tspan></text></g></g></svg>