<svg version="1.1" xmlns="http://www.w3.org/2000/svg" xmlns:xlink="http://www.w3.org/1999/xlink" width="12.67628" height="21.41666"><g transform="translate(-234.54038,-169.11673)"><g data-paper-data="{&quot;isPaintingLayer&quot;:true}" fill="none" fill-rule="nonzero" stroke="none" stroke-width="none" stroke-linecap="butt" stroke-linejoin="miter" stroke-miterlimit="10" stroke-dasharray="" stroke-dashoffset="0" font-family="none" font-weight="none" font-size="none" text-anchor="none" style="mix-blend-mode: normal"><path d="M240.87852,190.53339c-3.50046,0 -6.33814,-4.79428 -6.33814,-10.70833c0,-5.91405 2.83768,-10.70833 6.33814,-10.70833c3.50046,0 6.33814,4.79428 6.33814,10.70833c0,5.91405 -2.83768,10.70833 -6.33814,10.70833z" data-paper-data="{&quot;origPos&quot;:null,&quot;index&quot;:null}" fill="#ffd900" stroke-width="0"/><path d="M238.36775,186.44174c-1.64764,0 -2.98333,-3.38984 -2.98333,-7.57143c0,-4.18159 1.33568,-7.57143 2.98333,-7.57143c1.64764,0 2.98333,3.38984 2.98333,7.57143c0,4.18159 -1.33568,7.57143 -2.98333,7.57143z" data-paper-data="{&quot;origPos&quot;:null,&quot;index&quot;:null}" fill="#dfbe00" stroke-width="0"/><path d="M238.24073,187.06674c-1.61862,0 -2.93077,-3.35787 -2.93077,-7.5c0,-4.14213 1.31215,-7.5 2.93077,-7.5c1.61862,0 2.93077,3.35787 2.93077,7.5c0,4.14213 -1.31215,7.5 -2.93077,7.5z" data-paper-data="{&quot;origPos&quot;:null,&quot;index&quot;:null}" fill="#ffe44c" stroke-width="0"/><g data-paper-data="{&quot;origPos&quot;:null,&quot;index&quot;:null}" stroke-width="1" font-family="Sans Serif" font-weight="normal" font-size="40" text-anchor="start"><text transform="translate(239.43908,180.45456) rotate(-180) scale(0.06519,-0.16685)" font-size="40" xml:space="preserve" data-paper-data="{&quot;origPos&quot;:null}" fill="#dfbe00" fill-rule="nonzero" stroke="none" stroke-width="1" stroke-linecap="butt" stroke-linejoin="miter" stroke-miterlimit="10" stroke-dasharray="" stroke-dashoffset="0" font-family="Sans Serif" font-weight="normal" text-anchor="start" style="mix-blend-mode: normal"><tspan x="0" dy="0">★</tspan></text><text transform="translate(239.46233,180.16884) rotate(-180) scale(0.06519,-0.16685)" font-size="40" xml:space="preserve" data-paper-data="{&quot;origPos&quot;:null}" fill="#ffd900" fill-rule="nonzero" stroke="none" stroke-width="1" stroke-linecap="butt" stroke-linejoin="miter" stroke-miterlimit="10" stroke-dasharray="" stroke-dashoffset="0" font-family="Sans Serif" font-weight="normal" text-anchor="start" style="mix-blend-mode: normal"><tspan x="0" dy="0">★</tspan></text></g></g></g></svg>