<svg version="1.1" xmlns="http://www.w3.org/2000/svg" xmlns:xlink="http://www.w3.org/1999/xlink" width="10.69969" height="15.12766" viewBox="0,0,10.69969,15.12766"><g transform="translate(-234.77286,-172.42393)"><g data-paper-data="{&quot;isPaintingLayer&quot;:true}" fill="none" fill-rule="nonzero" stroke="none" stroke-width="none" stroke-linecap="butt" stroke-linejoin="miter" stroke-miterlimit="10" stroke-dasharray="" stroke-dashoffset="0" font-family="none" font-weight="none" font-size="none" text-anchor="none" style="mix-blend-mode: normal"><path d="M242.75,177.8868l-0.69341,1.67089l-1.99409,0.9659l-1.9953,-0.96708l-0.6922,-1.66971l0.42437,-2.08875l2.26313,-0.67304l1.94888,1.11393z" data-paper-data="{&quot;origPos&quot;:null}" stroke="#000000" stroke-width="5"/><path d="M242.75,182.1368l-0.69341,1.67089l-1.99409,0.9659l-1.9953,-0.96708l-0.6922,-1.66971l0.42437,-2.08875l2.26313,-0.67304l1.94888,1.11393z" data-paper-data="{&quot;origPos&quot;:null}" stroke="#000000" stroke-width="5"/><path d="M242.5,181.8868l-0.69341,1.67089l-1.99409,0.9659l-1.99529,-0.96708l-0.69221,-1.66971l0.42437,-2.08874l2.26313,-0.17305l1.94887,0.61393z" data-paper-data="{&quot;origPos&quot;:null}" stroke="#fcfcfc" stroke-width="2.5"/><path d="M242.5,177.6368l-0.69341,1.67089l-1.99409,0.3409l-1.99529,-0.34208l-0.69221,-1.66971l0.42437,-2.08874l2.26313,-0.67305l1.94887,1.11393z" data-paper-data="{&quot;origPos&quot;:null}" stroke="#fcfcfc" stroke-width="2.5"/></g></g></svg>