<svg version="1.1" xmlns="http://www.w3.org/2000/svg" xmlns:xlink="http://www.w3.org/1999/xlink" width="19.91666" height="21.41666"><g transform="translate(-230.05,-169.1167)"><g data-paper-data="{&quot;isPaintingLayer&quot;:true}" fill="none" fill-rule="nonzero" stroke="none" stroke-width="none" stroke-linecap="butt" stroke-linejoin="miter" stroke-miterlimit="10" stroke-dasharray="" stroke-dashoffset="0" font-family="none" font-weight="none" font-size="none" text-anchor="none" style="mix-blend-mode: normal"><path d="M240.00833,190.53336c-5.49984,0 -9.95833,-4.79428 -9.95833,-10.70833c0,-5.91405 4.45849,-10.70833 9.95833,-10.70833c5.49984,0 9.95833,4.79428 9.95833,10.70833c0,5.91405 -4.45849,10.70833 -9.95833,10.70833z" data-paper-data="{&quot;origPos&quot;:null,&quot;index&quot;:null}" fill="#ffd900" stroke-width="0"/><path d="M239.28621,186.4417c-3.58476,0 -6.49078,-3.38984 -6.49078,-7.57143c0,-4.18159 2.90602,-7.57143 6.49078,-7.57143c3.58476,0 6.49078,3.38984 6.49078,7.57143c0,4.18159 -2.90602,7.57143 -6.49078,7.57143z" data-paper-data="{&quot;origPos&quot;:null,&quot;index&quot;:null}" fill="#dfbe00" stroke-width="0"/><path d="M239.00989,187.0667c-3.52159,0 -6.37641,-3.35787 -6.37641,-7.5c0,-4.14213 2.85482,-7.5 6.37641,-7.5c3.52159,0 6.37641,3.35787 6.37641,7.5c0,4.14213 -2.85482,7.5 -6.37641,7.5z" data-paper-data="{&quot;origPos&quot;:null,&quot;index&quot;:null}" fill="#ffe44c" stroke-width="0"/><g data-paper-data="{&quot;origPos&quot;:null,&quot;index&quot;:null}" stroke-width="1" font-family="Sans Serif" font-weight="normal" font-size="40" text-anchor="start"><text transform="translate(241.61709,180.45452) rotate(-180) scale(0.14185,-0.16685)" font-size="40" xml:space="preserve" data-paper-data="{&quot;origPos&quot;:null}" fill="#dfbe00" fill-rule="nonzero" stroke="none" stroke-width="1" stroke-linecap="butt" stroke-linejoin="miter" stroke-miterlimit="10" stroke-dasharray="" stroke-dashoffset="0" font-family="Sans Serif" font-weight="normal" text-anchor="start" style="mix-blend-mode: normal"><tspan x="0" dy="0">★</tspan></text><text transform="translate(241.66769,180.1688) rotate(-180) scale(0.14185,-0.16685)" font-size="40" xml:space="preserve" data-paper-data="{&quot;origPos&quot;:null}" fill="#ffd900" fill-rule="nonzero" stroke="none" stroke-width="1" stroke-linecap="butt" stroke-linejoin="miter" stroke-miterlimit="10" stroke-dasharray="" stroke-dashoffset="0" font-family="Sans Serif" font-weight="normal" text-anchor="start" style="mix-blend-mode: normal"><tspan x="0" dy="0">★</tspan></text></g></g></g></svg>