<svg version="1.1" xmlns="http://www.w3.org/2000/svg" xmlns:xlink="http://www.w3.org/1999/xlink" width="10.14851" height="13.8958" viewBox="0,0,10.14851,13.8958"><g transform="translate(-234.57372,-173.10422)"><g data-paper-data="{&quot;isPaintingLayer&quot;:true}" fill="none" fill-rule="nonzero" stroke="none" stroke-width="none" stroke-linecap="butt" stroke-linejoin="miter" stroke-miterlimit="10" stroke-dasharray="" stroke-dashoffset="0" font-family="none" font-weight="none" font-size="none" text-anchor="none" style="mix-blend-mode: normal"><path d="M239.45794,179.54167l-2.21682,-0.15233l-0.13685,-0.375l0.19254,-2.79852l0.19534,0.04624l0.40075,2.35525l3.12997,0.48142l0.2739,-2.29952v0l0.42912,0.11747l-0.03674,2.43191l0.47598,0.5684l-0.03127,0.50274c0,0 -1.40872,-0.03135 -1.40364,0.16194c0.01526,0.57986 0.1031,3.91835 0.1031,3.91835h-1.15521l-0.35953,-0.34009z" data-paper-data="{&quot;origPos&quot;:null}" stroke="#000000" stroke-width="5"/><path d="M239.12461,179.20834l-2.21682,-0.15233l-0.13685,-0.375l0.19254,-2.79852l0.19534,0.04624l0.40075,2.35525l3.12997,0.48142l0.2739,-2.29952v0l0.42912,0.11747l-0.03674,2.43191l0.47598,0.5684l-0.03127,0.50274c0,0 -1.40872,-0.03135 -1.40364,0.16194c0.01526,0.57986 0.1031,3.91835 0.1031,3.91835h-1.15521l-0.35953,-0.34009z" data-paper-data="{&quot;origPos&quot;:null}" stroke="#ffffff" stroke-width="2.5"/></g></g></svg>