<svg version="1.1" xmlns="http://www.w3.org/2000/svg" xmlns:xlink="http://www.w3.org/1999/xlink" width="8.16666" height="21.41666"><g transform="translate(-235.925,-169.11674)"><g data-paper-data="{&quot;isPaintingLayer&quot;:true}" fill="none" fill-rule="nonzero" stroke="none" stroke-width="none" stroke-linecap="butt" stroke-linejoin="miter" stroke-miterlimit="10" stroke-dasharray="" stroke-dashoffset="0" font-family="none" font-weight="none" font-size="none" text-anchor="none" style="mix-blend-mode: normal"><path d="M240.00833,190.5334c-2.25516,0 -4.08333,-4.79428 -4.08333,-10.70833c0,-5.91405 1.82817,-10.70833 4.08333,-10.70833c2.25516,0 4.08333,4.79428 4.08333,10.70833c0,5.91405 -1.82817,10.70833 -4.08333,10.70833z" data-paper-data="{&quot;origPos&quot;:null,&quot;index&quot;:null}" fill="#ffd900" stroke-width="0"/><path d="M238.64816,186.44174c-1.01357,0 -1.83523,-3.38984 -1.83523,-7.57143c0,-4.18159 0.82166,-7.57143 1.83523,-7.57143c1.01357,0 1.83523,3.38984 1.83523,7.57143c0,4.18159 -0.82166,7.57143 -1.83523,7.57143z" data-paper-data="{&quot;origPos&quot;:null,&quot;index&quot;:null}" fill="#dfbe00" stroke-width="0"/><path d="M238.57003,187.06674c-0.99571,0 -1.80289,-3.35787 -1.80289,-7.5c0,-4.14213 0.80718,-7.5 1.80289,-7.5c0.99571,0 1.80289,3.35787 1.80289,7.5c0,4.14213 -0.80718,7.5 -1.80289,7.5z" data-paper-data="{&quot;origPos&quot;:null,&quot;index&quot;:null}" fill="#ffe44c" stroke-width="0"/><g data-paper-data="{&quot;origPos&quot;:null,&quot;index&quot;:null}" stroke-width="1" font-family="Sans Serif" font-weight="normal" font-size="40" text-anchor="start"><text transform="translate(239.3072,180.45456) rotate(-180) scale(0.0401,-0.16685)" font-size="40" xml:space="preserve" data-paper-data="{&quot;origPos&quot;:null}" fill="#dfbe00" fill-rule="nonzero" stroke="none" stroke-width="1" stroke-linecap="butt" stroke-linejoin="miter" stroke-miterlimit="10" stroke-dasharray="" stroke-dashoffset="0" font-family="Sans Serif" font-weight="normal" text-anchor="start" style="mix-blend-mode: normal"><tspan x="0" dy="0">★</tspan></text><text transform="translate(239.32151,180.16884) rotate(-180) scale(0.0401,-0.16685)" font-size="40" xml:space="preserve" data-paper-data="{&quot;origPos&quot;:null}" fill="#ffd900" fill-rule="nonzero" stroke="none" stroke-width="1" stroke-linecap="butt" stroke-linejoin="miter" stroke-miterlimit="10" stroke-dasharray="" stroke-dashoffset="0" font-family="Sans Serif" font-weight="normal" text-anchor="start" style="mix-blend-mode: normal"><tspan x="0" dy="0">★</tspan></text></g></g></g></svg>