<svg version="1.1" xmlns="http://www.w3.org/2000/svg" xmlns:xlink="http://www.w3.org/1999/xlink" width="21.16666" height="21.41666"><g transform="translate(-229.425,-169.11668)"><g data-paper-data="{&quot;isPaintingLayer&quot;:true}" fill="none" fill-rule="nonzero" stroke="none" stroke-width="none" stroke-linecap="butt" stroke-linejoin="miter" stroke-miterlimit="10" stroke-dasharray="" stroke-dashoffset="0" font-family="none" font-weight="none" font-size="none" text-anchor="none" style="mix-blend-mode: normal"><path d="M229.425,179.82502c0,-5.91405 4.73832,-10.70833 10.58333,-10.70833c5.84501,0 10.58333,4.79428 10.58333,10.70833c0,5.91405 -4.73832,10.70833 -10.58333,10.70833c-5.84501,0 -10.58333,-4.79428 -10.58333,-10.70833z" data-paper-data="{&quot;origPos&quot;:null,&quot;index&quot;:null}" fill="#ffd900" stroke-width="0"/><path d="M232.88173,178.87026c0,-4.18159 3.23232,-7.57143 7.21959,-7.57143c3.98727,0 7.21958,3.38984 7.21958,7.57143c0,4.18159 -3.23232,7.57143 -7.21958,7.57143c-3.98727,0 -7.21959,-3.38984 -7.21959,-7.57143z" data-paper-data="{&quot;origPos&quot;:null,&quot;index&quot;:null}" fill="#dfbe00" stroke-width="0"/><path d="M232.94128,179.06669c0,-4.14213 3.17537,-7.5 7.09237,-7.5c3.917,0 7.09237,3.35787 7.09237,7.5c0,4.14213 -3.17537,7.5 -7.09237,7.5c-3.917,0 -7.09237,-3.35787 -7.09237,-7.5z" data-paper-data="{&quot;origPos&quot;:null,&quot;index&quot;:null}" fill="#ffe44c" stroke-width="0"/><g data-paper-data="{&quot;origPos&quot;:null}" stroke-width="1" font-family="Sans Serif" font-weight="normal" font-size="40" text-anchor="start"><text transform="translate(237.25872,180.45451) scale(0.15778,0.16685)" font-size="40" xml:space="preserve" data-paper-data="{&quot;origPos&quot;:null}" fill="#dfbe00" fill-rule="nonzero" stroke="none" stroke-width="1" stroke-linecap="butt" stroke-linejoin="miter" stroke-miterlimit="10" stroke-dasharray="" stroke-dashoffset="0" font-family="Sans Serif" font-weight="normal" text-anchor="start" style="mix-blend-mode: normal"><tspan x="0" dy="0">★</tspan></text><text transform="translate(237.20243,180.16879) scale(0.15778,0.16685)" font-size="40" xml:space="preserve" data-paper-data="{&quot;origPos&quot;:null}" fill="#ffd900" fill-rule="nonzero" stroke="none" stroke-width="1" stroke-linecap="butt" stroke-linejoin="miter" stroke-miterlimit="10" stroke-dasharray="" stroke-dashoffset="0" font-family="Sans Serif" font-weight="normal" text-anchor="start" style="mix-blend-mode: normal"><tspan x="0" dy="0">★</tspan></text></g><path d="M229.56101,180.89717l3.31031,-8.93994c0,0 1.29641,-1.08375 2.23286,-1.61739c0.78997,-0.45017 2.19088,-0.90351 2.19088,-0.90351l-5.89365,16.52327c0,0 -0.90344,-1.40155 -1.26834,-2.40528c-0.35334,-0.97194 -0.57206,-2.65715 -0.57206,-2.65715z" data-paper-data="{&quot;origRot&quot;:0,&quot;origPos&quot;:null}" fill="#ffee8b" stroke-width="0"/></g></g></svg>