<svg version="1.1" xmlns="http://www.w3.org/2000/svg" xmlns:xlink="http://www.w3.org/1999/xlink" width="18.16666" height="21.41666"><g transform="translate(-230.925,-169.11668)"><g data-paper-data="{&quot;isPaintingLayer&quot;:true}" fill="none" fill-rule="nonzero" stroke="none" stroke-width="none" stroke-linecap="butt" stroke-linejoin="miter" stroke-miterlimit="10" stroke-dasharray="" stroke-dashoffset="0" font-family="none" font-weight="none" font-size="none" text-anchor="none" style="mix-blend-mode: normal"><path d="M240.00833,190.53335c-5.01659,0 -9.08333,-4.79428 -9.08333,-10.70833c0,-5.91405 4.06675,-10.70833 9.08333,-10.70833c5.01659,0 9.08333,4.79428 9.08333,10.70833c0,5.91405 -4.06675,10.70833 -9.08333,10.70833z" data-paper-data="{&quot;origPos&quot;:null,&quot;index&quot;:null}" fill="#ffd900" stroke-width="0"/><path d="M238.93433,186.44171c-3.40918,0 -6.17287,-3.38984 -6.17287,-7.57143c0,-4.18159 2.76369,-7.57143 6.17287,-7.57143c3.40918,0 6.17287,3.38984 6.17287,7.57143c0,4.18159 -2.76369,7.57143 -6.17287,7.57143z" data-paper-data="{&quot;origPos&quot;:null,&quot;index&quot;:null}" fill="#dfbe00" stroke-width="0"/><path d="M238.67154,187.06668c-3.34911,0 -6.0641,-3.35787 -6.0641,-7.5c0,-4.14213 2.71499,-7.5 6.0641,-7.5c3.34911,0 6.0641,3.35787 6.0641,7.5c0,4.14213 -2.71499,7.5 -6.0641,7.5z" data-paper-data="{&quot;origPos&quot;:null,&quot;index&quot;:null}" fill="#ffe44c" stroke-width="0"/><g data-paper-data="{&quot;origPos&quot;:null,&quot;index&quot;:null}" stroke-width="1" font-family="Sans Serif" font-weight="normal" font-size="40" text-anchor="start"><text transform="translate(241.15105,180.45453) rotate(-180) scale(0.1349,-0.16685) skewX(0)" font-size="40" xml:space="preserve" data-paper-data="{&quot;origPos&quot;:null}" fill="#dfbe00" fill-rule="nonzero" stroke="none" stroke-width="1" stroke-linecap="butt" stroke-linejoin="miter" stroke-miterlimit="10" stroke-dasharray="" stroke-dashoffset="0" font-family="Sans Serif" font-weight="normal" text-anchor="start" style="mix-blend-mode: normal"><tspan x="0" dy="0">★</tspan></text><text transform="translate(241.19917,180.16881) rotate(-180) scale(0.1349,-0.16685) skewX(0)" font-size="40" xml:space="preserve" data-paper-data="{&quot;origPos&quot;:null}" fill="#ffd900" fill-rule="nonzero" stroke="none" stroke-width="1" stroke-linecap="butt" stroke-linejoin="miter" stroke-miterlimit="10" stroke-dasharray="" stroke-dashoffset="0" font-family="Sans Serif" font-weight="normal" text-anchor="start" style="mix-blend-mode: normal"><tspan x="0" dy="0">★</tspan></text></g></g></g></svg>