<svg version="1.1" xmlns="http://www.w3.org/2000/svg" xmlns:xlink="http://www.w3.org/1999/xlink" width="137.35516" height="73.22828" viewBox="0,0,137.35516,73.22828"><defs><radialGradient cx="216.14038" cy="150.85766" r="35.2121" gradientUnits="userSpaceOnUse" id="color-1"><stop offset="0" stop-color="#0033cc"/><stop offset="1" stop-color="#00ffff"/></radialGradient><radialGradient cx="291.91468" cy="170.82796" r="79.3137" gradientUnits="userSpaceOnUse" id="color-2"><stop offset="0" stop-color="#00ffff"/><stop offset="1" stop-color="#0033cc"/></radialGradient></defs><g transform="translate(-178.60328,-120.54968)"><g data-paper-data="{&quot;isPaintingLayer&quot;:true}" fill-rule="nonzero" stroke-linejoin="miter" stroke-miterlimit="10" stroke-dasharray="" stroke-dashoffset="0" style="mix-blend-mode: normal"><g><g fill="url(#color-1)" stroke="none" stroke-width="1" stroke-linecap="butt"><g><path d="M229.05708,152.20956c-0.9431,-0.8236 -4.0196,0.7576 -4.9991,-0.0968c-1.2519,-1.0926 -2.5703,-2.2616 -4.1207,-2.9201c-1.9253,-0.8188 -2.4471,-0.0198 0.0157,-0.6988c-1.4049,0.3876 -2.8156,1.1292 -3.541,2.4692c-1.4195,2.6218 -0.4746,5.1437 2.6248,5.4564c-1.6366,-0.035 -3.2722,-0.069 -4.9099,-0.103c1.1618,-0.0273 3.375,0.287 1.8197,-1.2947c-0.7875,-0.8016 -1.6038,-1.6147 -2.657,-2.0703c-2.0531,-0.8884 -1.6582,-1.1827 -3.8243,-0.3339c-1.0179,0.3982 -2.0901,0.8043 -2.9529,1.5016c-0.0457,0.0361 -2.3247,2.2629 -1.8419,2.2794c1.0785,0.0371 2.0097,0.1893 2.9534,0.7269c-1.6667,-0.0326 -3.3324,-0.0652 -4.9991,-0.0978c-5.2536,-7.2851 -13.0767,-4.3895 -19.0224,0.9612c-0.9235,0.8311 -4.1143,-0.8936 -4.9991,-0.0977c6.8132,-6.131 22.7027,-9.5269 29.0206,-0.7657c-0.5347,-0.7406 -4.09,0.4201 -4.9991,-0.0978c-0.9911,-0.5645 -1.8252,-0.6728 -2.9786,-0.7124c-0.114,-0.0012 -0.2289,-0.0075 -0.3417,-0.0197c3.746,-4.9747 10.0805,-4.7328 15.6868,-4.236c1.975,0.1746 9.319,4.237 4.737,4.3454c-1.8623,0.0436 -3.7413,0.0279 -5.6016,-0.0755c-5.4401,-0.3055 -3.4841,-7.2926 0.8273,-7.9344c5.3074,-0.7884 10.0151,0.2439 14.1031,3.8145z"/></g></g><path d="M206.59468,157.73296c0,0 -3.016,0.109 -4.5,-0.1c-0.68,-0.096 -1.9,-0.8 -1.9,-0.8" fill="none" stroke="#007fdf" stroke-width="2" stroke-linecap="round"/></g><path d="M265.80618,193.25076c-24.7997,-3.4047 -42.6341,-33.0129 -42.3247,-41.9529c0.3369,-9.7491 27.4598,-33.8249 52.2614,-30.4213c24.7998,3.4057 42.6811,22.3672 39.9377,42.3521c-2.7434,19.9848 -25.0746,33.4267 -49.8744,30.0221z" fill="url(#color-2)" stroke="none" stroke-width="1" stroke-linecap="butt"/></g></g></svg>