<svg xmlns="http://www.w3.org/2000/svg" xmlns:xlink="http://www.w3.org/1999/xlink" version="1.1" width="89.49520721435547" height="97.61268463134766" viewBox="-0.09521300792694087 1.3 89.49520721435547 97.61268463134766">
  <!-- Exported by Scratch - http://scratch.mit.edu/ -->
  <g id="ID0.17475076066330075">
    <path id="ID0.1790580078959465_13_" fill="#FAA51F" stroke="#8E5322" stroke-width="1.4" stroke-linecap="round" stroke-linejoin="round" d="M 43.7 62 C 43.6 61 47.4 56.6 47.4 55.8 C 47.1 47.1 49.9 43.4 51.5 43.5 C 55.1 43.8 56.8 47.6 55.4 54.5 C 54.4 59.6 47.5 68.9 47.3 69.7 "/>
    <g id="ID0.15723733883351088_13_">
      <path id="ID0.527006761636585_13_" fill="#FAA51F" stroke="#8E5322" stroke-width="1.4" stroke-linecap="round" stroke-linejoin="round" d="M 27.5 74.6 C 27.5 74.6 23.6 78.9 22.4 79.5 C 15.6 76.4 16.2 75.2 13.2 78.8 C 11.8 80.5 8.8 84.2 10.4 86.1 C 16.3 91.7 14 80.3 22.2 86.9 C 24.4 87.8 26.8 82.2 36.4 81.1 "/>
      <path id="ID0.8937406223267317_18_" fill="#FAA51F" stroke="#8E5322" stroke-width="1.4" stroke-linecap="round" stroke-linejoin="round" d="M 18.9 84.7 C 18.4 84.3 16.9 83.8 16.4 83.3 "/>
    </g>
    <g id="Layer_3_12_">
      <path id="ID0.8535828334279358_11_" fill="#FAA51F" d="M 17 68.3 C 15 66.8 12.9 64.7 11.7 61.5 C 9.1 54.5 11.4 46.3 6.9 46.4 C 2.4 46.5 -3.7 58.6 5.3 67.9 C 8.4 71.2 11.9 72.9 14.6 74.3 C 15.3 74.7 21.9 77.3 25.6 75.2 C 29.3 73.1 28.2 71.6 27.7 70.8 C 27.3 69.9 19.8 70.5 17 68.3 Z " stroke-width="1"/>
      <path id="ID0.914295740891248_11_" fill="#FFFFFF" d="M 7.1 46.3 C 5 46 1.7 49.8 0.9 53.4 C 0.2 57 0.9 59.9 1.4 61.7 C 2.3 63.4 2.2 58.7 4.9 58 C 7.6 57.3 11 59.8 11 59.8 C 11 59.8 10.2 54.4 9.8 51.5 C 9.6 48.8 9.3 46.9 7.1 46.3 Z " stroke-width="1"/>
      <path id="ID0.40227043256163597_11_" fill="none" stroke="#8E5322" stroke-width="1.4" stroke-linecap="round" stroke-linejoin="round" d="M 17 68.3 C 15 66.8 12.9 64.7 11.7 61.5 C 9.1 54.5 11.4 46.3 6.9 46.4 C 2.4 46.5 -3.7 58.6 5.3 67.9 C 8.4 71.2 11.9 72.9 14.6 74.3 C 15.3 74.7 21.9 77.3 25.6 75.2 C 29.3 73.1 28.2 71.6 27.7 70.8 C 27.3 69.9 19.8 70.5 17 68.3 Z "/>
    </g>
    <g id="Layer_2_24_">
      <path id="ID0.39854341372847557_11_" fill="#FAA51F" stroke="#8E5322" stroke-width="1.4" stroke-linecap="round" stroke-linejoin="round" d="M 35.3 73.5 "/>
    </g>
    <path id="ID0.46792364912107587_11_" fill="#FAA51F" stroke="#8E5322" stroke-width="1.333" stroke-linecap="round" stroke-linejoin="round" d="M 47.4 67.8 C 45.5 74.2 44.2 84.1 33.9 81 C 23.5 78 27 69.6 28.9 63.2 C 30.8 56.8 34.9 56.1 40.7 57.8 C 46.5 59.6 49.3 61.4 47.4 67.8 Z "/>
    <path id="ID0.38032895559445024_11_" fill="#FFFFFF" d="M 46.2 70.3 C 45 74.3 43.3 78.1 41.4 76.5 C 37.3 73.2 37.3 71.7 38.5 67.6 C 39.7 63.6 42.3 62.6 45.7 64.1 C 47.9 65.1 47.4 66.2 46.2 70.3 Z " stroke-width="1"/>
    <g id="ID0.16171270422637463_11_">
      <path id="ID0.007584026083350182_11_" fill="#FAA51F" stroke="#8E5322" stroke-width="1.4" stroke-linecap="round" stroke-linejoin="round" d="M 45.3 75.8 C 45.3 75.8 43.5 76.4 43.2 78.9 C 42.9 81.2 44.1 85.2 45.6 89.2 C 46.9 92.8 52.6 86.8 54.1 94.1 C 54.5 96.2 45.5 98.4 43.3 98.2 C 41.3 98 40.6 97.5 40.4 95.5 C 39.6 88.2 30.9 78.4 30.9 78.4 "/>
      <path id="ID0.31672530295327306_11_" fill="#FAA51F" stroke="#8E5322" stroke-width="1.4" stroke-linecap="round" stroke-linejoin="round" d="M 47.9 90.4 C 47.9 90.4 46.6 90.5 45.2 91.2 "/>
    </g>
    <g id="ID0.11590025667101145">
      <g id="Layer_2_23_">
        <path id="ID0.2591130444779992_11_" fill="#FAA51F" d="M 54.4 13.3 C 52.9 12.9 49.9 12.2 48.2 12 C 43.6 11.4 39.1 12.3 39.1 12.3 L 28.1 2 L 27.1 20.4 C 27.8 19.7 14.9 30.8 19.7 42.8 C 24.5 55 38 62.4 56.6 62.1 C 75.1 61.7 81.2 52.2 81 46.5 C 80.8 40.9 74.4 37.6 74.4 37.6 C 74.4 37.6 75.1 33.3 72.9 27.6 C 71.6 24.1 66.3 18.5 66.3 18.5 L 65.5 7 L 57.2 12.6 L 54.4 13.3 Z " stroke-width="1"/>
        <path id="ID0.3588979784399271_11_" fill="#FFFFFF" d="M 73.5 37.3 L 71.5 34.9 L 62.4 35.9 C 62.4 35.9 61.8 39.1 57.5 39.3 C 53.2 39.5 46.5 36.6 46.5 36.6 L 39.2 37.1 C 39.2 37.1 31.3 35.2 29.8 41.4 C 27.2 52.2 35.4 59.1 43.8 60.4 C 49.2 61.4 52.8 61.3 56.7 61.3 C 74.2 61.3 80.8 51.9 80.3 46.2 C 80.1 40.6 73.9 37.8 73.9 37.8 L 73.5 37.3 Z " stroke-width="1"/>
        <path id="ID0.2727069961838424_11_" fill="none" stroke="#8E5322" stroke-width="1.4" stroke-linecap="round" stroke-linejoin="round" d="M 77.4 43.5 C 77.4 43.5 81.8 43.3 84.1 42.7 C 86.8 42.1 88.7 40.7 88.7 40.7 "/>
        <path id="ID0.5861211125738919_11_" fill="none" stroke="#8E5322" stroke-width="1.4" stroke-linecap="round" stroke-linejoin="round" d="M 76.9 49.3 C 76.9 49.3 79.4 50.6 82.2 51 C 84.9 51.5 86.7 51.4 86.7 51.4 "/>
        <path id="ID0.4793355236761272_11_" fill="none" stroke="#8E5322" stroke-width="1.4" stroke-linecap="round" stroke-linejoin="round" d="M 37.1 10.5 L 41.6 15 "/>
        <path id="ID0.48413723474368453_11_" fill="none" stroke="#8E5322" stroke-width="1.4" stroke-linecap="round" stroke-linejoin="round" d="M 54.4 13.3 C 52.9 12.9 49.9 12.2 48.2 12 C 43.6 11.4 39.1 12.3 39.1 12.3 L 28.1 2 L 27.1 20.4 C 27.8 19.7 14.9 30.8 19.7 42.8 C 24.5 55 38 62.4 56.6 62.1 C 75.1 61.7 81.2 52.2 81 46.5 C 80.8 40.9 74.4 37.6 74.4 37.6 C 74.4 37.6 75.1 33.3 72.9 27.6 C 71.6 24.1 66.3 18.5 66.3 18.5 L 65.5 7 L 57.2 12.6 L 54.4 13.3 Z "/>
        <path id="ID0.9024141579866409_11_" fill="none" stroke="#8E5322" stroke-width="1.4" stroke-linecap="round" stroke-linejoin="round" d="M 9 36.2 C 9 36.2 12.8 37.5 14.6 37.8 C 16.4 38.1 19.9 38.5 19.9 38.5 "/>
        <path id="ID0.16030752705410123_11_" fill="none" stroke="#8E5322" stroke-width="1.4" stroke-linecap="round" stroke-linejoin="round" d="M 20.7 34.7 C 20.7 34.7 18.9 32.4 15.9 29.9 C 12.5 27.1 10.5 26.1 10.5 26.1 "/>
      </g>
      <g id="Layer_5_12_">
        <path id="ID0.40023312577977777_11_" fill="#FFFFFF" stroke="#8E5322" stroke-width="1.4" stroke-linecap="round" stroke-linejoin="round" d="M 70.7 27.3 C 72.7 32 71.9 37 69 38.2 C 66 39.5 62 36.6 60 31.8 C 58 27.1 58.8 22.1 61.7 20.9 C 64.6 19.7 68.7 22.6 70.7 27.3 Z "/>
        <path id="ID0.43813491938635707_11_" fill="#414142" d="M 69 32.8 C 69.1 33.8 68.5 34.7 67.4 34.9 C 66.5 35 65.6 34.3 65.5 33.1 C 65.4 32.1 66 31.2 67.1 31 C 68 31 68.8 31.8 69 32.8 " stroke-width="1"/>
      </g>
      <g id="Layer_7_12_">
        <path id="ID0.4253597157076001_11_" fill="#FFFFFF" stroke="#8E5322" stroke-width="1.4" stroke-linecap="round" stroke-linejoin="round" d="M 47.3 26.3 C 49.3 31 48.1 36.1 44.6 37.6 C 41.1 39.1 36.6 36.5 34.6 31.7 C 32.6 27 33.8 21.9 37.3 20.4 C 40.8 18.9 45.3 21.6 47.3 26.3 Z "/>
        <path id="ID0.814307457767427_11_" fill="#414142" d="M 45.3 32.1 C 45.1 33.1 44.2 33.8 43.3 33.7 C 42.3 33.5 41.8 32.6 42 31.5 C 42.2 30.5 43.1 29.8 44 29.9 C 44.9 30.1 45.5 31 45.3 32.1 " stroke-width="1"/>
      </g>
      <path id="ID0.5240494590252638_11_" fill="#5F4B43" stroke="#8E5322" stroke-width="1.4" stroke-linecap="round" stroke-linejoin="round" d="M 56.4 38 C 58.1 38.1 60.6 37.2 60.6 39.1 C 60.5 39.9 58.3 42.9 56.5 42.6 C 54.5 42.3 51.5 39.3 51.9 37.8 C 52.2 36.4 54.9 37.9 56.4 38 Z "/>
      <path id="ID0.046259244438260794_11_" fill="#FFFFFF" stroke="#8E5322" stroke-width="1.4" stroke-linecap="round" stroke-linejoin="round" d="M 44.7 51.5 C 44.7 51.5 46.8 54.2 52.3 54.1 "/>
    </g>
    <path id="ID0.1790580078959465_14_" fill="#FAA51F" stroke="#8E5322" stroke-width="1.4" stroke-linecap="round" stroke-linejoin="round" d="M 33.3 58.4 C 33.4 57.4 29.6 53 29.6 52.2 C 29.9 43.5 27.1 39.8 25.5 39.9 C 21.9 40.2 20.2 44 21.6 50.9 C 22.6 56 29.5 65.3 29.7 66.1 "/>
  </g>
</svg>