<svg version="1.1" xmlns="http://www.w3.org/2000/svg" xmlns:xlink="http://www.w3.org/1999/xlink" width="21.41666" height="21.41666"><g transform="translate(-229.3,-169.11666)"><g data-paper-data="{&quot;isPaintingLayer&quot;:true}" fill="none" fill-rule="nonzero" stroke="none" stroke-width="none" stroke-linecap="butt" stroke-linejoin="miter" stroke-miterlimit="10" stroke-dasharray="" stroke-dashoffset="0" font-family="none" font-weight="none" font-size="none" text-anchor="none" style="mix-blend-mode: normal"><path d="M229.3,179.825c0,-5.91405 4.79428,-10.70833 10.70833,-10.70833c5.91405,0 10.70833,4.79428 10.70833,10.70833c0,5.91405 -4.79428,10.70833 -10.70833,10.70833c-5.91405,0 -10.70833,-4.79428 -10.70833,-10.70833z" data-paper-data="{&quot;origPos&quot;:null}" fill="#ffd900" stroke-width="0"/><path d="M232.02262,178.87024c0,-4.18159 3.41809,-7.57143 7.63453,-7.57143c4.21643,0 7.63452,3.38984 7.63452,7.57143c0,4.18159 -3.41809,7.57143 -7.63452,7.57143c-4.21643,0 -7.63453,-3.38984 -7.63453,-7.57143z" data-paper-data="{&quot;origPos&quot;:null}" fill="#dfbe00" stroke-width="0"/><path d="M232.48215,179.56667c0,-4.14213 3.35787,-7.5 7.5,-7.5c4.14213,0 7.5,3.35787 7.5,7.5c0,4.14213 -3.35787,7.5 -7.5,7.5c-4.14213,0 -7.5,-3.35787 -7.5,-7.5z" data-paper-data="{&quot;origPos&quot;:null}" fill="#ffe44c" stroke-width="0"/><g stroke-width="1" font-family="Sans Serif" font-weight="normal" font-size="40" text-anchor="start"><text transform="translate(236.91554,180.45449) scale(0.16685,0.16685)" font-size="40" xml:space="preserve" data-paper-data="{&quot;origPos&quot;:null}" fill="#dfbe00" fill-rule="nonzero" stroke="none" stroke-width="1" stroke-linecap="butt" stroke-linejoin="miter" stroke-miterlimit="10" stroke-dasharray="" stroke-dashoffset="0" font-family="Sans Serif" font-weight="normal" text-anchor="start" style="mix-blend-mode: normal"><tspan x="0" dy="0">★</tspan></text><text transform="translate(236.85602,180.16877) scale(0.16685,0.16685)" font-size="40" xml:space="preserve" data-paper-data="{&quot;origPos&quot;:null}" fill="#ffd900" fill-rule="nonzero" stroke="none" stroke-width="1" stroke-linecap="butt" stroke-linejoin="miter" stroke-miterlimit="10" stroke-dasharray="" stroke-dashoffset="0" font-family="Sans Serif" font-weight="normal" text-anchor="start" style="mix-blend-mode: normal"><tspan x="0" dy="0">★</tspan></text></g></g></g></svg>