<svg version="1.1" xmlns="http://www.w3.org/2000/svg" xmlns:xlink="http://www.w3.org/1999/xlink" width="137.35516" height="73.22828" viewBox="0,0,137.35516,73.22828"><defs><radialGradient cx="208.85952" cy="186.30615" r="35.2121" gradientUnits="userSpaceOnUse" id="color-1"><stop offset="0" stop-color="#0033cc"/><stop offset="1" stop-color="#00ffff"/></radialGradient><radialGradient cx="284.63382" cy="166.33585" r="79.3137" gradientUnits="userSpaceOnUse" id="color-2"><stop offset="0" stop-color="#00ffff"/><stop offset="1" stop-color="#0033cc"/></radialGradient></defs><g transform="translate(-171.32242,-143.38585)"><g data-paper-data="{&quot;isPaintingLayer&quot;:true}" fill-rule="nonzero" stroke-linejoin="miter" stroke-miterlimit="10" stroke-dasharray="" stroke-dashoffset="0" style="mix-blend-mode: normal"><g data-paper-data="{&quot;index&quot;:null}"><g fill="url(#color-1)" stroke="none" stroke-width="1" stroke-linecap="butt"><g><path d="M207.67312,188.76875c-4.3114,-0.6418 -6.2674,-7.6289 -0.8273,-7.9344c1.8603,-0.1034 3.7393,-0.1191 5.6016,-0.0755c4.582,0.1084 -2.762,4.1708 -4.737,4.3454c-5.6063,0.4968 -11.9408,0.7387 -15.6868,-4.236c0.1128,-0.0122 0.2277,-0.0185 0.3417,-0.0197c1.1534,-0.0396 1.9875,-0.1479 2.9786,-0.7124c0.9091,-0.5179 4.4644,0.6428 4.9991,-0.0978c-6.3179,8.7612 -22.2074,5.3653 -29.0206,-0.7657c0.8848,0.7959 4.0756,-0.9288 4.9991,-0.0977c5.9457,5.3507 13.7688,8.2463 19.0224,0.9612c1.6667,-0.0326 3.3324,-0.0652 4.9991,-0.0978c-0.9437,0.5376 -1.8749,0.6898 -2.9534,0.7269c-0.4828,0.0165 1.7962,2.2433 1.8419,2.2794c0.8628,0.6973 1.935,1.1034 2.9529,1.5016c2.1661,0.8488 1.7712,0.5545 3.8243,-0.3339c1.0532,-0.4556 1.8695,-1.2687 2.657,-2.0703c1.5553,-1.5817 -0.6579,-1.2674 -1.8197,-1.2947c1.6377,-0.034 3.2733,-0.068 4.9099,-0.103c-3.0994,0.3127 -4.0443,2.8346 -2.6248,5.4564c0.7254,1.34 2.1361,2.0816 3.541,2.4692c-2.4628,-0.679 -1.941,0.12 -0.0157,-0.6988c1.5504,-0.6585 2.8688,-1.8275 4.1207,-2.9201c0.9795,-0.8544 4.056,0.7268 4.9991,-0.0968c-4.088,3.5706 -8.7957,4.6029 -14.1031,3.8145z"/></g></g><path d="M192.91382,180.33085c0,0 1.22,-0.704 1.9,-0.8c1.484,-0.209 4.5,-0.1 4.5,-0.1" fill="none" stroke="#007fdf" stroke-width="2" stroke-linecap="round"/></g><path d="M308.39972,173.93515c2.7434,19.9849 -15.1379,38.9464 -39.9377,42.3521c-24.8016,3.4036 -51.9245,-20.6722 -52.2614,-30.4213c-0.3094,-8.94 17.525,-38.5482 42.3247,-41.9529c24.7998,-3.4046 47.131,10.0373 49.8744,30.0221z" data-paper-data="{&quot;index&quot;:null}" fill="url(#color-2)" stroke="none" stroke-width="1" stroke-linecap="butt"/></g></g></svg>