<svg version="1.1" xmlns="http://www.w3.org/2000/svg" xmlns:xlink="http://www.w3.org/1999/xlink" width="132.56375" height="79.0895" viewBox="0,0,132.56375,79.0895"><g transform="translate(-171.00023,-122.99775)"><g data-paper-data="{&quot;isPaintingLayer&quot;:true}" fill-rule="nonzero" stroke="none" stroke-width="1" stroke-linecap="butt" stroke-linejoin="miter" stroke-miterlimit="10" stroke-dasharray="" stroke-dashoffset="0" style="mix-blend-mode: normal"><g data-paper-data="{&quot;index&quot;:null}"><path d="M243.898,168.132c-4.359,3.462 -9.188,5.906 -14.29,3.349c-4.409,-2.24 -6.454,-7.333 -3.842,-11.316c-2.66,0.271 -5.173,-0.136 -6.109,-2.353c-0.96,-2.286 -0.394,-4.165 2.167,-5.975c-2.783,-0.658 -4.335,1.131 -6.798,2.443c-3.793,1.991 -7.71,1.697 -11.134,-0.815c-2.759,-2.036 -2.833,-5.816 -0.591,-8.328c2.217,-2.489 7.488,-4.888 15.271,-0.815c3.862,2.021 11.39,0.16 14.789,-2.51c2.685,-2.104 11.078,1.474 14.673,2.782c4.777,1.721 2.951,-1.34 7.339,1.013c7.394,3.938 14.875,14.33 14.875,22.25c0,6.88 -4.454,11.114 -11.869,11.59c-7.459,0.476 -12.608,-4.888 -14.481,-11.315z" fill="#00b900"/><path d="M252.756,147.811c6.224,4.785 13.876,11.121 13.909,18.075c0.049,10.823 -15.961,12.354 -19.534,1.451c0,0 -0.742,-2.325 -1.379,-4.738c-5.573,6.939 -12.325,7.912 -15.512,5.775c-2.232,-1.497 -2.657,-7.028 3.342,-12.424c-4.845,2.161 -9.573,2.663 -10.538,0.438c-0.965,-2.227 1.018,-3.956 6.264,-5.962c-6.315,-1.305 -8.099,-1.928 -13.594,1.199c-3.975,2.263 -11.068,-1.043 -7.793,-5.188c2.561,-3.241 7.053,-1.988 10.083,-0.503c5.41,2.654 15.063,0.462 19.624,-2.988c5.601,-0.729 9.556,6.766 15.128,4.865z" fill="#ffff00"/><path d="M260.559,160.62c4.396,1.378 6.176,8.672 1.121,9.804c-2.64,0.591 -4.865,-0.882 -5.011,-3.378c-0.166,-2.655 0.949,-3.342 0.438,-5.964c-0.487,-2.431 -2.611,-1.711 -4.207,-3.713c-1.513,-1.913 -1.02,-4.632 1.555,-4.784c4.77,-0.268 1.597,6.604 6.104,8.035z" fill="#00b900"/><path d="M239.497,162.331c-0.106,1.845 -1.677,3.412 -3.685,3.317c-1.654,-0.066 -3.266,-1.294 -2.982,-2.802c0.299,-1.67 1.289,-2.849 3.144,-3.135c2.202,-0.342 3.608,1.229 3.523,2.62z" fill="#00b900"/><path d="M248.644,149.238c-1.77,2.009 -3.551,3.1 -3.483,5.622c0.074,2.262 -1.546,4.774 -3.984,4.521c-2.345,-0.26 -3.427,-3.432 -2.097,-5.198c1.738,-2.293 4.701,-2.637 5.133,-5.437z" fill="#00b900"/><path d="M234.746,153.264c-1.411,0.935 -5.539,2.424 -6.241,0.941c-0.929,-1.961 2.804,-2.999 5.082,-3.727c2.663,-0.849 3.438,1.278 1.159,2.786z" fill="#00b900"/><path d="M217.504,148.299c-1.051,0.616 -1.423,1.038 -2.695,1.547c-1.751,0.7 -4.689,0.65 -4.945,-1.582c-0.212,-1.846 2.265,-2.101 3.836,-1.979c1.573,0.122 2.643,1.048 3.804,2.014z" fill="#00b900"/></g><g data-paper-data="{&quot;index&quot;:null}"><path d="M223.771,181.771c-6.267,4.856 -12.997,8.013 -19.33,3.145c-5.472,-4.257 -7.398,-12.701 -3.358,-18.657c-3.546,0.023 -6.795,-1.014 -7.694,-4.699c-0.921,-3.796 0.108,-6.708 3.757,-9.204c-3.569,-1.476 -5.883,1.139 -9.326,2.854c-5.299,2.595 -10.415,1.521 -14.548,-3.018c-3.328,-3.677 -2.855,-9.721 0.476,-13.386c3.296,-3.632 10.604,-6.646 20.247,1.055c4.783,3.822 19.616,1.188 25.727,-3.961c3.697,-3.109 17.144,7.252 22.567,11.688c9.143,7.426 17.438,25.167 16.246,37.811c-1.039,10.981 -7.545,17.056 -17.387,16.671c-9.904,-0.394 -15.879,-9.751 -17.377,-20.299z" fill="#00b900"/><path d="M238.501,150.694c7.48,8.6 16.609,19.895 15.603,31c-1.565,17.285 -22.892,17.262 -25.956,-0.697c0,0 -0.628,-3.823 -1.104,-7.773c-8.386,10.218 -17.431,10.731 -21.308,6.826c-2.714,-2.732 -2.441,-11.628 6.277,-19.315c-6.711,2.701 -13.015,2.773 -13.952,-0.928c-0.936,-3.702 1.937,-6.159 9.152,-8.55c-8.124,-3.059 -10.381,-4.328 -18.093,-0.182c-5.577,2.998 -14.424,-3.372 -9.486,-9.484c3.863,-4.777 9.593,-2.089 13.363,0.75c6.728,5.069 21.215,1.952 27.744,-2.854c7.487,-0.3 10.132,13.389 17.76,11.207z" fill="#ffff00"/><path d="M243.581,173.478c5.584,2.877 6.829,14.796 0,15.823c-3.568,0.537 -6.277,-2.158 -6.092,-6.165c0.184,-4.265 1.753,-5.189 1.477,-9.453c-0.277,-3.956 -3.186,-3.134 -4.985,-6.576c-1.708,-3.288 -0.646,-7.552 2.769,-7.398c6.322,0.308 1.107,10.788 6.831,13.769z" fill="#00b900"/><path d="M218.842,171.833c-0.416,2.928 -2.723,5.189 -5.354,4.726c-2.168,-0.359 -4.108,-2.569 -3.507,-4.932c0.646,-2.62 2.128,-4.349 4.615,-4.521c2.954,-0.205 4.57,2.517 4.246,4.727z" fill="#00b900"/><path d="M235.851,148.844c-2.638,2.935 -8.128,7.899 -8.416,11.935c-0.247,3.624 -2.761,7.384 -5.933,6.604c-3.049,-0.779 -3.997,-6.008 -1.978,-8.622c2.637,-3.393 9.57,-6.982 10.558,-11.385z" fill="#00b900"/><path d="M213.95,156.626c-1.999,1.272 -7.664,3.015 -8.365,0.541c-0.929,-3.273 4.147,-4.353 7.257,-5.164c3.638,-0.948 4.339,2.568 1.108,4.623z" fill="#00b900"/><path d="M191.981,146.043c-1.477,0.822 -2.031,1.438 -3.784,2.055c-2.413,0.85 -6.277,0.312 -6.277,-3.288c0,-2.979 3.3,-3.004 5.354,-2.569c2.053,0.436 3.323,2.08 4.707,3.802z" fill="#00b900"/><path d="M211.234,145.88c7.13,-0.468 10.525,-3.74 13.072,-4.211c-3.056,5.146 -9.368,7.187 -12.562,7.643c-3.737,0.533 -4.429,-3.175 -0.51,-3.432z" fill="#00b900"/></g><g data-paper-data="{&quot;index&quot;:null}"><path d="M265.975,144.914c-7.173,4.958 -17.088,7.169 -30.312,5.975c-12.494,-1.15 -23.232,-12.815 -15.513,-20.062c7.371,-6.86 16.604,-9.184 28.14,-7.082c16.104,2.934 18.744,11.295 20.577,13.678c1.705,2.226 -2.278,4.956 -2.892,7.491z" fill="#6600a1"/><path d="M236.786,146.467c0,-4.006 5.188,-5.905 9.698,-6.074c3.951,-0.147 7.66,3.08 7.043,6.581c-0.283,1.59 -1.211,2.768 -2.503,3.602c-3.514,0.548 -7.378,0.737 -11.603,0.557c-1.597,-1.036 -2.635,-2.699 -2.635,-4.666z" fill="#ffb400"/><path d="M228.598,132.882c2.949,0.505 4.947,2.7 4.947,5.399c0,3.08 -3.948,4.725 -7.421,4.388c-2.949,-0.293 -4.756,-2.531 -4.756,-5.23c0,-3.111 3.853,-5.145 7.23,-4.557z" fill="#ffb400"/><path d="M249.704,133.918c-0.405,2.157 -3.939,3.38 -6.254,2.568c-3.069,-1.079 -4.343,-3.493 -3.474,-6.265c0.522,-1.746 2.606,-2.261 4.633,-2.056c3.185,0.36 5.676,2.979 5.095,5.753z" fill="#ffb400"/><path d="M259.811,132.814c-1.977,1.001 -4.59,0.471 -5.688,-1.28c-1.062,-1.694 -0.763,-4.517 1.312,-5.27c0.277,-0.102 0.576,-0.181 0.886,-0.243c2.294,0.939 4.139,2.01 5.634,3.117c0.107,1.474 -0.631,2.899 -2.144,3.676z" fill="#ffb400"/><path d="M264.089,139.127c0.548,2.003 -1.072,4.387 -3.426,4.387c-2.475,0 -4.473,-1.435 -4.854,-3.627c-0.309,-1.877 1.881,-3.209 3.996,-3.292c1.998,-0.084 3.804,0.824 4.284,2.532z" fill="#ffb400"/><path d="M235.306,126.382c0.119,1.607 -1.236,3.021 -3.044,3.126c-1.855,0.274 -3.71,-0.59 -4.091,-2.194c-0.38,-1.645 1.332,-3.101 3.235,-3.291c1.832,-0.188 3.782,0.741 3.9,2.359z" fill="#ffb400"/></g><g data-paper-data="{&quot;index&quot;:null}"><path d="M295.53,178.487c7.588,-10.313 -12.045,-6.05 -7.596,-16.257l1.565,0.304c-2.664,6.662 10.704,4.518 12.742,10.497c1.5,4.407 -10.093,8.054 -0.831,11.19c4.111,1.393 1.443,3.019 -0.641,2.709c-5.21,-0.774 -8.065,-4.604 -5.239,-8.443z" fill="#00b900"/><path d="M287.1,128.978c3.875,0.385 8.019,1.932 8.779,5.682c-2.848,0.266 -19.742,-1.155 -23.068,10.591c9.826,-4.682 18.722,-5.233 28.062,-2.059c1.749,12.107 -6.286,21.282 -15.307,23.002c-8.894,1.706 -17.942,-5.094 -20.362,-13.741c-1.409,-5.052 -0.54,-9.007 1.998,-13.54c5.501,-9.824 15.112,-10.414 19.898,-9.935z" fill="#6600a1"/><g><path d="M275.902,151.529c0.864,-1.823 4.097,-2.737 7.224,-2.04c3.125,0.698 4.959,2.738 4.097,4.561c-0.866,1.823 -4.097,2.735 -7.224,2.038c-3.126,-0.695 -4.96,-2.737 -4.097,-4.559z" fill="#ffffff"/><path d="M280.304,150.835c1.105,-0.482 2.418,-0.033 2.934,1.003c0.515,1.035 0.036,2.268 -1.068,2.752c-1.106,0.482 -2.418,0.034 -2.934,-1.002c-0.513,-1.037 -0.037,-2.27 1.068,-2.753z" fill="#6600a1"/></g><g><path d="M297.93,151.08c1.086,1.024 0.368,2.492 -1.611,3.278c-1.977,0.785 -4.459,0.591 -5.547,-0.434c-1.088,-1.023 -0.368,-2.492 1.609,-3.278c1.974,-0.788 4.46,-0.593 5.549,0.434z" fill="#ffffff"/><path d="M293.571,151.275c0.748,-0.318 1.635,-0.023 1.984,0.658c0.347,0.677 0.024,1.486 -0.723,1.803c-0.748,0.318 -1.636,0.024 -1.986,-0.656c-0.348,-0.679 -0.026,-1.488 0.725,-1.805z" fill="#6600a1"/></g><path d="M286.162,183.579c-1.34,3.489 -6.427,3.781 -8.484,6.641c-1.132,1.572 4.19,7.611 -1.392,5.884c-0.007,-0.003 -0.015,-0.007 -0.022,-0.009c-0.117,-0.031 -0.244,-0.082 -0.384,-0.186c-2.194,-1.61 -4.706,-3.801 -3.101,-7.255c1.664,-3.586 7.188,-4.736 8.066,-8.598c0.734,-3.225 -3.971,-6.051 -4.122,-9.364c-0.085,-1.83 0.579,-3.454 1.898,-4.712c1.298,-1.238 1.998,-0.79 3.59,-0.627c0.276,0.029 1.468,0.628 1.067,1.163c-6.287,8.344 5.828,9.387 2.884,17.063z" fill="#00b900"/></g></g></g></svg>