<svg version="1.1" xmlns="http://www.w3.org/2000/svg" xmlns:xlink="http://www.w3.org/1999/xlink" width="321.69054" height="278.09155" viewBox="0,0,321.69054,278.09155"><defs><radialGradient cx="444.84591" cy="207.73137" r="24.8702" gradientUnits="userSpaceOnUse" id="color-1"><stop offset="0" stop-color="#80f4ff"/><stop offset="1" stop-color="#0077ff"/></radialGradient><radialGradient cx="479.87248" cy="127.50523" r="21.4454" gradientUnits="userSpaceOnUse" id="color-2"><stop offset="0" stop-color="#80f4ff"/><stop offset="1" stop-color="#0077ff"/></radialGradient><radialGradient cx="477.87248" cy="274.50523" r="21.4454" gradientUnits="userSpaceOnUse" id="color-3"><stop offset="0" stop-color="#80f4ff"/><stop offset="1" stop-color="#0077ff"/></radialGradient></defs><g transform="translate(-237.6281,-101.50422)"><g data-paper-data="{&quot;isPaintingLayer&quot;:true}" stroke-miterlimit="10" stroke-dasharray="" stroke-dashoffset="0" style="mix-blend-mode: normal"><path d="M262.50709,133.84217l272.76004,-31.2273l19.43253,186.17719l-310.1528,56.53353c0,0 -5.45472,-40.58464 -5.85542,-52.06716c-0.82299,-23.58331 4.58183,-64.60894 8.62189,-89.13578c4.40957,-26.77008 15.19377,-70.28048 15.19377,-70.28048z" data-paper-data="{&quot;index&quot;:null}" fill="#99ffff" fill-rule="nonzero" stroke="#ccffff" stroke-width="2.00406" stroke-linecap="butt" stroke-linejoin="miter"/><path d="M242.52704,322.27076l298.20314,-21.15103l10.57552,77.13077l-309.83619,-6.34531z" fill="#663b00" fill-rule="nonzero" stroke="#663b00" stroke-width="2.62812" stroke-linecap="butt" stroke-linejoin="miter"/><path d="M528.73474,263.87261c7.7018,-1.15088 16.73123,1.00905 22.09534,6.48559c5.70865,5.80254 5.31076,15.38695 5.72016,23.44019c1.06834,8.21922 2.90661,17.56928 -1.34127,24.78517c-3.92289,6.68252 -11.77532,12.08043 -19.42452,12.83019c-11.37933,1.11572 -24.72366,-1.24481 -33.7359,-6.48368c-9.01233,-5.2398 -15.07756,-13.14135 -16.05003,-22.45832c-0.97247,-9.31698 3.33033,-18.30071 11.06636,-25.28865c7.73613,-6.987 20.35794,-11.62942 31.66984,-13.3105z" fill="#00cc44" fill-rule="nonzero" stroke="#00cc44" stroke-width="2.88236" stroke-linecap="butt" stroke-linejoin="miter"/><path d="M293.76524,282.00543c9.89816,-1.03313 19.12509,0.502 26.03603,3.81627c6.911,3.31487 11.50674,8.40883 12.14183,14.49339c0.63508,6.08455 -2.80968,12.01774 -8.88719,16.68831c-6.07758,4.66997 -14.78861,8.07741 -24.68678,9.11054c-9.89816,1.03313 -19.12509,-0.502 -26.03604,-3.81627c-6.911,-3.31487 -11.50674,-8.40883 -12.14182,-14.49337c-0.63508,-6.08455 2.80968,-12.01774 8.88719,-16.68832c6.07757,-4.66998 14.78861,-8.0774 24.68679,-9.11054z" fill="#00cc44" fill-rule="nonzero" stroke="#00cc44" stroke-width="2.06637" stroke-linecap="butt" stroke-linejoin="miter"/><path d="M366.09818,269.45838c12.76343,-1.3322 24.72366,1.24481 33.7359,6.48368c9.01233,5.23979 15.07756,13.14135 16.05003,22.45834c0.97247,9.31698 -3.33033,18.30071 -11.06636,25.28864c-7.73613,6.987 -18.90642,11.97831 -31.66984,13.3105c-12.76343,1.3322 -24.72366,-1.24481 -33.7359,-6.48368c-9.01233,-5.2398 -15.07756,-13.14135 -16.05003,-22.45832c-0.97247,-9.31698 3.33033,-18.30071 11.06636,-25.28865c7.73613,-6.987 18.90642,-11.97831 31.66984,-13.3105z" fill="#00cc44" fill-rule="nonzero" stroke="#00cc44" stroke-width="2.88236" stroke-linecap="butt" stroke-linejoin="miter"/><path d="M448.80901,266.01719c12.76343,-1.3322 24.72366,1.24481 33.7359,6.48368c9.01233,5.23979 15.07756,13.14135 16.05003,22.45834c0.97247,9.31698 -3.33033,18.30071 -11.06636,25.28864c-7.73613,6.987 -18.90642,11.97831 -31.66984,13.3105c-12.76343,1.3322 -24.72366,-1.24481 -33.7359,-6.48368c-9.01233,-5.2398 -15.07756,-13.14135 -16.05003,-22.45832c-0.97247,-9.31698 3.33033,-18.30071 11.06636,-25.28865c7.73613,-6.987 18.90642,-11.97831 31.66984,-13.3105z" fill="#00cc44" fill-rule="nonzero" stroke="#00cc44" stroke-width="2.88236" stroke-linecap="butt" stroke-linejoin="miter"/><path d="M241.60674,292.26538c3.60147,-2.46121 11.09094,5.54049 15.78808,10.81076c3.53859,3.9619 7.59436,8.93262 8.21752,14.90299c0.62316,5.97035 -1.2319,13.2683 -4.96289,16.2787l-17.13912,-0.37219l-4.63921,-23.04796c-0.98663,-7.45334 -0.25806,-17.15244 2.73561,-18.57231z" fill="#00cc44" fill-rule="nonzero" stroke="#00cc44" stroke-width="1.65924" stroke-linecap="butt" stroke-linejoin="miter"/><path d="M404.30214,225.05434l10.46444,-1.09224l12.89247,123.51893l-46.01341,4.34843l-15.66664,-150.09733l12.51881,-1.30667l0.93142,8.92366l12.19781,-1.27317l0.95823,9.18046l10.78544,-1.12574l0.93142,8.92366" fill="#5acbf2" fill-rule="nonzero" stroke="none" stroke-width="1" stroke-linecap="butt" stroke-linejoin="miter"/><path d="M395.66877,226.27994l4.17294,-0.43555l0.64329,6.1631l-4.17294,0.43555z" fill="#d4eef4" fill-rule="nonzero" stroke="none" stroke-width="1" stroke-linecap="butt" stroke-linejoin="miter"/><path d="M397.00894,239.11975l4.17294,-0.43555l0.64329,6.1631l-4.17294,0.43555z" fill="#d4eef4" fill-rule="nonzero" stroke="none" stroke-width="1" stroke-linecap="butt" stroke-linejoin="miter"/><path d="M388.94947,260.14439l4.17294,-0.43555l0.64329,6.1631l-4.17294,0.43555z" fill="#d4eef4" fill-rule="nonzero" stroke="none" stroke-width="1" stroke-linecap="butt" stroke-linejoin="miter"/><path d="M383.55202,212.16371l4.17294,-0.43555l0.64329,6.1631l-4.17294,0.43555z" fill="#d4eef4" fill-rule="nonzero" stroke="none" stroke-width="1" stroke-linecap="butt" stroke-linejoin="miter"/><path d="M387.45172,242.06425l4.17294,-0.43555l0.64329,6.1631l-4.17294,0.43555z" fill="#d4eef4" fill-rule="nonzero" stroke="none" stroke-width="1" stroke-linecap="butt" stroke-linejoin="miter"/><path d="M274.49589,247.11539c0.32118,0.41161 1.07358,1.22335 -0.9467,2.65841c-2.02023,1.43498 -6.02832,0.35099 -6.49164,0.17676c-2.12851,-0.66811 -4.18139,-1.67795 -5.93849,-3.05251c-5.95148,-4.77615 -3.27423,-12.1778 -0.69295,-12.50285c2.6363,-0.33086 1.91947,4.52926 3.94079,8.43576c0.82715,1.52729 2.06586,2.73342 3.6004,3.57483c1.83849,1.0879 6.20168,0.24296 6.5286,0.7096z" fill="#f9a41f" fill-rule="evenodd" stroke="none" stroke-width="1" stroke-linecap="butt" stroke-linejoin="miter"/><path d="M262.6193,237.28226c0.45326,1.67756 1.33117,4.75758 1.33117,4.75758c-1.09176,-0.33118 -2.20408,-0.32638 -3.28197,0.00872c-1.50095,0.54612 -1.56934,2.55641 -2.21745,1.6781c-0.65622,-1.48946 -0.99376,-3.12348 -0.88515,-4.74845c0.16126,-2.18691 1.8522,-4.64471 3.08609,-4.55096c1.29473,0.14308 1.56326,1.11663 1.96731,2.85501z" fill="#ffffff" fill-rule="evenodd" stroke="none" stroke-width="1" stroke-linecap="butt" stroke-linejoin="miter"/><path d="M274.49589,247.11539c0.32118,0.41161 1.07358,1.22335 -0.9467,2.65841c-2.02023,1.43498 -6.02832,0.35099 -6.49164,0.17676c-2.12851,-0.66811 -4.18139,-1.67795 -5.93849,-3.05251c-5.95148,-4.77615 -3.27423,-12.1778 -0.69295,-12.50285c2.6363,-0.33086 1.91947,4.52926 3.94079,8.43576c0.82715,1.52729 2.06586,2.73342 3.6004,3.57483c1.83849,1.0879 6.20168,0.24296 6.5286,0.7096z" fill="none" fill-rule="evenodd" stroke="#231f20" stroke-width="0.85738" stroke-linecap="round" stroke-linejoin="round"/><path d="M310.03398,249.08161c3.92434,0.81451 10.95013,-0.64218 13.46822,-1.57268c4.01902,-1.47675 5.60637,5.20163 0.00258,6.95497c-5.65886,1.75915 -15.44939,-1.94855 -15.44939,-1.94855c-2.48172,-0.85378 -2.00077,-4.24255 1.97859,-3.43372z" fill="#f9a41f" fill-rule="evenodd" stroke="none" stroke-width="1" stroke-linecap="butt" stroke-linejoin="miter"/><path d="M310.03398,249.08161c3.92434,0.81451 10.95013,-0.64218 13.46822,-1.57268c4.01902,-1.47675 5.60637,5.20163 0.00258,6.95497c-5.65886,1.75915 -15.44939,-1.94855 -15.44939,-1.94855c-2.48172,-0.85378 -2.00077,-4.24255 1.97859,-3.43372z" fill="none" fill-rule="evenodd" stroke="#231f20" stroke-width="0.85738" stroke-linecap="round" stroke-linejoin="round"/><path d="M280.1316,245.66771c-0.94057,-1.01464 -1.97393,-1.85267 -3.15525,-2.50842c-0.70218,-1.9298 -0.96984,-3.96064 -0.73632,-5.98816c1.89594,1.63835 3.58891,3.46473 5.08472,5.53429c1.27318,1.53643 0.60993,4.77725 -1.19314,2.96229z" fill="#231f20" fill-rule="evenodd" stroke="#231f20" stroke-width="0.85738" stroke-linecap="round" stroke-linejoin="round" opacity="0.1"/><path d="M280.12267,245.5822c-5.23835,-5.40695 -8.44746,-2.56809 -11.37103,-4.98945c-2.37075,-1.92255 -1.5438,-6.79409 4.17299,-5.33209c3.94732,1.03471 8.33609,7.365 8.33609,7.365c1.33975,1.64072 0.67076,4.82651 -1.13806,2.95653z" fill="#f9a41f" fill-rule="evenodd" stroke="none" stroke-width="1" stroke-linecap="butt" stroke-linejoin="miter"/><path d="M280.12267,245.5822c-5.23835,-5.40695 -8.44746,-2.56809 -11.37103,-4.98945c-2.37075,-1.92255 -1.5438,-6.79409 4.17299,-5.33209c3.94732,1.03471 8.33609,7.365 8.33609,7.365c1.33975,1.64072 0.67076,4.82651 -1.13806,2.95653z" fill="none" fill-rule="evenodd" stroke="#231f20" stroke-width="0.85738" stroke-linecap="round" stroke-linejoin="round"/><path d="M292.00447,252.79965c0,0 -5.98761,3.40709 -16.8023,4.81411c-10.53946,1.3783 -15.99834,-0.27762 -15.60451,-3.43469c0.43499,-3.82911 4.01422,-2.58907 6.31698,-2.38428c2.12033,0.05691 4.23822,-0.44237 6.12788,-1.52989l-0.35377,-2.85651c0.04927,-0.06076 19.89038,-5.08075 20.31573,5.39125z" fill="#f9a41f" fill-rule="evenodd" stroke="none" stroke-width="1" stroke-linecap="butt" stroke-linejoin="miter"/><path d="M288.7875,251.29926c-0.33118,1.09176 -7.16982,3.80865 -11.31193,3.57331c-1.7901,-0.09137 -3.37627,-1.42815 -1.99598,-3.13024c2.06476,-2.60812 9.79943,-3.13723 9.79943,-3.13723z" fill="#ffffff" fill-rule="evenodd" stroke="none" stroke-width="1" stroke-linecap="butt" stroke-linejoin="miter"/><path d="M292.00447,252.79965c0,0 -5.98761,3.40709 -16.8023,4.81411c-10.53946,1.3783 -15.9409,0.27275 -15.60451,-3.43469c0.31915,-3.87264 4.01997,-2.53404 6.31698,-2.38428c2.01023,0.0684 4.00903,0.02669 5.99053,-0.18013l-0.21643,-4.20625c0.04927,-0.06076 19.89038,-5.08075 20.31573,5.39125z" fill="none" fill-rule="evenodd" stroke="#231f20" stroke-width="0.85738" stroke-linecap="round" stroke-linejoin="round"/><path d="M303.10397,220.53705l6.1891,-5.20862l1.07042,8.1233c2.22044,1.54879 3.99715,3.64472 5.09283,6.14551c1.82416,4.14968 1.21019,7.32974 1.21019,7.32974c0,0 3.6984,0.78247 3.83021,5.77654c0.27261,9.54206 -11.47817,14.77481 -25.71327,12.19869c-10.71905,-1.94147 -18.42332,-9.65063 -17.19923,-18.18035c1.09012,-7.68113 5.06651,-10.09933 5.06651,-10.09933l-0.08985,-13.12217l8.65482,7.22037c1.9298,-0.70218 4.00423,-1.08562 6.06954,-1.02297c1.95521,0.07414 3.87832,0.37417 5.81872,0.83932z" fill="#f9a41f" fill-rule="evenodd" stroke="none" stroke-width="1" stroke-linecap="butt" stroke-linejoin="miter"/><path d="M316.66652,236.92697c2.17778,0.60735 3.41082,1.75844 3.83021,5.77654c0.6123,5.33337 -5.94035,15.58782 -25.71327,12.19869c-6.73968,-1.13271 -13.75509,-4.90753 -10.55524,-13.69915c2.93861,-8.09662 15.02093,-1.62345 20.14566,-2.10273c5.0639,-0.52855 7.24781,-3.59425 12.29265,-2.17334z" fill="#ffffff" fill-rule="evenodd" stroke="none" stroke-width="1" stroke-linecap="butt" stroke-linejoin="miter"/><path d="M303.10397,220.53705l6.1891,-5.20862l1.07042,8.1233c2.22044,1.54879 3.99715,3.64472 5.09283,6.14551c1.82416,4.14968 1.21019,7.32974 1.21019,7.32974c0,0 3.6984,0.78247 3.83021,5.77654c0.27261,9.54206 -11.47817,14.77481 -25.71327,12.19869c-10.71905,-1.94147 -18.42332,-9.65063 -17.19923,-18.18035c1.09012,-7.68113 5.06651,-10.09933 5.06651,-10.09933l-0.08985,-13.12217l8.65482,7.22037c1.9298,-0.70218 4.00423,-1.08562 6.06954,-1.02297c1.95521,0.07414 3.87832,0.37417 5.81872,0.83932z" fill="none" fill-rule="evenodd" stroke="#231f20" stroke-width="0.85738" stroke-linecap="round" stroke-linejoin="round"/><path d="M292.0117,221.41667l-0.796,-0.69595" fill="none" fill-rule="evenodd" stroke="#231f20" stroke-width="0.85738" stroke-linecap="round" stroke-linejoin="round"/><path d="M278.91715,239.89644c0,0 -2.49991,0.03833 -3.78889,-0.04966c-1.34975,-0.13733 -2.70524,-0.32969 -4.07223,-0.63215" fill="none" fill-rule="evenodd" stroke="#231f20" stroke-width="0.85738" stroke-linecap="round" stroke-linejoin="round"/><path d="M271.23005,232.35239c1.50582,0.56618 2.91302,1.25397 4.22161,2.06327c1.36368,0.80362 2.6895,1.77805 3.91097,2.81905" fill="none" fill-rule="evenodd" stroke="#231f20" stroke-width="0.85738" stroke-linecap="round" stroke-linejoin="round"/><path d="M313.99647,229.47139c1.67722,3.2748 1.32361,6.81715 -0.68181,7.86112c-2.06045,1.04965 -5.03665,-0.8097 -6.71388,-4.08445c-1.67722,-3.2748 -1.32361,-6.81715 0.68181,-7.86112c1.99968,-1.099 5.03665,0.8097 6.71388,4.08445z" fill="#ffffff" fill-rule="evenodd" stroke="#231f20" stroke-width="0.85738" stroke-linecap="round" stroke-linejoin="round"/><path d="M313.09099,231.45776c0.06894,0.66055 -0.47907,1.27412 -1.13962,1.34306c-0.66048,0.06894 -1.27412,-0.47907 -1.34306,-1.13954c-0.06894,-0.66055 0.37471,-1.20761 1.02951,-1.33164c0.71556,-0.07468 1.38423,0.46764 1.45316,1.12812v0" fill="#231f20" fill-rule="evenodd" stroke="none" stroke-width="1" stroke-linecap="butt" stroke-linejoin="miter"/><path d="M297.29074,229.87966c1.67722,3.2748 1.05994,6.95596 -1.3744,8.15594c-2.43427,1.20004 -5.7785,-0.45406 -7.40071,-3.73454c-1.68297,-3.32983 -1.05988,-6.95597 1.3744,-8.15594c2.43428,-1.19997 5.77858,0.45405 7.40071,3.73454z" fill="#ffffff" fill-rule="evenodd" stroke="#231f20" stroke-width="0.85738" stroke-linecap="round" stroke-linejoin="round"/><path d="M296.23737,232.04838c-0.15126,0.68353 -0.77153,1.13772 -1.45504,0.98653c-0.68346,-0.15126 -1.13772,-0.77153 -0.98646,-1.45505c0.10193,-0.6227 0.72219,-1.07689 1.34489,-0.97497c0.72705,0.03535 1.24207,0.70495 1.09663,1.44349v0" fill="#231f20" fill-rule="evenodd" stroke="none" stroke-width="1" stroke-linecap="butt" stroke-linejoin="miter"/><path d="M303.98131,237.47203c1.1674,-0.01054 3.2911,-0.45481 3.32464,0.93278c-0.0469,0.61695 -1.43058,2.82015 -2.77458,2.73783c-1.344,-0.08226 -3.69745,-1.83977 -3.47637,-2.92004c0.22108,-1.08027 1.86903,-0.75152 2.92633,-0.75058z" fill="#231f20" fill-rule="evenodd" stroke="#231f20" stroke-width="0.85738" stroke-linecap="round" stroke-linejoin="round"/><path d="M308.89084,244.52695c-0.02149,1.39335 -9.17822,1.62573 -9.03176,-0.17011" fill="none" fill-rule="evenodd" stroke="#231f20" stroke-width="0.85738" stroke-linecap="round" stroke-linejoin="round"/><path d="M276.09101,248.53775c-0.23352,2.02746 -2.72619,3.73435 -5.50125,3.80148c-2.77513,0.06706 -4.77536,-1.50472 -4.48682,-3.53792c0.28853,-2.03327 2.72619,-3.73443 5.49558,-3.8565c2.77506,-0.06711 4.7811,1.55968 4.4925,3.59295z" fill="#f9a41f" fill-rule="evenodd" stroke="none" stroke-width="1" stroke-linecap="butt" stroke-linejoin="miter"/><path d="M276.09101,248.53775c-0.23352,2.02746 -2.72619,3.73435 -5.50125,3.80148c-2.77513,0.06706 -4.77536,-1.50472 -4.48682,-3.53792c0.28853,-2.03327 2.72619,-3.73443 5.49558,-3.8565c2.77506,-0.06711 4.7811,1.55968 4.4925,3.59295z" fill="none" fill-rule="evenodd" stroke="#231f20" stroke-width="0.85738" stroke-linecap="round" stroke-linejoin="round"/><path d="M326.96896,238.60899c-0.98835,0.65959 -2.10978,1.11049 -3.30347,1.402c-1.63978,0.28245 -3.23027,0.50408 -4.83801,0.5606" fill="none" fill-rule="evenodd" stroke="#231f20" stroke-width="0.85738" stroke-linecap="round" stroke-linejoin="round"/><path d="M325.54953,245.2673c-1.05156,0.05407 -2.11459,-0.00189 -3.18337,-0.11287c-1.3555,-0.19242 -2.61245,-0.50637 -3.83148,-0.99118" fill="none" fill-rule="evenodd" stroke="#231f20" stroke-width="0.85738" stroke-linecap="round" stroke-linejoin="round"/><path d="M463.44163,215.406c-5.14551,6.15303 -14.30478,6.96978 -20.4578,1.82429c-6.15303,-5.14551 -6.96979,-14.30478 -1.82429,-20.4578c5.14551,-6.15303 14.30478,-6.96978 20.4578,-1.82429c6.15303,5.14551 6.96978,14.30478 1.82429,20.4578z" fill="url(#color-1)" fill-rule="nonzero" stroke="none" stroke-width="1" stroke-linecap="butt" stroke-linejoin="miter"/><g fill-rule="nonzero" stroke="none" stroke-width="1.15473" stroke-linecap="butt" stroke-linejoin="miter"><g data-paper-data="{&quot;origPos&quot;:null,&quot;index&quot;:null}"><path d="M442.96817,287.26518c1.30992,-0.46743 2.21433,0.09244 3.61752,0.12386c2.05822,0.06277 3.61669,-0.49801 5.23793,0.7474c1.37185,1.06046 1.71458,3.5861 0.12559,4.36666c-2.37038,0.96627 -4.24107,1.21573 -6.60977,0.24856c-0.93576,-0.37415 -1.80876,-0.12386 -2.49424,-0.87383c-1.21747,-1.30735 -1.56021,-3.99085 0.12295,-4.61265z" fill="#ffffff"/><path d="M443.20713,291.3737c1.25236,0.31313 2.27362,0.99164 3.4457,1.36225c0.43782,0.13958 1.05532,0.17877 1.72508,0.12734c-1.12155,-0.91401 -2.29455,-2.10966 -2.29455,-2.10966c0.43079,-0.03746 2.64423,0.93841 3.73701,1.86805c0.80842,-0.21276 1.56369,-0.55201 2.06691,-1.00555c-1.08319,-0.30082 -2.90329,-1.61859 -3.49714,-2.03376c-0.18843,-0.33579 3.04542,0.3768 4.03874,1.20002c0.19448,-0.84506 -0.69069,-1.70755 -1.30901,-2.13231c-2.10096,-1.44511 -5.87371,-0.53109 -8.36711,-1.55235v-0.26692c3.32713,-0.07327 9.25664,-1.12329 10.82818,2.87714c0.24418,0.6218 -0.04623,2.08345 -0.37847,2.65125c-2.49083,4.2385 -12.97281,0.67414 -9.99535,-0.98553z" fill="#272525"/></g><g data-paper-data="{&quot;origPos&quot;:null,&quot;index&quot;:null}"><path d="M387.15702,272.0476c1.2288,-5.67749 7.79499,-2.04946 9.9264,-7.02841c1.44601,-3.37947 4.62745,-5.77779 7.40869,-3.96547c0.8974,0.58518 1.16513,3.36195 0.1046,5.20304c-2.19855,3.81987 -6.19023,5.19171 -10.52646,5.3417c-2.33117,0.28956 -4.48002,-0.17439 -6.71264,2.01457c-0.2006,-0.44304 -0.32885,-1.12677 -0.2006,-1.56542zM397.10441,270.23967c3.50326,-0.71159 6.79284,-2.72013 6.87397,-7.02924c-0.06186,-0.87912 -0.92096,-1.17993 -1.59857,-1.03697c-2.53177,0.532 -3.14662,3.78413 -4.94314,5.35914c-2.76462,2.42452 -8.00172,0.14916 -9.5296,4.6702c1.19218,-1.84539 5.33997,-1.17911 9.19736,-1.96313z" fill="#272525"/><path d="M397.43665,267.5326c1.79653,-1.57501 2.41138,-4.82714 4.94314,-5.35914c0.67762,-0.14297 1.53672,0.15785 1.59857,1.03697c-0.08111,4.30912 -3.3707,6.31764 -6.87397,7.02925c-3.85739,0.78403 -8.00519,0.11775 -9.19736,1.96313c1.52788,-4.52104 6.76499,-2.24568 9.5296,-4.6702z" fill="#4d58e1"/></g><g data-paper-data="{&quot;origPos&quot;:null,&quot;index&quot;:null}"><path d="M353.01618,289.94521c0.9184,-1.98232 3.41171,-3.23643 5.93133,-4.23238c3.49888,-0.71606 8.72811,-1.48263 8.74647,-1.47479c2.55617,-0.61658 5.70626,-0.85027 7.97898,-2.76719c0.08022,-0.06805 9.85843,-7.07554 11.81893,-7.85958c2.17944,-0.87126 4.86378,-0.55549 5.92165,0c5.15425,3.6821 7.6197,9.50875 14.84607,9.13717c8.32352,-0.42732 16.9086,-2.13405 25.22162,-3.07073c3.18061,-0.88434 5.97574,1.10501 7.83865,3.72394c2.08783,1.66836 1.38401,8.88953 0.69854,10.92766c-0.02356,-0.00786 -0.04623,-0.01572 -0.06714,-0.02531c-1.06484,4.24461 -7.25952,6.92812 -11.49364,6.70222c-3.56262,-0.191 -7.97988,0.00785 -10.94948,2.28586c-3.53029,2.7079 -10.98867,4.39461 -15.31003,4.05709c-9.46858,-0.73871 -12.66315,-7.69032 -12.82704,-7.59787c-0.83811,0.07674 -3.43702,1.22268 -3.70566,1.16075c-0.33753,-0.00173 -1.38053,-0.36629 -1.41807,-0.5459c-0.5974,-0.35845 0.24418,-1.25063 0.36365,-1.43378c1.70764,-2.61726 2.55186,-4.09372 2.50647,-7.53859c0,-0.00091 -0.39335,-2.3172 -0.39335,-2.3172c0,-0.5817 -0.58865,-0.38896 -0.81712,0.0645c-0.34885,0.44742 -0.70994,0.66976 -1.07359,1.36663c-5.76381,11.04887 -19.28426,21.43311 -31.14684,10.82033c-1.31686,-1.31686 -2.41229,-2.71311 -3.06981,-4.68584c0.00173,-1.9771 -0.65496,-4.60917 0.39937,-6.697" fill="#ffffff"/><path d="M434.39527,279.7641c0,0 1.81662,4.72421 1.16249,5.45068c-0.65405,0.72647 -1.78693,1.76171 -4.34574,2.00679c-2.55881,0.245 -2.92155,3.0088 -2.92155,3.0088c0,0 -3.4161,7.70256 -12.13727,3.63233c-8.72116,-4.07016 -8.43077,-1.88988 -9.59334,-1.30818c-1.16249,0.5817 -2.61629,3.19806 -7.34056,-0.07236c-4.72427,-3.27049 -8.38719,-1.71806 -8.72116,-2.11139c-0.33405,-0.39334 -1.57856,-0.1404 -1.57856,-0.1404c0,0 -0.05845,-3.26519 -1.85672,-0.10732c0,0 -2.74808,0.40293 -4.34228,-2.21947c-1.59427,-2.62247 -0.36365,-5.9243 -0.36365,-5.9243c0,0 4.65358,-7.60928 9.74061,-8.90961c0,0 4.36062,2.00762 6.8313,6.38569c2.47075,4.378 9.88374,2.33985 10.31982,2.52301c0.43601,0.18315 21.14974,-2.79604 25.14663,-2.21426z" fill="#4d58e1"/><path d="M376.4718,286.65296c-2.4524,0.72995 -3.34284,-3.47364 -3.34284,-3.47364c2.16373,-1.00472 10.17504,-7.41298 10.17504,-7.41298c-0.07243,2.98001 -4.37981,10.15668 -6.83221,10.88664z" fill="#4d58e1"/><g fill="#272525"><path d="M431.63411,302.49408c-0.34711,0.01918 -0.35844,0.02092 -0.13428,-0.01745c0.04448,0.00091 0.0898,0 0.13428,0.00091z"/><path d="M351.87114,291.93712c0.8721,-6.43191 9.32296,-7.15054 12.22972,-7.7601c0.35406,-0.1657 6.1589,-1.2288 9.01074,-1.68581v0c0,0 8.71331,-6.4397 8.91126,-6.62201c0.30874,-0.28601 0.61833,-0.55119 0.89302,-0.77791c2.95041,-2.43495 7.97641,-3.85739 11.47015,-1.81752c4.15647,2.42626 5.11407,7.70347 10.78981,7.91275c4.7356,0.17446 9.08483,-0.43345 13.74279,-1.17299c2.89369,-0.45958 11.57649,-0.98546 14.82342,-1.13462c0,0 4.28646,-0.6323 7.70256,3.32449c1.88376,2.84316 3.10296,7.82378 1.79305,10.68695l0.00959,-0.00264c-0.94884,7.75315 -10.42789,9.49304 -11.7474,9.58896c-4.11637,0.29915 -8.26945,0.49537 -12.21574,2.28932c-0.16925,0.08111 -0.35414,0.1648 -0.57211,0.25377c-2.96348,1.20267 -5.35922,3.67945 -16.25893,2.71055c-8.83015,-0.78494 -10.67034,-6.40306 -10.67034,-6.40306c0,0 -1.4852,-1.03349 -2.12711,-0.68026c-1.24451,0.68373 -4.24809,1.26981 -4.7958,-0.22242c1.67447,-1.71368 4.37104,-6.47285 3.42047,-11.56516c-0.42822,0.64711 -0.55813,1.07707 -1.27503,2.32158c-2.12015,3.74751 -4.61877,7.61011 -8.17784,10.18462c-3.90014,3.97506 -9.71191,4.91958 -14.99176,4.54286c-3.28876,-0.23466 -6.35337,-1.96488 -8.59119,-4.57776c-0.00264,-0.00091 -0.01133,-0.00347 -0.01133,-0.00347c0,0 -4.23419,-2.95827 -3.36203,-9.39011zM381.47778,278.19597c-0.00438,0.00264 -0.00959,0.00181 -0.01397,0.00438c-1.28196,1.28287 -3.82946,3.46324 -7.52636,4.98765c-0.04101,0.02009 -0.08028,0.03489 -0.12213,0.05407c0.0401,0.56342 0.36109,1.05789 0.55383,1.30908c0.30784,0.37589 0.62444,0.80842 1.0134,0.9881c1.55235,0.71945 3.87567,-1.25153 4.5437,-2.53524c0.97065,-1.87598 1.56021,-4.16872 2.8335,-5.974c-0.38806,0.35316 -0.87995,0.92444 -1.28197,1.16596zM386.46368,299.97191c1.61692,1.37358 3.71087,-1.14157 4.81929,-1.25584c0.47445,0.21631 1.05268,0.71078 1.45735,1.28553c-0.14131,-0.00264 -0.52158,-0.00612 -0.5678,-0.00091l0.5678,0.00091c0,0 2.02937,4.28993 8.40546,5.98185c6.37602,1.69192 17.28887,-3.07948 17.28887,-3.07948c0.65058,-0.32612 1.31596,-0.62701 2.0006,-0.89566c3.39865,-1.33431 7.27432,-1.7364 11.19886,-1.56021c7.6398,-0.52415 9.82967,-7.08423 9.82967,-7.08423h0.00084c0.23375,-1.12586 0.56426,-2.21342 0.51108,-3.43354c-0.11162,-2.57097 -0.65058,-4.8507 -1.93693,-6.92456c0,0 -1.47479,-2.04689 -5.06445,-2.37913c0.41425,0.49968 0.70035,1.49042 0.83116,1.8454c1.24972,3.41345 -0.97066,6.0743 -4.46787,5.90686c-1.29941,-0.06284 -3.9524,5.43588 -7.07893,6.89148c-2.50299,1.16249 -6.41273,1.72674 -8.63228,-0.34191c-1.76428,-1.64307 -3.42479,-2.41402 -6.09522,-2.12008c-2.30149,0.25377 -4.82632,1.57328 -5.85972,1.73981c-2.50126,0.40293 -3.93934,-0.93576 -6.3107,-1.85581c-2.30413,-0.89393 -4.01517,-1.56112 -6.31327,-1.69805l-1.41369,0.16132c0.40732,2.4934 -0.18141,6.13888 -3.17011,8.81626zM387.64974,288.56815c0.1762,-0.20151 0.35322,-0.25641 0.54068,-0.18927c-0.00084,-0.00091 -0.00084,-0.00173 -0.00084,-0.00264c0.00264,0.00091 0.00521,0.00347 0.00869,0.0052c0.0602,0.02274 0.12302,0.06193 0.1867,0.11253c0.34274,0.22416 0.65141,0.69076 0.89211,1.30818l0.97941,0.1762c2.85094,0.00257 4.74868,0.11073 7.43309,1.15117c2.23261,0.85729 3.32448,2.84746 5.67574,2.46719c0.73955,-0.11857 2.96084,-3.00093 6.99873,-2.94512c3.9114,0.05407 6.35246,3.81556 9.99445,3.97597c4.17218,0.18141 6.6316,-3.14836 8.36793,-6.43705c1.39715,-2.64869 3.80075,-1.50266 5.60249,-2.72542c1.47388,-1.00117 -0.20408,-3.89396 -0.06193,-4.88032c-0.22937,-0.00612 -0.46305,-0.00877 -0.70813,0c-8.32527,0.18572 -16.27721,0.927 -24.48299,2.68524c-10.06333,2.15587 -10.82124,-6.01063 -16.13937,-8.53371c-1.86631,-0.35316 -2.35647,-0.17183 -2.41138,-0.14736c-3.32108,1.55499 -10.14279,7.31964 -7.95111,12.23757c0.49363,1.11014 1.69192,1.55492 2.64861,2.24651l0.00264,-0.00084l1.41625,1.02127c0.34282,-0.51456 0.67942,-1.02563 1.0082,-1.52532zM355.92211,300.38006c0.5268,0.41343 0.81454,0.69687 0.94709,0.89309c4.7051,3.97944 11.54424,3.3254 16.96185,1.37797c5.11059,-2.03821 8.84503,-6.72578 11.95676,-11.28783l-2.02854,-1.21226c-0.14652,-0.06979 -0.28873,-0.15438 -0.4274,-0.25467l-0.07326,-0.04358l0.00786,-0.00264c-1.50613,-1.1529 -2.5335,-4.04311 -2.05384,-6.58183c0.70821,-3.73535 5.79613,-7.49237 8.25291,-9.22266c0.01918,-0.01397 0.04448,-0.02878 0.06714,-0.04366c-1.98844,-0.01654 -3.59925,0.65851 -5.19261,1.7809c-0.35232,1.00555 -1.22442,2.43411 -1.61163,3.13175c-1.3902,2.50912 -2.03731,5.30862 -4.16441,7.38422c-1.66133,1.61867 -3.99953,0.85126 -4.98151,-0.33835c-0.82935,-0.60956 -0.9776,-1.61338 -0.97851,-2.25965c-0.44742,0.14561 -0.99769,0.30875 -1.62478,0.48057c-0.0043,0.00084 -0.00869,0.00257 -0.01307,0.00348h0.00091c-2.76032,0.75178 -6.78507,1.6047 -7.92581,1.28024c0,0 -8.02354,1.15992 -9.316,4.63358c-1.29247,3.47364 -0.49099,8.17171 2.19689,10.28137z"/></g></g><g data-paper-data="{&quot;origPos&quot;:null,&quot;index&quot;:null}"><path d="M394.39562,277.60123c0.19274,-0.341 0.85374,-0.8329 1.13463,-1.19043c1.63521,-2.08874 1.98233,-3.89924 4.39808,-5.45862c6.77978,-4.37973 12.28808,0.70125 15.62225,-0.75087c0.97934,-0.42732 1.92477,-0.93924 2.90063,-1.3797c4.41817,-1.98837 11.44832,6.16938 0.17621,10.12179c-7.5447,2.64514 -12.76783,-5.94696 -17.33864,-3.1902c-1.74245,1.05003 -4.50011,2.77949 -6.5958,2.28238c-0.13602,-0.03142 -0.3863,-0.27385 -0.29734,-0.43435zM404.32202,273.56771c4.13125,1.00207 7.60921,4.86467 12.68144,4.07627c2.66523,-0.41516 5.36095,-2.00068 5.93307,-4.54196c0.15868,-0.70035 -0.0855,-2.11925 -1.1285,-2.73327c-1.78874,-1.05434 -3.83209,0.17793 -5.06089,1.22971c-2.90154,2.47859 -6.66303,0.23805 -9.61253,-0.69423c-4.27422,-0.87731 -8.4674,3.05419 -10.65289,5.97756c2.27619,-1.07013 5.01377,-3.57138 7.84031,-3.31406z" fill="#272525"/><path d="M407.13459,270.90421c2.9495,0.93228 6.71099,3.17282 9.61253,0.69423c1.2288,-1.05177 3.27215,-2.28404 5.06089,-1.2297c1.04301,0.61403 1.28719,2.03292 1.1285,2.73326c-0.57211,2.54129 -3.26783,4.1268 -5.93307,4.54196c-5.07223,0.7884 -8.55019,-3.0742 -12.68144,-4.07627c-2.82655,-0.25731 -5.56412,2.24394 -7.84031,3.31406c2.18548,-2.92337 6.37866,-6.85486 10.65289,-5.97756z" fill="#4d58e1"/></g><g data-paper-data="{&quot;origPos&quot;:null,&quot;index&quot;:null}"><path d="M380.00126,279.29224c1.71632,3.65944 -4.44514,7.21331 -4.77571,1.48702c-0.16827,-2.94172 3.48325,-4.24462 4.77571,-1.48702z" fill="#272525"/><path d="M379.01581,279.29224c1.94478,1.73203 -1.32389,4.8865 -2.64861,2.46116c-0.71863,-1.31513 0.90699,-4.01086 2.64861,-2.46116z" fill="#ffffff"/><path d="M377.44163,280.39288c0.14735,0.14652 0.23805,0.34884 0.23805,0.573c0,0.22408 -0.09071,0.42642 -0.23805,0.57294c-0.14652,0.14743 -0.34885,0.23814 -0.57301,0.23814c-0.22408,0 -0.42642,-0.09071 -0.57294,-0.23814c-0.14743,-0.14652 -0.23813,-0.34885 -0.23813,-0.57294c0,-0.22416 0.0907,-0.42649 0.23813,-0.573c0.14652,-0.14735 0.34885,-0.23805 0.57294,-0.23805c0.22416,0 0.42649,0.09072 0.57301,0.23805z" fill="#272525"/></g><g data-paper-data="{&quot;origPos&quot;:null,&quot;index&quot;:null}"><path d="M391.01962,280.92049c3.04368,4.72518 -6.06735,10.70092 -7.72348,4.3545c-1.24972,-4.7862 4.52451,-9.31857 7.72348,-4.3545z" fill="#272525"/><path d="M390.25387,282.02551c0.22589,4.03352 -5.22659,6.52428 -5.86146,2.79422c-0.53811,-3.16664 1.41196,-4.82451 3.36641,-4.91347c1.37358,-0.06284 2.43403,0.99678 2.49506,2.11925z" fill="#ffffff"/><path d="M386.52388,282.53568c0.27642,0.27733 0.44734,0.65934 0.44734,1.08055c0,0.4212 -0.17092,0.80321 -0.44734,1.08054c-0.27733,0.2765 -0.65934,0.44742 -1.08062,0.44742c-0.4212,0 -0.80321,-0.17091 -1.08054,-0.44742c-0.27642,-0.27733 -0.44733,-0.65933 -0.44733,-1.08054c0,-0.4212 0.17091,-0.80321 0.44733,-1.08055c0.27733,-0.2765 0.65934,-0.44742 1.08054,-0.44742c0.42128,0 0.80328,0.17091 1.08062,0.44742z" fill="#272525"/></g><g data-paper-data="{&quot;origPos&quot;:null,&quot;index&quot;:null}"><path d="M436.00863,269.96407c-2.52566,-1.56021 -5.42538,-2.37038 -7.6694,-3.3053c5.05048,-2.12446 9.32213,-2.24741 13.65564,0.18406c3.17977,1.77825 4.14697,5.01989 3.61669,8.606c-0.34364,2.40013 -0.99769,3.80248 -2.49424,5.73594c-0.19365,0.25815 -0.43526,0.46048 -0.68026,0.64975v0c0,0 -1.23492,2.11139 -1.60734,2.32159c0,0 -1.45734,0.89302 -2.65646,0.23896c-1.1992,-0.65413 -2.34779,-0.3262 -0.82157,-2.88848l1.11196,-2.44975c0.1404,-0.6925 0.21631,-1.43031 0.28866,-2.10882c0.34274,-2.93115 -0.21805,-5.42546 -2.7437,-6.98393z" fill="#ffffff"/><path d="M437.54188,272.56041c-1.66579,-2.94339 -6.73106,-5.03039 -10.86572,-5.7176c4.38849,-2.56492 15.61,-5.55015 19.04438,4.08761c1.46694,4.11728 -0.59824,8.51008 -3.54252,12.01432c-0.35927,0.42732 -1.04392,1.65265 -1.7198,1.42063c-0.65239,-0.22325 0.45172,-1.61338 0.4561,-1.62124c0.97065,-1.64132 1.58204,-2.71839 2.00414,-3.36988c1.77561,-2.74543 2.45587,-7.31012 0.45437,-10.07036c-3.01582,-4.16003 -9.53572,-4.47746 -13.8946,-2.53607c4.32656,0.13867 8.6575,2.75759 9.73019,5.79259c0.79105,2.23609 0.42476,6.52345 -1.02556,8.89035c-0.00091,0.00091 -0.00091,0.00264 -0.00173,0.00438c-0.61221,1.26106 -1.21665,1.54186 -1.74079,1.18168c-0.52415,-0.36018 0.65587,-2.04946 0.65587,-2.04946c1.47736,-2.22566 1.76255,-5.69931 0.44567,-8.02694z" fill="#272525"/></g><g data-paper-data="{&quot;origPos&quot;:null,&quot;index&quot;:null}"><path d="M347.40411,289.74114c1.0492,-8.95839 17.81831,-5.75249 19.72471,1.24882c2.29454,8.42466 -10.4785,9.82272 -15.56122,6.3613c-2.62769,-1.79139 -4.55072,-4.29522 -4.1635,-7.61012zM348.84227,291.55776c0.90789,6.44755 11.13172,7.08332 15.37105,3.71087c1.09889,-0.87391 1.80876,-2.21351 1.36225,-3.51987c-2.30761,-6.76415 -17.77457,-7.59969 -16.7333,-0.191z" fill="#272525"/><path d="M365.57647,291.74877c0.44651,1.30637 -0.26426,2.64596 -1.36225,3.51987c-4.2394,3.37245 -14.46323,2.73667 -15.37105,-3.71087c-1.04217,-7.40869 14.42478,-6.57315 16.7333,0.191z" fill="#8b4cb1"/></g><g data-paper-data="{&quot;origPos&quot;:null,&quot;index&quot;:null}"><path d="M391.36409,301.81119c0.51192,0.3166 5.55453,-3.00094 8.1761,-1.98837c3.89486,1.5044 0.43782,4.34658 0.36108,4.3789c-9.00552,3.77802 -24.60329,16.94002 -30.34444,6.69263c-3.60974,-6.44498 13.99837,-6.80251 21.80726,-9.08316z" fill="#ffffff"/><path d="M379.86433,302.85336c4.02831,-0.79445 8.11334,-1.55318 12.18092,-2.16366l-0.0105,-0.00529l1.11453,-0.16396c0,0 0.93666,-0.48661 1.22714,0.13172c0.29039,0.61833 -0.88434,0.84075 -0.88434,0.84075c-1.25592,0.51803 -14.44495,3.07767 -19.0811,4.73296c-0.91401,0.32529 -2.25965,1.09104 -3.23469,2.06079c1.84366,-0.45263 4.59959,-0.66802 4.59959,-0.66802c-0.36547,0.52241 -4.1243,2.30761 -5.61646,2.08957c-0.34364,0.80933 -0.29999,1.6719 0.4666,2.49688c0.49711,0.53639 1.10055,0.93145 1.77122,1.22185c0.45791,-1.01779 3.86087,-2.3277 4.83243,-2.72104c0.4212,0.02621 -1.85324,2.31728 -3.42395,3.14488c4.41379,0.89045 10.7454,-1.56458 13.7795,-3.27396c3.66284,-2.06427 7.41647,-4.0518 11.0244,-6.20859c0,0 1.24104,-0.82852 1.60906,-0.46395c0.53109,0.5268 -0.28866,1.19738 -0.30527,1.21226c-2.5474,2.27272 -15.24635,8.3008 -19.48304,9.66132c-2.2126,0.71077 -4.43479,0.81802 -6.73893,0.45436c-1.84796,-0.2913 -4.40155,-1.88028 -4.99723,-3.74751c-1.79744,-5.63036 7.4636,-7.90134 11.17009,-8.63137z" fill="#272525"/></g><g data-paper-data="{&quot;origPos&quot;:null,&quot;index&quot;:null}"><path d="M386.14444,315.28458c3.74055,-3.32102 11.14834,-6.1153 15.1836,-8.19876c1.34571,-0.69423 2.40617,-1.83407 2.28057,-1.8611c2.05384,-1.30032 4.76876,-4.09463 7.38513,-4.87601c1.43551,-0.42913 6.59846,0.04622 6.43795,3.355c-2.38525,1.45817 -4.25595,3.2609 -6.96732,5.65657c-7.48368,6.64203 -12.84631,15.21585 -20.26806,16.27721c-3.2198,0.45958 -6.29755,0.31049 -8.04355,-2.43238c-1.77643,-2.83871 1.48611,-5.69667 3.99168,-7.92052z" fill="#ffffff"/><path d="M382.13275,317.98031c2.7088,-4.09115 14.65242,-9.70844 18.83775,-11.85382c0.87648,-0.43956 2.14804,-1.24452 3.42305,-1.48702c0.24508,0.08376 0.41162,0.14478 0.45437,0.16925c0.21367,0.12032 0.51546,0.59733 0.26601,0.83282c-0.31222,0.2922 -4.43124,2.4027 -5.12018,2.75246c-4.77662,2.43404 -10.38432,4.83236 -14.41611,8.41507c-1.42592,1.26543 -2.92594,3.24511 -2.46025,5.26141c0.06277,0.27038 0.19356,0.56953 0.36018,0.86432c0.85729,-1.39715 4.22891,-3.97772 4.22891,-3.97772c-0.02009,0.64182 -2.24484,4.2533 -3.61231,4.8298c0.24153,0.2651 0.50497,0.49008 0.76568,0.63049c0.87821,0.47271 2.06434,0.63669 3.27834,0.60179c0.17529,-1.2689 2.0154,-3.81026 2.56576,-4.59694c0.36713,-0.20581 -0.28261,2.91378 -1.14247,4.47482c1.02126,-0.16132 1.98496,-0.45089 2.71748,-0.81975c9.94128,-5.0112 16.03741,-15.61787 25.12314,-21.16893l0.03308,-0.03489c0,0 1.71813,-1.21135 1.89599,-0.39764c0.13172,0.60435 -0.63404,1.6343 -1.74335,2.41486c-0.04448,0.03142 -6.99435,4.87948 -9.55837,7.63889c-4.46878,4.80539 -11.67679,12.99109 -18.36156,14.27223c-2.6042,0.49885 -6.29325,-0.36977 -7.83775,-2.64952c-1.19134,-1.75998 -0.83116,-4.46091 0.30263,-6.17195z" fill="#272525"/></g><g data-paper-data="{&quot;origPos&quot;:null,&quot;index&quot;:null}"><path d="M432.61527,297.6748c1.53227,-2.29107 3.8818,-3.30968 6.63856,-2.86582c0.16223,0.02621 0.30436,0.00091 0.43518,-0.04448c6.33335,0.03927 9.35346,0.76576 15.87518,1.55417c3.14828,0.37499 7.79499,2.02672 7.79499,5.176c0,3.1797 -3.67953,4.5838 -6.85923,4.49052c-3.3053,-0.09417 -13.46984,-3.67945 -16.96185,-4.49052c-2.87012,-0.66372 -5.41405,-1.18175 -7.87173,-1.43725c0.24251,-0.99339 0.63932,-1.91783 0.94891,-2.38261z" fill="#ffffff"/><path d="M429.96228,299.82282c0.29039,-0.94452 2.79604,-0.21456 3.53641,-0.10905c0.01133,0.00173 0.02265,0.00876 0.03489,0.0105c3.57833,0.49008 7.07463,1.35788 10.16106,2.34945c3.79281,1.21921 9.03777,3.54252 13.29629,3.34548c-1.53052,-1.12246 -3.46315,-3.09081 -3.46315,-3.09081c0.61833,-0.05491 4.22106,1.58816 5.13589,2.8597c1.11453,-0.29048 2.01895,-0.92798 2.5684,-1.73029c-1.13636,0.10725 -4.01615,-1.97976 -4.86467,-2.57105c-0.25558,-0.45784 4.62133,0.6567 5.26059,1.79222c0.47354,-1.29768 0.09855,-2.7986 -1.57849,-3.86087c-4.33276,-2.74278 -16.93744,-2.6739 -20.36487,-3.49804l-0.00257,-0.00091c-0.04539,-0.01133 -0.09335,-0.02092 -0.1352,-0.03308c-0.68464,-0.17009 -3.55997,-0.93931 0.44567,-0.92707c1.02209,0.00257 1.59155,0.00869 1.86715,0.01572c7.29177,-0.15876 21.62766,0.95057 21.75062,7.32138c0.03224,1.69887 -1.43023,3.89138 -2.91544,4.6554c-4.73734,2.43933 -15.76356,-3.33151 -27.57728,-4.71468c-0.00084,-0.00091 -3.44661,-0.86953 -3.15531,-1.81398zM440.2812,294.43135v0c0.0043,0 0.00869,0 0.01307,0c-0.00877,0 -0.01307,0 -0.01307,0z" fill="#272525"/></g></g><path d="M346.40802,158.50403c0.4287,0.6859 1.4575,2.05769 -1.8863,3.944c-3.3437,1.8862 -9.3453,-0.4287 -10.0312,-0.7717c-3.1723,-1.3718 -6.1731,-3.258 -8.6595,-5.6586c-8.4023,-8.3166 -3.0866,-19.291 0.9431,-19.3767c4.1154,-0.0858 2.2292,7.2877 4.7155,13.6322c1.0289,2.4864 2.7436,4.5441 4.9728,6.0874c2.6579,1.972 9.5169,1.3718 9.9456,2.14341z" fill="#1ec5fa" fill-rule="evenodd" stroke="none" stroke-width="1" stroke-linecap="butt" stroke-linejoin="miter"/><path d="M329.68921,141.44233c0.4286,2.6578 1.286,7.5449 1.286,7.5449c-1.629,-0.6859 -3.3437,-0.8574 -5.0585,-0.5144c-2.4006,0.6001 -2.8293,3.6867 -3.6867,2.2291c-0.7716,-2.4006 -1.0289,-4.9727 -0.6002,-7.4591c0.6002,-3.3438 3.601,-6.859 5.4872,-6.5161c1.972,0.4287 2.2292,1.972 2.5722,4.7156z" fill="#ffffff" fill-rule="evenodd" stroke="none" stroke-width="1" stroke-linecap="butt" stroke-linejoin="miter"/><path d="M346.40802,158.50403c0.4287,0.6859 1.4575,2.05769 -1.8863,3.944c-3.3437,1.8862 -9.3453,-0.4287 -10.0312,-0.7717c-3.1723,-1.3718 -6.1731,-3.258 -8.6595,-5.6586c-8.4023,-8.3166 -3.0866,-19.291 0.9431,-19.3767c4.1154,-0.0858 2.2292,7.2877 4.7155,13.6322c1.0289,2.4864 2.7436,4.5441 4.9728,6.0874c2.6579,1.972 9.5169,1.3718 9.9456,2.14341z" fill="none" fill-rule="evenodd" stroke="#231f20" stroke-width="0.85738" stroke-linecap="round" stroke-linejoin="round"/><path d="M400.85131,167.24933c5.9159,1.8862 16.976,0.7716 21.0057,-0.2572c6.4303,-1.6291 7.8021,8.9167 -1.1146,10.7171c-9.0025,1.8005 -23.4921,-5.4872 -23.4921,-5.4872c-3.6867,-1.7147 -2.4006,-6.859 3.601,-4.9727z" fill="#f9a41f" fill-rule="evenodd" stroke="none" stroke-width="1" stroke-linecap="butt" stroke-linejoin="miter"/><path d="M400.85131,167.24933c5.9159,1.8862 16.976,0.7716 21.0057,-0.2572c6.4303,-1.6291 7.8021,8.9167 -1.1146,10.7171c-9.0025,1.8005 -23.4921,-5.4872 -23.4921,-5.4872c-3.6867,-1.7147 -2.4006,-6.859 3.601,-4.9727z" fill="#1ec5fa" fill-rule="evenodd" stroke="#231f20" stroke-width="0.85738" stroke-linecap="round" stroke-linejoin="round"/><path d="M355.32472,157.17972c-1.2861,-1.7147 -2.7436,-3.1722 -4.4584,-4.3726c-0.7716,-3.0865 -0.8574,-6.2588 -0.1715,-9.3454c2.6579,2.8294 4.9728,5.91591 6.9448,9.34541c1.7147,2.5722 0.1715,7.4592 -2.3149,4.3726z" fill="#231f20" fill-rule="evenodd" stroke="#231f20" stroke-width="0.85738" stroke-linecap="round" stroke-linejoin="round" opacity="0.1"/><path d="M355.32472,157.04653c-7.202,-9.1739 -12.6034,-5.3157 -16.7188,-9.5169c-3.3438,-3.3437 -1.2861,-10.7171 7.2876,-7.5449c5.9159,2.2292 11.6603,12.6892 11.6603,12.6892c1.8005,2.7436 0.2573,7.5449 -2.2291,4.3726z" fill="#1ec5fa" fill-rule="evenodd" stroke="none" stroke-width="1" stroke-linecap="butt" stroke-linejoin="miter"/><path d="M355.32472,157.04653c-7.202,-9.1739 -12.6034,-5.3157 -16.7188,-9.5169c-3.3438,-3.3437 -1.2861,-10.7171 7.2876,-7.5449c5.9159,2.2292 11.6603,12.6892 11.6603,12.6892c1.8005,2.7436 0.2573,7.5449 -2.2291,4.3726z" fill="none" fill-rule="evenodd" stroke="#231f20" stroke-width="0.85738" stroke-linecap="round" stroke-linejoin="round"/><path d="M372.47222,170.07863c0,0 -9.7741,4.2869 -26.6644,4.7156c-16.4616,0.4287 -24.6067,-3.0008 -23.4921,-7.8021c1.2861,-5.8302 6.6018,-3.34381 10.1171,-2.6579c3.258,0.4287 6.6017,0 9.6883,-1.3718l-0.0857,-4.4584c0.0857,-0.0857 31.4656,-4.62979 30.4368,11.57461z" fill="#1ec5fa" fill-rule="evenodd" stroke="none" stroke-width="1" stroke-linecap="butt" stroke-linejoin="miter"/><path d="M367.75662,167.24933c-0.6859,1.629 -11.6603,4.7155 -18.0049,3.6867c-2.7436,-0.4287 -4.9727,-2.7436 -2.5721,-5.1443c3.601,-3.6867 15.6042,-3.258 15.6042,-3.258z" fill="#ffffff" fill-rule="evenodd" stroke="none" stroke-width="1" stroke-linecap="butt" stroke-linejoin="miter"/><path d="M372.47222,170.07863c0,0 -9.7741,4.2869 -26.6644,4.7156c-16.4616,0.4287 -24.6067,-2.1435 -23.4921,-7.8021c1.1146,-5.9159 6.6018,-3.25811 10.1171,-2.6579c3.0865,0.4287 6.1731,0.6859 9.2596,0.6859l0.343,-6.51609c0.0857,-0.0857 31.4656,-4.6298 30.4368,11.5746z" fill="none" fill-rule="evenodd" stroke="#231f20" stroke-width="0.85738" stroke-linecap="round" stroke-linejoin="round"/><path d="M394.76391,122.15132l10.3743,-7.03039l0.3429,12.6891c3.1723,2.7436 5.5729,6.2589 6.859,10.2885c2.1434,6.6875 0.6859,11.4888 0.6859,11.4888c0,0 5.5729,1.8005 4.9728,9.5169c-1.1146,14.7469 -20.0626,20.92 -41.5827,14.6611c-16.2044,-4.7155 -26.8358,-17.8334 -23.5778,-30.7797c2.9151,-11.6603 9.4311,-14.7469 9.4311,-14.7469l1.972,-20.234l12.1747,12.5176c3.0865,-0.7716 6.3446,-1.0288 9.5169,-0.6001c3.0008,0.4287 5.9158,1.2003 8.8309,2.2291z" fill="#1ec5fa" fill-rule="evenodd" stroke="none" stroke-width="1" stroke-linecap="butt" stroke-linejoin="miter"/><path d="M413.02602,149.58733c3.258,1.2861 4.9728,3.2581 4.9728,9.5169c0.0857,8.3165 -11.6603,23.0634 -41.5827,14.6611c-10.2028,-2.8293 -20.4055,-9.7741 -14.061,-22.8062c5.8302,-12.0032 23.4064,-0.0857 31.38,0c7.8878,0 11.746,-4.3726 19.2909,-1.3718z" fill="#ffffff" fill-rule="evenodd" stroke="none" stroke-width="1" stroke-linecap="butt" stroke-linejoin="miter"/><path d="M394.76391,122.15132l10.3743,-7.03039l0.3429,12.6891c3.1723,2.7436 5.5729,6.2589 6.859,10.2885c2.1434,6.6875 0.6859,11.4888 0.6859,11.4888c0,0 5.5729,1.8005 4.9728,9.5169c-1.1146,14.7469 -20.0626,20.92 -41.5827,14.6611c-16.2044,-4.7155 -26.8358,-17.8334 -23.5778,-30.7797c2.9151,-11.6603 9.4311,-14.7469 9.4311,-14.7469l1.972,-20.234l12.1747,12.5176c3.0865,-0.7716 6.3446,-1.0288 9.5169,-0.6001c3.0008,0.4287 5.9158,1.2003 8.8309,2.2291z" fill="none" fill-rule="evenodd" stroke="#231f20" stroke-width="0.85738" stroke-linecap="round" stroke-linejoin="round"/><path d="M377.53072,121.72273l-1.1146,-1.2004" fill="none" fill-rule="evenodd" stroke="#231f20" stroke-width="0.85738" stroke-linecap="round" stroke-linejoin="round"/><path d="M354.38162,148.09163c0,0 -3.8582,-0.343 -5.8302,-0.6859c-2.0577,-0.4287 -4.1154,-0.9431 -6.1731,-1.629" fill="none" fill-rule="evenodd" stroke="#ffffff" stroke-width="0.85738" stroke-linecap="round" stroke-linejoin="round"/><path d="M343.75012,135.23093c2.2292,1.1146 4.2869,2.4007 6.1731,3.8582c1.972,1.4576 3.8582,3.1723 5.5729,4.9728" fill="none" fill-rule="evenodd" stroke="#ffffff" stroke-width="0.85738" stroke-linecap="round" stroke-linejoin="round"/><path d="M410.11092,137.66983c2.0577,5.3158 0.9431,10.7172 -2.3149,12.0033c-3.3437,1.286 -7.6306,-2.0577 -9.6883,-7.3734c-2.0577,-5.3158 -0.9431,-10.7172 2.3149,-12.0033c3.258,-1.3718 7.6306,2.0577 9.6883,7.3734z" fill="#ffffff" fill-rule="evenodd" stroke="#231f20" stroke-width="0.85738" stroke-linecap="round" stroke-linejoin="round"/><path d="M408.39622,140.58493c0,1.0289 -0.9431,1.8862 -1.972,1.8862c-1.0288,0 -1.8862,-0.9431 -1.8862,-1.9719c0,-1.0289 0.7716,-1.8005 1.8005,-1.8863c1.1146,0 2.0577,0.9432 2.0577,1.972v0" fill="#231f20" fill-rule="evenodd" stroke="none" stroke-width="1" stroke-linecap="butt" stroke-linejoin="miter"/><path d="M384.30392,135.61213c2.0577,5.3158 0.5145,10.8887 -3.4295,12.3462c-3.9439,1.4576 -8.8309,-1.629 -10.8029,-6.9447c-2.0577,-5.4015 -0.5144,-10.8887 3.4295,-12.3462c3.9439,-1.4575 8.831,1.62901 10.8029,6.9447z" fill="#ffffff" fill-rule="evenodd" stroke="#231f20" stroke-width="0.85738" stroke-linecap="round" stroke-linejoin="round"/><path d="M382.33202,138.78443c-0.343,1.0289 -1.3718,1.629 -2.4007,1.2861c-1.0288,-0.343 -1.629,-1.3718 -1.286,-2.4007c0.2572,-0.9431 1.286,-1.5432 2.2291,-1.286c1.1146,0.1714 1.8005,1.286 1.4576,2.4006v0" fill="#231f20" fill-rule="evenodd" stroke="none" stroke-width="1" stroke-linecap="butt" stroke-linejoin="miter"/><path d="M393.39212,148.38703c1.8005,0.1715 5.1443,-0.1715 4.9728,1.972c-0.1715,0.9431 -2.6579,4.1154 -4.7156,3.7724c-2.0577,-0.3429 -5.4014,-3.4295 -4.887,-5.0585c0.5144,-1.629 3.0008,-0.8574 4.6298,-0.6859z" fill="#231f20" fill-rule="evenodd" stroke="#231f20" stroke-width="0.85738" stroke-linecap="round" stroke-linejoin="round"/><path d="M399.82242,160.04733c-0.2572,2.1435 -14.4039,1.0289 -13.8894,-1.7147" fill="none" fill-rule="evenodd" stroke="#231f20" stroke-width="0.85738" stroke-linecap="round" stroke-linejoin="round"/><path d="M348.63712,160.95223c-0.6859,3.0865 -4.8013,5.3157 -9.0881,4.9728c-4.2869,-0.343 -7.1162,-3.0866 -6.3446,-6.1731c0.7716,-3.0866 4.8013,-5.3158 9.0882,-5.0585c4.2868,0.3429 7.1162,3.1722 6.3445,6.2588z" fill="#1ec5fa" fill-rule="evenodd" stroke="none" stroke-width="1" stroke-linecap="butt" stroke-linejoin="miter"/><path d="M348.63712,160.95223c-0.6859,3.0865 -4.8013,5.3157 -9.0881,4.9728c-4.2869,-0.343 -7.1162,-3.0866 -6.3446,-6.1731c0.7716,-3.0866 4.8013,-5.3158 9.0882,-5.0585c4.2868,0.3429 7.1162,3.1722 6.3445,6.2588z" fill="none" fill-rule="evenodd" stroke="#231f20" stroke-width="0.85738" stroke-linecap="round" stroke-linejoin="round"/><path d="M428.63022,153.83602c-1.629,0.8574 -3.4295,1.3718 -5.3157,1.629c-2.5721,0.1715 -5.0585,0.2572 -7.5449,0.0857" fill="none" fill-rule="evenodd" stroke="#ffffff" stroke-width="0.85738" stroke-linecap="round" stroke-linejoin="round"/><path d="M425.37222,163.86733c-1.629,-0.0858 -3.258,-0.343 -4.887,-0.6859c-2.0577,-0.5145 -3.944,-1.2004 -5.7444,-2.1435" fill="none" fill-rule="evenodd" stroke="#ffffff" stroke-width="0.85738" stroke-linecap="round" stroke-linejoin="round"/><path d="M495.90744,134.12301c-4.43694,5.30572 -12.33491,6.00999 -17.64062,1.57307c-5.30572,-4.43694 -6.01,-12.33491 -1.57307,-17.64062c4.43694,-5.30572 12.33491,-6.00999 17.64062,-1.57307c5.30572,4.43694 6.00999,12.33491 1.57307,17.64062z" fill="url(#color-2)" fill-rule="nonzero" stroke="none" stroke-width="1" stroke-linecap="butt" stroke-linejoin="miter"/><path d="M493.90744,281.123c-4.43694,5.30571 -12.33492,6.00999 -17.64062,1.57307c-5.30572,-4.43694 -6.01,-12.33492 -1.57307,-17.64062c4.43694,-5.30572 12.33492,-6.00999 17.64062,-1.57307c5.30572,4.43694 6.00999,12.33492 1.57307,17.64062z" fill="url(#color-3)" fill-rule="nonzero" stroke="none" stroke-width="1" stroke-linecap="butt" stroke-linejoin="miter"/></g></g></svg>