<svg version="1.1" xmlns="http://www.w3.org/2000/svg" xmlns:xlink="http://www.w3.org/1999/xlink" width="29.69561" height="44.59876" viewBox="0,0,29.69561,44.59876"><g transform="translate(1.18311,-5.33458)"><g data-paper-data="{&quot;isPaintingLayer&quot;:true}" fill-rule="nonzero" stroke-miterlimit="10" stroke-dasharray="" stroke-dashoffset="0" style="mix-blend-mode: normal"><g><path d="M9.74984,27.58968c0,-0.30682 0.08607,-0.74756 0.56215,-0.84704c0.68686,-0.14409 1.47273,0.55142 1.68647,0.75606c-0.01581,0.08143 0.25146,1.72449 0.25146,1.86694c0,0.48162 -0.12871,0.5007 -0.17866,0.50862c-0.47029,0.06846 -1.72361,-1.24945 -2.29889,-2.01624c-0.00791,-0.04162 -0.02253,-0.13425 -0.02253,-0.26833v0z" fill="#ffc93e" stroke="#603813" stroke-width="1.32684" stroke-linecap="butt" stroke-linejoin="miter"/><path d="M7.84545,29.89199c-0.34095,-0.36991 -0.38958,-1.37235 -0.38958,-1.79877c0,-0.18094 0.00924,-0.30129 0.00969,-0.30502l0.0006,-0.00926c0,0 -0.00105,-0.03862 -0.00105,-0.05279c0,-0.80305 0.73936,-1.08181 0.86465,-1.12372c0.42807,0.00522 1.16801,0.20776 1.34461,0.51338c0.01789,0.03071 0.0346,0.06949 0.0346,0.11916c0,0.04357 -0.01297,0.09636 -0.04995,0.16005c-0.01716,0.02922 -0.32114,0.74756 -0.57827,1.29838l-0.18375,0.50936c-0.13752,0.44506 -0.35394,0.89044 -0.58946,0.89044c-0.18613,0.00029 -0.33724,-0.06563 -0.46208,-0.20122v0z" fill="#ffc93e" stroke="#603813" stroke-width="1.32684" stroke-linecap="butt" stroke-linejoin="miter"/><path d="M17.48833,24.07026l-0.33244,-0.58661c-0.36408,-0.63405 -0.78471,-1.21457 -1.15564,-1.72557c-0.47685,-0.65819 -0.89179,-1.33923 -1.02916,-1.8204c-0.04953,-0.17332 -0.02565,-0.33872 0.04564,-0.43015c0.00686,-0.02462 0.07876,-0.06383 0.12946,-0.07428c0.61093,-0.132 3.13982,1.31985 3.77074,2.0959c0.9243,1.13656 1.29389,2.73085 1.08777,3.53388c-0.08458,0.32813 -0.2737,0.56066 -0.54754,0.67134c-0.69999,0.28278 -1.16041,-0.22762 -1.96883,-1.6641v0z" fill="#ffc93e" stroke="#603813" stroke-width="1.32684" stroke-linecap="butt" stroke-linejoin="miter"/><path d="M7.53357,12.8662c0.89777,-0.48789 -0.02877,-2.32486 -0.9252,-4.10185c-0.48996,-0.9716 -1.36369,-2.61256 -1.07972,-2.76635c0.54934,-0.29771 3.17368,2.79931 4.2376,4.04755l1.08449,1.2353c0,0 0.7753,0.95114 1.36861,1.57849c0.01045,0.01088 0.57142,-0.07621 0.95892,-0.39825c0.3159,-0.26354 0.27413,-0.55842 0.37467,-1.1786c0.09231,-0.56977 0.19256,-1.60086 0.49832,-1.60607c0.46058,-0.00701 0.76337,1.8914 0.88133,2.59465l0.06517,0.37617c0.15468,0.83644 0.9616,3.35132 0.9962,3.45795c0.01104,0.02595 0.02925,0.05967 0.02925,0.05967l0.0067,0.01358l0.00924,0.01133c1.24604,1.54538 2.17273,3.41917 2.17273,5.17471c0,3.71749 -3.25869,6.33437 -7.62053,6.33437c-0.809,0 -1.60025,-0.11336 -2.35184,-0.3362l-0.04042,-0.01162c0,0 -1.17979,-0.09919 -2.68908,1.8847c-0.30277,0.39823 -0.2758,0.76948 -0.70251,0.65523c-0.14229,-0.03804 -0.24686,-0.14261 -0.33216,-0.33247c-0.20405,-0.45282 -0.05342,-1.52568 0.19598,-2.21118l0.03923,-0.1077l-0.09009,-0.07129c-0.02208,-0.01761 -2.46999,-1.80132 -2.71727,-4.35736c-0.21554,-2.22803 0.90998,-3.49657 1.37698,-4.19373l0.26833,-0.44686c0.33872,-0.82407 -0.29877,-1.97015 -0.86137,-2.98141c-0.33588,-0.60376 -0.87807,-1.48481 -0.75561,-1.69185c0.13589,-0.22939 0.62153,0.01477 1.11194,0.24865c0.39764,0.19002 0.78023,0.45849 1.04586,0.28144c0.27624,-0.1839 0.09501,-0.64583 -0.15601,-1.28525c-0.23611,-0.60048 -0.68313,-1.54908 -0.51145,-1.94061c0.04728,-0.10769 0.13021,-0.18332 0.25355,-0.23119c0.45613,-0.1766 1.10821,0.59169 1.63607,1.19262c0.6439,0.73369 1.37414,1.56507 2.22207,1.10344v0z" fill="#ffc93e" stroke="#603813" stroke-width="1.32684" stroke-linecap="round" stroke-linejoin="round"/><g stroke="none" stroke-width="0.66342" stroke-linecap="butt" stroke-linejoin="miter"><path d="M8.28635,21.63667v0c0,-0.67088 0.54381,-1.215 1.21486,-1.21529c0.67074,0 1.21455,0.54441 1.21455,1.21529c0,0.67045 -0.54367,1.21412 -1.21455,1.21412c-0.6709,0 -1.21486,-0.54367 -1.21486,-1.21412z" fill="#ffffff"/><path d="M9.66467,20.74891c0.23579,0 0.44954,0.09578 0.60422,0.25059c0.15481,0.15468 0.25056,0.36839 0.25056,0.60421c0,0.23582 -0.09575,0.44956 -0.25056,0.60422c-0.15468,0.15483 -0.36842,0.25059 -0.60422,0.25059c-0.23582,0 -0.44956,-0.09575 -0.60421,-0.25059c-0.15484,-0.15465 -0.25059,-0.3684 -0.25059,-0.60422c0,-0.23582 0.09575,-0.44953 0.25059,-0.60421c0.15466,-0.15481 0.36839,-0.25059 0.60421,-0.25059z" fill="#603813"/></g><g stroke="none" stroke-width="0.66342" stroke-linecap="butt" stroke-linejoin="miter"><path d="M14.13791,21.63667v0c0,-0.67088 0.54381,-1.215 1.215,-1.21529c0.67074,0 1.21457,0.54441 1.21457,1.21529c0,0.67045 -0.54412,1.21412 -1.21457,1.21412c-0.67119,0 -1.215,-0.54367 -1.215,-1.21412z" fill="#ffffff"/><path d="M14.6613,21.60371v0c0,-0.47193 0.38242,-0.8548 0.85464,-0.8548c0.47191,0 0.85478,0.38303 0.85478,0.8548c0,0.47238 -0.38287,0.85449 -0.85478,0.85449c-0.47222,0 -0.85464,-0.38242 -0.85464,-0.85449z" fill="#603813"/></g><path d="M-0.10081,26.3259c-0.24895,-0.15899 -0.39243,-0.4215 -0.41554,-0.76008c-0.05623,-0.82793 0.599,-2.32738 1.71509,-3.27569c0.76217,-0.64763 3.51405,-1.61235 4.09038,-1.37118c0.04758,0.01998 0.1114,0.07132 0.11335,0.09726c0.05385,0.10261 0.04667,0.26922 -0.03372,0.4306c-0.22283,0.44805 -0.7553,1.04213 -1.34476,1.60131c-0.45819,0.43612 -0.9774,0.92861 -1.45095,1.486l-0.43433,0.51458c-1.05705,1.26513 -1.6037,1.68364 -2.23952,1.2772v0z" fill="#ffc93e" stroke="#603813" stroke-width="1.32684" stroke-linecap="butt" stroke-linejoin="miter"/><path d="M13.55622,25.45963c0,0 -1.10568,0.00088 -1.87993,-0.66269" fill="none" stroke="#603813" stroke-width="1.32684" stroke-linecap="round" stroke-linejoin="round"/></g><g data-paper-data="{&quot;origPos&quot;:null}" stroke="none" stroke-linecap="butt" stroke-linejoin="miter"><path d="M3.5,41.42502c0,-4.69902 3.80931,-8.50833 8.50833,-8.50833c4.69902,0 8.50833,3.80931 8.50833,8.50833c0,4.69902 -3.80931,8.50833 -8.50833,8.50833c-4.69902,0 -8.50833,-3.80931 -8.50833,-8.50833z" data-paper-data="{&quot;origPos&quot;:null}" fill="#ffd900" stroke-width="0"/><path d="M5.66326,40.6664c0,-3.32249 2.71585,-6.0159 6.06603,-6.0159c3.35017,0 6.06603,2.69341 6.06603,6.0159c0,3.32249 -2.71585,6.0159 -6.06603,6.0159c-3.35017,0 -6.06603,-2.69341 -6.06603,-6.0159z" data-paper-data="{&quot;origPos&quot;:null}" fill="#dfbe00" stroke-width="0"/><path d="M6.02839,41.21976c0,-3.29114 2.668,-5.95914 5.95914,-5.95914c3.29114,0 5.95914,2.668 5.95914,5.95914c0,3.29114 -2.668,5.95914 -5.95914,5.95914c-3.29114,0 -5.95914,-2.668 -5.95914,-5.95914z" data-paper-data="{&quot;origPos&quot;:null}" fill="#ffe44c" stroke-width="0"/><g data-paper-data="{&quot;origPos&quot;:null}" stroke-width="1" font-family="Sans Serif" font-weight="normal" font-size="40" text-anchor="start"><text transform="translate(9.55095,41.92518) scale(0.13257,0.13257)" font-size="40" xml:space="preserve" data-paper-data="{&quot;origPos&quot;:null}" fill="#dfbe00" fill-rule="nonzero" stroke="none" stroke-width="1" stroke-linecap="butt" stroke-linejoin="miter" stroke-miterlimit="10" stroke-dasharray="" stroke-dashoffset="0" font-family="Sans Serif" font-weight="normal" text-anchor="start" style="mix-blend-mode: normal"><tspan x="0" dy="0">★</tspan></text><text transform="translate(9.50365,41.69816) scale(0.13257,0.13257)" font-size="40" xml:space="preserve" data-paper-data="{&quot;origPos&quot;:null}" fill="#ffd900" fill-rule="nonzero" stroke="none" stroke-width="1" stroke-linecap="butt" stroke-linejoin="miter" stroke-miterlimit="10" stroke-dasharray="" stroke-dashoffset="0" font-family="Sans Serif" font-weight="normal" text-anchor="start" style="mix-blend-mode: normal"><tspan x="0" dy="0">★</tspan></text></g></g><path d="M21.1515,40.83458c0,-0.52365 2.12335,-1.77038 2.98757,-1.66677c0.5723,0.06862 0.71021,1.66677 0.71021,1.66677c0.81166,0 1.2326,0.51932 1.2326,1.04297c0,0.47611 -0.19914,0.6966 -0.41813,1.11936c-0.22016,0.42502 -0.33581,0.77695 -0.81447,0.77695c-0.47172,0 -0.7685,-0.23384 -1.22308,-0.10788c-0.8274,0.22926 -1.55151,1.29389 -2.08177,0.61863c-0.33372,-0.42498 0.27931,-0.82446 0.29104,-1.36467c0.0197,-0.90746 -0.68397,-1.17767 -0.68397,-2.08534z" data-paper-data="{&quot;origPos&quot;:null,&quot;index&quot;:null}" fill="#4a1002" stroke="none" stroke-width="0" stroke-linecap="butt" stroke-linejoin="miter"/><path d="M25.09102,45.80344c-0.4269,-0.41944 -2.69077,-2.64375 -4.41299,-4.33589c-0.14888,-0.14628 -0.13151,-0.63055 0.07479,-0.84051c0.53152,-0.54098 0.88043,-0.89568 1.36239,-1.38575c0.16066,-0.16336 0.65604,-0.17847 0.81245,-0.02479c0.27431,0.26952 0.75921,1.24768 1.03349,1.51723c0.82286,0.80862 1.88725,1.35375 3.3072,2.74889c0.19121,0.18787 0.22761,0.60249 0.10597,0.72628c0,0 -0.94705,0.96388 -1.47109,1.49725c-0.17468,0.17779 -0.66992,0.23711 -0.81222,0.0973z" data-paper-data="{&quot;origRot&quot;:0,&quot;origPos&quot;:null}" fill="#000000" stroke="#000000" stroke-width="3" stroke-linecap="butt" stroke-linejoin="miter"/><path d="M20.7948,43.92156c0.25987,-0.30172 0.90196,-0.63671 1.16183,-0.93843c0.7796,-0.90515 1.61084,-2.28078 2.95929,-3.84641c0.11787,-0.13686 0.49858,-0.18141 0.62437,-0.07306c0.37739,0.32504 1.04378,0.89898 1.71184,1.47438c0.14717,0.12676 0.17732,0.55676 0.04945,0.70522c-1.26349,1.46698 -2.00275,2.69587 -2.98956,3.84161c-0.32893,0.38191 -0.7619,0.51404 -1.09084,0.89595c-0.12175,0.14135 -0.57743,0.20588 -0.74734,0.05954c0,0 -1.17425,-1.04657 -1.60675,-1.43881c-0.14417,-0.13075 -0.18814,-0.54548 -0.07229,-0.67999z" data-paper-data="{&quot;origRot&quot;:0,&quot;index&quot;:null,&quot;origPos&quot;:null}" fill="#000000" stroke="#000000" stroke-width="3" stroke-linecap="butt" stroke-linejoin="miter"/><path d="M24.9257,45.55547c-0.4269,-0.41944 -2.69077,-2.64376 -4.41299,-4.33589c-0.14888,-0.14628 -0.13151,-0.63054 0.07479,-0.84051c0.53152,-0.54097 0.88043,-0.89569 1.36239,-1.38576c0.16066,-0.16336 0.65604,-0.17847 0.81245,-0.02479c0.27431,0.26952 0.7592,1.24769 1.03349,1.51723c0.82286,0.80862 1.88725,1.35375 3.3072,2.74889c0.19121,0.18787 0.22761,0.60249 0.10598,0.72628c0,0 -0.94705,0.96388 -1.47109,1.49725c-0.17468,0.17779 -0.66992,0.23711 -0.81222,0.0973z" data-paper-data="{&quot;origRot&quot;:0,&quot;origPos&quot;:null}" fill="#ffffff" stroke="none" stroke-width="0" stroke-linecap="butt" stroke-linejoin="miter"/><path d="M20.62948,43.67359c0.25987,-0.30172 0.90196,-0.63671 1.16183,-0.93843c0.7796,-0.90515 1.61084,-2.28078 2.95929,-3.84641c0.11787,-0.13686 0.49858,-0.18141 0.62437,-0.07306c0.37739,0.32504 1.04377,0.89899 1.71184,1.47438c0.14717,0.12676 0.17732,0.55676 0.04945,0.70522c-1.26349,1.46698 -2.00275,2.69587 -2.98956,3.84161c-0.32893,0.38191 -0.7619,0.51404 -1.09083,0.89594c-0.12175,0.14135 -0.57744,0.20588 -0.74735,0.05954c0,0 -1.17424,-1.04657 -1.60675,-1.43881c-0.14417,-0.13075 -0.18814,-0.54548 -0.07229,-0.67999z" data-paper-data="{&quot;origRot&quot;:0,&quot;index&quot;:null,&quot;origPos&quot;:null}" fill="#ffffff" stroke="none" stroke-width="0" stroke-linecap="butt" stroke-linejoin="miter"/><path d="M21.1515,40.83458c0,-0.52365 2.12335,-1.77038 2.98757,-1.66677c0.5723,0.06862 0.71021,1.66677 0.71021,1.66677c0.81166,0 1.2326,0.51932 1.2326,1.04297c0,0.47611 -0.19914,0.6966 -0.41813,1.11936c-0.22016,0.42502 -0.33581,0.77695 -0.81447,0.77695c-0.47172,0 -0.7685,-0.23384 -1.22308,-0.10788c-0.8274,0.22926 -1.55151,1.29389 -2.08177,0.61863c-0.33372,-0.42498 0.27931,-0.82446 0.29104,-1.36467c0.0197,-0.90746 -0.68397,-1.17767 -0.68397,-2.08534z" data-paper-data="{&quot;origPos&quot;:null,&quot;index&quot;:null}" fill="#4a1002" stroke="none" stroke-width="0" stroke-linecap="butt" stroke-linejoin="miter"/><path d="M25.09102,45.80344c-0.4269,-0.41944 -2.69077,-2.64375 -4.41299,-4.33589c-0.14888,-0.14628 -0.13151,-0.63055 0.07479,-0.84051c0.53152,-0.54098 0.88043,-0.89568 1.36239,-1.38575c0.16066,-0.16336 0.65604,-0.17847 0.81245,-0.02479c0.27431,0.26952 0.75921,1.24768 1.03349,1.51723c0.82286,0.80862 1.88725,1.35375 3.3072,2.74889c0.19121,0.18787 0.22761,0.60249 0.10597,0.72628c0,0 -0.94705,0.96388 -1.47109,1.49725c-0.17468,0.17779 -0.66992,0.23711 -0.81222,0.0973z" data-paper-data="{&quot;origRot&quot;:0,&quot;origPos&quot;:null}" fill="#000000" stroke="#000000" stroke-width="3" stroke-linecap="butt" stroke-linejoin="miter"/><path d="M20.7948,43.92156c0.25987,-0.30172 0.90196,-0.63671 1.16183,-0.93843c0.7796,-0.90515 1.61084,-2.28078 2.95929,-3.84641c0.11787,-0.13686 0.49858,-0.18141 0.62437,-0.07306c0.37739,0.32504 1.04378,0.89898 1.71184,1.47438c0.14717,0.12676 0.17732,0.55676 0.04945,0.70522c-1.26349,1.46698 -2.00275,2.69587 -2.98956,3.84161c-0.32893,0.38191 -0.7619,0.51404 -1.09084,0.89595c-0.12175,0.14135 -0.57743,0.20588 -0.74734,0.05954c0,0 -1.17425,-1.04657 -1.60675,-1.43881c-0.14417,-0.13075 -0.18814,-0.54548 -0.07229,-0.67999z" data-paper-data="{&quot;origRot&quot;:0,&quot;index&quot;:null,&quot;origPos&quot;:null}" fill="#000000" stroke="#000000" stroke-width="3" stroke-linecap="butt" stroke-linejoin="miter"/><path d="M24.9257,45.55547c-0.4269,-0.41944 -2.69077,-2.64376 -4.41299,-4.33589c-0.14888,-0.14628 -0.13151,-0.63054 0.07479,-0.84051c0.53152,-0.54097 0.88043,-0.89569 1.36239,-1.38576c0.16066,-0.16336 0.65604,-0.17847 0.81245,-0.02479c0.27431,0.26952 0.7592,1.24769 1.03349,1.51723c0.82286,0.80862 1.88725,1.35375 3.3072,2.74889c0.19121,0.18787 0.22761,0.60249 0.10598,0.72628c0,0 -0.94705,0.96388 -1.47109,1.49725c-0.17468,0.17779 -0.66992,0.23711 -0.81222,0.0973z" data-paper-data="{&quot;origRot&quot;:0,&quot;origPos&quot;:null}" fill="#ffffff" stroke="none" stroke-width="0" stroke-linecap="butt" stroke-linejoin="miter"/><path d="M20.62948,43.67359c0.25987,-0.30172 0.90196,-0.63671 1.16183,-0.93843c0.7796,-0.90515 1.61084,-2.28078 2.95929,-3.84641c0.11787,-0.13686 0.49858,-0.18141 0.62437,-0.07306c0.37739,0.32504 1.04377,0.89899 1.71184,1.47438c0.14717,0.12676 0.17732,0.55676 0.04945,0.70522c-1.26349,1.46698 -2.00275,2.69587 -2.98956,3.84161c-0.32893,0.38191 -0.7619,0.51404 -1.09083,0.89594c-0.12175,0.14135 -0.57744,0.20588 -0.74735,0.05954c0,0 -1.17424,-1.04657 -1.60675,-1.43881c-0.14417,-0.13075 -0.18814,-0.54548 -0.07229,-0.67999z" data-paper-data="{&quot;origRot&quot;:0,&quot;index&quot;:null,&quot;origPos&quot;:null}" fill="#ffffff" stroke="none" stroke-width="0" stroke-linecap="butt" stroke-linejoin="miter"/><path d="M21.34437,20.25261c0,-0.52365 2.12335,-1.77038 2.98757,-1.66677c0.5723,0.06862 0.71021,1.66677 0.71021,1.66677c0.81166,0 1.2326,0.51932 1.2326,1.04297c0,0.47611 -0.19914,0.6966 -0.41813,1.11936c-0.22016,0.42502 -0.33581,0.77695 -0.81447,0.77695c-0.47172,0 -0.7685,-0.23384 -1.22308,-0.10788c-0.8274,0.22926 -1.55151,1.29389 -2.08177,0.61863c-0.33372,-0.42498 0.27931,-0.82446 0.29104,-1.36467c0.0197,-0.90746 -0.68397,-1.17767 -0.68397,-2.08534z" data-paper-data="{&quot;origPos&quot;:null,&quot;index&quot;:null}" fill="#4a1002" stroke="none" stroke-width="0" stroke-linecap="butt" stroke-linejoin="miter"/><path d="M25.28389,25.22146c-0.4269,-0.41943 -2.69077,-2.64376 -4.41299,-4.33589c-0.14888,-0.14628 -0.13151,-0.63054 0.07479,-0.84051c0.53152,-0.54097 0.88043,-0.89569 1.36239,-1.38575c0.16066,-0.16336 0.65604,-0.17847 0.81245,-0.02479c0.27431,0.26952 0.7592,1.24768 1.03349,1.51723c0.82286,0.80862 1.88725,1.35376 3.3072,2.74889c0.19121,0.18787 0.22761,0.60249 0.10597,0.72628c0,0 -0.94705,0.96388 -1.47109,1.49725c-0.17468,0.17779 -0.66992,0.23711 -0.81222,0.0973z" data-paper-data="{&quot;origRot&quot;:0,&quot;origPos&quot;:null}" fill="#000000" stroke="#000000" stroke-width="3" stroke-linecap="butt" stroke-linejoin="miter"/><path d="M22.14949,22.40116c0.7796,-0.90515 1.61084,-2.28078 2.95929,-3.84641c0.11787,-0.13686 0.49858,-0.18141 0.62437,-0.07306c0.37739,0.32504 1.04378,0.89899 1.71184,1.47438c0.14717,0.12676 0.17732,0.55676 0.04945,0.70522c-1.26349,1.46698 -2.00275,2.69587 -2.98956,3.84161c-0.32893,0.38191 -0.7619,0.51404 -1.09083,0.89595c-0.12175,0.14135 -0.57744,0.20588 -0.74735,0.05953c0,0 -1.17424,-1.04656 -1.60675,-1.43881c-0.14417,-0.13075 -0.18814,-0.54548 -0.07229,-0.67999c0,0 0.90196,-0.6367 1.16183,-0.93842z" data-paper-data="{&quot;origRot&quot;:0,&quot;index&quot;:null,&quot;origPos&quot;:null}" fill="#000000" stroke="#000000" stroke-width="3" stroke-linecap="butt" stroke-linejoin="miter"/><path d="M25.11857,24.97349c-0.4269,-0.41943 -2.69077,-2.64376 -4.41299,-4.33589c-0.14888,-0.14628 -0.13151,-0.63054 0.07479,-0.84051c0.53152,-0.54097 0.88043,-0.89569 1.36239,-1.38575c0.16066,-0.16336 0.65604,-0.17847 0.81245,-0.02479c0.27431,0.26952 0.75921,1.24768 1.03349,1.51723c0.82286,0.80862 1.88725,1.35375 3.3072,2.74889c0.19121,0.18787 0.22761,0.60249 0.10597,0.72628c0,0 -0.94705,0.96388 -1.47109,1.49725c-0.17468,0.17779 -0.66992,0.23711 -0.81222,0.0973z" data-paper-data="{&quot;origRot&quot;:0,&quot;origPos&quot;:null}" fill="#ffffff" stroke="none" stroke-width="0" stroke-linecap="butt" stroke-linejoin="miter"/><path d="M20.82234,23.09161c0.25987,-0.30172 0.90196,-0.63671 1.16183,-0.93843c0.7796,-0.90515 1.61084,-2.28078 2.95929,-3.84641c0.11787,-0.13686 0.49858,-0.18141 0.62437,-0.07306c0.37739,0.32504 1.04378,0.89899 1.71184,1.47438c0.14717,0.12676 0.17732,0.55676 0.04945,0.70522c-1.26349,1.46698 -2.00275,2.69587 -2.98956,3.84161c-0.32893,0.38191 -0.7619,0.51404 -1.09084,0.89595c-0.12175,0.14135 -0.57743,0.20588 -0.74734,0.05953c0,0 -1.17425,-1.04656 -1.60675,-1.43881c-0.14417,-0.13075 -0.18814,-0.54548 -0.07229,-0.67999z" data-paper-data="{&quot;origRot&quot;:0,&quot;index&quot;:null,&quot;origPos&quot;:null}" fill="#ffffff" stroke="none" stroke-width="0" stroke-linecap="butt" stroke-linejoin="miter"/><path d="M21.34437,20.25261c0,-0.52365 2.12335,-1.77038 2.98757,-1.66677c0.5723,0.06862 0.71021,1.66677 0.71021,1.66677c0.81166,0 1.2326,0.51932 1.2326,1.04297c0,0.47611 -0.19914,0.6966 -0.41813,1.11936c-0.22016,0.42502 -0.33581,0.77695 -0.81447,0.77695c-0.47172,0 -0.7685,-0.23384 -1.22308,-0.10788c-0.8274,0.22926 -1.55151,1.29389 -2.08177,0.61863c-0.33372,-0.42498 0.27931,-0.82446 0.29104,-1.36467c0.0197,-0.90746 -0.68397,-1.17767 -0.68397,-2.08534z" data-paper-data="{&quot;origPos&quot;:null,&quot;index&quot;:null}" fill="#4a1002" stroke="none" stroke-width="0" stroke-linecap="butt" stroke-linejoin="miter"/><path d="M25.28389,25.22146c-0.4269,-0.41943 -2.69077,-2.64376 -4.41299,-4.33589c-0.14888,-0.14628 -0.13151,-0.63054 0.07479,-0.84051c0.53152,-0.54097 0.88043,-0.89569 1.36239,-1.38575c0.16066,-0.16336 0.65604,-0.17847 0.81245,-0.02479c0.27431,0.26952 0.7592,1.24768 1.03349,1.51723c0.82286,0.80862 1.88725,1.35376 3.3072,2.74889c0.19121,0.18787 0.22761,0.60249 0.10597,0.72628c0,0 -0.94705,0.96388 -1.47109,1.49725c-0.17468,0.17779 -0.66992,0.23711 -0.81222,0.0973z" data-paper-data="{&quot;origRot&quot;:0,&quot;origPos&quot;:null}" fill="#000000" stroke="#000000" stroke-width="3" stroke-linecap="butt" stroke-linejoin="miter"/><path d="M25.11857,24.97349c-0.4269,-0.41943 -2.69077,-2.64376 -4.41299,-4.33589c-0.14888,-0.14628 -0.13151,-0.63054 0.07479,-0.84051c0.53152,-0.54097 0.88043,-0.89569 1.36239,-1.38575c0.16066,-0.16336 0.65604,-0.17847 0.81245,-0.02479c0.27431,0.26952 0.75921,1.24768 1.03349,1.51723c0.82286,0.80862 1.88725,1.35375 3.3072,2.74889c0.19121,0.18787 0.22761,0.60249 0.10597,0.72628c0,0 -0.94705,0.96388 -1.47109,1.49725c-0.17468,0.17779 -0.66992,0.23711 -0.81222,0.0973z" data-paper-data="{&quot;origRot&quot;:0,&quot;origPos&quot;:null}" fill="#ffffff" stroke="none" stroke-width="0" stroke-linecap="butt" stroke-linejoin="miter"/><path d="M20.82234,23.09161c0.25987,-0.30172 0.90196,-0.63671 1.16183,-0.93843c0.7796,-0.90515 1.61084,-2.28078 2.95929,-3.84641c0.11787,-0.13686 0.49858,-0.18141 0.62437,-0.07306c0.37739,0.32504 1.04378,0.89899 1.71184,1.47438c0.14717,0.12676 0.17732,0.55676 0.04945,0.70522c-1.26349,1.46698 -2.00275,2.69587 -2.98956,3.84161c-0.32893,0.38191 -0.7619,0.51404 -1.09084,0.89595c-0.12175,0.14135 -0.57743,0.20588 -0.74734,0.05953c0,0 -1.17425,-1.04656 -1.60675,-1.43881c-0.14417,-0.13075 -0.18814,-0.54548 -0.07229,-0.67999z" data-paper-data="{&quot;origRot&quot;:0,&quot;index&quot;:null,&quot;origPos&quot;:null}" fill="#ffffff" stroke="none" stroke-width="0" stroke-linecap="butt" stroke-linejoin="miter"/></g></g></svg>