<svg version="1.1" xmlns="http://www.w3.org/2000/svg" xmlns:xlink="http://www.w3.org/1999/xlink" width="330" height="330" viewBox="0,0,330,330"><defs><radialGradient cx="240" cy="180" r="165" gradientUnits="userSpaceOnUse" id="color-1"><stop offset="0" stop-color="#83b1ff"/><stop offset="1" stop-color="#83b1ff" stop-opacity="0"/></radialGradient><radialGradient cx="240" cy="180" r="144" gradientUnits="userSpaceOnUse" id="color-2"><stop offset="0" stop-color="#e1ecff"/><stop offset="1" stop-color="#e1ecff" stop-opacity="0"/></radialGradient><radialGradient cx="240" cy="180" r="116" gradientUnits="userSpaceOnUse" id="color-3"><stop offset="0" stop-color="#003ca3"/><stop offset="1" stop-color="#003ca3" stop-opacity="0"/></radialGradient></defs><g transform="translate(-75,-15)"><g data-paper-data="{&quot;isPaintingLayer&quot;:true}" stroke="none" stroke-linecap="butt" stroke-linejoin="miter" stroke-miterlimit="10" stroke-dasharray="" stroke-dashoffset="0" style="mix-blend-mode: normal"><path d="M75,180c0,-91.12699 73.87301,-165 165,-165c91.12699,0 165,73.87301 165,165c0,91.12699 -73.87301,165 -165,165c-91.12699,0 -165,-73.87301 -165,-165z" data-paper-data="{&quot;origPos&quot;:null}" fill="url(#color-1)" fill-rule="nonzero" stroke-width="0"/><path d="M96,180c0,-79.52901 64.47099,-144 144,-144c79.52901,0 144,64.47099 144,144c0,79.52901 -64.47099,144 -144,144c-79.52901,0 -144,-64.47099 -144,-144z" data-paper-data="{&quot;origPos&quot;:null}" fill="url(#color-2)" fill-rule="nonzero" stroke-width="0"/><path d="" fill="#0077b8" fill-rule="evenodd" stroke-width="1"/><path d="" fill="#74b140" fill-rule="evenodd" stroke-width="1"/><path d="" fill="#74b140" fill-rule="evenodd" stroke-width="1"/><path d="" fill="#74b140" fill-rule="evenodd" stroke-width="1"/><path d="" fill="#74b140" fill-rule="evenodd" stroke-width="1"/><path d="" fill="#74b140" fill-rule="evenodd" stroke-width="1"/><path d="" fill="#74b140" fill-rule="evenodd" stroke-width="1"/><path d="" fill="#74b140" fill-rule="evenodd" stroke-width="1"/><path d="" fill="#74b140" fill-rule="evenodd" stroke-width="1"/><path d="" fill="#74b140" fill-rule="evenodd" stroke-width="1"/><path d="" fill="#74b140" fill-rule="evenodd" stroke-width="1"/><path d="" fill="#74b140" fill-rule="evenodd" stroke-width="1"/><path d="" fill="#74b140" fill-rule="evenodd" stroke-width="1"/><path d="" fill="#74b140" fill-rule="evenodd" stroke-width="1"/><path d="" fill="#74b140" fill-rule="evenodd" stroke-width="1"/><path d="" fill="#74b140" fill-rule="evenodd" stroke-width="1"/><path d="" fill="#74b140" fill-rule="evenodd" stroke-width="1"/><path d="" fill="#74b140" fill-rule="evenodd" stroke-width="1"/><path d="" fill="#74b140" fill-rule="evenodd" stroke-width="1"/><path d="" fill="#74b140" fill-rule="evenodd" stroke-width="1"/><path d="" fill="#74b140" fill-rule="evenodd" stroke-width="1"/><path d="" fill="#74b140" fill-rule="nonzero" stroke-width="1"/><path d="M115,180c0,-69.03559 55.96441,-125 125,-125c69.03559,0 125,55.96441 125,125c0,69.03559 -55.96441,125 -125,125c-69.03559,0 -125,-55.96441 -125,-125z" data-paper-data="{&quot;origPos&quot;:null}" fill="#1b0d39" fill-rule="nonzero" stroke-width="0"/><path d="M291,116c0,16.24569 45.47225,37.60989 41.64901,53.39929c-2.26172,9.34054 -5.80185,32.58984 -15.31696,33.94029c-17.93053,2.54482 2.15258,-72.48358 -12.61901,-53.5229c-26.06822,33.46091 -50.97472,-2.61892 -50.97472,-31.89001c0,-12.61623 -56.58863,-22.24414 -44.51151,-36.79156c12.07711,-14.54743 38.58958,-6.13511 55.7732,-6.13511c24.30053,0 26,11.72891 26,41z" data-paper-data="{&quot;origPos&quot;:null}" fill="#6da3ff" fill-rule="nonzero" stroke-width="0"/><path d="M203,131.5c0,14.63555 -8.29745,23.5 -21,23.5c-12.70255,0 -39.6035,0.81654 -41,-16.5c-1.3965,-17.31654 20.21736,-45.5 36,-45.5c14.30317,0 57.15784,21.49272 38.03705,31.80226c-1.33536,0.72 -12.03705,5.3258 -12.03705,6.69774z" data-paper-data="{&quot;origPos&quot;:null}" fill="#6da3ff" fill-rule="nonzero" stroke-width="0"/><path d="M305.2375,119.01544c-3.3001,-10.25147 2.42062,-21.26472 9.25493,-23.46479c6.83431,-2.20007 15.04988,4.32688 18.34998,14.57835c3.3001,10.25147 7.06571,21.36254 0.23139,23.56261c-6.83431,2.20007 -24.53621,-4.4247 -27.83631,-14.67617z" data-paper-data="{&quot;origRot&quot;:0,&quot;origPos&quot;:null}" fill="#6da3ff" fill-rule="nonzero" stroke-width="0"/><path d="M200,216.5c0,23.4721 -9.17817,42.5 -20.5,42.5c-11.32183,0 -20.5,-19.0279 -20.5,-42.5c0,-10.61998 -26.31262,-30.78261 -22.4587,-40.67864c3.36999,-8.65338 29.05533,27.13946 38.34176,27.13946c11.32183,0 25.11694,-9.93292 25.11694,13.53919z" data-paper-data="{&quot;origPos&quot;:null}" fill="#6da3ff" fill-rule="nonzero" stroke-width="0"/><path d="M238.66751,158.50947c0,20.98682 31.29091,37.86472 12.91973,37.86472c-18.37119,0 -42.58723,27.61263 -42.58723,6.62581c0,-20.98682 -10.82183,-42 0.5,-42c11.32183,0 29.16751,-23.47735 29.16751,-2.49053z" data-paper-data="{&quot;origPos&quot;:null}" fill="#6da3ff" fill-rule="nonzero" stroke-width="0"/><path d="M292,217.5c0,12.4264 2.13492,42.72699 -14,39.5c-8.79751,-1.7595 -0.6313,-7.02305 -1.47686,-15.95486c-0.44265,-4.67576 -31.6639,-0.27809 -34.70819,-3.73527c-9.19256,-10.43933 25.18505,-19.13629 25.18505,-24.80987c0,-12.4264 -5.62741,-19.5 1,-19.5c6.62741,0 24,12.0736 24,24.5z" data-paper-data="{&quot;origPos&quot;:null}" fill="#6da3ff" fill-rule="nonzero" stroke-width="0"/><path d="M342,229c0,16.01626 -31.93959,38 -40.5,38c-8.56041,0 0.5,-12.98374 0.5,-29c0,-6.23228 -1.72798,-17.02873 4.87,-23.79128c10.35809,-10.61644 31.40063,-16.20872 36.63,-16.20872c8.56041,0 -1.5,14.98374 -1.5,31z" data-paper-data="{&quot;origPos&quot;:null}" fill="#6da3ff" fill-rule="nonzero" stroke-width="0"/><path d="M353,168.5c0,12.97869 -4.70101,23.5 -10.5,23.5c-5.79899,0 -4.5,-8.52131 -4.5,-21.5c0,-12.97869 -1.29899,-25.5 4.5,-25.5c5.79899,0 10.5,10.52131 10.5,23.5z" data-paper-data="{&quot;origPos&quot;:null}" fill="#6da3ff" fill-rule="nonzero" stroke-width="0"/><path d="M286,274.5c0,10.21727 -20.13247,4.5 -42.5,4.5c-22.36753,0 -49.5,11.71727 -49.5,1.5c0,-10.21727 2.61414,-16.80973 24.98167,-16.80973c22.36753,0 67.01833,0.59246 67.01833,10.80973z" data-paper-data="{&quot;origPos&quot;:null}" fill="#6da3ff" fill-rule="nonzero" stroke-width="0"/><path d="M124,180c0,-64.06503 51.93497,-116 116,-116c64.06503,0 116,51.93497 116,116c0,64.06503 -51.93497,116 -116,116c-64.06503,0 -116,-51.93497 -116,-116z" data-paper-data="{&quot;origPos&quot;:null}" fill="url(#color-3)" fill-rule="nonzero" stroke-width="0"/></g></g></svg>