<svg version="1.1" xmlns="http://www.w3.org/2000/svg" xmlns:xlink="http://www.w3.org/1999/xlink" width="15.04166" height="21.41666"><g transform="translate(-232.425,-169.11672)"><g data-paper-data="{&quot;isPaintingLayer&quot;:true}" fill="none" fill-rule="nonzero" stroke="none" stroke-width="none" stroke-linecap="butt" stroke-linejoin="miter" stroke-miterlimit="10" stroke-dasharray="" stroke-dashoffset="0" font-family="none" font-weight="none" font-size="none" text-anchor="none" style="mix-blend-mode: normal"><path d="M232.425,179.82506c0,-5.91405 3.36719,-10.70833 7.52083,-10.70833c4.15363,0 7.52083,4.79428 7.52083,10.70833c0,5.91405 -3.36719,10.70833 -7.52083,10.70833c-4.15363,0 -7.52083,-4.79428 -7.52083,-10.70833z" data-paper-data="{&quot;origPos&quot;:null}" fill="#ffd900" stroke-width="0"/><path d="M238.41558,178.8703c0,-4.18159 1.6397,-7.57143 3.66236,-7.57143c2.02267,0 3.66236,3.38984 3.66236,7.57143c0,4.18159 -1.6397,7.57143 -3.66236,7.57143c-2.02267,0 -3.66236,-3.38984 -3.66236,-7.57143z" data-paper-data="{&quot;origPos&quot;:null}" fill="#dfbe00" stroke-width="0"/><path d="M238.63603,179.56673c0,-4.14213 1.6108,-7.5 3.59783,-7.5c1.98703,0 3.59783,3.35787 3.59783,7.5c0,4.14213 -1.6108,7.5 -3.59783,7.5c-1.98703,0 -3.59783,-3.35787 -3.59783,-7.5z" data-paper-data="{&quot;origPos&quot;:null}" fill="#ffe44c" stroke-width="0"/><g data-paper-data="{&quot;origPos&quot;:null}" stroke-width="1" font-family="Sans Serif" font-weight="normal" font-size="40" text-anchor="start"><text transform="translate(240.76277,180.45455) scale(0.08003,0.16685)" font-size="40" xml:space="preserve" data-paper-data="{&quot;origPos&quot;:null}" fill="#dfbe00" fill-rule="nonzero" stroke="none" stroke-width="1" stroke-linecap="butt" stroke-linejoin="miter" stroke-miterlimit="10" stroke-dasharray="" stroke-dashoffset="0" font-family="Sans Serif" font-weight="normal" text-anchor="start" style="mix-blend-mode: normal"><tspan x="0" dy="0">★</tspan></text><text transform="translate(240.73422,180.16883) scale(0.08003,0.16685)" font-size="40" xml:space="preserve" data-paper-data="{&quot;origPos&quot;:null}" fill="#ffd900" fill-rule="nonzero" stroke="none" stroke-width="1" stroke-linecap="butt" stroke-linejoin="miter" stroke-miterlimit="10" stroke-dasharray="" stroke-dashoffset="0" font-family="Sans Serif" font-weight="normal" text-anchor="start" style="mix-blend-mode: normal"><tspan x="0" dy="0">★</tspan></text></g><path d="M234.4296,186.63964l6.70708,-17.39854c0,0 0.57715,0.08729 0.90054,0.1886c0.43078,0.13497 0.60084,0.28278 1.03223,0.41581c0.95573,0.46776 1.38952,1.36885 1.38952,1.36885l-6.59155,18.74369c0,0 -1.86588,-0.77976 -2.23538,-1.79616c0,0 -0.45761,-0.13136 -0.69813,-0.59207c-0.12826,-0.24569 -0.5043,-0.9302 -0.5043,-0.9302z" data-paper-data="{&quot;origRot&quot;:0,&quot;origPos&quot;:null}" fill="#ffee8b" stroke-width="0"/></g></g></svg>