<svg version="1.1" xmlns="http://www.w3.org/2000/svg" xmlns:xlink="http://www.w3.org/1999/xlink" width="132.56375" height="79.0895" viewBox="0,0,132.56375,79.0895"><g transform="translate(-171.00024,-122.99775)"><g data-paper-data="{&quot;isPaintingLayer&quot;:true}" fill="none" fill-rule="nonzero" stroke="none" stroke-width="1" stroke-linecap="butt" stroke-linejoin="miter" stroke-miterlimit="10" stroke-dasharray="" stroke-dashoffset="0" font-family="none" font-weight="none" font-size="none" text-anchor="none" style="mix-blend-mode: normal"><g id="R_Wing"><path d="M258.379,145.638c7.415,0.476 11.869,4.71 11.869,11.59c0,7.92 -7.481,18.312 -14.875,22.25c-4.388,2.353 -2.562,-0.708 -7.339,1.013c-3.595,1.308 -11.988,4.886 -14.673,2.782c-3.399,-2.67 -10.927,-4.531 -14.789,-2.51c-7.783,4.073 -13.054,1.674 -15.271,-0.815c-2.242,-2.512 -2.168,-6.292 0.591,-8.328c3.424,-2.512 7.341,-2.806 11.134,-0.815c2.463,1.312 4.015,3.101 6.798,2.443c-2.561,-1.81 -3.127,-3.689 -2.167,-5.975c0.936,-2.217 3.449,-2.624 6.109,-2.353c-2.612,-3.983 -0.567,-9.076 3.842,-11.316c5.102,-2.557 9.931,-0.113 14.29,3.349c1.873,-6.427 7.022,-11.791 14.481,-11.315z" id="Wing_Outline_1_" fill="#00b900"/><path d="M237.628,182.139c-4.561,-3.45 -14.214,-5.642 -19.624,-2.988c-3.03,1.485 -7.522,2.738 -10.083,-0.503c-3.275,-4.145 3.818,-7.451 7.793,-5.188c5.495,3.127 7.279,2.504 13.594,1.199c-5.246,-2.006 -7.229,-3.735 -6.264,-5.962c0.965,-2.225 5.693,-1.723 10.538,0.438c-5.999,-5.396 -5.574,-10.927 -3.342,-12.424c3.187,-2.137 9.939,-1.164 15.512,5.775c0.637,-2.413 1.379,-4.738 1.379,-4.738c3.573,-10.903 19.583,-9.372 19.534,1.451c-0.033,6.954 -7.685,13.29 -13.909,18.075c-5.572,-1.901 -9.527,5.594 -15.128,4.865z" id="Wing_Fill_1_" fill="#ffff00"/><path d="M254.455,172.5c-2.575,-0.152 -3.068,-2.871 -1.555,-4.784c1.596,-2.002 3.72,-1.282 4.207,-3.713c0.511,-2.622 -0.604,-3.309 -0.438,-5.964c0.146,-2.496 2.371,-3.969 5.011,-3.378c5.055,1.132 3.275,8.426 -1.121,9.804c-4.507,1.431 -1.334,8.303 -6.104,8.035z" id="Design_10_" fill="#00b900"/><path d="M235.974,165.374c-1.855,-0.286 -2.845,-1.465 -3.144,-3.135c-0.284,-1.508 1.328,-2.736 2.982,-2.802c2.008,-0.095 3.579,1.472 3.685,3.317c0.085,1.391 -1.321,2.962 -3.523,2.62z" id="Design_9_" fill="#00b900"/><path d="M244.213,176.339c-0.432,-2.8 -3.395,-3.144 -5.133,-5.437c-1.33,-1.766 -0.248,-4.938 2.097,-5.198c2.438,-0.253 4.058,2.259 3.984,4.521c-0.068,2.522 1.713,3.613 3.483,5.622z" id="Design_8_" fill="#00b900"/><path d="M233.587,174.607c-2.278,-0.728 -6.011,-1.766 -5.082,-3.727c0.702,-1.483 4.83,0.006 6.241,0.941c2.279,1.508 1.504,3.635 -1.159,2.786z" id="Design_7_" fill="#00b900"/><path d="M213.7,178.8c-1.571,0.122 -4.048,-0.133 -3.836,-1.979c0.256,-2.232 3.194,-2.282 4.945,-1.582c1.272,0.509 1.644,0.931 2.695,1.547c-1.161,0.966 -2.231,1.892 -3.804,2.014z" id="Design_6_" fill="#00b900"/></g><g id="L_Wing"><path d="M241.148,123.015c9.842,-0.385 16.348,5.69 17.387,16.671c1.192,12.644 -7.103,30.385 -16.246,37.811c-5.423,4.436 -18.87,14.797 -22.567,11.688c-6.111,-5.149 -20.944,-7.783 -25.727,-3.961c-9.643,7.701 -16.951,4.687 -20.247,1.055c-3.331,-3.665 -3.804,-9.709 -0.476,-13.386c4.133,-4.539 9.249,-5.613 14.548,-3.018c3.443,1.715 5.757,4.33 9.326,2.854c-3.649,-2.496 -4.678,-5.408 -3.757,-9.204c0.899,-3.685 4.148,-4.722 7.694,-4.699c-4.04,-5.956 -2.114,-14.4 3.358,-18.657c6.333,-4.868 13.063,-1.711 19.33,3.145c1.498,-10.548 7.473,-19.905 17.377,-20.299z" id="Wing_Outline" fill="#00b900"/><path d="M220.741,185.598c-6.529,-4.806 -21.016,-7.923 -27.744,-2.854c-3.77,2.839 -9.5,5.527 -13.363,0.75c-4.938,-6.112 3.909,-12.482 9.486,-9.484c7.712,4.146 9.969,2.877 18.093,-0.182c-7.215,-2.391 -10.088,-4.848 -9.152,-8.55c0.937,-3.701 7.241,-3.629 13.952,-0.928c-8.718,-7.687 -8.991,-16.583 -6.277,-19.315c3.877,-3.905 12.922,-3.392 21.308,6.826c0.476,-3.95 1.104,-7.773 1.104,-7.773c3.064,-17.959 24.391,-17.982 25.956,-0.697c1.006,11.105 -8.123,22.4 -15.603,31c-7.628,-2.182 -10.273,11.507 -17.76,11.207z" id="Wing_Fill" fill="#ffff00"/><path d="M236.75,165.376c-3.415,0.154 -4.477,-4.11 -2.769,-7.398c1.799,-3.442 4.708,-2.62 4.985,-6.576c0.276,-4.264 -1.293,-5.188 -1.477,-9.453c-0.185,-4.007 2.524,-6.702 6.092,-6.165c6.829,1.027 5.584,12.946 0,15.823c-5.724,2.981 -0.509,13.461 -6.831,13.769z" id="Design_5_" fill="#00b900"/><path d="M214.596,157.979c-2.487,-0.172 -3.969,-1.901 -4.615,-4.521c-0.601,-2.363 1.339,-4.573 3.507,-4.932c2.631,-0.463 4.938,1.798 5.354,4.726c0.324,2.21 -1.292,4.932 -4.246,4.727z" id="Design_4_" fill="#00b900"/><path d="M230.082,177.709c-0.988,-4.403 -7.921,-7.992 -10.558,-11.385c-2.019,-2.614 -1.071,-7.843 1.978,-8.622c3.172,-0.78 5.686,2.98 5.933,6.604c0.288,4.036 5.778,9 8.416,11.935z" id="Design_3_" fill="#00b900"/><path d="M212.842,173.082c-3.11,-0.811 -8.186,-1.891 -7.257,-5.164c0.701,-2.474 6.366,-0.731 8.365,0.541c3.231,2.055 2.53,5.571 -1.108,4.623z" id="Design_2_" fill="#00b900"/><path d="M187.274,182.844c-2.054,0.435 -5.354,0.41 -5.354,-2.569c0,-3.6 3.864,-4.138 6.277,-3.288c1.753,0.617 2.307,1.233 3.784,2.055c-1.384,1.722 -2.654,3.366 -4.707,3.802z" id="Design" fill="#00b900"/><path d="M211.744,175.773c3.194,0.456 9.506,2.497 12.562,7.643c-2.547,-0.471 -5.942,-3.743 -13.072,-4.211c-3.919,-0.257 -3.227,-3.965 0.51,-3.432z" id="Design_1_" fill="#00b900"/></g><g id="Body"><path d="M268.867,187.662c-1.833,2.383 -4.473,10.744 -20.577,13.678c-11.536,2.102 -20.769,-0.222 -28.14,-7.082c-7.719,-7.247 3.019,-18.912 15.513,-20.062c13.224,-1.194 23.139,1.017 30.312,5.975c0.614,2.535 4.597,5.265 2.892,7.491z" id="Body_1_" fill="#6600a1"/><path d="M239.421,173.952c4.225,-0.18 8.089,0.009 11.603,0.557c1.292,0.834 2.22,2.012 2.503,3.602c0.617,3.501 -3.092,6.728 -7.043,6.581c-4.51,-0.169 -9.698,-2.068 -9.698,-6.074c0,-1.967 1.038,-3.63 2.635,-4.666z" id="Spot_5_" fill="#ffb400"/><path d="M221.368,187.646c0,-2.699 1.807,-4.937 4.756,-5.23c3.473,-0.337 7.421,1.308 7.421,4.388c0,2.699 -1.998,4.894 -4.947,5.399c-3.377,0.588 -7.23,-1.446 -7.23,-4.557z" id="Spot_4_" fill="#ffb400"/><path d="M244.609,196.92c-2.027,0.205 -4.111,-0.31 -4.633,-2.056c-0.869,-2.772 0.405,-5.186 3.474,-6.265c2.315,-0.812 5.849,0.411 6.254,2.568c0.581,2.774 -1.91,5.393 -5.095,5.753z" id="Spot_3_" fill="#ffb400"/><path d="M261.955,195.947c-1.495,1.107 -3.34,2.178 -5.634,3.117c-0.31,-0.062 -0.609,-0.141 -0.886,-0.243c-2.075,-0.753 -2.374,-3.576 -1.312,-5.27c1.098,-1.751 3.711,-2.281 5.688,-1.28c1.513,0.777 2.251,2.202 2.144,3.676z" id="Spot_2_" fill="#ffb400"/><path d="M259.805,188.49c-2.115,-0.083 -4.305,-1.415 -3.996,-3.292c0.381,-2.192 2.379,-3.627 4.854,-3.627c2.354,0 3.974,2.384 3.426,4.387c-0.48,1.708 -2.286,2.616 -4.284,2.532z" id="Spot_1_" fill="#ffb400"/><path d="M231.406,201.062c-1.903,-0.19 -3.615,-1.646 -3.235,-3.291c0.381,-1.604 2.236,-2.468 4.091,-2.194c1.808,0.105 3.163,1.519 3.044,3.126c-0.118,1.618 -2.068,2.547 -3.9,2.359z" id="Spot" fill="#ffb400"/></g><g id="Head"><path d="M300.769,138.155c2.084,-0.31 4.752,1.316 0.641,2.709c-9.262,3.136 2.331,6.783 0.831,11.19c-2.038,5.979 -15.406,3.835 -12.742,10.497l-1.565,0.304c-4.449,-10.207 15.184,-5.944 7.596,-16.257c-2.826,-3.839 0.029,-7.669 5.239,-8.443z" id="R_Antenna" fill="#00b900"/><path d="M267.202,186.172c-2.538,-4.533 -3.407,-8.488 -1.998,-13.54c2.42,-8.647 11.468,-15.447 20.362,-13.741c9.021,1.72 17.056,10.895 15.307,23.002c-9.34,3.174 -18.236,2.623 -28.062,-2.059c3.326,11.746 20.22,10.325 23.068,10.591c-0.76,3.75 -4.904,5.297 -8.779,5.682c-4.786,0.479 -14.397,-0.111 -19.898,-9.935z" id="Head_1_" fill="#6600a1"/><g id="L_Eye"><path d="M279.999,168.997c3.127,-0.697 6.358,0.215 7.224,2.038c0.862,1.823 -0.972,3.863 -4.097,4.561c-3.127,0.697 -6.36,-0.217 -7.224,-2.04c-0.863,-1.822 0.971,-3.864 4.097,-4.559z" id="White_1_" fill="#ffffff"/><path d="M279.236,171.497c0.516,-1.036 1.828,-1.484 2.934,-1.002c1.104,0.484 1.583,1.717 1.068,2.752c-0.516,1.036 -1.829,1.485 -2.934,1.003c-1.105,-0.483 -1.581,-1.716 -1.068,-2.753z" id="Pupil_1_" fill="#6600a1"/></g><g id="R_Eye"><path d="M292.381,174.439c-1.977,-0.786 -2.697,-2.255 -1.609,-3.278c1.088,-1.025 3.57,-1.219 5.547,-0.434c1.979,0.786 2.697,2.254 1.611,3.278c-1.089,1.027 -3.575,1.222 -5.549,0.434z" id="White" fill="#ffffff"/><path d="M292.846,172.005c0.35,-0.68 1.238,-0.974 1.986,-0.656c0.747,0.317 1.07,1.126 0.723,1.803c-0.349,0.681 -1.236,0.976 -1.984,0.658c-0.751,-0.317 -1.073,-1.126 -0.725,-1.805z" id="Pupil" fill="#6600a1"/></g><path d="M283.278,158.569c0.401,0.535 -0.791,1.134 -1.067,1.163c-1.592,0.163 -2.292,0.611 -3.59,-0.627c-1.319,-1.258 -1.983,-2.882 -1.898,-4.712c0.151,-3.313 4.856,-6.139 4.122,-9.364c-0.878,-3.862 -6.402,-5.012 -8.066,-8.598c-1.605,-3.454 0.907,-5.645 3.101,-7.255c0.14,-0.104 0.267,-0.155 0.384,-0.186c0.007,-0.002 0.015,-0.006 0.022,-0.009c5.582,-1.727 0.26,4.312 1.392,5.884c2.057,2.86 7.144,3.152 8.484,6.641c2.944,7.676 -9.171,8.719 -2.884,17.063z" id="L_Antenna" fill="#00b900"/></g></g></g></svg>