<svg version="1.1" xmlns="http://www.w3.org/2000/svg" xmlns:xlink="http://www.w3.org/1999/xlink" width="10.69969" height="15.08862" viewBox="0,0,10.69969,15.08862"><g transform="translate(-234.90244,-173.40851)"><g data-paper-data="{&quot;isPaintingLayer&quot;:true}" fill="none" fill-rule="nonzero" stroke="none" stroke-width="none" stroke-linecap="butt" stroke-linejoin="miter" stroke-miterlimit="10" stroke-dasharray="" stroke-dashoffset="0" font-family="none" font-weight="none" font-size="none" text-anchor="none" style="mix-blend-mode: normal"><path d="M237.625,178.82331l0.69341,-1.67089l1.99409,-0.9659l1.99529,0.96708l0.69221,1.66971l-0.42437,2.08874l-2.26313,0.67305l-1.94887,-1.11393z" data-paper-data="{&quot;origPos&quot;:null,&quot;index&quot;:null}" stroke="#000000" stroke-width="5"/><path d="M242.21681,182.99169v0l-1.15855,1.28189l-0.20699,-0.35834l1.24155,-1.66771l0.30776,-0.3212l0.16714,-1.29193z" data-paper-data="{&quot;origPos&quot;:null,&quot;index&quot;:null,&quot;origRot&quot;:0}" stroke="#000000" stroke-width="5"/><path d="M237.375,178.57331l0.69341,-1.67089l1.99409,-0.9659l1.99529,0.96708l0.69221,1.66971l-0.42437,2.08874l-2.26313,0.67305l-1.94887,-1.11393z" data-paper-data="{&quot;origPos&quot;:null,&quot;index&quot;:null,&quot;origRot&quot;:0}" stroke="#ffffff" stroke-width="2.5"/><path d="M242.064,180.53201l-0.09719,2.20968l-1.15855,1.2819l-0.20699,-0.35834l1.36655,-2.04271l0.18276,0.0538l0.16714,-1.29194z" data-paper-data="{&quot;origPos&quot;:null,&quot;index&quot;:null,&quot;origRot&quot;:0}" stroke="#ffffff" stroke-width="2.5"/></g></g></svg>