<svg xmlns="http://www.w3.org/2000/svg" xmlns:xlink="http://www.w3.org/1999/xlink" version="1.1" width="94.11649932861329" height="93.78911437988282" viewBox="0.18349568843841557 0.900000023841858 94.11649932861329 93.78911437988282">
  <!-- Exported by Scratch - http://scratch.mit.edu/ -->
  <g id="ID0.33912321738898754">
    <path id="ID0.1790580078959465_11_" fill="#FAA51F" stroke="#8E5322" stroke-width="1.4" stroke-linecap="round" stroke-linejoin="round" d="M 51.6 57.7 C 52.3 57.1 58.1 57.7 58.8 57.2 C 65.8 52 70.5 52.2 71.2 53.5 C 73 56.6 70.8 60.2 64.4 63 C 59.6 65.1 48.1 64.7 47.3 65 "/>
    <g id="Layer_2_22_">
      <path id="ID0.39854341372847557_10_" fill="#FAA51F" stroke="#8E5322" stroke-width="1.4" stroke-linecap="round" stroke-linejoin="round" d="M 38.6 68.6 "/>
    </g>
    <g id="ID0.16171270422637463_7_">
      <path id="ID0.007584026083350182_7_" fill="#FAA51F" stroke="#8E5322" stroke-width="1.4" stroke-linecap="round" stroke-linejoin="round" d="M 36.8 76.1 C 36.8 76.1 30.2 78.7 23.4 84.3 C 20.4 86.7 28 90.1 21.6 93.9 C 19.8 94.9 14.7 87.2 14.2 85 C 13.7 83 14 82.2 15.8 81.3 C 22.4 78.1 29.6 67.5 29.6 67.5 "/>
      <path id="ID0.31672530295327306_7_" fill="#FAA51F" stroke="#8E5322" stroke-width="1.4" stroke-linecap="round" stroke-linejoin="round" d="M 23.1 87 C 23.1 87 22.5 85.8 21.4 84.7 "/>
    </g>
    <g id="Layer_3_11_">
      <path id="ID0.8535828334279358_10_" fill="#FAA51F" d="M 24.7 75.6 C 22.2 76 19.2 76.2 16.1 75 C 9.2 72.2 4.6 65 1.7 68.4 C -1.2 71.8 3.6 84.4 16.5 84 C 21 83.9 24.7 82.5 27.5 81.4 C 28.3 81.1 34.6 78 35.6 73.9 C 36.6 69.8 34.7 69.5 33.8 69.4 C 32.9 69.1 28.2 75.1 24.7 75.6 Z " stroke-width="1"/>
      <path id="ID0.914295740891248_10_" fill="#FFFFFF" d="M 1.8 68.1 C 0.2 69.4 0.8 74.5 2.9 77.5 C 5.1 80.5 7.7 81.9 9.4 82.7 C 11.3 83.1 7.7 80.1 9 77.7 C 10.4 75.2 14.5 74.4 14.5 74.4 C 14.5 74.4 10 71.4 7.5 69.7 C 5.3 68 3.7 66.9 1.8 68.1 Z " stroke-width="1"/>
      <path id="ID0.40227043256163597_10_" fill="none" stroke="#8E5322" stroke-width="1.4" stroke-linecap="round" stroke-linejoin="round" d="M 24.7 75.6 C 22.2 76 19.2 76.2 16.1 75 C 9.2 72.2 4.6 65 1.7 68.4 C -1.2 71.8 3.6 84.4 16.5 84 C 21 83.9 24.7 82.5 27.5 81.4 C 28.3 81.1 34.6 78 35.6 73.9 C 36.6 69.8 34.7 69.5 33.8 69.4 C 32.9 69.1 28.2 75.1 24.7 75.6 Z "/>
    </g>
    <path id="ID0.46792364912107587_10_" fill="#FAA51F" stroke="#8E5322" stroke-width="1.3643" stroke-linecap="round" stroke-linejoin="round" d="M 50.6 62.9 C 48.7 69.3 47.5 79.2 36.7 76 C 25.9 72.8 29.4 64.5 31.3 58 C 33.2 51.5 37.4 50.9 43.5 52.7 C 49.6 54.6 52.5 56.5 50.6 62.9 Z "/>
    <path id="ID0.38032895559445024_10_" fill="#FFFFFF" d="M 49.6 65.1 C 48.4 69.1 47.5 70.5 41.4 68.6 C 39.7 68.1 40.1 67.4 41.2 63.4 C 42.3 59.4 44.8 58.8 48.4 59.9 C 51.9 60.9 50.8 61 49.6 65.1 Z " stroke-width="1"/>
    <g id="ID0.7584122605621815">
      <g id="Layer_2_21_">
        <path id="ID0.2591130444779992_10_" fill="#FAA51F" d="M 54.6 9.8 C 53.1 9.7 50 9.4 48.3 9.5 C 43.7 9.6 39.4 11.2 39.4 11.2 L 27 2.8 L 28.8 21.1 C 29.4 20.3 18.4 33.3 24.9 44.4 C 31.5 55.7 46 60.9 64.3 57.6 C 82.6 54.4 87.1 44 86 38.4 C 84.9 32.9 78.1 30.6 78.1 30.6 C 78.1 30.6 78.1 26.3 75.1 20.9 C 73.3 17.7 67.2 12.9 67.2 12.9 L 64.6 1.6 L 57.3 8.5 L 54.6 9.8 Z " stroke-width="1"/>
        <path id="ID0.3588979784399271_10_" fill="#FFFFFF" d="M 77.1 30.6 L 74.7 28.6 L 65.9 31 C 65.9 31 65.8 34.3 61.6 35.1 C 57.4 35.9 50.3 34.2 50.3 34.2 L 43.2 35.9 C 43.2 35.9 35.1 35.2 34.6 41.6 C 33.7 52.7 42.9 58.2 51.4 58.2 C 56.9 58.3 60.4 57.7 64.3 57.1 C 81.6 54.3 86.7 44 85.3 38.5 C 84.2 33 77.6 31.2 77.6 31.2 L 77.1 30.6 Z " stroke-width="1"/>
        <path id="ID0.2727069961838424_10_" fill="none" stroke="#8E5322" stroke-width="1.4" stroke-linecap="round" stroke-linejoin="round" d="M 82 36.1 C 82 36.1 86.5 36.3 88.8 36 C 91.5 35.6 93.6 34.4 93.6 34.4 "/>
        <path id="ID0.5861211125738919_10_" fill="none" stroke="#8E5322" stroke-width="1.4" stroke-linecap="round" stroke-linejoin="round" d="M 82.4 41.9 C 82.4 41.9 84.7 43.5 87.4 44.2 C 90 45 91.8 45.2 91.8 45.2 "/>
        <path id="ID0.4793355236761272_10_" fill="none" stroke="#8E5322" stroke-width="1.4" stroke-linecap="round" stroke-linejoin="round" d="M 37.1 9.7 L 42.2 13.4 "/>
        <path id="ID0.48413723474368453_10_" fill="none" stroke="#8E5322" stroke-width="1.4" stroke-linecap="round" stroke-linejoin="round" d="M 54.6 9.8 C 53.1 9.7 50 9.4 48.3 9.5 C 43.7 9.6 39.4 11.2 39.4 11.2 L 27 2.8 L 28.8 21.1 C 29.4 20.3 18.4 33.3 24.9 44.4 C 31.5 55.7 46 60.9 64.3 57.6 C 82.6 54.4 87.1 44 86 38.4 C 84.9 32.9 78.1 30.6 78.1 30.6 C 78.1 30.6 78.1 26.3 75.1 20.9 C 73.3 17.7 67.2 12.9 67.2 12.9 L 64.6 1.6 L 57.3 8.5 L 54.6 9.8 Z "/>
        <path id="ID0.9024141579866409_10_" fill="none" stroke="#8E5322" stroke-width="1.4" stroke-linecap="round" stroke-linejoin="round" d="M 13.5 42.4 C 13.5 42.4 17.5 42 19.2 41.5 C 20.9 41 24.3 39.9 24.3 39.9 "/>
        <path id="ID0.16030752705410123_10_" fill="none" stroke="#8E5322" stroke-width="1.4" stroke-linecap="round" stroke-linejoin="round" d="M 24.6 36.1 C 22.1 34.8 22.1 34.8 18.2 33.8 C 14 32.7 11.7 32.7 11.7 32.7 "/>
      </g>
      <g id="Layer_5_11_">
        <path id="ID0.40023312577977777_10_" fill="#FFFFFF" stroke="#8E5322" stroke-width="1.4" stroke-linecap="round" stroke-linejoin="round" d="M 72.8 21.1 C 75.5 25.5 75.5 30.5 72.8 32.1 C 70.1 33.8 65.6 31.7 62.9 27.2 C 60.2 22.8 60.2 17.8 62.9 16.2 C 65.7 14.5 70.1 16.7 72.8 21.1 Z "/>
        <path id="ID0.43813491938635707_10_" fill="#414142" d="M 72.7 24.7 C 73 25.7 72.5 26.7 71.5 27 C 70.6 27.3 69.6 26.7 69.3 25.6 C 69 24.6 69.5 23.6 70.5 23.3 C 71.5 23.1 72.4 23.7 72.7 24.7 " stroke-width="1"/>
      </g>
      <g id="Layer_7_11_">
        <path id="ID0.4253597157076001_10_" fill="#FFFFFF" stroke="#8E5322" stroke-width="1.4" stroke-linecap="round" stroke-linejoin="round" d="M 49.6 23.7 C 52.3 28.1 51.9 33.2 48.7 35.3 C 45.5 37.3 40.6 35.4 37.9 31 C 35.2 26.6 35.6 21.5 38.8 19.4 C 42 17.5 46.9 19.4 49.6 23.7 Z "/>
        <path id="ID0.814307457767427_10_" fill="#414142" d="M 49.2 27.6 C 49.2 28.6 48.4 29.5 47.5 29.5 C 46.5 29.5 45.8 28.7 45.8 27.6 C 45.8 26.6 46.6 25.7 47.5 25.7 C 48.4 25.7 49.2 26.5 49.2 27.6 " stroke-width="1"/>
      </g>
      <path id="ID0.5240494590252638_10_" fill="#5F4B43" stroke="#8E5322" stroke-width="1.4" stroke-linecap="round" stroke-linejoin="round" d="M 60.4 33.8 C 62.1 33.6 64.4 32.4 64.7 34.3 C 64.7 35.1 63 38.4 61.2 38.4 C 59.2 38.5 55.8 35.9 55.9 34.4 C 56 32.9 58.9 34 60.4 33.8 Z "/>
      <path id="ID0.046259244438260794_10_" fill="#FFFFFF" stroke="#8E5322" stroke-width="1.4" stroke-linecap="round" stroke-linejoin="round" d="M 51 49.1 C 51 49.1 53.5 51.4 58.9 50.5 "/>
    </g>
    <g id="ID0.15723733883351088_12_">
      <path id="ID0.527006761636585_12_" fill="#FAA51F" stroke="#8E5322" stroke-width="1.4" stroke-linecap="round" stroke-linejoin="round" d="M 37.7 76 C 37.7 76 43 77 44.1 77.8 C 41 80.2 39.4 77.5 41 81.9 C 41.7 83.9 43.4 88.5 45.8 88 C 53.6 85.8 44.5 83.5 53 77.8 C 55.2 76.1 58.2 72.1 50.3 69.8 C 49.9 69.7 43.1 68.6 42.7 68.5 "/>
      <path id="ID0.8937406223267317_17_" fill="#FAA51F" stroke="#8E5322" stroke-width="1.4" stroke-linecap="round" stroke-linejoin="round" d="M 51.4 79.3 C 50.4 79.8 49 81.2 47.8 82 "/>
      <path id="ID0.8937406223267317_16_" fill="#FAA51F" stroke="#8E5322" stroke-width="1.4" stroke-linecap="round" stroke-linejoin="round" d="M 46.9 77.4 C 46.4 77.6 44 77.2 42.7 77.2 "/>
    </g>
    <path id="ID0.1790580078959465_10_" fill="#FAA51F" stroke="#8E5322" stroke-width="1.4" stroke-linecap="round" stroke-linejoin="round" d="M 37.6 55.4 C 38.3 54.8 44.1 55.5 44.8 55 C 51.9 49.9 56.5 50.2 57.3 51.5 C 59 54.7 56.8 58.2 50.4 60.9 C 45.6 63 34.1 62.4 33.3 62.7 "/>
    <g id="ID0.7407716196030378_10_">
      <path id="ID0.8024068027734756_10_" fill="#FAA51F" stroke="#8E5322" stroke-width="1.4" stroke-linecap="round" stroke-linejoin="round" d="M 43.4 56 "/>
      <path id="ID0.06734407460317016_10_" fill="none" stroke="#8E5322" stroke-width="1.4" stroke-linecap="round" stroke-linejoin="round" d="M 40.2 54.4 "/>
    </g>
  </g>
</svg>