<svg version="1.1" xmlns="http://www.w3.org/2000/svg" xmlns:xlink="http://www.w3.org/1999/xlink" width="38.5" height="38.5" viewBox="0,0,38.5,38.5"><g transform="translate(-220.75,-160.75)"><g data-paper-data="{&quot;isPaintingLayer&quot;:true}" fill-rule="nonzero" stroke-linecap="butt" stroke-linejoin="miter" stroke-miterlimit="10" stroke-dasharray="" stroke-dashoffset="0" style="mix-blend-mode: normal"><g><path d="M221.5,180c0,-10.21726 8.28274,-18.5 18.5,-18.5c10.21726,0 18.5,8.28274 18.5,18.5c0,10.21726 -8.28274,18.5 -18.5,18.5c-10.21726,0 -18.5,-8.28274 -18.5,-18.5z" fill="#fafafa" stroke="#ffffff" stroke-width="1.5"/><path d="M228.01705,180c0,-6.61801 5.36495,-11.98296 11.98296,-11.98296c6.618,0 11.98296,5.36495 11.98296,11.98296c0,6.61801 -5.36495,11.98296 -11.98296,11.98296c-6.618,0 -11.98296,-5.36495 -11.98296,-11.98296z" fill="#ffffff" stroke="none" stroke-width="0"/><path d="M234.11364,180c0,-3.25095 2.63542,-5.88637 5.88637,-5.88637c3.25095,0 5.88637,2.63542 5.88637,5.88637c0,3.25095 -2.63542,5.88637 -5.88637,5.88637c-3.25095,0 -5.88637,-2.63542 -5.88637,-5.88637z" fill="#fafafa" stroke="#ffffff" stroke-width="0"/></g></g></g></svg>