<svg version="1.1" xmlns="http://www.w3.org/2000/svg" xmlns:xlink="http://www.w3.org/1999/xlink" width="728.1591" height="431.45139" viewBox="0,0,728.1591,431.45139"><defs><linearGradient x1="238.98552" y1="-16.00001" x2="238.98552" y2="354.00003" gradientUnits="userSpaceOnUse" id="color-1"><stop offset="0" stop-color="#2f175f"/><stop offset="1" stop-color="#232b75"/></linearGradient><linearGradient x1="18.78108" y1="-57.45134" x2="18.78108" y2="69.54864" gradientUnits="userSpaceOnUse" id="color-2"><stop offset="0" stop-color="#c9cac3"/><stop offset="1" stop-color="#fdffed"/></linearGradient><linearGradient x1="538.18881" y1="227.00004" x2="538.18881" y2="356.00004" gradientUnits="userSpaceOnUse" id="color-3"><stop offset="0" stop-color="#afffa3"/><stop offset="1" stop-color="#6bff4d"/></linearGradient><linearGradient x1="-59.81119" y1="222.00004" x2="-59.81119" y2="351.00004" gradientUnits="userSpaceOnUse" id="color-4"><stop offset="0" stop-color="#afffa3"/><stop offset="1" stop-color="#6bff4d"/></linearGradient><linearGradient x1="240.00002" y1="223.00004" x2="240.00002" y2="352.00004" gradientUnits="userSpaceOnUse" id="color-5"><stop offset="0" stop-color="#afffa3"/><stop offset="1" stop-color="#6bff4d"/></linearGradient><linearGradient x1="172.79905" y1="280.21477" x2="172.79905" y2="363.22051" gradientUnits="userSpaceOnUse" id="color-6"><stop offset="0" stop-color="#ffd7e0" stop-opacity="0"/><stop offset="1" stop-color="#ffd7e0"/></linearGradient><linearGradient x1="387.79906" y1="279.21477" x2="387.79906" y2="362.22051" gradientUnits="userSpaceOnUse" id="color-7"><stop offset="0" stop-color="#ffd7e0" stop-opacity="0"/><stop offset="1" stop-color="#ffd7e0"/></linearGradient><linearGradient x1="-30.20093" y1="278.21477" x2="-30.20093" y2="361.22051" gradientUnits="userSpaceOnUse" id="color-8"><stop offset="0" stop-color="#ffd7e0" stop-opacity="0"/><stop offset="1" stop-color="#ffd7e0"/></linearGradient><linearGradient x1="544.79907" y1="279.21477" x2="544.79907" y2="362.22051" gradientUnits="userSpaceOnUse" id="color-9"><stop offset="0" stop-color="#ffd7e0" stop-opacity="0"/><stop offset="1" stop-color="#ffd7e0"/></linearGradient></defs><g transform="translate(124.5,57.45135)"><g data-paper-data="{&quot;isPaintingLayer&quot;:true}" fill-rule="nonzero" stroke-linecap="butt" stroke-linejoin="miter" stroke-miterlimit="10" stroke-dasharray="" stroke-dashoffset="0" style="mix-blend-mode: normal"><path d="M-123.00724,354.00003l-1.49275,-364l727,1l-6,378z" fill="url(#color-1)" stroke="none" stroke-width="0"/><path d="M-44.71892,6.04866c0,-35.07008 28.42992,-63.5 63.5,-63.5c35.07008,0 63.5,28.42992 63.5,63.5c0,35.07008 -28.42992,63.5 -63.5,63.5c-35.07008,0 -63.5,-28.42992 -63.5,-63.5z" fill="url(#color-2)" stroke="none" stroke-width="0"/><path d="M479.31122,356.00004l-0.0612,-130.5c0,0 8.77948,76.7186 16.46459,76.91687c3.6221,0.09344 10.48516,-78.55207 17.64438,-82.90272c5.6665,-3.44353 20.17738,85.64191 26.89827,84.80869c4.94703,-0.61331 11.78396,-82.17645 16.47883,-86.02139c7.65526,-6.26939 13.14455,89.48653 19.04395,90.65322c12.15671,2.40416 21.46998,-81.95466 21.46998,-81.95466l-0.67324,147z" fill="url(#color-3)" stroke="none" stroke-width="0"/><path d="M-118.68878,351.00004l-0.0612,-130.5c0,0 8.77948,76.7186 16.46459,76.91687c3.6221,0.09344 10.48516,-78.55207 17.64438,-82.90272c5.6665,-3.44353 20.17737,85.64191 26.89828,84.80869c4.94704,-0.61331 11.78396,-82.17645 16.47883,-86.02139c7.65526,-6.26939 13.14455,89.48653 19.04395,90.65322c12.15672,2.40416 21.46998,-81.95466 21.46998,-81.95466l-0.67323,147z" fill="url(#color-4)" stroke="none" stroke-width="0"/><path d="M-0.49998,352.00004l-0.25,-130.5c0,0 35.86194,76.7186 67.25368,76.91687c14.79537,0.09344 42.82922,-78.55207 72.07281,-82.90272c23.14621,-3.44353 82.41945,85.64191 109.87261,84.80869c20.20738,-0.61331 48.13449,-82.17645 67.31183,-86.02139c31.2698,-6.26939 53.69215,89.48653 77.78968,90.65322c49.65708,2.40416 87.69939,-81.95466 87.69939,-81.95466l-2.75,147z" fill="url(#color-5)" stroke="none" stroke-width="0"/><path d="M-120.99998,374.00004l1.56592,-43l720.18408,1l2.10852,39z" fill="#825f53" stroke="none" stroke-width="0"/><g stroke="none" stroke-width="0"><path d="M141.13707,332.41426l33.37341,-57.33382v0l26.52761,57.33382z" fill="#ffa5ba"/><path d="M182.45008,332.19113l-12.3075,-49.40915l4.54763,-7.75734l3.67107,7.75734l10.26057,22.68062l12.51234,27.39307l-2.8196,-0.14737z" fill="url(#color-6)"/></g><g stroke="none" stroke-width="0"><path d="M356.13708,331.41426l33.37341,-57.33382v0l26.52761,57.33382z" fill="#ffa5ba"/><path d="M397.45009,331.19113l-12.3075,-49.40915l4.54763,-7.75734l3.67107,7.75734l10.26057,22.68063l12.51235,27.39306l-2.8196,-0.14738z" fill="url(#color-7)"/></g><path d="M-10.852,23.47647c16.507,-3.4503 34.2994,-1.48841 49.0474,6.8328c11.6361,6.8328 21.6485,16.77761 27.9401,28.81951c1.8943,3.4503 3.0443,7.1711 4.8709,10.6213c1.556,-0.2706 -19.8204,-12.54121 -18.1967,-12.94711c7.50744,-1.74589 1.74335,-3.37812 8.1262,-7.69888c12.98912,-8.79277 17.57495,-16.8845 34.2757,-20.52122c16.7953,-10.29068 48.73395,-4.15084 64.0737,8.20524c8.26146,6.65456 18.29951,34.32357 18.29951,34.32357c0,0 11.98181,-4.15514 18.95272,-2.6762c8.43656,1.7899 13.57947,2.09921 21.13748,6.2532c2.0295,1.2177 3.9914,2.4355 6.0886,3.5179c2.5031,-1.0824 4.871,-2.4355 7.2388,-3.7885c7.5769,-3.9914 16.0334,-6.2239 24.5575,-7.0358c8.7947,-0.3382 17.7247,-0.5412 26.2488,2.0296c4.6679,1.1501 8.9976,3.3149 13.5979,4.7356c2.7738,-2.5031 4.8033,-5.7504 7.7123,-8.0505c5.2768,-4.1944 11.9743,-6.6975 18.7395,-6.3593c7.577,-0.2706 15.3569,2.3002 20.769,7.71229c1.0825,0.8795 2.0296,2.2325 3.5179,2.5031c2.1649,-1.2177 3.5855,-3.2473 5.1415,-5.0739c8.0506,-9.7418 18.8748,-16.7776 30.3756,-21.7161c18.0629,-6.9005 38.3584,-7.3064 56.8273,-1.8266c4.7356,1.353 9.0653,3.92381 13.4626,6.02101c4.6003,2.2325 8.6594,5.2768 12.6509,8.3888c3.1796,2.4354 5.4798,5.7503 8.8623,7.9152c4.1944,-1.6236 8.0506,-4.1944 12.3803,-5.6151c5.6151,-1.8266 11.4331,-3.1796 17.3188,-3.5855c7.9829,-0.2706 16.101,-0.2706 23.9486,1.7589c3.2473,0.8118 6.4269,2.0972 9.7418,2.7737c2.9091,-3.7208 4.9386,-8.0505 8.1182,-11.5007c10.0801,-12.8538 42.28109,-22.3927 58.65279,-24.4899l-1,61.1275c-5.2092,0 -26.60069,-2.0677 -31.80989,-2.0677c-11.2978,0 -22.325,4.1268 -31.6609,10.3507c-4.7356,3.0443 -8.45639,7.374 -13.05679,10.689c-3.0443,-2.5032 -5.6827,-5.6151 -8.93,-7.9153c-7.7799,-5.818 -16.7099,-10.5536 -26.3164,-12.2449c-15.5599,-3.1796 -32.2698,-1.8266 -46.5443,5.2768c-5.0062,2.7061 -9.94481,5.7504 -13.7333,10.0801c-5.8856,-2.3678 -12.4478,-2.7061 -18.6041,-1.556c-8.7947,1.759 -16.1688,8.1858 -20.2278,16.0334c-2.1649,4.3297 -2.7061,9.2006 -2.7738,13.9363c-6.5622,-0.0677 -13.1244,0.6765 -19.4836,2.3678c-6.1563,1.4883 -11.7714,4.6679 -17.2512,7.7799c-3.7884,2.1648 -6.7651,5.4121 -10.6212,7.577c-3.8562,-2.9767 -7.4417,-6.35931 -11.7714,-8.7271c-11.9743,-7.374 -26.4518,-10.283 -40.4556,-8.9976c-10.1478,0.2029 -20.0926,3.3825 -28.8196,8.524c-1.4207,0.7442 -2.8414,1.6913 -4.3974,2.1649c-1.556,-0.0677 -2.7737,-1.0824 -4.0591,-1.6913c-8.7947,-5.2768 -18.8071,-8.4564 -29.0225,-8.93c-7.9829,-0.0676 -16.1687,-0.4736 -23.9486,1.7589c-5.0739,1.0148 -9.6742,3.5179 -14.6128,5.0739c-3.6531,-3.5855 -6.56221,-8.0505 -11.29781,-10.4183c-6.6975,-4.2621 -15.0186,-4.668 -22.6632,-3.315c-6.4269,1.2178 -12.042,4.871 -16.3717,9.6742c-3.1796,-1.6236 -4.9386,-4.8709 -7.374,-7.3064c-8.4565,-9.2006 -19.34839,-15.9657 -30.9845,-20.4307c-18.4688,-6.4269 -39.0349,-6.3593 -57.5038,-0.1353c-5.4121,2.3001 -10.6889,4.87091 -15.6275,8.05051c-5.9533,3.6532 -10.8919,8.6594 -16.2364,13.1244c-1.6236,-0.5412 -3.2472,-1.1501 -4.8032,-1.9619c-9.4036,-5.0738 -20.2278,-7.2387 -30.91681,-7.0357c-5.0739,-0.0677 -10.1477,0.2029 -15.0863,1.2853c-4.3297,0.7442 -8.3888,2.4355 -12.6508,3.5179c-2.4355,-2.909 -3.99149,-6.35919 -6.29159,-9.26819c-3.4502,-4.3974 -6.9681,-8.79481 -11.4331,-12.24501c-8.8624,-7.9152 -33.84251,-13.7861 -45.41101,-16.0863v-60.398c4.7357,-0.0677 23.22131,1.9323 27.95691,1.8647c12.2449,-0.1354 24.0839,4.5326 34.0964,11.2978c4.3297,2.8413 7.7122,6.8328 11.9743,9.7418c2.706,-2.2325 5.0062,-4.8709 7.7799,-7.0358c8.0505,-6.2916 17.3188,-11.2978 27.4665,-13.0567z" fill="#dcfafc" stroke="#93a8a9" stroke-width="0.065"/><g stroke="none" stroke-width="0"><path d="M-61.86292,330.41426l33.37341,-57.33382v0l26.52761,57.33382z" fill="#ffa5ba"/><path d="M-20.54994,330.19113l-12.3075,-49.40915l4.54763,-7.75734l3.67107,7.75734l10.26057,22.68062l12.51234,27.39307l-2.8196,-0.14737z" fill="url(#color-8)"/></g><g stroke="none" stroke-width="0"><path d="M513.13708,331.41426l33.37341,-57.33382v0l26.52761,57.33382z" fill="#ffa5ba"/><path d="M554.4501,331.19113l-12.3075,-49.40915l4.54763,-7.75734l3.67107,7.75734l10.26057,22.68062l12.51234,27.39307l-2.8196,-0.14737z" fill="url(#color-9)"/></g></g></g></svg>