<svg version="1.1" xmlns="http://www.w3.org/2000/svg" xmlns:xlink="http://www.w3.org/1999/xlink" width="18.16666" height="21.41666"><g transform="translate(-230.925,-169.11668)"><g data-paper-data="{&quot;isPaintingLayer&quot;:true}" fill="none" fill-rule="nonzero" stroke="none" stroke-width="none" stroke-linecap="butt" stroke-linejoin="miter" stroke-miterlimit="10" stroke-dasharray="" stroke-dashoffset="0" font-family="none" font-weight="none" font-size="none" text-anchor="none" style="mix-blend-mode: normal"><path d="M230.925,179.82501c0,-5.91405 4.06674,-10.70833 9.08333,-10.70833c5.01658,0 9.08333,4.79428 9.08333,10.70833c0,5.91405 -4.06674,10.70833 -9.08333,10.70833c-5.01658,0 -9.08333,-4.79428 -9.08333,-10.70833z" data-paper-data="{&quot;origPos&quot;:null}" fill="#ffd900" stroke-width="0"/><path d="M234.90946,178.87027c0,-4.18159 2.76369,-7.57143 6.17287,-7.57143c3.40918,0 6.17287,3.38984 6.17287,7.57143c0,4.18159 -2.76369,7.57143 -6.17287,7.57143c-3.40918,0 -6.17287,-3.38984 -6.17287,-7.57143z" data-paper-data="{&quot;origPos&quot;:null}" fill="#dfbe00" stroke-width="0"/><path d="M235.28102,179.56668c0,-4.14213 2.71499,-7.5 6.0641,-7.5c3.34911,0 6.0641,3.35787 6.0641,7.5c0,4.14213 -2.71499,7.5 -6.0641,7.5c-3.34911,0 -6.0641,-3.35787 -6.0641,-7.5z" data-paper-data="{&quot;origPos&quot;:null}" fill="#ffe44c" stroke-width="0"/><g data-paper-data="{&quot;origPos&quot;:null}" stroke-width="1" font-family="Sans Serif" font-weight="normal" font-size="40" text-anchor="start"><text transform="translate(238.86561,180.45452) scale(0.1349,0.16685)" font-size="40" xml:space="preserve" data-paper-data="{&quot;origPos&quot;:null}" fill="#dfbe00" fill-rule="nonzero" stroke="none" stroke-width="1" stroke-linecap="butt" stroke-linejoin="miter" stroke-miterlimit="10" stroke-dasharray="" stroke-dashoffset="0" font-family="Sans Serif" font-weight="normal" text-anchor="start" style="mix-blend-mode: normal"><tspan x="0" dy="0">★</tspan></text><text transform="translate(238.81749,180.1688) scale(0.1349,0.16685)" font-size="40" xml:space="preserve" data-paper-data="{&quot;origPos&quot;:null}" fill="#ffd900" fill-rule="nonzero" stroke="none" stroke-width="1" stroke-linecap="butt" stroke-linejoin="miter" stroke-miterlimit="10" stroke-dasharray="" stroke-dashoffset="0" font-family="Sans Serif" font-weight="normal" text-anchor="start" style="mix-blend-mode: normal"><tspan x="0" dy="0">★</tspan></text></g><path d="M232.23555,184.8074l5.9202,-15.32456c0,0 0.44027,-0.15679 0.72016,-0.2204c0.47403,-0.10774 0.73924,0.03891 1.205,-0.10029c0.94382,-0.06555 1.96011,0.39869 1.96011,0.39869l-6.89365,19.21558c0,0 -1.51882,-1.08836 -1.88372,-2.09209c0,0 -0.37499,-0.59126 -0.61251,-1.04623c-0.12666,-0.24263 -0.41559,-0.8307 -0.41559,-0.8307z" data-paper-data="{&quot;origRot&quot;:0,&quot;origPos&quot;:null}" fill="#ffee8b" stroke-width="0"/></g></g></svg>