<svg version="1.1" xmlns="http://www.w3.org/2000/svg" xmlns:xlink="http://www.w3.org/1999/xlink" width="771.23578" height="413.94095" viewBox="0,0,771.23578,413.94095"><defs><linearGradient x1="239.04544" y1="-21.77682" x2="239.04544" y2="359.12849" gradientUnits="userSpaceOnUse" id="color-1"><stop offset="0" stop-color="#82d6ff"/><stop offset="1" stop-color="#fffac9"/></linearGradient><linearGradient x1="567.55684" y1="226.14952" x2="567.55684" y2="358.95164" gradientUnits="userSpaceOnUse" id="color-2"><stop offset="0" stop-color="#cbdb80"/><stop offset="1" stop-color="#d2d5a0"/></linearGradient><linearGradient x1="568.53162" y1="230.26742" x2="568.53162" y2="363.06953" gradientUnits="userSpaceOnUse" id="color-3"><stop offset="0" stop-color="#fdfff2"/><stop offset="1" stop-color="#f6ffb4"/></linearGradient><linearGradient x1="-61.32539" y1="217.14952" x2="-61.32539" y2="349.95164" gradientUnits="userSpaceOnUse" id="color-4"><stop offset="0" stop-color="#cbdb80"/><stop offset="1" stop-color="#d2d5a0"/></linearGradient><linearGradient x1="-60.58615" y1="221.26742" x2="-60.58615" y2="354.06953" gradientUnits="userSpaceOnUse" id="color-5"><stop offset="0" stop-color="#fdfff2"/><stop offset="1" stop-color="#f6ffb4"/></linearGradient><linearGradient x1="240.00002" y1="220.14952" x2="240.00002" y2="352.95164" gradientUnits="userSpaceOnUse" id="color-6"><stop offset="0" stop-color="#cbdb80"/><stop offset="1" stop-color="#d2d5a0"/></linearGradient><linearGradient x1="243.08844" y1="224.26742" x2="243.08844" y2="357.06953" gradientUnits="userSpaceOnUse" id="color-7"><stop offset="0" stop-color="#fdfff2"/><stop offset="1" stop-color="#f6ffb4"/></linearGradient><linearGradient x1="244.1741" y1="345.74534" x2="244.1741" y2="376.62954" gradientUnits="userSpaceOnUse" id="color-8"><stop offset="0" stop-color="#d9b477"/><stop offset="1" stop-color="#c27858"/></linearGradient><linearGradient x1="172.79905" y1="280.21479" x2="172.79905" y2="363.22054" gradientUnits="userSpaceOnUse" id="color-9"><stop offset="0" stop-color="#ffd7e0" stop-opacity="0"/><stop offset="1" stop-color="#ffd7e0"/></linearGradient><linearGradient x1="387.79905" y1="280.94656" x2="387.79905" y2="363.95228" gradientUnits="userSpaceOnUse" id="color-10"><stop offset="0" stop-color="#ffd7e0" stop-opacity="0"/><stop offset="1" stop-color="#ffd7e0"/></linearGradient><linearGradient x1="40.42802" y1="-32.3409" x2="40.42802" y2="111.97666" gradientUnits="userSpaceOnUse" id="color-11"><stop offset="0" stop-color="#ceb484"/><stop offset="1" stop-color="#eadb46"/></linearGradient><linearGradient x1="-35.20096" y1="278.21479" x2="-35.20096" y2="361.22054" gradientUnits="userSpaceOnUse" id="color-12"><stop offset="0" stop-color="#ffd7e0" stop-opacity="0"/><stop offset="1" stop-color="#ffd7e0"/></linearGradient><linearGradient x1="513.79905" y1="282.21479" x2="513.79905" y2="365.22054" gradientUnits="userSpaceOnUse" id="color-13"><stop offset="0" stop-color="#ffd7e0" stop-opacity="0"/><stop offset="1" stop-color="#ffd7e0"/></linearGradient></defs><g transform="translate(124.55892,32.34092)"><g data-paper-data="{&quot;isPaintingLayer&quot;:true}" fill-rule="nonzero" stroke="none" stroke-width="0" stroke-linecap="butt" stroke-linejoin="miter" stroke-miterlimit="10" stroke-dasharray="" stroke-dashoffset="0" style="mix-blend-mode: normal"><path d="M-123.06569,359.12849l-1.49323,-374.72842l721.23579,1.02947v389.14105z" fill="url(#color-1)"/><g><path d="M489.4116,358.95164l1.94957,-135.89053c0,0 9.62175,80.52399 19.82181,80.7281c4.80743,0.09619 13.91642,-80.86729 23.41849,-85.34617c7.52085,-3.54502 26.7804,88.16609 35.70071,87.30831c6.56595,-0.63139 15.64026,-84.59849 21.87152,-88.55676c10.16044,-6.45417 17.4461,92.12403 25.27606,93.3251c16.13499,2.47502 28.25231,-84.37017 28.25231,-84.37017l-0.64986,151.33263z" fill="url(#color-2)"/><path d="M490.38639,363.06953l1.94957,-135.89053c0,0 9.62176,80.52399 19.82182,80.7281c4.80743,0.09619 13.91642,-80.86729 23.41849,-85.34617c7.52085,-3.54502 26.7804,88.16609 35.70071,87.30831c6.56595,-0.63139 15.64026,-84.59849 21.87152,-88.55676c10.16044,-6.45417 17.4461,92.12403 25.27606,93.3251c16.13499,2.47502 28.25231,-84.37017 28.25231,-84.37017l-0.64986,151.33263z" fill="url(#color-3)"/></g><g><path d="M-120.5884,349.95164l1.4785,-135.89053c0,0 7.29685,80.52399 15.03227,80.7281c3.64581,0.09619 10.5538,-80.86729 17.75988,-85.34617c5.70359,-3.54502 20.30945,88.16609 27.07435,87.30831c4.97942,-0.63139 11.8611,-84.59849 16.5867,-88.55676c7.70537,-6.45417 13.2306,92.12403 19.16861,93.3251c12.23629,2.47502 21.42571,-84.37017 21.42571,-84.37017l-0.49283,151.33263z" fill="url(#color-4)"/><path d="M-119.84915,354.06953l1.4785,-135.89053c0,0 7.29685,80.52399 15.03227,80.7281c3.64581,0.09619 10.5538,-80.86729 17.75988,-85.34617c5.70359,-3.54502 20.30945,88.16609 27.07435,87.30831c4.97942,-0.63139 11.8611,-84.59849 16.5867,-88.55676c7.70537,-6.45417 13.2306,92.12403 19.16861,93.3251c12.23629,2.47502 21.42571,-84.37017 21.42571,-84.37017l-0.49283,151.33263z" fill="url(#color-5)"/></g><g><path d="M-7.5884,352.95164l6.17684,-135.89053c0,0 30.48471,80.52399 62.80168,80.7281c15.23144,0.09619 44.09155,-80.86729 74.19706,-85.34617c23.82841,-3.54502 84.84865,88.16609 113.11096,87.30831c20.80297,-0.63139 49.55319,-84.59849 69.29576,-88.55676c32.19144,-6.45417 55.27466,92.12403 80.08243,93.3251c51.12066,2.47502 89.51211,-84.37017 89.51211,-84.37017l-2.05895,151.33263z" fill="url(#color-6)"/><path d="M-4.49998,357.06953l6.17684,-135.89053c0,0 30.48471,80.52399 62.80168,80.7281c15.23144,0.09619 44.09155,-80.86729 74.19706,-85.34617c23.82841,-3.54502 84.84865,88.16609 113.11096,87.30831c20.80297,-0.63139 49.55319,-84.59849 69.29576,-88.55676c32.19144,-6.45417 55.27466,92.12403 80.08243,93.3251c51.12066,2.47502 89.51211,-84.37017 89.51211,-84.37017l-2.05895,151.33263z" fill="url(#color-7)"/></g><path d="M-121.76525,369.42322l1.47441,-38.91368l723.05611,2.94105l-2.93928,42.14947z" fill="url(#color-8)"/><g><path d="M141.13706,332.41427l33.37341,-57.33382v0l26.52761,57.33382z" fill="#ffa5ba"/><path d="M182.45008,332.19115l-12.3075,-49.40915l4.54763,-7.75734l3.67107,7.75734l10.26057,22.68062l12.51234,27.39307l-2.8196,-0.14737z" fill="url(#color-9)"/></g><g><path d="M356.13707,333.14601l33.37341,-57.33382v0l26.52761,57.33382z" fill="#ffa5ba"/><path d="M397.45008,332.92292l-12.3075,-49.40915l4.54763,-7.75734l3.67107,7.75734l10.26057,22.68063l12.51235,27.39306l-2.8196,-0.14738z" fill="url(#color-10)"/></g><path d="M-31.73076,39.81786c0,-39.85219 32.30659,-72.15878 72.15878,-72.15878c39.85219,0 72.15878,32.30659 72.15878,72.15878c0,39.85219 -32.30659,72.15878 -72.15878,72.15878c-39.85219,0 -72.15878,-32.30659 -72.15878,-72.15878z" fill="url(#color-11)"/><g><path d="M-66.86295,330.41427l33.37341,-57.33382v0l26.52761,57.33382z" fill="#ffa5ba"/><path d="M-25.54993,330.19115l-12.3075,-49.40915l4.54763,-7.75734l3.67107,7.75734l10.26057,22.68062l12.51234,27.39307l-2.8196,-0.14737z" fill="url(#color-12)"/></g><g><path d="M482.13706,334.41427l33.37341,-57.33382v0l26.52761,57.33382z" fill="#ffa5ba"/><path d="M523.45008,334.19115l-12.3075,-49.40915l4.54763,-7.75734l3.67107,7.75734l10.26057,22.68062l12.51234,27.39307l-2.8196,-0.14737z" fill="url(#color-13)"/></g></g></g></svg>