<svg version="1.1" xmlns="http://www.w3.org/2000/svg" xmlns:xlink="http://www.w3.org/1999/xlink" width="21.16666" height="21.41666"><g transform="translate(-229.425,-169.1167)"><g data-paper-data="{&quot;isPaintingLayer&quot;:true}" fill="none" fill-rule="nonzero" stroke="none" stroke-width="none" stroke-linecap="butt" stroke-linejoin="miter" stroke-miterlimit="10" stroke-dasharray="" stroke-dashoffset="0" font-family="none" font-weight="none" font-size="none" text-anchor="none" style="mix-blend-mode: normal"><path d="M240.00833,190.53336c-5.84501,0 -10.58333,-4.79428 -10.58333,-10.70833c0,-5.91405 4.73832,-10.70833 10.58333,-10.70833c5.84501,0 10.58333,4.79428 10.58333,10.70833c0,5.91405 -4.73832,10.70833 -10.58333,10.70833z" data-paper-data="{&quot;origPos&quot;:null,&quot;index&quot;:null}" fill="#ffd900" stroke-width="0"/><path d="M239.91534,186.4417c-3.98726,0 -7.21958,-3.38984 -7.21958,-7.57143c0,-4.18159 3.23231,-7.57143 7.21958,-7.57143c3.98727,0 7.21959,3.38984 7.21959,7.57143c0,4.18159 -3.23232,7.57143 -7.21959,7.57143z" data-paper-data="{&quot;origPos&quot;:null,&quot;index&quot;:null}" fill="#dfbe00" stroke-width="0"/><path d="M239.60801,187.0667c-3.917,0 -7.09237,-3.35787 -7.09237,-7.5c0,-4.14213 3.17537,-7.5 7.09237,-7.5c3.917,0 7.09237,3.35787 7.09237,7.5c0,4.14213 -3.17537,7.5 -7.09237,7.5z" data-paper-data="{&quot;origPos&quot;:null,&quot;index&quot;:null}" fill="#ffe44c" stroke-width="0"/><g data-paper-data="{&quot;origPos&quot;:null,&quot;index&quot;:null}" stroke-width="1" font-family="Sans Serif" font-weight="normal" font-size="40" text-anchor="start"><text transform="translate(242.50794,180.45452) rotate(-180) scale(0.15778,-0.16685)" font-size="40" xml:space="preserve" data-paper-data="{&quot;origPos&quot;:null}" fill="#dfbe00" fill-rule="nonzero" stroke="none" stroke-width="1" stroke-linecap="butt" stroke-linejoin="miter" stroke-miterlimit="10" stroke-dasharray="" stroke-dashoffset="0" font-family="Sans Serif" font-weight="normal" text-anchor="start" style="mix-blend-mode: normal"><tspan x="0" dy="0">★</tspan></text><text transform="translate(242.56423,180.1688) rotate(-180) scale(0.15778,-0.16685)" font-size="40" xml:space="preserve" data-paper-data="{&quot;origPos&quot;:null}" fill="#ffd900" fill-rule="nonzero" stroke="none" stroke-width="1" stroke-linecap="butt" stroke-linejoin="miter" stroke-miterlimit="10" stroke-dasharray="" stroke-dashoffset="0" font-family="Sans Serif" font-weight="normal" text-anchor="start" style="mix-blend-mode: normal"><tspan x="0" dy="0">★</tspan></text></g></g></g></svg>